%TF.GenerationSoftware,KiCad,Pcbnew,9.0.7+1*%
%TF.CreationDate,2026-05-04T07:01:00+00:00*%
%TF.ProjectId,Nano-Board-rev-2,4e616e6f-2d42-46f6-9172-642d7265762d,rev?*%
%TF.SameCoordinates,Original*%
%TF.FileFunction,Copper,L2,Bot*%
%TF.FilePolarity,Positive*%
%FSLAX46Y46*%
G04 Gerber Fmt 4.6, Leading zero omitted, Abs format (unit mm)*
G04 Created by KiCad (PCBNEW 9.0.7+1) date 2026-05-04 07:01:00*
%MOMM*%
%LPD*%
G01*
G04 APERTURE LIST*
G04 Aperture macros list*
%AMRoundRect*
0 Rectangle with rounded corners*
0 $1 Rounding radius*
0 $2 $3 $4 $5 $6 $7 $8 $9 X,Y pos of 4 corners*
0 Add a 4 corners polygon primitive as box body*
4,1,4,$2,$3,$4,$5,$6,$7,$8,$9,$2,$3,0*
0 Add four circle primitives for the rounded corners*
1,1,$1+$1,$2,$3*
1,1,$1+$1,$4,$5*
1,1,$1+$1,$6,$7*
1,1,$1+$1,$8,$9*
0 Add four rect primitives between the rounded corners*
20,1,$1+$1,$2,$3,$4,$5,0*
20,1,$1+$1,$4,$5,$6,$7,0*
20,1,$1+$1,$6,$7,$8,$9,0*
20,1,$1+$1,$8,$9,$2,$3,0*%
%AMRotRect*
0 Rectangle, with rotation*
0 The origin of the aperture is its center*
0 $1 length*
0 $2 width*
0 $3 Rotation angle, in degrees counterclockwise*
0 Add horizontal line*
21,1,$1,$2,0,0,$3*%
G04 Aperture macros list end*
%TA.AperFunction,ComponentPad*%
%ADD10RotRect,1.700000X1.700000X315.000000*%
%TD*%
%TA.AperFunction,ComponentPad*%
%ADD11C,1.700000*%
%TD*%
%TA.AperFunction,SMDPad,CuDef*%
%ADD12RoundRect,0.140000X-0.170000X0.140000X-0.170000X-0.140000X0.170000X-0.140000X0.170000X0.140000X0*%
%TD*%
%TA.AperFunction,SMDPad,CuDef*%
%ADD13RoundRect,0.140000X0.219203X0.021213X0.021213X0.219203X-0.219203X-0.021213X-0.021213X-0.219203X0*%
%TD*%
%TA.AperFunction,SMDPad,CuDef*%
%ADD14RoundRect,0.140000X0.140000X0.170000X-0.140000X0.170000X-0.140000X-0.170000X0.140000X-0.170000X0*%
%TD*%
%TA.AperFunction,SMDPad,CuDef*%
%ADD15RoundRect,0.140000X0.170000X-0.140000X0.170000X0.140000X-0.170000X0.140000X-0.170000X-0.140000X0*%
%TD*%
%TA.AperFunction,SMDPad,CuDef*%
%ADD16RoundRect,0.250000X0.750000X-2.000000X0.750000X2.000000X-0.750000X2.000000X-0.750000X-2.000000X0*%
%TD*%
%TA.AperFunction,SMDPad,CuDef*%
%ADD17RoundRect,0.135000X-0.035355X0.226274X-0.226274X0.035355X0.035355X-0.226274X0.226274X-0.035355X0*%
%TD*%
%TA.AperFunction,SMDPad,CuDef*%
%ADD18R,0.230000X0.470000*%
%TD*%
%TA.AperFunction,SMDPad,CuDef*%
%ADD19RoundRect,0.075000X0.662500X0.075000X-0.662500X0.075000X-0.662500X-0.075000X0.662500X-0.075000X0*%
%TD*%
%TA.AperFunction,SMDPad,CuDef*%
%ADD20RoundRect,0.075000X0.075000X0.662500X-0.075000X0.662500X-0.075000X-0.662500X0.075000X-0.662500X0*%
%TD*%
%TA.AperFunction,SMDPad,CuDef*%
%ADD21RoundRect,0.135000X0.035355X-0.226274X0.226274X-0.035355X-0.035355X0.226274X-0.226274X0.035355X0*%
%TD*%
%TA.AperFunction,SMDPad,CuDef*%
%ADD22RoundRect,0.140000X-0.021213X0.219203X-0.219203X0.021213X0.021213X-0.219203X0.219203X-0.021213X0*%
%TD*%
%TA.AperFunction,SMDPad,CuDef*%
%ADD23RoundRect,0.140000X-0.140000X-0.170000X0.140000X-0.170000X0.140000X0.170000X-0.140000X0.170000X0*%
%TD*%
%TA.AperFunction,SMDPad,CuDef*%
%ADD24R,1.899920X1.070100*%
%TD*%
%TA.AperFunction,ViaPad*%
%ADD25C,0.600000*%
%TD*%
%TA.AperFunction,ViaPad*%
%ADD26C,0.500000*%
%TD*%
%TA.AperFunction,Conductor*%
%ADD27C,0.165000*%
%TD*%
%TA.AperFunction,Conductor*%
%ADD28C,0.200000*%
%TD*%
%TA.AperFunction,Conductor*%
%ADD29C,0.250000*%
%TD*%
G04 APERTURE END LIST*
D10*
%TO.P,J1,1,Pin_1*%
%TO.N,+5V*%
X82261561Y-97813794D03*
D11*
%TO.P,J1,2,Pin_2*%
%TO.N,GND*%
X80465510Y-99609845D03*
%TD*%
D12*
%TO.P,C2,1*%
%TO.N,+3V3*%
X89490692Y-118760836D03*
%TO.P,C2,2*%
%TO.N,GND*%
X89490692Y-119720836D03*
%TD*%
D13*
%TO.P,C21,1*%
%TO.N,Net-(C21-Pad1)*%
X83800365Y-124896669D03*
%TO.P,C21,2*%
%TO.N,Net-(C21-Pad2)*%
X83121543Y-124217847D03*
%TD*%
D14*
%TO.P,C4,1*%
%TO.N,+3V3*%
X98340692Y-116450836D03*
%TO.P,C4,2*%
%TO.N,GND*%
X97380692Y-116450836D03*
%TD*%
D15*
%TO.P,C3,1*%
%TO.N,+3V3*%
X101206000Y-119163336D03*
%TO.P,C3,2*%
%TO.N,GND*%
X101206000Y-118203336D03*
%TD*%
D16*
%TO.P,Y1,1,1*%
%TO.N,OSC_OUT*%
X109989308Y-117999164D03*
%TO.P,Y1,2,2*%
%TO.N,OSC_IN*%
X109989308Y-109499164D03*
%TD*%
D15*
%TO.P,C17,1*%
%TO.N,+3V3*%
X101231000Y-123658336D03*
%TO.P,C17,2*%
%TO.N,GND*%
X101231000Y-122698336D03*
%TD*%
D17*
%TO.P,R3,1*%
%TO.N,+3V3*%
X108980932Y-123836876D03*
%TO.P,R3,2*%
%TO.N,Net-(C15-Pad1)*%
X108259684Y-124558124D03*
%TD*%
D18*
%TO.P,U3,1,LEDK*%
%TO.N,GND1*%
X176476000Y-120965500D03*
%TO.P,U3,2,LEDK*%
X176876000Y-120965500D03*
%TO.P,U3,3,GND*%
X177276000Y-120965500D03*
%TO.P,U3,4,GND*%
X177676000Y-120965500D03*
%TO.P,U3,5,WR*%
%TO.N,LCD_DCX*%
X178076000Y-120965500D03*
%TO.P,U3,6,SDA*%
%TO.N,LCD_MOSI*%
X178476000Y-120965500D03*
%TO.P,U3,7,SDO*%
%TO.N,LCD_MISO*%
X178876000Y-120965500D03*
%TO.P,U3,8,DC*%
%TO.N,LCD_SCL*%
X179276000Y-120965500D03*
%TO.P,U3,9,CS*%
%TO.N,LCD_CSX*%
X179676000Y-120965500D03*
%TO.P,U3,10,RESET*%
%TO.N,LCD_RST*%
X180076000Y-120965500D03*
%TO.P,U3,11,VDDIO*%
%TO.N,+3.3V*%
X180476000Y-120965500D03*
%TO.P,U3,12,VDDIO*%
X180876000Y-120965500D03*
%TO.P,U3,13,VDD*%
X180876000Y-123155500D03*
%TO.P,U3,14,VDD*%
X180476000Y-123155500D03*
%TO.P,U3,15,GND*%
%TO.N,GND1*%
X180076000Y-123155500D03*
%TO.P,U3,16,GND*%
X179676000Y-123155500D03*
%TO.P,U3,17,TP_VDD*%
%TO.N,+3.3V*%
X179276000Y-123155500D03*
%TO.P,U3,18,TP_RST*%
%TO.N,TP_RST*%
X178876000Y-123155500D03*
%TO.P,U3,19,TP_SDA*%
%TO.N,TP_SDA*%
X178476000Y-123155500D03*
%TO.P,U3,20,TP_SCL*%
%TO.N,TP_SCL*%
X178076000Y-123155500D03*
%TO.P,U3,21,TP_INT*%
%TO.N,TP_IN*%
X177676000Y-123155500D03*
%TO.P,U3,22,NC*%
%TO.N,unconnected-(U3-NC-Pad22)*%
X177276000Y-123155500D03*
%TO.P,U3,23,LEDA*%
%TO.N,Net-(D5-K)*%
X176876000Y-123155500D03*
%TO.P,U3,24,LEDA*%
X176476000Y-123155500D03*
%TD*%
D19*
%TO.P,U1,1,VBAT*%
%TO.N,+3V3*%
X99452500Y-119380000D03*
%TO.P,U1,2,PC13*%
%TO.N,PC13*%
X99452500Y-119880000D03*
%TO.P,U1,3,PC14*%
%TO.N,unconnected-(U1-PC14-Pad3)*%
X99452500Y-120380000D03*
%TO.P,U1,4,PC15*%
%TO.N,unconnected-(U1-PC15-Pad4)*%
X99452500Y-120880000D03*
%TO.P,U1,5,PF0*%
%TO.N,OSC_IN*%
X99452500Y-121380000D03*
%TO.P,U1,6,PF1*%
%TO.N,OSC_OUT*%
X99452500Y-121880000D03*
%TO.P,U1,7,NRST*%
%TO.N,RESET*%
X99452500Y-122380000D03*
%TO.P,U1,8,VSSA*%
%TO.N,GND*%
X99452500Y-122880000D03*
%TO.P,U1,9,VDDA*%
%TO.N,+3V3*%
X99452500Y-123380000D03*
%TO.P,U1,10,PA0*%
%TO.N,USER_BTN*%
X99452500Y-123880000D03*
%TO.P,U1,11,PA1*%
%TO.N,LED_1*%
X99452500Y-124380000D03*
%TO.P,U1,12,PA2*%
%TO.N,LED_2*%
X99452500Y-124880000D03*
D20*
%TO.P,U1,13,PA3*%
%TO.N,LED_3*%
X98040000Y-126292500D03*
%TO.P,U1,14,PA4*%
%TO.N,PA4*%
X97540000Y-126292500D03*
%TO.P,U1,15,PA5*%
%TO.N,PA5*%
X97040000Y-126292500D03*
%TO.P,U1,16,PA6*%
%TO.N,PA6*%
X96540000Y-126292500D03*
%TO.P,U1,17,PA7*%
%TO.N,PA7*%
X96040000Y-126292500D03*
%TO.P,U1,18,PB0*%
%TO.N,PB0*%
X95540000Y-126292500D03*
%TO.P,U1,19,PB1*%
%TO.N,PB1*%
X95040000Y-126292500D03*
%TO.P,U1,20,PB2*%
%TO.N,Net-(U1-PB2)*%
X94540000Y-126292500D03*
%TO.P,U1,21,PB10*%
%TO.N,PB10*%
X94040000Y-126292500D03*
%TO.P,U1,22,PB11*%
%TO.N,PB11*%
X93540000Y-126292500D03*
%TO.P,U1,23,VSS*%
%TO.N,GND*%
X93040000Y-126292500D03*
%TO.P,U1,24,VDD*%
%TO.N,+3V3*%
X92540000Y-126292500D03*
D19*
%TO.P,U1,25,PB12*%
%TO.N,PB12*%
X91127500Y-124880000D03*
%TO.P,U1,26,PB13*%
%TO.N,PB13*%
X91127500Y-124380000D03*
%TO.P,U1,27,PB14*%
%TO.N,PB14*%
X91127500Y-123880000D03*
%TO.P,U1,28,PB15*%
%TO.N,PB15*%
X91127500Y-123380000D03*
%TO.P,U1,29,PA8*%
%TO.N,MPU_INT*%
X91127500Y-122880000D03*
%TO.P,U1,30,PA9*%
%TO.N,USART1_TX*%
X91127500Y-122380000D03*
%TO.P,U1,31,PA10*%
%TO.N,USART1_RX*%
X91127500Y-121880000D03*
%TO.P,U1,32,PA11*%
%TO.N,USB_DM*%
X91127500Y-121380000D03*
%TO.P,U1,33,PA12*%
%TO.N,USB_DP*%
X91127500Y-120880000D03*
%TO.P,U1,34,PA13*%
%TO.N,SWDIO*%
X91127500Y-120380000D03*
%TO.P,U1,35,VSS*%
%TO.N,GND*%
X91127500Y-119880000D03*
%TO.P,U1,36,VDD*%
%TO.N,+3V3*%
X91127500Y-119380000D03*
D20*
%TO.P,U1,37,PA14*%
%TO.N,SWCLK*%
X92540000Y-117967500D03*
%TO.P,U1,38,PA15*%
%TO.N,PA15*%
X93040000Y-117967500D03*
%TO.P,U1,39,PB3*%
%TO.N,SWO*%
X93540000Y-117967500D03*
%TO.P,U1,40,PB4*%
%TO.N,PB4*%
X94040000Y-117967500D03*
%TO.P,U1,41,PB5*%
%TO.N,PB5*%
X94540000Y-117967500D03*
%TO.P,U1,42,PB6*%
%TO.N,I2C1_SCL*%
X95040000Y-117967500D03*
%TO.P,U1,43,PB7*%
%TO.N,I2C1_SDA*%
X95540000Y-117967500D03*
%TO.P,U1,44,BOOT0*%
%TO.N,BOOT0*%
X96040000Y-117967500D03*
%TO.P,U1,45,PB8*%
%TO.N,PB8*%
X96540000Y-117967500D03*
%TO.P,U1,46,PB9*%
%TO.N,PB9*%
X97040000Y-117967500D03*
%TO.P,U1,47,VSS*%
%TO.N,GND*%
X97540000Y-117967500D03*
%TO.P,U1,48,VDD*%
%TO.N,+3V3*%
X98040000Y-117967500D03*
%TD*%
D15*
%TO.P,C9,1*%
%TO.N,+3V3*%
X102331000Y-123658336D03*
%TO.P,C9,2*%
%TO.N,GND*%
X102331000Y-122698336D03*
%TD*%
D21*
%TO.P,R12,1*%
%TO.N,+3V3*%
X82738752Y-126681248D03*
%TO.P,R12,2*%
%TO.N,Net-(C21-Pad1)*%
X83460000Y-125960000D03*
%TD*%
D12*
%TO.P,C5,1*%
%TO.N,GND*%
X106009308Y-112279164D03*
%TO.P,C5,2*%
%TO.N,OSC_IN*%
X106009308Y-113239164D03*
%TD*%
D22*
%TO.P,C15,1*%
%TO.N,Net-(C15-Pad1)*%
X107484719Y-125308089D03*
%TO.P,C15,2*%
%TO.N,Net-(BOOT1-Pad1)*%
X106805897Y-125986911D03*
%TD*%
D23*
%TO.P,C1,1*%
%TO.N,+3V3*%
X92390000Y-128060000D03*
%TO.P,C1,2*%
%TO.N,GND*%
X93350000Y-128060000D03*
%TD*%
D15*
%TO.P,C6,1*%
%TO.N,GND*%
X106029308Y-115369164D03*
%TO.P,C6,2*%
%TO.N,OSC_OUT*%
X106029308Y-114409164D03*
%TD*%
D17*
%TO.P,R8,1*%
%TO.N,GND*%
X109105932Y-125761876D03*
%TO.P,R8,2*%
%TO.N,Net-(BOOT1-Pad1)*%
X108384684Y-126483124D03*
%TD*%
D21*
%TO.P,R13,1*%
%TO.N,GND*%
X81328752Y-125301248D03*
%TO.P,R13,2*%
%TO.N,Net-(C21-Pad2)*%
X82050000Y-124580000D03*
%TD*%
D24*
%TO.P,U6,1,BRIDGE_UART_RX*%
%TO.N,unconnected-(U6A-BRIDGE_UART_RX-Pad1)*%
X103120550Y-93110000D03*
%TO.P,U6,2,BRIDGE_UART_CTS*%
%TO.N,unconnected-(U6A-BRIDGE_UART_CTS-Pad2)*%
X103120550Y-94380000D03*
%TO.P,U6,3,BRIDGE_UART_RTS*%
%TO.N,unconnected-(U6A-BRIDGE_UART_RTS-Pad3)*%
X103120550Y-95650000D03*
%TO.P,U6,4,T_JTMS/T_SWDIO*%
%TO.N,SWDIO*%
X103120550Y-96920000D03*
%TO.P,U6,5,GNDDETECT*%
%TO.N,GND*%
X103120550Y-98190000D03*
%TO.P,U6,6,T_JTDO/T_SWO*%
%TO.N,SWO*%
X103120550Y-99460000D03*
%TO.P,U6,7,BRIDGE_SPI_CLK*%
%TO.N,unconnected-(U6A-BRIDGE_SPI_CLK-Pad7)*%
X103120550Y-100730000D03*
%TO.P,U6,8,GND_2*%
%TO.N,GND*%
X103120550Y-102000000D03*
%TO.P,U6,9,BRIDGE_CAN_RX*%
%TO.N,unconnected-(U6A-BRIDGE_CAN_RX-Pad9)*%
X103120550Y-103270000D03*
%TO.P,U6,10,BRIDGE_CAN_TX*%
%TO.N,unconnected-(U6A-BRIDGE_CAN_TX-Pad10)*%
X103120550Y-104540000D03*
%TO.P,U6,11,BRIDGE_UART_TX*%
%TO.N,unconnected-(U6A-BRIDGE_UART_TX-Pad11)*%
X103120550Y-105810000D03*
%TO.P,U6,12,T_VCP_TX*%
%TO.N,USART1_TX*%
X103120550Y-107080000D03*
%TO.P,U6,13,T_JCLK/T_SWCLK*%
%TO.N,SWCLK*%
X103120550Y-108350000D03*
%TO.P,U6,14,BRIDGE_SPI_NSS*%
%TO.N,unconnected-(U6A-BRIDGE_SPI_NSS-Pad14)*%
X103120550Y-109620000D03*
%TO.P,U6,15,T_VCP_RX*%
%TO.N,USART1_RX*%
X103120550Y-110890000D03*
%TO.P,U6,16,BRIDGE_I2C_SCL*%
%TO.N,unconnected-(U6A-BRIDGE_I2C_SCL-Pad16)*%
X103120550Y-112160000D03*
%TO.P,U6,17,BRIDGE_I2C_SDA*%
%TO.N,unconnected-(U6A-BRIDGE_I2C_SDA-Pad17)*%
X88480490Y-112160000D03*
%TO.P,U6,18,BRIDGE_GPIO0*%
%TO.N,unconnected-(U6A-BRIDGE_GPIO0-Pad18)*%
X88480490Y-110890000D03*
%TO.P,U6,19,BRIDGE_GPIO1*%
%TO.N,unconnected-(U6A-BRIDGE_GPIO1-Pad19)*%
X88480490Y-109620000D03*
%TO.P,U6,20,BRIDGE_GPIO2*%
%TO.N,unconnected-(U6A-BRIDGE_GPIO2-Pad20)*%
X88480490Y-108350000D03*
%TO.P,U6,21,BRIDGE_GPIO3*%
%TO.N,unconnected-(U6A-BRIDGE_GPIO3-Pad21)*%
X88480490Y-107080000D03*
%TO.P,U6,22,5V_OPT*%
%TO.N,Net-(D7-A)*%
X88480490Y-105810000D03*
%TO.P,U6,23,BRIDGE_SPI_MISO*%
%TO.N,unconnected-(U6A-BRIDGE_SPI_MISO-Pad23)*%
X88480490Y-104540000D03*
%TO.P,U6,24,GND*%
%TO.N,GND*%
X88480490Y-103270000D03*
%TO.P,U6,25,BRIDGE_SPI_MOSI*%
%TO.N,unconnected-(U6A-BRIDGE_SPI_MOSI-Pad25)*%
X88480490Y-102000000D03*
%TO.P,U6,26,GND2*%
%TO.N,GND*%
X88480490Y-100730000D03*
%TO.P,U6,27,GND3*%
X88480490Y-99460000D03*
%TO.P,U6,28,T_JTDI/NC*%
%TO.N,unconnected-(U6A-T_JTDI{slash}NC-Pad28)*%
X88480490Y-98190000D03*
%TO.P,U6,29,GND4*%
%TO.N,GND*%
X88480490Y-96920000D03*
%TO.P,U6,30,T_VCC*%
%TO.N,Net-(U6A-T_VCC)*%
X88480490Y-95650000D03*
%TO.P,U6,31,T_NRST*%
%TO.N,RESET*%
X88480490Y-94380000D03*
%TO.P,U6,32,T_SW_DIR*%
%TO.N,unconnected-(U6A-T_SW_DIR-Pad32)*%
X88480490Y-93110000D03*
%TD*%
D25*
%TO.N,GND*%
X85510000Y-99690000D03*
X106850000Y-130590000D03*
X93366000Y-83450000D03*
X113070000Y-124990000D03*
X89500000Y-132750000D03*
X74400000Y-112650000D03*
X82600000Y-105380000D03*
X86410000Y-124630000D03*
X114528000Y-113640000D03*
X96670000Y-115530000D03*
X99730000Y-133270000D03*
X103710000Y-117190000D03*
X96500674Y-111570674D03*
X88500000Y-129000000D03*
X90054000Y-130999000D03*
X104685000Y-124983000D03*
X82950000Y-120290000D03*
X100351000Y-117059000D03*
X92000000Y-129140000D03*
D26*
X88709000Y-119271000D03*
D25*
X111726000Y-105668000D03*
X109991000Y-113771000D03*
X116288000Y-108263000D03*
X108750000Y-121250000D03*
X95083000Y-112903000D03*
X100550000Y-110990000D03*
X96611000Y-112519856D03*
X107232000Y-97263000D03*
X116350000Y-117770000D03*
X95478000Y-93060000D03*
X95435318Y-111903682D03*
X99890000Y-114346000D03*
X111117000Y-98270000D03*
X92790000Y-99590000D03*
X76750000Y-121750000D03*
X105092000Y-105019000D03*
X97079000Y-84990000D03*
X99440000Y-83493000D03*
X93020000Y-90172000D03*
X76560000Y-104290000D03*
%TO.N,+3V3*%
X99250000Y-95430000D03*
X99160000Y-116360000D03*
X89209536Y-117578464D03*
X86730000Y-96930000D03*
X98037500Y-109507428D03*
X81485000Y-117035000D03*
X112240000Y-121840000D03*
X98860000Y-113020000D03*
X112199308Y-108449308D03*
X87410000Y-128060000D03*
X95811000Y-96900000D03*
%TO.N,RESET*%
X89862623Y-101347681D03*
X86925928Y-94380000D03*
X97625000Y-119550000D03*
%TO.N,+5V*%
X107267000Y-96215000D03*
X95360000Y-97740000D03*
X113665000Y-102455000D03*
X100160000Y-95800000D03*
%TO.N,Net-(BOOT1-Pad1)*%
X106540000Y-127470000D03*
%TO.N,Net-(C21-Pad2)*%
X81302548Y-123690000D03*
%TO.N,+3.3V*%
X193080000Y-118102000D03*
X180129000Y-100872000D03*
X182376000Y-99795000D03*
X175886500Y-100872000D03*
X178215000Y-100872000D03*
X183807000Y-120658000D03*
X183807000Y-122676902D03*
%TO.N,Net-(D5-K)*%
X171875000Y-107582000D03*
%TO.N,LCD_CSX*%
X177436000Y-112553000D03*
%TO.N,GND1*%
X170784000Y-82447000D03*
X197915500Y-110555000D03*
X169480500Y-122936000D03*
X189112500Y-128622000D03*
X178769500Y-123974000D03*
X160301500Y-100650000D03*
X184363500Y-82149000D03*
X177499000Y-89956000D03*
X187977500Y-94345000D03*
X176273000Y-121903000D03*
X169030000Y-100792000D03*
X188451500Y-99832000D03*
X183944500Y-124396000D03*
X173200000Y-120910000D03*
X175493000Y-118496000D03*
X184454500Y-88925000D03*
X192789500Y-98292000D03*
X175397500Y-109160000D03*
X156895500Y-110903000D03*
X170664500Y-90051000D03*
X168942000Y-110556000D03*
X196509500Y-119176000D03*
X160046500Y-123460000D03*
X189738500Y-123749000D03*
X177542500Y-103355000D03*
X182466500Y-91861000D03*
X174545500Y-132200000D03*
X166234500Y-94632000D03*
%TO.N,LCD_MISO*%
X177105000Y-113857000D03*
%TO.N,LCD_SCL*%
X176030000Y-113075500D03*
%TO.N,LCD_MOSI*%
X176199000Y-114121500D03*
%TO.N,LCD_DCX*%
X175604000Y-115091000D03*
%TO.N,TP_SDA*%
X187776000Y-120335000D03*
%TO.N,TP_IN*%
X191155000Y-120552000D03*
%TO.N,TP_RST*%
X189276000Y-119685000D03*
%TO.N,LCD_RST*%
X181799000Y-111094000D03*
%TO.N,TP_SCL*%
X190463000Y-119473000D03*
%TO.N,PA7*%
X101829310Y-127074515D03*
%TO.N,LED_1*%
X97291810Y-121990000D03*
%TO.N,PA5*%
X99330000Y-126940000D03*
%TO.N,PA4*%
X97083571Y-125095000D03*
%TO.N,LED_3*%
X99345579Y-126126215D03*
%TO.N,LED_2*%
X85040000Y-129110000D03*
X96749310Y-122660000D03*
%TO.N,PA6*%
X100320000Y-126197500D03*
%TO.N,PC13*%
X106159236Y-108269236D03*
%TO.N,PB11*%
X96749310Y-124260000D03*
%TO.N,PB14*%
X89211000Y-123880000D03*
%TO.N,PB12*%
X89365000Y-124880000D03*
%TO.N,PB15*%
X92330000Y-123370000D03*
%TO.N,PB0*%
X99592000Y-128910000D03*
%TO.N,PB1*%
X94829306Y-124910000D03*
%TO.N,USART1_RX*%
X97310877Y-105840877D03*
X100200000Y-107610000D03*
X92295162Y-121895998D03*
%TO.N,USART1_TX*%
X88325502Y-121956498D03*
X97180000Y-104760000D03*
X101150000Y-107000000D03*
%TO.N,PB13*%
X94410000Y-123470000D03*
%TO.N,PB10*%
X97365000Y-129432500D03*
%TO.N,I2C1_SDA*%
X95235000Y-115885000D03*
X95042500Y-120740000D03*
%TO.N,PB9*%
X97093193Y-120144965D03*
%TO.N,PB5*%
X93740000Y-120660000D03*
%TO.N,PB8*%
X96539000Y-120670000D03*
%TO.N,PA15*%
X92390000Y-120580000D03*
%TO.N,I2C1_SCL*%
X94490000Y-122500000D03*
X94092074Y-115481001D03*
%TO.N,PB4*%
X92950000Y-120030000D03*
%TO.N,MPU_INT*%
X86437000Y-117362164D03*
X95289843Y-106939843D03*
X89440275Y-122902500D03*
%TO.N,BOOT0*%
X102000000Y-129160000D03*
%TO.N,USER_BTN*%
X78518752Y-120291248D03*
%TO.N,Net-(U1-PB2)*%
X94562500Y-128130000D03*
%TO.N,Net-(J2-D-)*%
X96334245Y-96172500D03*
X97750000Y-94830000D03*
%TO.N,SWCLK*%
X98091394Y-107521394D03*
X101030000Y-108350000D03*
%TO.N,Net-(U6A-T_VCC)*%
X90477500Y-95679338D03*
%TO.N,USB_DP*%
X98270000Y-98580000D03*
%TO.N,USB_DM*%
X97270000Y-98550000D03*
%TO.N,Net-(D6-A)*%
X95950000Y-90370000D03*
X97400000Y-89470000D03*
%TO.N,Net-(D7-A)*%
X101360000Y-89360000D03*
%TD*%
D27*
%TO.N,GND*%
X89649856Y-119880000D02*
X89490692Y-119720836D01*
X88763000Y-119325000D02*
X88763000Y-119433000D01*
X93040000Y-127750000D02*
X93350000Y-128060000D01*
X97282922Y-116548606D02*
X97380692Y-116450836D01*
X91127500Y-119880000D02*
X89649856Y-119880000D01*
X89050836Y-119720836D02*
X89490692Y-119720836D01*
X97380692Y-116450836D02*
X97540000Y-116610144D01*
X93040000Y-126292500D02*
X93040000Y-127750000D01*
X97540000Y-116610144D02*
X97540000Y-117967500D01*
X88763000Y-119433000D02*
X89050836Y-119720836D01*
X99452500Y-122880000D02*
X101049336Y-122880000D01*
X101049336Y-122880000D02*
X101231000Y-122698336D01*
X88709000Y-119271000D02*
X88763000Y-119325000D01*
D28*
%TO.N,+3V3*%
X86720000Y-96940000D02*
X86730000Y-96930000D01*
X110240000Y-123840000D02*
X112240000Y-121840000D01*
X98040000Y-116751528D02*
X98340692Y-116450836D01*
X91127500Y-119380000D02*
X90508336Y-118760836D01*
X112199308Y-121799308D02*
X112240000Y-121840000D01*
X99452500Y-119380000D02*
X100989336Y-119380000D01*
X98999164Y-116450836D02*
X98340692Y-116450836D01*
X97780000Y-96900000D02*
X99250000Y-95430000D01*
X92540000Y-126292500D02*
X92540000Y-127910000D01*
X81490000Y-100970000D02*
X85520000Y-96940000D01*
X89490692Y-117859620D02*
X89490692Y-118760836D01*
X98860000Y-113020000D02*
X98850000Y-113030000D01*
X99452500Y-123380000D02*
X100952664Y-123380000D01*
X100989336Y-119380000D02*
X101206000Y-119163336D01*
X98860000Y-110159856D02*
X98860000Y-113020000D01*
X99090000Y-116360000D02*
X98999164Y-116450836D01*
X108802392Y-123658336D02*
X102331000Y-123658336D01*
X98207572Y-109507428D02*
X98860000Y-110159856D01*
X112199308Y-108449308D02*
X112199308Y-121799308D01*
X99160000Y-116360000D02*
X99160000Y-117117336D01*
X89209536Y-117578464D02*
X89490692Y-117859620D01*
X92540000Y-127910000D02*
X92390000Y-128060000D01*
X82848752Y-126808752D02*
X84110000Y-128070000D01*
X90508336Y-118760836D02*
X89490692Y-118760836D01*
X101231000Y-123658336D02*
X102331000Y-123658336D01*
X87400000Y-128070000D02*
X87410000Y-128060000D01*
X108984056Y-123840000D02*
X110240000Y-123840000D01*
X84110000Y-128070000D02*
X87400000Y-128070000D01*
X98850000Y-113030000D02*
X98850000Y-116050000D01*
X99160000Y-117117336D02*
X101206000Y-119163336D01*
X98449164Y-116450836D02*
X98340692Y-116450836D01*
X101206000Y-119066000D02*
X101206000Y-119163336D01*
X82738752Y-126681248D02*
X82848752Y-126791248D01*
X87410000Y-128060000D02*
X92390000Y-128060000D01*
X99160000Y-116360000D02*
X99090000Y-116360000D01*
X81490000Y-117030000D02*
X81490000Y-100970000D01*
X95811000Y-96900000D02*
X97780000Y-96900000D01*
X85520000Y-96940000D02*
X86720000Y-96940000D01*
X82848752Y-126791248D02*
X82848752Y-126808752D01*
X98040000Y-117967500D02*
X98040000Y-116751528D01*
X98850000Y-116050000D02*
X98449164Y-116450836D01*
X98037500Y-109507428D02*
X98207572Y-109507428D01*
X108980932Y-123836876D02*
X108802392Y-123658336D01*
X100952664Y-123380000D02*
X101231000Y-123658336D01*
X108980932Y-123836876D02*
X108984056Y-123840000D01*
X81485000Y-117035000D02*
X81490000Y-117030000D01*
D27*
%TO.N,OSC_IN*%
X106270836Y-113239164D02*
X109989308Y-109520692D01*
X104644000Y-117681000D02*
X104644000Y-114604472D01*
X109989308Y-109520692D02*
X109989308Y-109499164D01*
X106009308Y-113239164D02*
X106270836Y-113239164D01*
X104644000Y-114604472D02*
X106009308Y-113239164D01*
X99452500Y-121380000D02*
X100945000Y-121380000D01*
X100945000Y-121380000D02*
X104644000Y-117681000D01*
%TO.N,OSC_OUT*%
X105420836Y-114409164D02*
X106029308Y-114409164D01*
X104950000Y-114880000D02*
X105420836Y-114409164D01*
X99452500Y-121880000D02*
X100910000Y-121880000D01*
X106029308Y-114409164D02*
X106399308Y-114409164D01*
X106399308Y-114409164D02*
X109989308Y-117999164D01*
X104950000Y-117840000D02*
X104950000Y-114880000D01*
X100910000Y-121880000D02*
X104950000Y-117840000D01*
%TO.N,RESET*%
X98762494Y-122380000D02*
X99452500Y-122380000D01*
X89862623Y-101347681D02*
X90032319Y-101347681D01*
X91000000Y-94730000D02*
X90650000Y-94380000D01*
X97625000Y-119550000D02*
X97910000Y-119835000D01*
X90032319Y-101347681D02*
X91000000Y-100380000D01*
X97910000Y-119835000D02*
X97910000Y-121527506D01*
X91000000Y-100380000D02*
X91000000Y-94730000D01*
X90650000Y-94380000D02*
X88480490Y-94380000D01*
X97910000Y-121527506D02*
X98762494Y-122380000D01*
X86925928Y-94380000D02*
X88480490Y-94380000D01*
D29*
%TO.N,+5V*%
X107310000Y-96215000D02*
X107267000Y-96215000D01*
X113665000Y-102455000D02*
X113550000Y-102455000D01*
X113550000Y-102455000D02*
X107310000Y-96215000D01*
X95360000Y-97740000D02*
X95370000Y-97730000D01*
X98230000Y-97730000D02*
X100160000Y-95800000D01*
X95370000Y-97730000D02*
X98230000Y-97730000D01*
D27*
%TO.N,Net-(BOOT1-Pad1)*%
X108384684Y-126483124D02*
X107302110Y-126483124D01*
X106805897Y-125986911D02*
X106805897Y-127204103D01*
X106805897Y-127204103D02*
X106540000Y-127470000D01*
X107302110Y-126483124D02*
X106805897Y-125986911D01*
%TO.N,Net-(C15-Pad1)*%
X107509719Y-125308089D02*
X108259684Y-124558124D01*
X107484719Y-125308089D02*
X107509719Y-125308089D01*
%TO.N,Net-(C21-Pad2)*%
X81302548Y-123690000D02*
X81302548Y-123832548D01*
X81302548Y-123832548D02*
X82050000Y-124580000D01*
X82050000Y-124580000D02*
X82759390Y-124580000D01*
X82759390Y-124580000D02*
X83121543Y-124217847D01*
%TO.N,Net-(C21-Pad1)*%
X83460000Y-125930000D02*
X83460000Y-125960000D01*
X83570000Y-125850000D02*
X83570000Y-125840000D01*
X83800365Y-124896669D02*
X83800365Y-125589635D01*
X83460000Y-125960000D02*
X83570000Y-125850000D01*
X83800365Y-125589635D02*
X83460000Y-125930000D01*
D28*
%TO.N,+3.3V*%
X183499500Y-120965500D02*
X183807000Y-120658000D01*
X180476000Y-122567500D02*
X180476000Y-123155500D01*
X175886500Y-100872000D02*
X178215000Y-100872000D01*
X183807000Y-120069000D02*
X184997000Y-118879000D01*
X184130000Y-116716000D02*
X184130000Y-118012000D01*
X183328402Y-123155500D02*
X180876000Y-123155500D01*
X192303000Y-118879000D02*
X193080000Y-118102000D01*
X180129000Y-100872000D02*
X181916000Y-100872000D01*
X180876000Y-120965500D02*
X183499500Y-120965500D01*
X179276000Y-122545500D02*
X179469500Y-122352000D01*
X182376000Y-100412000D02*
X182376000Y-99795000D01*
X184127000Y-101546000D02*
X184127000Y-116713000D01*
X175886500Y-100872000D02*
X175888000Y-100872000D01*
X175888000Y-100872000D02*
X175894000Y-100878000D01*
X180260500Y-122352000D02*
X180476000Y-122567500D01*
X181916000Y-100872000D02*
X182376000Y-100412000D01*
X183807000Y-120658000D02*
X183807000Y-120069000D01*
X184130000Y-118012000D02*
X184355500Y-118237500D01*
X183807000Y-122676902D02*
X183328402Y-123155500D01*
X178215000Y-100872000D02*
X180129000Y-100872000D01*
X179469500Y-122352000D02*
X180260500Y-122352000D01*
X180476000Y-120965500D02*
X180876000Y-120965500D01*
X184355500Y-118237500D02*
X184997000Y-118879000D01*
X179276000Y-123155500D02*
X179276000Y-122545500D01*
X182376000Y-99795000D02*
X184127000Y-101546000D01*
X184997000Y-118879000D02*
X192303000Y-118879000D01*
X184127000Y-116713000D02*
X184130000Y-116716000D01*
X180476000Y-123155500D02*
X180876000Y-123155500D01*
D27*
%TO.N,Net-(D5-K)*%
X171875000Y-118699000D02*
X176331500Y-123155500D01*
X176476000Y-123155500D02*
X176876000Y-123155500D01*
X171875000Y-107582000D02*
X171875000Y-118699000D01*
X176331500Y-123155500D02*
X176476000Y-123155500D01*
%TO.N,LCD_CSX*%
X177436000Y-112553000D02*
X177902000Y-112553000D01*
X179679000Y-120962500D02*
X179676000Y-120965500D01*
X177902000Y-112553000D02*
X179679000Y-114330000D01*
X179679000Y-114330000D02*
X179679000Y-120962500D01*
%TO.N,GND1*%
X179676000Y-123155500D02*
X180076000Y-123155500D01*
X176876000Y-120965500D02*
X177276000Y-120965500D01*
X176520648Y-121010148D02*
X176476000Y-120965500D01*
X176273000Y-121903000D02*
X176476000Y-121700000D01*
X176476000Y-120965500D02*
X176876000Y-120965500D01*
X179676000Y-123555500D02*
X179676000Y-123155500D01*
X176476000Y-121700000D02*
X176476000Y-120965500D01*
X177276000Y-120965500D02*
X177676000Y-120965500D01*
X178769500Y-123974000D02*
X179257500Y-123974000D01*
X179257500Y-123974000D02*
X179676000Y-123555500D01*
%TO.N,LCD_MISO*%
X178876000Y-115628000D02*
X178876000Y-120965500D01*
X177105000Y-113857000D02*
X178876000Y-115628000D01*
%TO.N,LCD_SCL*%
X177316000Y-113081000D02*
X179276000Y-115041000D01*
X176035500Y-113081000D02*
X177316000Y-113081000D01*
X176030000Y-113075500D02*
X176035500Y-113081000D01*
X179276000Y-115041000D02*
X179276000Y-120965500D01*
%TO.N,LCD_MOSI*%
X178476000Y-116398500D02*
X178476000Y-120965500D01*
X176199000Y-114121500D02*
X178476000Y-116398500D01*
%TO.N,LCD_DCX*%
X176341000Y-115091000D02*
X178076000Y-116826000D01*
X178076000Y-116826000D02*
X178076000Y-120965500D01*
X175604000Y-115091000D02*
X176341000Y-115091000D01*
%TO.N,TP_SDA*%
X178476000Y-123155500D02*
X178476000Y-122175500D01*
X186444000Y-121667000D02*
X187776000Y-120335000D01*
X178984500Y-121667000D02*
X186444000Y-121667000D01*
X178476000Y-122175500D02*
X178984500Y-121667000D01*
X187776000Y-120335000D02*
X187772000Y-120335000D01*
%TO.N,TP_IN*%
X177676000Y-124412500D02*
X177676000Y-123155500D01*
X179497500Y-126234000D02*
X177676000Y-124412500D01*
X191155000Y-120561000D02*
X185482000Y-126234000D01*
X185482000Y-126234000D02*
X179497500Y-126234000D01*
X191155000Y-120552000D02*
X191155000Y-120561000D01*
%TO.N,TP_RST*%
X186982000Y-121979000D02*
X179194500Y-121979000D01*
X179194500Y-121979000D02*
X178876000Y-122297500D01*
X189276000Y-119685000D02*
X186982000Y-121979000D01*
X178876000Y-122297500D02*
X178876000Y-123155500D01*
%TO.N,LCD_RST*%
X181799000Y-111094000D02*
X180076000Y-112817000D01*
X180076000Y-112817000D02*
X180076000Y-120965500D01*
%TO.N,TP_SCL*%
X190463000Y-119631659D02*
X190463000Y-119473000D01*
X178076000Y-123155500D02*
X178076000Y-124134500D01*
X184309659Y-125785000D02*
X190463000Y-119631659D01*
X179726500Y-125785000D02*
X184309659Y-125785000D01*
X178076000Y-124134500D02*
X179726500Y-125785000D01*
%TO.N,PA7*%
X99052750Y-128430000D02*
X99048749Y-128434000D01*
X100485485Y-127074515D02*
X99130000Y-128430000D01*
X99130000Y-128430000D02*
X99052750Y-128430000D01*
X96734284Y-128430000D02*
X96370000Y-128430000D01*
X96040000Y-128100000D02*
X96040000Y-126292500D01*
X99048749Y-128434000D02*
X96738285Y-128434000D01*
X101829310Y-127074515D02*
X100485485Y-127074515D01*
X96738285Y-128434000D02*
X96734284Y-128430000D01*
X96370000Y-128430000D02*
X96040000Y-128100000D01*
%TO.N,LED_1*%
X97291810Y-121990000D02*
X97291810Y-122909316D01*
X98762494Y-124380000D02*
X99452500Y-124380000D01*
X97291810Y-122909316D02*
X98762494Y-124380000D01*
%TO.N,PA5*%
X98630000Y-127640000D02*
X97190000Y-127640000D01*
X99330000Y-126940000D02*
X98630000Y-127640000D01*
X97040000Y-127490000D02*
X97040000Y-126292500D01*
X97190000Y-127640000D02*
X97040000Y-127490000D01*
%TO.N,PA4*%
X97540000Y-125551429D02*
X97083571Y-125095000D01*
X97540000Y-126292500D02*
X97540000Y-125551429D01*
%TO.N,LED_3*%
X99329364Y-126110000D02*
X98222500Y-126110000D01*
X98222500Y-126110000D02*
X98040000Y-126292500D01*
X99345579Y-126126215D02*
X99329364Y-126110000D01*
%TO.N,LED_2*%
X85050000Y-129110000D02*
X85920000Y-129980000D01*
X102794000Y-129186000D02*
X102794000Y-126655034D01*
X102794000Y-126655034D02*
X101018966Y-124880000D01*
X101018966Y-124880000D02*
X99452500Y-124880000D01*
X85040000Y-129110000D02*
X85050000Y-129110000D01*
X85920000Y-129980000D02*
X102000000Y-129980000D01*
X98760000Y-124880000D02*
X99452500Y-124880000D01*
X96870000Y-122780690D02*
X96870000Y-122990000D01*
X96870000Y-122990000D02*
X98760000Y-124880000D01*
X102000000Y-129980000D02*
X102794000Y-129186000D01*
X96749310Y-122660000D02*
X96870000Y-122780690D01*
%TO.N,PA6*%
X96540000Y-127802966D02*
X96540000Y-126292500D01*
X100320000Y-126197500D02*
X100320000Y-126730000D01*
X100320000Y-126197500D02*
X100367500Y-126150000D01*
X100320000Y-126730000D02*
X98922000Y-128128000D01*
X98922000Y-128128000D02*
X96865034Y-128128000D01*
X96865034Y-128128000D02*
X96540000Y-127802966D01*
%TO.N,PC13*%
X104940000Y-113670000D02*
X104310000Y-114300000D01*
X104310000Y-117530000D02*
X101960000Y-119880000D01*
X104310000Y-114300000D02*
X104310000Y-117530000D01*
X101960000Y-119880000D02*
X99452500Y-119880000D01*
X104940000Y-109270000D02*
X104940000Y-113670000D01*
X105940764Y-108269236D02*
X104940000Y-109270000D01*
X106159236Y-108269236D02*
X105940764Y-108269236D01*
%TO.N,PB11*%
X94460000Y-124250000D02*
X93540000Y-125170000D01*
X96739310Y-124250000D02*
X94460000Y-124250000D01*
X96749310Y-124260000D02*
X96739310Y-124250000D01*
X93540000Y-125170000D02*
X93540000Y-126292500D01*
%TO.N,PB14*%
X89211000Y-123880000D02*
X91127500Y-123880000D01*
%TO.N,PB12*%
X91127500Y-124880000D02*
X89365000Y-124880000D01*
%TO.N,PB15*%
X92320000Y-123380000D02*
X92330000Y-123370000D01*
X91127500Y-123380000D02*
X92320000Y-123380000D01*
%TO.N,PB0*%
X95540000Y-128450000D02*
X95540000Y-126292500D01*
X96000000Y-128910000D02*
X95540000Y-128450000D01*
X99592000Y-128910000D02*
X96000000Y-128910000D01*
%TO.N,PB1*%
X94829306Y-124910000D02*
X95040000Y-125120694D01*
X95040000Y-125120694D02*
X95040000Y-126292500D01*
%TO.N,USART1_RX*%
X91127500Y-121880000D02*
X92279164Y-121880000D01*
X101780000Y-110720000D02*
X102950550Y-110720000D01*
X97320000Y-106081000D02*
X96996000Y-106405000D01*
X96996000Y-106405000D02*
X96996000Y-106415750D01*
X88542343Y-121432998D02*
X88849002Y-121739657D01*
X90265950Y-113172049D02*
X89907448Y-113530550D01*
X97320000Y-105850000D02*
X97320000Y-106081000D01*
X102950550Y-110720000D02*
X103120550Y-110890000D01*
X89907448Y-113530550D02*
X89881200Y-113530550D01*
X97310877Y-105840877D02*
X97320000Y-105850000D01*
X92279164Y-121880000D02*
X92295162Y-121895998D01*
X88849002Y-121741070D02*
X88987932Y-121880000D01*
X100200000Y-109140000D02*
X101780000Y-110720000D01*
X100200000Y-107610000D02*
X100200000Y-109140000D01*
X88540930Y-121432998D02*
X88542343Y-121432998D01*
X88987932Y-121880000D02*
X91127500Y-121880000D01*
X87302000Y-120194068D02*
X88540930Y-121432998D01*
X87302000Y-116109750D02*
X87302000Y-120194068D01*
X89881200Y-113530550D02*
X87302000Y-116109750D01*
X90265950Y-113145800D02*
X90265950Y-113172049D01*
X96996000Y-106415750D02*
X90265950Y-113145800D01*
X88849002Y-121739657D02*
X88849002Y-121741070D01*
%TO.N,USART1_TX*%
X88970000Y-122380000D02*
X91127500Y-122380000D01*
X96690000Y-105150000D02*
X96690000Y-106289000D01*
X88325502Y-121956498D02*
X88752040Y-122383036D01*
X88752040Y-122383036D02*
X88966964Y-122383036D01*
X101150000Y-107000000D02*
X103040550Y-107000000D01*
X96690000Y-106289000D02*
X89959950Y-113019050D01*
X88966964Y-122383036D02*
X88970000Y-122380000D01*
X97180000Y-104760000D02*
X97080000Y-104760000D01*
X86977000Y-116002000D02*
X86977000Y-120477000D01*
X103040550Y-107000000D02*
X103120550Y-107080000D01*
X89959950Y-113045299D02*
X89780699Y-113224550D01*
X88880000Y-122380000D02*
X91127500Y-122380000D01*
X97080000Y-104760000D02*
X96690000Y-105150000D01*
X86977000Y-120477000D02*
X88880000Y-122380000D01*
X89754450Y-113224550D02*
X86977000Y-116002000D01*
X89959950Y-113019050D02*
X89959950Y-113045299D01*
X89780699Y-113224550D02*
X89754450Y-113224550D01*
%TO.N,PB13*%
X93500000Y-124380000D02*
X94410000Y-123470000D01*
X91127500Y-124380000D02*
X93500000Y-124380000D01*
%TO.N,PB10*%
X94040000Y-128770000D02*
X94040000Y-126292500D01*
X94702500Y-129432500D02*
X94040000Y-128770000D01*
X97365000Y-129432500D02*
X94702500Y-129432500D01*
%TO.N,I2C1_SDA*%
X95540000Y-120001790D02*
X95540000Y-117967500D01*
X95540000Y-116190000D02*
X95540000Y-117967500D01*
X95042500Y-120499290D02*
X95540000Y-120001790D01*
X95042500Y-120740000D02*
X95042500Y-120499290D01*
X95235000Y-115885000D02*
X95540000Y-116190000D01*
%TO.N,PB9*%
X97082500Y-120134272D02*
X97082500Y-118010000D01*
X97082500Y-118010000D02*
X97040000Y-117967500D01*
X97093193Y-120144965D02*
X97082500Y-120134272D01*
%TO.N,PB5*%
X94540000Y-119710000D02*
X94540000Y-117967500D01*
X93740000Y-120660000D02*
X93740000Y-120510000D01*
X93740000Y-120510000D02*
X94540000Y-119710000D01*
%TO.N,PB8*%
X96540000Y-120569063D02*
X96540000Y-117967500D01*
X96539000Y-120570063D02*
X96540000Y-120569063D01*
X96539000Y-120670000D02*
X96539000Y-120570063D01*
%TO.N,PA15*%
X93040000Y-119140000D02*
X93040000Y-117967500D01*
X92390000Y-119790000D02*
X93040000Y-119140000D01*
X92390000Y-120580000D02*
X92390000Y-119790000D01*
%TO.N,I2C1_SCL*%
X94500000Y-122490000D02*
X94500000Y-120460000D01*
X94092074Y-115481001D02*
X95040000Y-116428926D01*
X95040000Y-116428926D02*
X95040000Y-117967500D01*
X95040000Y-119920000D02*
X95040000Y-117967500D01*
X94500000Y-120460000D02*
X95040000Y-119920000D01*
X94490000Y-122500000D02*
X94500000Y-122490000D01*
%TO.N,PB4*%
X94040000Y-118950000D02*
X94040000Y-117967500D01*
X93103894Y-119876106D02*
X93113894Y-119876106D01*
X92950000Y-120030000D02*
X93103894Y-119876106D01*
X93113894Y-119876106D02*
X94040000Y-118950000D01*
%TO.N,MPU_INT*%
X86521500Y-117277664D02*
X86521500Y-115873500D01*
X89462775Y-122880000D02*
X91127500Y-122880000D01*
X86437000Y-117362164D02*
X86521500Y-117277664D01*
X89653950Y-112918550D02*
X89653950Y-112741050D01*
X95289843Y-107105157D02*
X95289843Y-106939843D01*
X89440275Y-122902500D02*
X89462775Y-122880000D01*
X89476450Y-112918550D02*
X89653950Y-112918550D01*
X89653950Y-112741050D02*
X95289843Y-107105157D01*
X86521500Y-115873500D02*
X89476450Y-112918550D01*
%TO.N,BOOT0*%
X95980000Y-118027500D02*
X95980000Y-122650000D01*
X102468000Y-128722000D02*
X102030000Y-129160000D01*
X95980000Y-122650000D02*
X96205810Y-122875810D01*
X96205810Y-122885126D02*
X96524184Y-123203500D01*
X96205810Y-122875810D02*
X96205810Y-122885126D01*
X102468000Y-126790068D02*
X102468000Y-128722000D01*
X96040000Y-117967500D02*
X95980000Y-118027500D01*
X102030000Y-129160000D02*
X102000000Y-129160000D01*
X96533500Y-123203500D02*
X98830000Y-125500000D01*
X101177932Y-125500000D02*
X102468000Y-126790068D01*
X98830000Y-125500000D02*
X101177932Y-125500000D01*
X96524184Y-123203500D02*
X96533500Y-123203500D01*
%TO.N,USER_BTN*%
X103120000Y-129390000D02*
X103120000Y-126520000D01*
X78518752Y-120291248D02*
X78518752Y-124108752D01*
X100480000Y-123880000D02*
X99452500Y-123880000D01*
X103120000Y-126520000D02*
X100480000Y-123880000D01*
X84770000Y-130360000D02*
X102150000Y-130360000D01*
X78518752Y-124108752D02*
X84770000Y-130360000D01*
X102150000Y-130360000D02*
X103120000Y-129390000D01*
%TO.N,Net-(U1-PB2)*%
X94562500Y-127880000D02*
X94550000Y-127867500D01*
X94550000Y-127867500D02*
X94550000Y-126302500D01*
X94562500Y-128130000D02*
X94562500Y-127880000D01*
X94550000Y-126302500D02*
X94540000Y-126292500D01*
%TO.N,Net-(J2-D-)*%
X97750000Y-95310000D02*
X97750000Y-94830000D01*
X96867500Y-96192500D02*
X97750000Y-95310000D01*
X96335055Y-96192500D02*
X96867500Y-96192500D01*
X96334245Y-96172500D02*
X96334245Y-96191690D01*
X96334245Y-96191690D02*
X96335055Y-96192500D01*
%TO.N,SWO*%
X100600000Y-100440000D02*
X101580000Y-99460000D01*
X93540000Y-117967500D02*
X93550000Y-117957500D01*
X93550000Y-116900000D02*
X93100000Y-116450000D01*
X93100000Y-113270000D02*
X100600000Y-105770000D01*
X93550000Y-117957500D02*
X93550000Y-116900000D01*
X100600000Y-105770000D02*
X100600000Y-100440000D01*
X101580000Y-99460000D02*
X103120550Y-99460000D01*
X93100000Y-116450000D02*
X93100000Y-113270000D01*
%TO.N,SWDIO*%
X100235893Y-104636554D02*
X100235893Y-98254107D01*
X91127500Y-120380000D02*
X88970000Y-120380000D01*
X88970000Y-120380000D02*
X88220000Y-119630000D01*
X100235893Y-98254107D02*
X101570000Y-96920000D01*
X101570000Y-96920000D02*
X103120550Y-96920000D01*
X88220000Y-119630000D02*
X88220000Y-116652447D01*
X88220000Y-116652447D02*
X100235893Y-104636554D01*
%TO.N,SWCLK*%
X92646500Y-117861000D02*
X92540000Y-117967500D01*
X92646500Y-113013500D02*
X92646500Y-117861000D01*
X98091394Y-107568606D02*
X92646500Y-113013500D01*
X101030000Y-108350000D02*
X103120550Y-108350000D01*
X98091394Y-107521394D02*
X98091394Y-107568606D01*
%TO.N,Net-(U6A-T_VCC)*%
X90448162Y-95650000D02*
X88480490Y-95650000D01*
X90477500Y-95679338D02*
X90448162Y-95650000D01*
%TO.N,USB_DP*%
X97747804Y-106691894D02*
X99876000Y-104563697D01*
X89000000Y-120880000D02*
X87914000Y-119794000D01*
X98270000Y-98620000D02*
X98270000Y-98580000D01*
X87914000Y-116525697D02*
X97747804Y-106691894D01*
X99876000Y-104563697D02*
X99876000Y-100226000D01*
X87914000Y-119794000D02*
X87914000Y-116525697D01*
X99876000Y-100226000D02*
X98270000Y-98620000D01*
X91127500Y-120880000D02*
X89000000Y-120880000D01*
%TO.N,USB_DM*%
X87608000Y-116310966D02*
X99550000Y-104368966D01*
X87608000Y-119988000D02*
X87608000Y-116310966D01*
X89000000Y-121380000D02*
X87608000Y-119988000D01*
X99550000Y-100604000D02*
X97496000Y-98550000D01*
X99550000Y-104368966D02*
X99550000Y-100604000D01*
X91127500Y-121380000D02*
X89000000Y-121380000D01*
X97496000Y-98550000D02*
X97270000Y-98550000D01*
D29*
%TO.N,Net-(D6-A)*%
X96500000Y-90370000D02*
X97400000Y-89470000D01*
X95950000Y-90370000D02*
X96500000Y-90370000D01*
%TO.N,Net-(D7-A)*%
X88480490Y-105810000D02*
X89595450Y-105810000D01*
X94380000Y-95650000D02*
X100670000Y-89360000D01*
X100670000Y-89360000D02*
X101360000Y-89360000D01*
X89595450Y-105810000D02*
X94380000Y-101025450D01*
X94380000Y-101025450D02*
X94380000Y-95650000D01*
%TD*%
%TA.AperFunction,Conductor*%
%TO.N,GND1*%
G36*
X186475849Y-122581685D02*
G01*
X186521604Y-122634489D01*
X186531548Y-122703647D01*
X186502523Y-122767203D01*
X186496491Y-122773681D01*
X184104491Y-125165681D01*
X184043168Y-125199166D01*
X184016810Y-125202000D01*
X180019348Y-125202000D01*
X179952309Y-125182315D01*
X179931667Y-125165681D01*
X178868667Y-124102680D01*
X178858846Y-124084694D01*
X178845006Y-124069579D01*
X178842440Y-124054650D01*
X178835182Y-124041357D01*
X178836643Y-124020916D01*
X178833173Y-124000719D01*
X178839085Y-123986774D01*
X178840166Y-123971665D01*
X178852447Y-123955259D01*
X178860447Y-123936392D01*
X178872961Y-123927856D01*
X178882038Y-123915732D01*
X178901237Y-123908570D01*
X178918169Y-123897023D01*
X178942484Y-123893186D01*
X178947502Y-123891315D01*
X178952953Y-123891045D01*
X178954623Y-123890999D01*
X179038872Y-123890999D01*
X179067671Y-123887903D01*
X179072605Y-123887768D01*
X179075123Y-123888433D01*
X179089252Y-123888433D01*
X179113127Y-123891000D01*
X179438872Y-123890999D01*
X179465096Y-123888180D01*
X179491602Y-123888180D01*
X179513170Y-123890499D01*
X179513180Y-123890500D01*
X179838821Y-123890500D01*
X179838828Y-123890499D01*
X179862741Y-123887928D01*
X179889259Y-123887928D01*
X179913171Y-123890499D01*
X179913179Y-123890500D01*
X180238822Y-123890500D01*
X180238822Y-123890499D01*
X180260390Y-123888180D01*
X180286898Y-123888180D01*
X180313127Y-123891000D01*
X180638872Y-123890999D01*
X180638875Y-123890998D01*
X180638887Y-123890998D01*
X180662744Y-123888433D01*
X180689252Y-123888433D01*
X180713127Y-123891000D01*
X181038872Y-123890999D01*
X181098483Y-123884591D01*
X181233331Y-123834296D01*
X181304882Y-123780733D01*
X181370346Y-123756316D01*
X181379193Y-123756000D01*
X183241733Y-123756000D01*
X183241749Y-123756001D01*
X183249345Y-123756001D01*
X183407456Y-123756001D01*
X183407459Y-123756001D01*
X183560187Y-123715077D01*
X183641754Y-123667984D01*
X183697118Y-123636020D01*
X183808922Y-123524216D01*
X183808923Y-123524214D01*
X183821662Y-123511474D01*
X183882983Y-123477991D01*
X183885150Y-123477540D01*
X183943085Y-123466015D01*
X184040497Y-123446639D01*
X184186179Y-123386296D01*
X184317289Y-123298691D01*
X184428789Y-123187191D01*
X184516394Y-123056081D01*
X184576737Y-122910399D01*
X184607500Y-122755744D01*
X184607500Y-122686000D01*
X184627185Y-122618961D01*
X184679989Y-122573206D01*
X184731500Y-122562000D01*
X186408810Y-122562000D01*
X186475849Y-122581685D01*
G37*
%TD.AperFunction*%
%TA.AperFunction,Conductor*%
G36*
X186075977Y-81282058D02*
G01*
X186121732Y-81334862D01*
X186132938Y-81386373D01*
X186132938Y-91564673D01*
X186129417Y-91581956D01*
X186132804Y-91590355D01*
X186133230Y-91590537D01*
X186133231Y-91590538D01*
X186133232Y-91590538D01*
X186133868Y-91590810D01*
X186133909Y-91590844D01*
X186136199Y-91591836D01*
X186899058Y-91936794D01*
X186901378Y-91937874D01*
X187067558Y-92017375D01*
X187069880Y-92018516D01*
X187735813Y-92354367D01*
X187738147Y-92355577D01*
X187900648Y-92442041D01*
X187902764Y-92443196D01*
X188554129Y-92807150D01*
X188556516Y-92808519D01*
X188714756Y-92901607D01*
X188716813Y-92902844D01*
X189352540Y-93294339D01*
X189354882Y-93295819D01*
X189508585Y-93395320D01*
X189510642Y-93396680D01*
X189555274Y-93426849D01*
X190129622Y-93815082D01*
X190131874Y-93816643D01*
X190256845Y-93905349D01*
X190280638Y-93922237D01*
X190282601Y-93923659D01*
X190883784Y-94368317D01*
X190886077Y-94370055D01*
X190950887Y-94420358D01*
X191029671Y-94481508D01*
X191031460Y-94482924D01*
X191613911Y-94953227D01*
X191616104Y-94955042D01*
X191754083Y-95071925D01*
X191755856Y-95073455D01*
X192318468Y-95568600D01*
X192320667Y-95570582D01*
X192452738Y-95692531D01*
X192454414Y-95694108D01*
X192493595Y-95731657D01*
X192996346Y-96213468D01*
X192998432Y-96215516D01*
X193035012Y-96252312D01*
X193124316Y-96342142D01*
X193125895Y-96343759D01*
X193646210Y-96886582D01*
X193648287Y-96888804D01*
X193767660Y-97019618D01*
X193769142Y-97021271D01*
X194266862Y-97586699D01*
X194268870Y-97589038D01*
X194381642Y-97723762D01*
X194383025Y-97725445D01*
X194857230Y-98312612D01*
X194859151Y-98315052D01*
X194937110Y-98416719D01*
X194965075Y-98453188D01*
X194966360Y-98454895D01*
X195118722Y-98660849D01*
X195388312Y-99025264D01*
X195416276Y-99063063D01*
X195418117Y-99065619D01*
X195449590Y-99110516D01*
X195516910Y-99206548D01*
X195518099Y-99208274D01*
X195548721Y-99253566D01*
X195942926Y-99836629D01*
X195944631Y-99839223D01*
X196036256Y-99982597D01*
X196037348Y-99984337D01*
X196436205Y-100631881D01*
X196437871Y-100634668D01*
X196522130Y-100779842D01*
X196523127Y-100781592D01*
X196895252Y-101447430D01*
X196896800Y-101450287D01*
X196973675Y-101596833D01*
X196974577Y-101598587D01*
X197319218Y-102281783D01*
X197320678Y-102284776D01*
X197390126Y-102432158D01*
X197390935Y-102433912D01*
X197707325Y-103133411D01*
X197708673Y-103136501D01*
X197770720Y-103284248D01*
X197771438Y-103285997D01*
X198058892Y-104000829D01*
X198060122Y-104004011D01*
X198114753Y-104151461D01*
X198115382Y-104153200D01*
X198373287Y-104882500D01*
X198374393Y-104885771D01*
X198421640Y-105032226D01*
X198422183Y-105033952D01*
X198649902Y-105776742D01*
X198650879Y-105780097D01*
X198690894Y-105925080D01*
X198691352Y-105926786D01*
X198888243Y-106681965D01*
X198889086Y-106685399D01*
X198922029Y-106828327D01*
X198922405Y-106830011D01*
X199087878Y-107596541D01*
X199088582Y-107600047D01*
X199114642Y-107740253D01*
X199114939Y-107741913D01*
X199248442Y-108518817D01*
X199249002Y-108522390D01*
X199268433Y-108659277D01*
X199268654Y-108660906D01*
X199369636Y-109447082D01*
X199370048Y-109450718D01*
X199383166Y-109583820D01*
X199383313Y-109585416D01*
X199451242Y-110379717D01*
X199451502Y-110383407D01*
X199458642Y-110511963D01*
X199458719Y-110513523D01*
X199493108Y-111314979D01*
X199493212Y-111318718D01*
X199494783Y-111442219D01*
X199494793Y-111443740D01*
X199495156Y-112251220D01*
X199495100Y-112255002D01*
X199491559Y-112372777D01*
X199491506Y-112374255D01*
X199457378Y-113186720D01*
X199457158Y-113190537D01*
X199449022Y-113302078D01*
X199448909Y-113303512D01*
X199379842Y-114119748D01*
X199379457Y-114123593D01*
X199367306Y-114228258D01*
X199367137Y-114229645D01*
X199262676Y-115048739D01*
X199262121Y-115052604D01*
X199246623Y-115149665D01*
X199246402Y-115151004D01*
X199106096Y-115971909D01*
X199105369Y-115975786D01*
X199087232Y-116064757D01*
X199086962Y-116066046D01*
X198910391Y-116887563D01*
X198909491Y-116891446D01*
X198889521Y-116971706D01*
X198889207Y-116972942D01*
X198675898Y-117794116D01*
X198674822Y-117797998D01*
X198653884Y-117869034D01*
X198653530Y-117870215D01*
X198403052Y-118689873D01*
X198401798Y-118693746D01*
X198380896Y-118754888D01*
X198380506Y-118756012D01*
X198092337Y-119573233D01*
X198090906Y-119577086D01*
X198071049Y-119627957D01*
X198070625Y-119629028D01*
X197744308Y-120442614D01*
X197742698Y-120446441D01*
X197725116Y-120486355D01*
X197724664Y-120487369D01*
X197359621Y-121296369D01*
X197357835Y-121300156D01*
X197343766Y-121328721D01*
X197343287Y-121329682D01*
X196938922Y-122133067D01*
X196936953Y-122136818D01*
X196927960Y-122153261D01*
X196927465Y-122154158D01*
X196483001Y-122951114D01*
X196480845Y-122954827D01*
X196478461Y-122958774D01*
X196477957Y-122959601D01*
X195993708Y-123747364D01*
X195990858Y-123751786D01*
X195471524Y-124521415D01*
X195468490Y-124525713D01*
X194916972Y-125272624D01*
X194913757Y-125276789D01*
X194331071Y-125999610D01*
X194327683Y-126003635D01*
X193714860Y-126701088D01*
X193711305Y-126704966D01*
X193069431Y-127375811D01*
X193065714Y-127379535D01*
X192395950Y-128022560D01*
X192392078Y-128026122D01*
X191695670Y-128640132D01*
X191691651Y-128643527D01*
X190969797Y-129227463D01*
X190965637Y-129230684D01*
X190219681Y-129783460D01*
X190215388Y-129786502D01*
X189446666Y-130307132D01*
X189442248Y-130309990D01*
X188652102Y-130797559D01*
X188647567Y-130800226D01*
X187837470Y-131253828D01*
X187832827Y-131256300D01*
X187004203Y-131675138D01*
X186999458Y-131677411D01*
X186153831Y-132060714D01*
X186148994Y-132062784D01*
X185287857Y-132409875D01*
X185282936Y-132411738D01*
X184407866Y-132721981D01*
X184402872Y-132723634D01*
X183515407Y-132996486D01*
X183510346Y-132997925D01*
X182612111Y-133232884D01*
X182606994Y-133234107D01*
X181699610Y-133430750D01*
X181694445Y-133431755D01*
X180779527Y-133589731D01*
X180774325Y-133590516D01*
X179853522Y-133709541D01*
X179848291Y-133710104D01*
X178923312Y-133789958D01*
X178918062Y-133790300D01*
X177990473Y-133830847D01*
X177985213Y-133830965D01*
X177056767Y-133832128D01*
X177051507Y-133832023D01*
X176123843Y-133793800D01*
X176118592Y-133793472D01*
X175193369Y-133715932D01*
X175188137Y-133715381D01*
X174267061Y-133598665D01*
X174261857Y-133597893D01*
X173346554Y-133442211D01*
X173341387Y-133441219D01*
X172433513Y-133246850D01*
X172428393Y-133245640D01*
X171529585Y-133012935D01*
X171524520Y-133011509D01*
X170636369Y-132740879D01*
X170631370Y-132739239D01*
X169755505Y-132431180D01*
X169750580Y-132429329D01*
X168888583Y-132084399D01*
X168883741Y-132082341D01*
X168037156Y-131701157D01*
X168032406Y-131698896D01*
X167202736Y-131282136D01*
X167198086Y-131279675D01*
X166386857Y-130828104D01*
X166382315Y-130825448D01*
X165590967Y-130339869D01*
X165586542Y-130337023D01*
X164816501Y-129818310D01*
X164812201Y-129815279D01*
X164064858Y-129264369D01*
X164060690Y-129261158D01*
X163337388Y-128679042D01*
X163333360Y-128675657D01*
X162635391Y-128063372D01*
X162631511Y-128059819D01*
X162596236Y-128026122D01*
X162304104Y-127747055D01*
X161960174Y-127418507D01*
X161956447Y-127414793D01*
X161312895Y-126745557D01*
X161309330Y-126741689D01*
X160694741Y-126045751D01*
X160691343Y-126041734D01*
X160657211Y-125999610D01*
X160106842Y-125320367D01*
X160103623Y-125316217D01*
X160072827Y-125274729D01*
X159550230Y-124570681D01*
X159547191Y-124566399D01*
X159494852Y-124489253D01*
X159025932Y-123798075D01*
X159023077Y-123793669D01*
X158536917Y-123007222D01*
X158536690Y-123006853D01*
X158533856Y-123002185D01*
X158531768Y-122998608D01*
X158085474Y-122203060D01*
X158084975Y-122202162D01*
X158075771Y-122185432D01*
X158073794Y-122181688D01*
X157667513Y-121379506D01*
X157667035Y-121378553D01*
X157666943Y-121378367D01*
X157652793Y-121349822D01*
X157651032Y-121346111D01*
X157283972Y-120538045D01*
X157283703Y-120537445D01*
X157265777Y-120497027D01*
X157264189Y-120493278D01*
X156999143Y-119837213D01*
X156935901Y-119680670D01*
X156935475Y-119679601D01*
X156915426Y-119628617D01*
X156913985Y-119624767D01*
X156776338Y-119237511D01*
X156623837Y-118808465D01*
X156623470Y-118807414D01*
X156602298Y-118745983D01*
X156601069Y-118742218D01*
X156348534Y-117923176D01*
X156348342Y-117922543D01*
X156327027Y-117850890D01*
X156325977Y-117847137D01*
X156110638Y-117026598D01*
X156110385Y-117025612D01*
X156090115Y-116945008D01*
X156089205Y-116941127D01*
X156062470Y-116818240D01*
X155910605Y-116120188D01*
X155910365Y-116119053D01*
X155891927Y-116029749D01*
X155891223Y-116026049D01*
X155748851Y-115205433D01*
X155748707Y-115204570D01*
X155732873Y-115106980D01*
X155732331Y-115103274D01*
X155625822Y-114284464D01*
X155625657Y-114283131D01*
X155613223Y-114178319D01*
X155612844Y-114174647D01*
X155541717Y-113358400D01*
X155541627Y-113357278D01*
X155533187Y-113245441D01*
X155532965Y-113241739D01*
X155496794Y-112429205D01*
X155496759Y-112428308D01*
X155492908Y-112310049D01*
X155492843Y-112306292D01*
X155492842Y-112305761D01*
X155491183Y-111498788D01*
X155491188Y-111497662D01*
X155492453Y-111373738D01*
X155492548Y-111370023D01*
X155494266Y-111327497D01*
X155524930Y-110568450D01*
X155524978Y-110567437D01*
X155531827Y-110438257D01*
X155532068Y-110434713D01*
X155598007Y-109640262D01*
X155598129Y-109638900D01*
X155610951Y-109505384D01*
X155611337Y-109501903D01*
X155710334Y-108715588D01*
X155710517Y-108714208D01*
X155729686Y-108576691D01*
X155730211Y-108573290D01*
X155861760Y-107796103D01*
X155862001Y-107794739D01*
X155887796Y-107653994D01*
X155888455Y-107650666D01*
X155919913Y-107503153D01*
X171074500Y-107503153D01*
X171074500Y-107660846D01*
X171105261Y-107815489D01*
X171105264Y-107815501D01*
X171165602Y-107961172D01*
X171165609Y-107961185D01*
X171253208Y-108092286D01*
X171253210Y-108092288D01*
X171253211Y-108092289D01*
X171255676Y-108094754D01*
X171256556Y-108096365D01*
X171257076Y-108096999D01*
X171256955Y-108097097D01*
X171289164Y-108156073D01*
X171292000Y-108182440D01*
X171292000Y-118622247D01*
X171292000Y-118775753D01*
X171300785Y-118808538D01*
X171331730Y-118924031D01*
X171338972Y-118936574D01*
X171408484Y-119056971D01*
X171408486Y-119056973D01*
X175858191Y-123506678D01*
X175886691Y-123551024D01*
X175917205Y-123632833D01*
X175917205Y-123632834D01*
X176003452Y-123748044D01*
X176003455Y-123748047D01*
X176118664Y-123834293D01*
X176118671Y-123834297D01*
X176163618Y-123851061D01*
X176253517Y-123884591D01*
X176313127Y-123891000D01*
X176638872Y-123890999D01*
X176638875Y-123890998D01*
X176638887Y-123890998D01*
X176662744Y-123888433D01*
X176689252Y-123888433D01*
X176713127Y-123891000D01*
X176969000Y-123890999D01*
X177036039Y-123910683D01*
X177081794Y-123963487D01*
X177093000Y-124014999D01*
X177093000Y-124489252D01*
X177132730Y-124637531D01*
X177171107Y-124704000D01*
X177209484Y-124770471D01*
X179030984Y-126591971D01*
X179139529Y-126700516D01*
X179272470Y-126777270D01*
X179420747Y-126817000D01*
X179420749Y-126817000D01*
X185558751Y-126817000D01*
X185558753Y-126817000D01*
X185707030Y-126777270D01*
X185839971Y-126700516D01*
X191151667Y-121388818D01*
X191212990Y-121355334D01*
X191227845Y-121353736D01*
X191227782Y-121353097D01*
X191233836Y-121352500D01*
X191233842Y-121352500D01*
X191388497Y-121321737D01*
X191534179Y-121261394D01*
X191665289Y-121173789D01*
X191776789Y-121062289D01*
X191864394Y-120931179D01*
X191924737Y-120785497D01*
X191955500Y-120630842D01*
X191955500Y-120473158D01*
X191955500Y-120473155D01*
X191955499Y-120473153D01*
X191935639Y-120373312D01*
X191924737Y-120318503D01*
X191898911Y-120256153D01*
X191864397Y-120172827D01*
X191864390Y-120172814D01*
X191776789Y-120041711D01*
X191776786Y-120041707D01*
X191665292Y-119930213D01*
X191665288Y-119930210D01*
X191534185Y-119842609D01*
X191534172Y-119842602D01*
X191388501Y-119782264D01*
X191388492Y-119782262D01*
X191345783Y-119773766D01*
X191337761Y-119769569D01*
X191328721Y-119769085D01*
X191307286Y-119753628D01*
X191283873Y-119741380D01*
X191279393Y-119733513D01*
X191272049Y-119728217D01*
X191262373Y-119703624D01*
X191249299Y-119680664D01*
X191249107Y-119669904D01*
X191246469Y-119663199D01*
X191248358Y-119627962D01*
X191258037Y-119579305D01*
X191290424Y-119517396D01*
X191351140Y-119482823D01*
X191379654Y-119479500D01*
X192216331Y-119479500D01*
X192216347Y-119479501D01*
X192223943Y-119479501D01*
X192382054Y-119479501D01*
X192382057Y-119479501D01*
X192534785Y-119438577D01*
X192608102Y-119396247D01*
X192671716Y-119359520D01*
X192783520Y-119247716D01*
X192783520Y-119247714D01*
X192793724Y-119237511D01*
X192793727Y-119237506D01*
X193094661Y-118936572D01*
X193155983Y-118903089D01*
X193158150Y-118902638D01*
X193216085Y-118891113D01*
X193313497Y-118871737D01*
X193459179Y-118811394D01*
X193590289Y-118723789D01*
X193701789Y-118612289D01*
X193789394Y-118481179D01*
X193849737Y-118335497D01*
X193880500Y-118180842D01*
X193880500Y-118023158D01*
X193880500Y-118023155D01*
X193880499Y-118023153D01*
X193861044Y-117925347D01*
X193849737Y-117868503D01*
X193842442Y-117850890D01*
X193789397Y-117722827D01*
X193789390Y-117722814D01*
X193701789Y-117591711D01*
X193701786Y-117591707D01*
X193590292Y-117480213D01*
X193590288Y-117480210D01*
X193459185Y-117392609D01*
X193459172Y-117392602D01*
X193313501Y-117332264D01*
X193313489Y-117332261D01*
X193158845Y-117301500D01*
X193158842Y-117301500D01*
X193001158Y-117301500D01*
X193001155Y-117301500D01*
X192846510Y-117332261D01*
X192846498Y-117332264D01*
X192700827Y-117392602D01*
X192700814Y-117392609D01*
X192569711Y-117480210D01*
X192569707Y-117480213D01*
X192458213Y-117591707D01*
X192458210Y-117591711D01*
X192370609Y-117722814D01*
X192370602Y-117722827D01*
X192310264Y-117868498D01*
X192310261Y-117868508D01*
X192279361Y-118023850D01*
X192270595Y-118040606D01*
X192266576Y-118059085D01*
X192247831Y-118084125D01*
X192246976Y-118085761D01*
X192245426Y-118087339D01*
X192090582Y-118242182D01*
X192029261Y-118275666D01*
X192002903Y-118278500D01*
X185297097Y-118278500D01*
X185230058Y-118258815D01*
X185209416Y-118242181D01*
X184766819Y-117799584D01*
X184733334Y-117738261D01*
X184730500Y-117711903D01*
X184730500Y-116805982D01*
X184730500Y-116795061D01*
X184730501Y-116795058D01*
X184730501Y-116636943D01*
X184727750Y-116626677D01*
X184727515Y-116611320D01*
X184727674Y-116610744D01*
X184727500Y-116609419D01*
X184727500Y-101635059D01*
X184727501Y-101635046D01*
X184727501Y-101466945D01*
X184727501Y-101466943D01*
X184686577Y-101314215D01*
X184644142Y-101240716D01*
X184607520Y-101177284D01*
X184495716Y-101065480D01*
X184491385Y-101061149D01*
X184491374Y-101061139D01*
X183210574Y-99780339D01*
X183177089Y-99719016D01*
X183176638Y-99716849D01*
X183145738Y-99561510D01*
X183145737Y-99561503D01*
X183120663Y-99500969D01*
X183085397Y-99415827D01*
X183085390Y-99415814D01*
X182997789Y-99284711D01*
X182997786Y-99284707D01*
X182886292Y-99173213D01*
X182886288Y-99173210D01*
X182755185Y-99085609D01*
X182755172Y-99085602D01*
X182609501Y-99025264D01*
X182609489Y-99025261D01*
X182454845Y-98994500D01*
X182454842Y-98994500D01*
X182297158Y-98994500D01*
X182297155Y-98994500D01*
X182142510Y-99025261D01*
X182142498Y-99025264D01*
X181996827Y-99085602D01*
X181996814Y-99085609D01*
X181865711Y-99173210D01*
X181865707Y-99173213D01*
X181754213Y-99284707D01*
X181754210Y-99284711D01*
X181666609Y-99415814D01*
X181666602Y-99415827D01*
X181606264Y-99561498D01*
X181606261Y-99561510D01*
X181575500Y-99716153D01*
X181575500Y-99873846D01*
X181606261Y-100028489D01*
X181606263Y-100028497D01*
X181635900Y-100100047D01*
X181643369Y-100169517D01*
X181612094Y-100231996D01*
X181552005Y-100267648D01*
X181521339Y-100271500D01*
X180708766Y-100271500D01*
X180641727Y-100251815D01*
X180639875Y-100250602D01*
X180508185Y-100162609D01*
X180508172Y-100162602D01*
X180362501Y-100102264D01*
X180362489Y-100102261D01*
X180207845Y-100071500D01*
X180207842Y-100071500D01*
X180050158Y-100071500D01*
X180050155Y-100071500D01*
X179895510Y-100102261D01*
X179895498Y-100102264D01*
X179749827Y-100162602D01*
X179749814Y-100162609D01*
X179618125Y-100250602D01*
X179551447Y-100271480D01*
X179549234Y-100271500D01*
X178794766Y-100271500D01*
X178727727Y-100251815D01*
X178725875Y-100250602D01*
X178594185Y-100162609D01*
X178594172Y-100162602D01*
X178448501Y-100102264D01*
X178448489Y-100102261D01*
X178293845Y-100071500D01*
X178293842Y-100071500D01*
X178136158Y-100071500D01*
X178136155Y-100071500D01*
X177981510Y-100102261D01*
X177981498Y-100102264D01*
X177835827Y-100162602D01*
X177835814Y-100162609D01*
X177704125Y-100250602D01*
X177637447Y-100271480D01*
X177635234Y-100271500D01*
X176466266Y-100271500D01*
X176399227Y-100251815D01*
X176397375Y-100250602D01*
X176265685Y-100162609D01*
X176265672Y-100162602D01*
X176120001Y-100102264D01*
X176119989Y-100102261D01*
X175965345Y-100071500D01*
X175965342Y-100071500D01*
X175807658Y-100071500D01*
X175807655Y-100071500D01*
X175653010Y-100102261D01*
X175652998Y-100102264D01*
X175507327Y-100162602D01*
X175507314Y-100162609D01*
X175376211Y-100250210D01*
X175376207Y-100250213D01*
X175264713Y-100361707D01*
X175264710Y-100361711D01*
X175177109Y-100492814D01*
X175177102Y-100492827D01*
X175116764Y-100638498D01*
X175116761Y-100638510D01*
X175086000Y-100793153D01*
X175086000Y-100950846D01*
X175116761Y-101105489D01*
X175116764Y-101105501D01*
X175177102Y-101251172D01*
X175177109Y-101251185D01*
X175264710Y-101382288D01*
X175264713Y-101382292D01*
X175376207Y-101493786D01*
X175376211Y-101493789D01*
X175507314Y-101581390D01*
X175507327Y-101581397D01*
X175652998Y-101641735D01*
X175653003Y-101641737D01*
X175807653Y-101672499D01*
X175807656Y-101672500D01*
X175807658Y-101672500D01*
X175965344Y-101672500D01*
X175965345Y-101672499D01*
X176119997Y-101641737D01*
X176265679Y-101581394D01*
X176265685Y-101581390D01*
X176397375Y-101493398D01*
X176464053Y-101472520D01*
X176466266Y-101472500D01*
X177635234Y-101472500D01*
X177702273Y-101492185D01*
X177704125Y-101493398D01*
X177835814Y-101581390D01*
X177835827Y-101581397D01*
X177981498Y-101641735D01*
X177981503Y-101641737D01*
X178136153Y-101672499D01*
X178136156Y-101672500D01*
X178136158Y-101672500D01*
X178293844Y-101672500D01*
X178293845Y-101672499D01*
X178448497Y-101641737D01*
X178594179Y-101581394D01*
X178594185Y-101581390D01*
X178725875Y-101493398D01*
X178792553Y-101472520D01*
X178794766Y-101472500D01*
X179549234Y-101472500D01*
X179616273Y-101492185D01*
X179618125Y-101493398D01*
X179749814Y-101581390D01*
X179749827Y-101581397D01*
X179895498Y-101641735D01*
X179895503Y-101641737D01*
X180050153Y-101672499D01*
X180050156Y-101672500D01*
X180050158Y-101672500D01*
X180207844Y-101672500D01*
X180207845Y-101672499D01*
X180362497Y-101641737D01*
X180508179Y-101581394D01*
X180508185Y-101581390D01*
X180639875Y-101493398D01*
X180706553Y-101472520D01*
X180708766Y-101472500D01*
X181829331Y-101472500D01*
X181829347Y-101472501D01*
X181836943Y-101472501D01*
X181995054Y-101472501D01*
X181995057Y-101472501D01*
X182147785Y-101431577D01*
X182197904Y-101402639D01*
X182284716Y-101352520D01*
X182396520Y-101240716D01*
X182396520Y-101240714D01*
X182406728Y-101230507D01*
X182406729Y-101230504D01*
X182596821Y-101040412D01*
X182658141Y-101006930D01*
X182727833Y-101011914D01*
X182772180Y-101040415D01*
X183490181Y-101758416D01*
X183523666Y-101819739D01*
X183526500Y-101846097D01*
X183526500Y-116633939D01*
X183526499Y-116633943D01*
X183526499Y-116792057D01*
X183529246Y-116802311D01*
X183529485Y-116817657D01*
X183529323Y-116818240D01*
X183529500Y-116819582D01*
X183529500Y-117925330D01*
X183529499Y-117925347D01*
X183529499Y-118091054D01*
X183529498Y-118091054D01*
X183570423Y-118243786D01*
X183581585Y-118263117D01*
X183581586Y-118263122D01*
X183581587Y-118263122D01*
X183649475Y-118380709D01*
X183649481Y-118380717D01*
X183768349Y-118499585D01*
X183768355Y-118499590D01*
X184060083Y-118791318D01*
X184093568Y-118852641D01*
X184088584Y-118922333D01*
X184060083Y-118966680D01*
X183441750Y-119585013D01*
X183441744Y-119585019D01*
X183438286Y-119588478D01*
X183438284Y-119588480D01*
X183326480Y-119700284D01*
X183296911Y-119751500D01*
X183291223Y-119761351D01*
X183291221Y-119761354D01*
X183254642Y-119824711D01*
X183247423Y-119837215D01*
X183206499Y-119989943D01*
X183206499Y-119989945D01*
X183206499Y-120078235D01*
X183201563Y-120095203D01*
X183201651Y-120112568D01*
X183187898Y-120142178D01*
X183187152Y-120144746D01*
X183185366Y-120147555D01*
X183185211Y-120147711D01*
X183097606Y-120278821D01*
X183089490Y-120298414D01*
X183083709Y-120307511D01*
X183065208Y-120323706D01*
X183049779Y-120342854D01*
X183039381Y-120346315D01*
X183031137Y-120353532D01*
X183006816Y-120357154D01*
X182983485Y-120364921D01*
X182979056Y-120365000D01*
X181379193Y-120365000D01*
X181312154Y-120345315D01*
X181304882Y-120340267D01*
X181275802Y-120318498D01*
X181233331Y-120286704D01*
X181233329Y-120286703D01*
X181233328Y-120286702D01*
X181098486Y-120236410D01*
X181098485Y-120236409D01*
X181098483Y-120236409D01*
X181038873Y-120230000D01*
X181038864Y-120230000D01*
X180783000Y-120230000D01*
X180715961Y-120210315D01*
X180670206Y-120157511D01*
X180659000Y-120106000D01*
X180659000Y-113109849D01*
X180678685Y-113042810D01*
X180695319Y-113022168D01*
X181786668Y-111930819D01*
X181847991Y-111897334D01*
X181874349Y-111894500D01*
X181877844Y-111894500D01*
X181877845Y-111894499D01*
X182032497Y-111863737D01*
X182178179Y-111803394D01*
X182309289Y-111715789D01*
X182420789Y-111604289D01*
X182508394Y-111473179D01*
X182568737Y-111327497D01*
X182599500Y-111172842D01*
X182599500Y-111015158D01*
X182599500Y-111015155D01*
X182599499Y-111015153D01*
X182568738Y-110860510D01*
X182568737Y-110860503D01*
X182568735Y-110860498D01*
X182508397Y-110714827D01*
X182508390Y-110714814D01*
X182420789Y-110583711D01*
X182420786Y-110583707D01*
X182309292Y-110472213D01*
X182309288Y-110472210D01*
X182178185Y-110384609D01*
X182178172Y-110384602D01*
X182032501Y-110324264D01*
X182032489Y-110324261D01*
X181877845Y-110293500D01*
X181877842Y-110293500D01*
X181720158Y-110293500D01*
X181720155Y-110293500D01*
X181565510Y-110324261D01*
X181565498Y-110324264D01*
X181419827Y-110384602D01*
X181419814Y-110384609D01*
X181288711Y-110472210D01*
X181288707Y-110472213D01*
X181177213Y-110583707D01*
X181177210Y-110583711D01*
X181089609Y-110714814D01*
X181089602Y-110714827D01*
X181029264Y-110860498D01*
X181029261Y-110860510D01*
X180998500Y-111015153D01*
X180998500Y-111018651D01*
X180997982Y-111020414D01*
X180997903Y-111021218D01*
X180997750Y-111021202D01*
X180978815Y-111085690D01*
X180962181Y-111106332D01*
X179609486Y-112459026D01*
X179609484Y-112459029D01*
X179532730Y-112591968D01*
X179493000Y-112740247D01*
X179493000Y-113020151D01*
X179473315Y-113087190D01*
X179420511Y-113132945D01*
X179351353Y-113142889D01*
X179287797Y-113113864D01*
X179281319Y-113107832D01*
X178259973Y-112086486D01*
X178259971Y-112086484D01*
X178127030Y-112009730D01*
X178037837Y-111985831D01*
X178019486Y-111980914D01*
X177963899Y-111948820D01*
X177946292Y-111931213D01*
X177946288Y-111931210D01*
X177815185Y-111843609D01*
X177815172Y-111843602D01*
X177669501Y-111783264D01*
X177669489Y-111783261D01*
X177514845Y-111752500D01*
X177514842Y-111752500D01*
X177357158Y-111752500D01*
X177357155Y-111752500D01*
X177202510Y-111783261D01*
X177202498Y-111783264D01*
X177056827Y-111843602D01*
X177056814Y-111843609D01*
X176925711Y-111931210D01*
X176925707Y-111931213D01*
X176814213Y-112042707D01*
X176814210Y-112042711D01*
X176726609Y-112173814D01*
X176726602Y-112173827D01*
X176666264Y-112319498D01*
X176666260Y-112319511D01*
X176664123Y-112330256D01*
X176631735Y-112392165D01*
X176571018Y-112426737D01*
X176501249Y-112422994D01*
X176473616Y-112409161D01*
X176409185Y-112366109D01*
X176409172Y-112366102D01*
X176263501Y-112305764D01*
X176263489Y-112305761D01*
X176108845Y-112275000D01*
X176108842Y-112275000D01*
X175951158Y-112275000D01*
X175951155Y-112275000D01*
X175796510Y-112305761D01*
X175796498Y-112305764D01*
X175650827Y-112366102D01*
X175650814Y-112366109D01*
X175519711Y-112453710D01*
X175519707Y-112453713D01*
X175408213Y-112565207D01*
X175408210Y-112565211D01*
X175320609Y-112696314D01*
X175320602Y-112696327D01*
X175260264Y-112841998D01*
X175260261Y-112842010D01*
X175229500Y-112996653D01*
X175229500Y-113154346D01*
X175260261Y-113308989D01*
X175260264Y-113309001D01*
X175320602Y-113454672D01*
X175320609Y-113454685D01*
X175408210Y-113585788D01*
X175408213Y-113585792D01*
X175453025Y-113630603D01*
X175486511Y-113691926D01*
X175481527Y-113761617D01*
X175479906Y-113765737D01*
X175429264Y-113887998D01*
X175429261Y-113888010D01*
X175398500Y-114042653D01*
X175398500Y-114200348D01*
X175398739Y-114201548D01*
X175398681Y-114202187D01*
X175399097Y-114206405D01*
X175398296Y-114206483D01*
X175392504Y-114271139D01*
X175349635Y-114326311D01*
X175324572Y-114340287D01*
X175224824Y-114381604D01*
X175224814Y-114381609D01*
X175093711Y-114469210D01*
X175093707Y-114469213D01*
X174982213Y-114580707D01*
X174982210Y-114580711D01*
X174894609Y-114711814D01*
X174894602Y-114711827D01*
X174834264Y-114857498D01*
X174834261Y-114857510D01*
X174803500Y-115012153D01*
X174803500Y-115169846D01*
X174834261Y-115324489D01*
X174834264Y-115324501D01*
X174894602Y-115470172D01*
X174894609Y-115470185D01*
X174982210Y-115601288D01*
X174982213Y-115601292D01*
X175093707Y-115712786D01*
X175093711Y-115712789D01*
X175224814Y-115800390D01*
X175224827Y-115800397D01*
X175370498Y-115860735D01*
X175370503Y-115860737D01*
X175525153Y-115891499D01*
X175525156Y-115891500D01*
X175525158Y-115891500D01*
X175682844Y-115891500D01*
X175682845Y-115891499D01*
X175837497Y-115860737D01*
X175983179Y-115800394D01*
X176044070Y-115759708D01*
X176110747Y-115738830D01*
X176178127Y-115757314D01*
X176200642Y-115775129D01*
X177456681Y-117031167D01*
X177490166Y-117092490D01*
X177493000Y-117118848D01*
X177493000Y-120106500D01*
X177473315Y-120173539D01*
X177420511Y-120219294D01*
X177369000Y-120230500D01*
X177113167Y-120230500D01*
X177089253Y-120233071D01*
X177062747Y-120233071D01*
X177038832Y-120230500D01*
X176713167Y-120230500D01*
X176689253Y-120233071D01*
X176662747Y-120233071D01*
X176638832Y-120230500D01*
X176313155Y-120230500D01*
X176253627Y-120236901D01*
X176253620Y-120236903D01*
X176118913Y-120287145D01*
X176118906Y-120287149D01*
X176003812Y-120373309D01*
X176003809Y-120373312D01*
X175917649Y-120488406D01*
X175917645Y-120488413D01*
X175867403Y-120623120D01*
X175867401Y-120623127D01*
X175861000Y-120682655D01*
X175861000Y-121248344D01*
X175867401Y-121307872D01*
X175867403Y-121307879D01*
X175917645Y-121442586D01*
X175917649Y-121442593D01*
X176003809Y-121557687D01*
X176003812Y-121557690D01*
X176118906Y-121643850D01*
X176118913Y-121643854D01*
X176253620Y-121694096D01*
X176253627Y-121694098D01*
X176313155Y-121700499D01*
X176313172Y-121700500D01*
X176638821Y-121700500D01*
X176638828Y-121700499D01*
X176662741Y-121697928D01*
X176689259Y-121697928D01*
X176713171Y-121700499D01*
X176713179Y-121700500D01*
X177038821Y-121700500D01*
X177038828Y-121700499D01*
X177062741Y-121697928D01*
X177089259Y-121697928D01*
X177113171Y-121700499D01*
X177113179Y-121700500D01*
X177438821Y-121700500D01*
X177438828Y-121700499D01*
X177462741Y-121697928D01*
X177489259Y-121697928D01*
X177513171Y-121700499D01*
X177513179Y-121700500D01*
X177838821Y-121700500D01*
X177850125Y-121699284D01*
X177918886Y-121711686D01*
X177970026Y-121759293D01*
X177987309Y-121826991D01*
X177970775Y-121884573D01*
X177932731Y-121950466D01*
X177893000Y-122098747D01*
X177893000Y-122296000D01*
X177873315Y-122363039D01*
X177820511Y-122408794D01*
X177769000Y-122420000D01*
X177513134Y-122420000D01*
X177513110Y-122420002D01*
X177489250Y-122422566D01*
X177462753Y-122422566D01*
X177438877Y-122420000D01*
X177113134Y-122420000D01*
X177113110Y-122420002D01*
X177089250Y-122422566D01*
X177062753Y-122422566D01*
X177038877Y-122420000D01*
X176713134Y-122420000D01*
X176713110Y-122420002D01*
X176689250Y-122422566D01*
X176662753Y-122422566D01*
X176638884Y-122420000D01*
X176638873Y-122420000D01*
X176471849Y-122420000D01*
X176404810Y-122400315D01*
X176384168Y-122383681D01*
X172494319Y-118493832D01*
X172460834Y-118432509D01*
X172458000Y-118406151D01*
X172458000Y-108182440D01*
X172477685Y-108115401D01*
X172494320Y-108094757D01*
X172496789Y-108092289D01*
X172584394Y-107961179D01*
X172644737Y-107815497D01*
X172675500Y-107660842D01*
X172675500Y-107503158D01*
X172675500Y-107503155D01*
X172675499Y-107503153D01*
X172644738Y-107348510D01*
X172644737Y-107348503D01*
X172644735Y-107348498D01*
X172584397Y-107202827D01*
X172584390Y-107202814D01*
X172496789Y-107071711D01*
X172496786Y-107071707D01*
X172385292Y-106960213D01*
X172385288Y-106960210D01*
X172254185Y-106872609D01*
X172254172Y-106872602D01*
X172108501Y-106812264D01*
X172108489Y-106812261D01*
X171953845Y-106781500D01*
X171953842Y-106781500D01*
X171796158Y-106781500D01*
X171796155Y-106781500D01*
X171641510Y-106812261D01*
X171641498Y-106812264D01*
X171495827Y-106872602D01*
X171495814Y-106872609D01*
X171364711Y-106960210D01*
X171364707Y-106960213D01*
X171253213Y-107071707D01*
X171253210Y-107071711D01*
X171165609Y-107202814D01*
X171165602Y-107202827D01*
X171105264Y-107348498D01*
X171105261Y-107348510D01*
X171074500Y-107503153D01*
X155919913Y-107503153D01*
X156052027Y-106883638D01*
X156052323Y-106882296D01*
X156084995Y-106738904D01*
X156085805Y-106735569D01*
X156280839Y-105979763D01*
X156281156Y-105978569D01*
X156320938Y-105833012D01*
X156321877Y-105829756D01*
X156547742Y-105086375D01*
X156548256Y-105084730D01*
X156565049Y-105032226D01*
X156595182Y-104938010D01*
X156596233Y-104934876D01*
X156852380Y-104204730D01*
X156852913Y-104203248D01*
X156907258Y-104055435D01*
X156908385Y-104052495D01*
X157194165Y-103336651D01*
X157194709Y-103335318D01*
X157256552Y-103187019D01*
X157257802Y-103184133D01*
X157572458Y-102483799D01*
X157573225Y-102482129D01*
X157596619Y-102432158D01*
X157642409Y-102334347D01*
X157643786Y-102331504D01*
X157986765Y-101647347D01*
X157987488Y-101645934D01*
X158064219Y-101498767D01*
X158065672Y-101496070D01*
X158436089Y-100829372D01*
X158437043Y-100827688D01*
X158521109Y-100682005D01*
X158522675Y-100679371D01*
X158919933Y-100030793D01*
X158920836Y-100029345D01*
X159012313Y-99885407D01*
X159013977Y-99882862D01*
X159437266Y-99253390D01*
X159438209Y-99252014D01*
X159536936Y-99110425D01*
X159538649Y-99108034D01*
X159987138Y-98498608D01*
X159988244Y-98497132D01*
X160094002Y-98358494D01*
X160095784Y-98356218D01*
X160568656Y-97767690D01*
X160569749Y-97766353D01*
X160682516Y-97630948D01*
X160684341Y-97628812D01*
X161180789Y-97061972D01*
X161181944Y-97060678D01*
X161301345Y-96929172D01*
X161303300Y-96927072D01*
X161822353Y-96382844D01*
X161823595Y-96381565D01*
X161949439Y-96254344D01*
X161951464Y-96252347D01*
X162492142Y-95731582D01*
X162493607Y-95730197D01*
X162625678Y-95607634D01*
X162627646Y-95605851D01*
X163189131Y-95109196D01*
X163190683Y-95107849D01*
X163328679Y-94990358D01*
X163330787Y-94988608D01*
X163911959Y-94516927D01*
X163913654Y-94515578D01*
X164057252Y-94403544D01*
X164059354Y-94401942D01*
X164659506Y-93955716D01*
X164661219Y-93954469D01*
X164810061Y-93848258D01*
X164812163Y-93846793D01*
X165430184Y-93426780D01*
X165432031Y-93425553D01*
X165585734Y-93325504D01*
X165587866Y-93324150D01*
X166222673Y-92931025D01*
X166224629Y-92929841D01*
X166382900Y-92836201D01*
X166385112Y-92834925D01*
X167035588Y-92469327D01*
X167037566Y-92468241D01*
X167200106Y-92381232D01*
X167202280Y-92380100D01*
X167867527Y-92042501D01*
X167869549Y-92041501D01*
X168035753Y-91961476D01*
X168037976Y-91960435D01*
X168800066Y-91613522D01*
X168802475Y-91612457D01*
X168802973Y-91612243D01*
X168802975Y-91612243D01*
X168802976Y-91612241D01*
X168803404Y-91612058D01*
X168806830Y-91603504D01*
X168803268Y-91586165D01*
X168803470Y-85501920D01*
X173673499Y-85501920D01*
X173702340Y-85646907D01*
X173702343Y-85646917D01*
X173758912Y-85783488D01*
X173758919Y-85783501D01*
X173841048Y-85906415D01*
X173841051Y-85906419D01*
X173945580Y-86010948D01*
X173945584Y-86010951D01*
X174068498Y-86093080D01*
X174068511Y-86093087D01*
X174205082Y-86149656D01*
X174205087Y-86149658D01*
X174205091Y-86149658D01*
X174205092Y-86149659D01*
X174350079Y-86178500D01*
X174350082Y-86178500D01*
X174497920Y-86178500D01*
X174595462Y-86159096D01*
X174642913Y-86149658D01*
X174779495Y-86093084D01*
X174902416Y-86010951D01*
X175006951Y-85906416D01*
X175089084Y-85783495D01*
X175145658Y-85646913D01*
X175174500Y-85501920D01*
X181673499Y-85501920D01*
X181702340Y-85646907D01*
X181702343Y-85646917D01*
X181758912Y-85783488D01*
X181758919Y-85783501D01*
X181841048Y-85906415D01*
X181841051Y-85906419D01*
X181945580Y-86010948D01*
X181945584Y-86010951D01*
X182068498Y-86093080D01*
X182068511Y-86093087D01*
X182205082Y-86149656D01*
X182205087Y-86149658D01*
X182205091Y-86149658D01*
X182205092Y-86149659D01*
X182350079Y-86178500D01*
X182350082Y-86178500D01*
X182497920Y-86178500D01*
X182595462Y-86159096D01*
X182642913Y-86149658D01*
X182779495Y-86093084D01*
X182902416Y-86010951D01*
X183006951Y-85906416D01*
X183089084Y-85783495D01*
X183145658Y-85646913D01*
X183174500Y-85501918D01*
X183174500Y-85354082D01*
X183174500Y-85354079D01*
X183145659Y-85209092D01*
X183145658Y-85209091D01*
X183145658Y-85209087D01*
X183145656Y-85209082D01*
X183089087Y-85072511D01*
X183089080Y-85072498D01*
X183006951Y-84949584D01*
X183006948Y-84949580D01*
X182902419Y-84845051D01*
X182902415Y-84845048D01*
X182779501Y-84762919D01*
X182779488Y-84762912D01*
X182642917Y-84706343D01*
X182642907Y-84706340D01*
X182497920Y-84677500D01*
X182497918Y-84677500D01*
X182350082Y-84677500D01*
X182350080Y-84677500D01*
X182205092Y-84706340D01*
X182205082Y-84706343D01*
X182068511Y-84762912D01*
X182068498Y-84762919D01*
X181945584Y-84845048D01*
X181945580Y-84845051D01*
X181841051Y-84949580D01*
X181841048Y-84949584D01*
X181758919Y-85072498D01*
X181758912Y-85072511D01*
X181702343Y-85209082D01*
X181702340Y-85209092D01*
X181673500Y-85354079D01*
X181673500Y-85354082D01*
X181673500Y-85501918D01*
X181673500Y-85501920D01*
X181673499Y-85501920D01*
X175174500Y-85501920D01*
X175174500Y-85501918D01*
X175174500Y-85354082D01*
X175174500Y-85354079D01*
X175145659Y-85209092D01*
X175145658Y-85209091D01*
X175145658Y-85209087D01*
X175145656Y-85209082D01*
X175089087Y-85072511D01*
X175089080Y-85072498D01*
X175006951Y-84949584D01*
X175006948Y-84949580D01*
X174902419Y-84845051D01*
X174902415Y-84845048D01*
X174779501Y-84762919D01*
X174779488Y-84762912D01*
X174642917Y-84706343D01*
X174642907Y-84706340D01*
X174497920Y-84677500D01*
X174497918Y-84677500D01*
X174350082Y-84677500D01*
X174350080Y-84677500D01*
X174205092Y-84706340D01*
X174205082Y-84706343D01*
X174068511Y-84762912D01*
X174068498Y-84762919D01*
X173945584Y-84845048D01*
X173945580Y-84845051D01*
X173841051Y-84949580D01*
X173841048Y-84949584D01*
X173758919Y-85072498D01*
X173758912Y-85072511D01*
X173702343Y-85209082D01*
X173702340Y-85209092D01*
X173673500Y-85354079D01*
X173673500Y-85354082D01*
X173673500Y-85501918D01*
X173673500Y-85501920D01*
X173673499Y-85501920D01*
X168803470Y-85501920D01*
X168803606Y-81386369D01*
X168823293Y-81319330D01*
X168876098Y-81273577D01*
X168927606Y-81262373D01*
X186008938Y-81262373D01*
X186075977Y-81282058D01*
G37*
%TD.AperFunction*%
%TD*%
%TA.AperFunction,Conductor*%
%TO.N,GND*%
G36*
X104660006Y-92139102D02*
G01*
X105228010Y-92395949D01*
X105230306Y-92397017D01*
X105370138Y-92463914D01*
X105396402Y-92476479D01*
X105398726Y-92477621D01*
X105537689Y-92547704D01*
X106064751Y-92813519D01*
X106067062Y-92814716D01*
X106229483Y-92901138D01*
X106231635Y-92902312D01*
X106537099Y-93072992D01*
X106883053Y-93266296D01*
X106885440Y-93267664D01*
X107043597Y-93360704D01*
X107045679Y-93361956D01*
X107380739Y-93568294D01*
X107681460Y-93753485D01*
X107683778Y-93754948D01*
X107837504Y-93854464D01*
X107839475Y-93855768D01*
X108458512Y-94274209D01*
X108460764Y-94275770D01*
X108522664Y-94319707D01*
X108609528Y-94381364D01*
X108611491Y-94382786D01*
X108714320Y-94458842D01*
X109212725Y-94827481D01*
X109214954Y-94829171D01*
X109358540Y-94940618D01*
X109360308Y-94942017D01*
X109892824Y-95372000D01*
X109942791Y-95412346D01*
X109945029Y-95414197D01*
X109986740Y-95449530D01*
X110082918Y-95531002D01*
X110084684Y-95532527D01*
X110647442Y-96027801D01*
X110649563Y-96029713D01*
X110773357Y-96144019D01*
X110781573Y-96151605D01*
X110783249Y-96153182D01*
X111217907Y-96569737D01*
X111325242Y-96672601D01*
X111327383Y-96674704D01*
X111453166Y-96801228D01*
X111454746Y-96802845D01*
X111975108Y-97345718D01*
X111977185Y-97347939D01*
X112040196Y-97416988D01*
X112096583Y-97478780D01*
X112097969Y-97480326D01*
X112516905Y-97956253D01*
X112595790Y-98045869D01*
X112597798Y-98048208D01*
X112710482Y-98182827D01*
X112711865Y-98184510D01*
X113186160Y-98771789D01*
X113188092Y-98774244D01*
X113293881Y-98912204D01*
X113295167Y-98913911D01*
X113745203Y-99522242D01*
X113747053Y-99524810D01*
X113845773Y-99665634D01*
X113846962Y-99667361D01*
X114203287Y-100194396D01*
X114271824Y-100295767D01*
X114273566Y-100298416D01*
X114338491Y-100400011D01*
X114365102Y-100441653D01*
X114366194Y-100443393D01*
X114765106Y-101091024D01*
X114766773Y-101093811D01*
X114851006Y-101238942D01*
X114852002Y-101240692D01*
X115224155Y-101906580D01*
X115225722Y-101909472D01*
X115302539Y-102055909D01*
X115303441Y-102057663D01*
X115648141Y-102740975D01*
X115649601Y-102743968D01*
X115718969Y-102891180D01*
X115719778Y-102892934D01*
X116036241Y-103592595D01*
X116037589Y-103595685D01*
X116099545Y-103743216D01*
X116100264Y-103744965D01*
X116387824Y-104460061D01*
X116389052Y-104463242D01*
X116443599Y-104610462D01*
X116444229Y-104612203D01*
X116702196Y-105341683D01*
X116703302Y-105344953D01*
X116750494Y-105491236D01*
X116751037Y-105492962D01*
X116978801Y-106235902D01*
X116979778Y-106239256D01*
X117019767Y-106384140D01*
X117020225Y-106385847D01*
X117217141Y-107141125D01*
X117217984Y-107144558D01*
X117250901Y-107287370D01*
X117251277Y-107289055D01*
X117416779Y-108055717D01*
X117417483Y-108059223D01*
X117443515Y-108199278D01*
X117443812Y-108200938D01*
X117577345Y-108978015D01*
X117577905Y-108981588D01*
X117597303Y-109118245D01*
X117597524Y-109119874D01*
X117698534Y-109906271D01*
X117698946Y-109909907D01*
X117712045Y-110042818D01*
X117712192Y-110044414D01*
X117780136Y-110838887D01*
X117780396Y-110842577D01*
X117787527Y-110970977D01*
X117787604Y-110972537D01*
X117822000Y-111774164D01*
X117822104Y-111777902D01*
X117823673Y-111901213D01*
X117823683Y-111902735D01*
X117824046Y-112710388D01*
X117823990Y-112714170D01*
X117820454Y-112831788D01*
X117820401Y-112833266D01*
X117786265Y-113645911D01*
X117786045Y-113649728D01*
X117777926Y-113761036D01*
X117777813Y-113762470D01*
X117708727Y-114578935D01*
X117708342Y-114582780D01*
X117696217Y-114687221D01*
X117696048Y-114688608D01*
X117591559Y-115507923D01*
X117591004Y-115511788D01*
X117575541Y-115608628D01*
X117575320Y-115609967D01*
X117434977Y-116431090D01*
X117434250Y-116434967D01*
X117416157Y-116523722D01*
X117415887Y-116525011D01*
X117239269Y-117346743D01*
X117238369Y-117350626D01*
X117218454Y-117430666D01*
X117218140Y-117431902D01*
X117004773Y-118253300D01*
X117003697Y-118257182D01*
X116982830Y-118327977D01*
X116982475Y-118329158D01*
X116731929Y-119149037D01*
X116730677Y-119152908D01*
X116709831Y-119213889D01*
X116709440Y-119215015D01*
X116421215Y-120032395D01*
X116419784Y-120036247D01*
X116399987Y-120086965D01*
X116399563Y-120088037D01*
X116073186Y-120901770D01*
X116071576Y-120905597D01*
X116054057Y-120945368D01*
X116053605Y-120946381D01*
X115688491Y-121755544D01*
X115686702Y-121759338D01*
X115672748Y-121787666D01*
X115672272Y-121788621D01*
X115267790Y-122592236D01*
X115265823Y-122595983D01*
X115265822Y-122595985D01*
X115256941Y-122612224D01*
X115256445Y-122613123D01*
X114811887Y-123410249D01*
X114809734Y-123413957D01*
X114807372Y-123417868D01*
X114806865Y-123418700D01*
X114322598Y-124206491D01*
X114319748Y-124210913D01*
X113800414Y-124980542D01*
X113797380Y-124984840D01*
X113245862Y-125731751D01*
X113242647Y-125735916D01*
X112659961Y-126458737D01*
X112656573Y-126462762D01*
X112043750Y-127160215D01*
X112040195Y-127164093D01*
X111398321Y-127834938D01*
X111394604Y-127838662D01*
X110724840Y-128481687D01*
X110720968Y-128485249D01*
X110024560Y-129099259D01*
X110020541Y-129102654D01*
X109298687Y-129686590D01*
X109294527Y-129689811D01*
X108548571Y-130242587D01*
X108544278Y-130245629D01*
X107775556Y-130766259D01*
X107771138Y-130769117D01*
X106980992Y-131256686D01*
X106976457Y-131259353D01*
X106166360Y-131712955D01*
X106161717Y-131715427D01*
X105333093Y-132134265D01*
X105328348Y-132136538D01*
X104482721Y-132519841D01*
X104477884Y-132521911D01*
X103616747Y-132869002D01*
X103611826Y-132870865D01*
X102736756Y-133181108D01*
X102731762Y-133182761D01*
X101844297Y-133455613D01*
X101839236Y-133457052D01*
X100941001Y-133692011D01*
X100935884Y-133693234D01*
X100028500Y-133889877D01*
X100023335Y-133890882D01*
X99108417Y-134048858D01*
X99103215Y-134049643D01*
X98182412Y-134168668D01*
X98177181Y-134169231D01*
X97252202Y-134249085D01*
X97246952Y-134249427D01*
X96319363Y-134289974D01*
X96314103Y-134290092D01*
X95385657Y-134291255D01*
X95380397Y-134291150D01*
X94452733Y-134252927D01*
X94447482Y-134252599D01*
X93522259Y-134175059D01*
X93517027Y-134174508D01*
X92595951Y-134057792D01*
X92590747Y-134057020D01*
X91675444Y-133901338D01*
X91670277Y-133900346D01*
X90762403Y-133705977D01*
X90757283Y-133704767D01*
X89858475Y-133472062D01*
X89853410Y-133470636D01*
X88965259Y-133200006D01*
X88960260Y-133198366D01*
X88084395Y-132890307D01*
X88079470Y-132888456D01*
X87217473Y-132543526D01*
X87212631Y-132541468D01*
X86366046Y-132160284D01*
X86361296Y-132158023D01*
X85531626Y-131741263D01*
X85526976Y-131738802D01*
X84715747Y-131287231D01*
X84714303Y-131285763D01*
X84711205Y-131284575D01*
X84464366Y-131133112D01*
X84417521Y-131081273D01*
X84406139Y-131012336D01*
X84433834Y-130948190D01*
X84491812Y-130909199D01*
X84561316Y-130907650D01*
X84570899Y-130910217D01*
X84576303Y-130911666D01*
X84601016Y-130918287D01*
X84693247Y-130943001D01*
X84693249Y-130943001D01*
X84854349Y-130943001D01*
X84854365Y-130943000D01*
X102226751Y-130943000D01*
X102226753Y-130943000D01*
X102375030Y-130903270D01*
X102507971Y-130826516D01*
X103586516Y-129747971D01*
X103663270Y-129615030D01*
X103703000Y-129466753D01*
X103703000Y-129313247D01*
X103703000Y-126443247D01*
X103663270Y-126294970D01*
X103586516Y-126162029D01*
X103477971Y-126053484D01*
X102075004Y-124650517D01*
X102041519Y-124589194D01*
X102046503Y-124519502D01*
X102088375Y-124463569D01*
X102153839Y-124439152D01*
X102162685Y-124438836D01*
X102565682Y-124438836D01*
X102565690Y-124438836D01*
X102601993Y-124435979D01*
X102601995Y-124435978D01*
X102601997Y-124435978D01*
X102687884Y-124411025D01*
X102757395Y-124390830D01*
X102896687Y-124308453D01*
X102896692Y-124308448D01*
X102909986Y-124295155D01*
X102971309Y-124261670D01*
X102997667Y-124258836D01*
X107160895Y-124258836D01*
X107227934Y-124278521D01*
X107273689Y-124331325D01*
X107283633Y-124400483D01*
X107254608Y-124464039D01*
X107220632Y-124491498D01*
X107084039Y-124566589D01*
X107084035Y-124566592D01*
X107056348Y-124590239D01*
X107056331Y-124590255D01*
X106766885Y-124879701D01*
X106766869Y-124879718D01*
X106743222Y-124907405D01*
X106743219Y-124907409D01*
X106665262Y-125049213D01*
X106659342Y-125072270D01*
X106623602Y-125132307D01*
X106570078Y-125161534D01*
X106547021Y-125167454D01*
X106405217Y-125245411D01*
X106405213Y-125245414D01*
X106377526Y-125269061D01*
X106377509Y-125269077D01*
X106088063Y-125558523D01*
X106088047Y-125558540D01*
X106064400Y-125586227D01*
X106064397Y-125586231D01*
X105986438Y-125728039D01*
X105946194Y-125884780D01*
X105946194Y-126046615D01*
X105986438Y-126203356D01*
X106064397Y-126345164D01*
X106064399Y-126345167D01*
X106088049Y-126372857D01*
X106186579Y-126471387D01*
X106201285Y-126498318D01*
X106217874Y-126524132D01*
X106218765Y-126530331D01*
X106220063Y-126532708D01*
X106222897Y-126559067D01*
X106222897Y-126653102D01*
X106203212Y-126720141D01*
X106164798Y-126755592D01*
X106165886Y-126757221D01*
X106029711Y-126848210D01*
X106029707Y-126848213D01*
X105918213Y-126959707D01*
X105918210Y-126959711D01*
X105830609Y-127090814D01*
X105830602Y-127090827D01*
X105770264Y-127236498D01*
X105770261Y-127236510D01*
X105739500Y-127391153D01*
X105739500Y-127548846D01*
X105770261Y-127703489D01*
X105770264Y-127703501D01*
X105830602Y-127849172D01*
X105830609Y-127849185D01*
X105918210Y-127980288D01*
X105918213Y-127980292D01*
X106029707Y-128091786D01*
X106029711Y-128091789D01*
X106160814Y-128179390D01*
X106160827Y-128179397D01*
X106225493Y-128206182D01*
X106306503Y-128239737D01*
X106433146Y-128264928D01*
X106461153Y-128270499D01*
X106461156Y-128270500D01*
X106461158Y-128270500D01*
X106618844Y-128270500D01*
X106618845Y-128270499D01*
X106773497Y-128239737D01*
X106919179Y-128179394D01*
X107050289Y-128091789D01*
X107161789Y-127980289D01*
X107249394Y-127849179D01*
X107309737Y-127703497D01*
X107340500Y-127548842D01*
X107340500Y-127474721D01*
X107347958Y-127437224D01*
X107347063Y-127436984D01*
X107359342Y-127391158D01*
X107388897Y-127280856D01*
X107388897Y-127190124D01*
X107408582Y-127123085D01*
X107461386Y-127077330D01*
X107512897Y-127066124D01*
X107826672Y-127066124D01*
X107893711Y-127085809D01*
X107914353Y-127102443D01*
X108016056Y-127204146D01*
X108043533Y-127227615D01*
X108184236Y-127304967D01*
X108339757Y-127344898D01*
X108339761Y-127344898D01*
X108500318Y-127344898D01*
X108500322Y-127344898D01*
X108655842Y-127304967D01*
X108682589Y-127290263D01*
X108796543Y-127227617D01*
X108796543Y-127227616D01*
X108796546Y-127227615D01*
X108824023Y-127204147D01*
X109105706Y-126922463D01*
X109129175Y-126894986D01*
X109206527Y-126754282D01*
X109223278Y-126689038D01*
X109259014Y-126629005D01*
X109312545Y-126599774D01*
X109376903Y-126583250D01*
X109376906Y-126583249D01*
X109503923Y-126513420D01*
X109113306Y-126122804D01*
X109112984Y-126122481D01*
X109109710Y-126119182D01*
X109105707Y-126114496D01*
X109017037Y-126025826D01*
X109016868Y-126025656D01*
X109000377Y-125995191D01*
X108983705Y-125964657D01*
X108983721Y-125964419D01*
X108983609Y-125964211D01*
X108986213Y-125929586D01*
X108988689Y-125894965D01*
X108988833Y-125894739D01*
X108988849Y-125894538D01*
X108989621Y-125893513D01*
X109017190Y-125850616D01*
X109105931Y-125761875D01*
X109459485Y-125761875D01*
X109459485Y-125761876D01*
X109857476Y-126159868D01*
X109927306Y-126032848D01*
X109927308Y-126032844D01*
X109967205Y-125877455D01*
X109967206Y-125877450D01*
X109967206Y-125717016D01*
X109967205Y-125717008D01*
X109927308Y-125561620D01*
X109927306Y-125561614D01*
X109850011Y-125421016D01*
X109850010Y-125421014D01*
X109827131Y-125394228D01*
X109459485Y-125761875D01*
X109105931Y-125761875D01*
X109016836Y-125672780D01*
X108983351Y-125611457D01*
X108988335Y-125541765D01*
X109016836Y-125497418D01*
X109473578Y-125040675D01*
X109446784Y-125017791D01*
X109446784Y-125017790D01*
X109306197Y-124940502D01*
X109306187Y-124940499D01*
X109198181Y-124912768D01*
X109138143Y-124877030D01*
X109106957Y-124814507D01*
X109114525Y-124745048D01*
X109158443Y-124690707D01*
X109198176Y-124672561D01*
X109252090Y-124658719D01*
X109267010Y-124650517D01*
X109392791Y-124581369D01*
X109392791Y-124581368D01*
X109392794Y-124581367D01*
X109420271Y-124557899D01*
X109501352Y-124476817D01*
X109562673Y-124443334D01*
X109589032Y-124440500D01*
X110153331Y-124440500D01*
X110153347Y-124440501D01*
X110160943Y-124440501D01*
X110319054Y-124440501D01*
X110319057Y-124440501D01*
X110471785Y-124399577D01*
X110528677Y-124366730D01*
X110608716Y-124320520D01*
X110720520Y-124208716D01*
X110720520Y-124208714D01*
X110730724Y-124198511D01*
X110730727Y-124198506D01*
X112254662Y-122674572D01*
X112315983Y-122641089D01*
X112318150Y-122640638D01*
X112376085Y-122629113D01*
X112473497Y-122609737D01*
X112619179Y-122549394D01*
X112750289Y-122461789D01*
X112861789Y-122350289D01*
X112949394Y-122219179D01*
X113009737Y-122073497D01*
X113040500Y-121918842D01*
X113040500Y-121761158D01*
X113040500Y-121761155D01*
X113040499Y-121761153D01*
X113015756Y-121636762D01*
X113009737Y-121606503D01*
X112979259Y-121532921D01*
X112949397Y-121460827D01*
X112949390Y-121460814D01*
X112861789Y-121329711D01*
X112861786Y-121329707D01*
X112836127Y-121304048D01*
X112802642Y-121242725D01*
X112799808Y-121216367D01*
X112799808Y-109029073D01*
X112819493Y-108962034D01*
X112820706Y-108960182D01*
X112838869Y-108933000D01*
X112908702Y-108828487D01*
X112969045Y-108682805D01*
X112999808Y-108528150D01*
X112999808Y-108370466D01*
X112999808Y-108370463D01*
X112999807Y-108370461D01*
X112969045Y-108215811D01*
X112966820Y-108210440D01*
X112908705Y-108070135D01*
X112908698Y-108070122D01*
X112821097Y-107939019D01*
X112821094Y-107939015D01*
X112709600Y-107827521D01*
X112709596Y-107827518D01*
X112578493Y-107739917D01*
X112578480Y-107739910D01*
X112432809Y-107679572D01*
X112432797Y-107679569D01*
X112278153Y-107648808D01*
X112278150Y-107648808D01*
X112120466Y-107648808D01*
X112120463Y-107648808D01*
X111965818Y-107679569D01*
X111965806Y-107679572D01*
X111820135Y-107739910D01*
X111820122Y-107739917D01*
X111683954Y-107830903D01*
X111682605Y-107828884D01*
X111628117Y-107852003D01*
X111559253Y-107840186D01*
X111507711Y-107793015D01*
X111489807Y-107728831D01*
X111489807Y-107449162D01*
X111489806Y-107449145D01*
X111479307Y-107346367D01*
X111479306Y-107346364D01*
X111477686Y-107341475D01*
X111424122Y-107179830D01*
X111332020Y-107030508D01*
X111207964Y-106906452D01*
X111079587Y-106827269D01*
X111058644Y-106814351D01*
X111058639Y-106814349D01*
X111057170Y-106813862D01*
X110892105Y-106759165D01*
X110892103Y-106759164D01*
X110789318Y-106748664D01*
X109189306Y-106748664D01*
X109189289Y-106748665D01*
X109086511Y-106759164D01*
X109086508Y-106759165D01*
X108919976Y-106814349D01*
X108919971Y-106814351D01*
X108770650Y-106906453D01*
X108646597Y-107030506D01*
X108554495Y-107179827D01*
X108554493Y-107179832D01*
X108526657Y-107263834D01*
X108499309Y-107346367D01*
X108499309Y-107346368D01*
X108499308Y-107346368D01*
X108488808Y-107449147D01*
X108488808Y-110145342D01*
X108469123Y-110212381D01*
X108452489Y-110233023D01*
X106895973Y-111789538D01*
X106834650Y-111823023D01*
X106764958Y-111818039D01*
X106709025Y-111776167D01*
X106701560Y-111764978D01*
X106689028Y-111743788D01*
X106689022Y-111743780D01*
X106574691Y-111629449D01*
X106574682Y-111629442D01*
X106435503Y-111547132D01*
X106435498Y-111547130D01*
X106280226Y-111502019D01*
X106280220Y-111502018D01*
X106259308Y-111500373D01*
X106259308Y-112155164D01*
X106239623Y-112222203D01*
X106186819Y-112267958D01*
X106135308Y-112279164D01*
X105883308Y-112279164D01*
X105816269Y-112259479D01*
X105770514Y-112206675D01*
X105759308Y-112155164D01*
X105759308Y-111500374D01*
X105759307Y-111500373D01*
X105738397Y-111502018D01*
X105681595Y-111518521D01*
X105611725Y-111518321D01*
X105553055Y-111480378D01*
X105524212Y-111416740D01*
X105523000Y-111399444D01*
X105523000Y-109562848D01*
X105542685Y-109495809D01*
X105559315Y-109475171D01*
X105937071Y-109097414D01*
X105998392Y-109063931D01*
X106048942Y-109063480D01*
X106080391Y-109069736D01*
X106080394Y-109069736D01*
X106238080Y-109069736D01*
X106238081Y-109069735D01*
X106392733Y-109038973D01*
X106531274Y-108981588D01*
X106538408Y-108978633D01*
X106538408Y-108978632D01*
X106538415Y-108978630D01*
X106669525Y-108891025D01*
X106781025Y-108779525D01*
X106868630Y-108648415D01*
X106928973Y-108502733D01*
X106959736Y-108348078D01*
X106959736Y-108190394D01*
X106959736Y-108190391D01*
X106959735Y-108190389D01*
X106953101Y-108157038D01*
X106928973Y-108035739D01*
X106909690Y-107989185D01*
X106868633Y-107890063D01*
X106868626Y-107890050D01*
X106781025Y-107758947D01*
X106781022Y-107758943D01*
X106669528Y-107647449D01*
X106669524Y-107647446D01*
X106538421Y-107559845D01*
X106538408Y-107559838D01*
X106392737Y-107499500D01*
X106392725Y-107499497D01*
X106238081Y-107468736D01*
X106238078Y-107468736D01*
X106080394Y-107468736D01*
X106080391Y-107468736D01*
X105925746Y-107499497D01*
X105925734Y-107499500D01*
X105780063Y-107559838D01*
X105780050Y-107559845D01*
X105648947Y-107647446D01*
X105648943Y-107647449D01*
X105537449Y-107758943D01*
X105537446Y-107758947D01*
X105449845Y-107890050D01*
X105449837Y-107890065D01*
X105427025Y-107945138D01*
X105400146Y-107985365D01*
X104782690Y-108602822D01*
X104721367Y-108636307D01*
X104651676Y-108631323D01*
X104595742Y-108589452D01*
X104571325Y-108523987D01*
X104571009Y-108515141D01*
X104571009Y-107767088D01*
X104571009Y-107767078D01*
X104566834Y-107728245D01*
X104566835Y-107701744D01*
X104571010Y-107662923D01*
X104571009Y-106497078D01*
X104566834Y-106458245D01*
X104566835Y-106431744D01*
X104571010Y-106392923D01*
X104571009Y-105227078D01*
X104566834Y-105188245D01*
X104566835Y-105161744D01*
X104571010Y-105122923D01*
X104571009Y-103957078D01*
X104566834Y-103918245D01*
X104566835Y-103891744D01*
X104571010Y-103852923D01*
X104571009Y-102752877D01*
X105718808Y-102752877D01*
X105718808Y-102965450D01*
X105750317Y-103164394D01*
X105752062Y-103175407D01*
X105782087Y-103267815D01*
X105817752Y-103377578D01*
X105914259Y-103566984D01*
X106039198Y-103738950D01*
X106189521Y-103889273D01*
X106361487Y-104014212D01*
X106361489Y-104014213D01*
X106361492Y-104014215D01*
X106550896Y-104110721D01*
X106753065Y-104176410D01*
X106963021Y-104209664D01*
X106963022Y-104209664D01*
X107175594Y-104209664D01*
X107175595Y-104209664D01*
X107385551Y-104176410D01*
X107587720Y-104110721D01*
X107777124Y-104014215D01*
X107825225Y-103979268D01*
X107949094Y-103889273D01*
X107949096Y-103889270D01*
X107949100Y-103889268D01*
X108099412Y-103738956D01*
X108099414Y-103738952D01*
X108099417Y-103738950D01*
X108224356Y-103566984D01*
X108224355Y-103566984D01*
X108224359Y-103566980D01*
X108320865Y-103377576D01*
X108386554Y-103175407D01*
X108419808Y-102965451D01*
X108419808Y-102752877D01*
X108386554Y-102542921D01*
X108320865Y-102340752D01*
X108224359Y-102151348D01*
X108224357Y-102151345D01*
X108224356Y-102151343D01*
X108099417Y-101979377D01*
X107949094Y-101829054D01*
X107777128Y-101704115D01*
X107587722Y-101607608D01*
X107587721Y-101607607D01*
X107587720Y-101607607D01*
X107385551Y-101541918D01*
X107385549Y-101541917D01*
X107385548Y-101541917D01*
X107224265Y-101516372D01*
X107175595Y-101508664D01*
X106963021Y-101508664D01*
X106914350Y-101516372D01*
X106753068Y-101541917D01*
X106550893Y-101607608D01*
X106361487Y-101704115D01*
X106189521Y-101829054D01*
X106039198Y-101979377D01*
X105914259Y-102151343D01*
X105817752Y-102340749D01*
X105752061Y-102542924D01*
X105718808Y-102752877D01*
X104571009Y-102752877D01*
X104571009Y-102687078D01*
X104566167Y-102642038D01*
X104565995Y-102638167D01*
X104566583Y-102635775D01*
X104566583Y-102619392D01*
X104570509Y-102582880D01*
X104570510Y-102582869D01*
X104570510Y-102250000D01*
X104224874Y-102250000D01*
X104181538Y-102242181D01*
X104177995Y-102240859D01*
X104177990Y-102240858D01*
X104118393Y-102234451D01*
X104118391Y-102234450D01*
X104118383Y-102234450D01*
X104118375Y-102234450D01*
X102122719Y-102234450D01*
X102122713Y-102234451D01*
X102063105Y-102240859D01*
X102059558Y-102242182D01*
X102016226Y-102250000D01*
X101670590Y-102250000D01*
X101670590Y-102582880D01*
X101674516Y-102619398D01*
X101674516Y-102645906D01*
X101670090Y-102687074D01*
X101670090Y-103852920D01*
X101670091Y-103852926D01*
X101674264Y-103891744D01*
X101674264Y-103918252D01*
X101670090Y-103957076D01*
X101670090Y-105122920D01*
X101670091Y-105122926D01*
X101674264Y-105161745D01*
X101674264Y-105188250D01*
X101670090Y-105227078D01*
X101670090Y-106163394D01*
X101650405Y-106230433D01*
X101597601Y-106276188D01*
X101528443Y-106286132D01*
X101498638Y-106277955D01*
X101383501Y-106230264D01*
X101383489Y-106230261D01*
X101228839Y-106199498D01*
X101227562Y-106199373D01*
X101226935Y-106199120D01*
X101222868Y-106198311D01*
X101223021Y-106197539D01*
X101162776Y-106173210D01*
X101122419Y-106116174D01*
X101119305Y-106046374D01*
X101132336Y-106013968D01*
X101143268Y-105995033D01*
X101143267Y-105995033D01*
X101143270Y-105995030D01*
X101160419Y-105931029D01*
X101183001Y-105846753D01*
X101183001Y-105693247D01*
X101183001Y-105685652D01*
X101183000Y-105685634D01*
X101183000Y-100732848D01*
X101202685Y-100665809D01*
X101219315Y-100645171D01*
X101458409Y-100406076D01*
X101519732Y-100372592D01*
X101589424Y-100377576D01*
X101645357Y-100419448D01*
X101669774Y-100484912D01*
X101670090Y-100493758D01*
X101670090Y-101312919D01*
X101670091Y-101312928D01*
X101674516Y-101354092D01*
X101674516Y-101380597D01*
X101670590Y-101417117D01*
X101670590Y-101750000D01*
X102016226Y-101750000D01*
X102059562Y-101757819D01*
X102063104Y-101759140D01*
X102063107Y-101759141D01*
X102122717Y-101765550D01*
X104118382Y-101765549D01*
X104177993Y-101759141D01*
X104179683Y-101758510D01*
X104181542Y-101757818D01*
X104224874Y-101750000D01*
X104570510Y-101750000D01*
X104570510Y-101417130D01*
X104570509Y-101417116D01*
X104566583Y-101380603D01*
X104566583Y-101354098D01*
X104571010Y-101312923D01*
X104571009Y-100147078D01*
X104566834Y-100108245D01*
X104566835Y-100081744D01*
X104571010Y-100042923D01*
X104571009Y-98877078D01*
X104571008Y-98877061D01*
X104566583Y-98835906D01*
X104566583Y-98809392D01*
X104570509Y-98772880D01*
X104570510Y-98772869D01*
X104570510Y-98440000D01*
X104224874Y-98440000D01*
X104181538Y-98432181D01*
X104177995Y-98430859D01*
X104177990Y-98430858D01*
X104118393Y-98424451D01*
X104118391Y-98424450D01*
X104118383Y-98424450D01*
X104118375Y-98424450D01*
X102122719Y-98424450D01*
X102122713Y-98424451D01*
X102063105Y-98430859D01*
X102059558Y-98432182D01*
X102016226Y-98440000D01*
X101670590Y-98440000D01*
X101670590Y-98753000D01*
X101650905Y-98820039D01*
X101598101Y-98865794D01*
X101546590Y-98877000D01*
X101503247Y-98877000D01*
X101354968Y-98916730D01*
X101222029Y-98993484D01*
X101222026Y-98993486D01*
X101030574Y-99184939D01*
X100969251Y-99218424D01*
X100899559Y-99213440D01*
X100843626Y-99171568D01*
X100819209Y-99106104D01*
X100818893Y-99097258D01*
X100818893Y-98546955D01*
X100838578Y-98479916D01*
X100855208Y-98459278D01*
X101458909Y-97855576D01*
X101520232Y-97822092D01*
X101589924Y-97827076D01*
X101645857Y-97868948D01*
X101670274Y-97934412D01*
X101670469Y-97939879D01*
X101670590Y-97940000D01*
X102016226Y-97940000D01*
X102059562Y-97947819D01*
X102063104Y-97949140D01*
X102063107Y-97949141D01*
X102122717Y-97955550D01*
X104118382Y-97955549D01*
X104177993Y-97949141D01*
X104179683Y-97948510D01*
X104181542Y-97947818D01*
X104224874Y-97940000D01*
X104570510Y-97940000D01*
X104570510Y-97607130D01*
X104570509Y-97607116D01*
X104566583Y-97570603D01*
X104566583Y-97544098D01*
X104571010Y-97502923D01*
X104571009Y-96337078D01*
X104566833Y-96298240D01*
X104566186Y-96281090D01*
X104566333Y-96276411D01*
X104571010Y-96232923D01*
X104571010Y-96136153D01*
X106466500Y-96136153D01*
X106466500Y-96293846D01*
X106497261Y-96448489D01*
X106497264Y-96448501D01*
X106557602Y-96594172D01*
X106557609Y-96594185D01*
X106645210Y-96725288D01*
X106645213Y-96725292D01*
X106756707Y-96836786D01*
X106756711Y-96836789D01*
X106887814Y-96924390D01*
X106887827Y-96924397D01*
X107019271Y-96978842D01*
X107033503Y-96984737D01*
X107091767Y-96996326D01*
X107194132Y-97016689D01*
X107193777Y-97018470D01*
X107250647Y-97041420D01*
X107261407Y-97050997D01*
X112875245Y-102664836D01*
X112902125Y-102705065D01*
X112955602Y-102834172D01*
X112955609Y-102834185D01*
X113043210Y-102965288D01*
X113043213Y-102965292D01*
X113154707Y-103076786D01*
X113154711Y-103076789D01*
X113285814Y-103164390D01*
X113285827Y-103164397D01*
X113431498Y-103224735D01*
X113431503Y-103224737D01*
X113586153Y-103255499D01*
X113586156Y-103255500D01*
X113586158Y-103255500D01*
X113743844Y-103255500D01*
X113743845Y-103255499D01*
X113898497Y-103224737D01*
X114044179Y-103164394D01*
X114175289Y-103076789D01*
X114286789Y-102965289D01*
X114374394Y-102834179D01*
X114434737Y-102688497D01*
X114465500Y-102533842D01*
X114465500Y-102376158D01*
X114465500Y-102376155D01*
X114465499Y-102376153D01*
X114458457Y-102340749D01*
X114434737Y-102221503D01*
X114405676Y-102151343D01*
X114374397Y-102075827D01*
X114374390Y-102075814D01*
X114286789Y-101944711D01*
X114286786Y-101944707D01*
X114175292Y-101833213D01*
X114175288Y-101833210D01*
X114044185Y-101745609D01*
X114044172Y-101745602D01*
X113898501Y-101685264D01*
X113898489Y-101685261D01*
X113743845Y-101654500D01*
X113743842Y-101654500D01*
X113685453Y-101654500D01*
X113618414Y-101634815D01*
X113597772Y-101618181D01*
X108082117Y-96102527D01*
X108048632Y-96041204D01*
X108048195Y-96039111D01*
X108036737Y-95981503D01*
X108000249Y-95893412D01*
X107976397Y-95835827D01*
X107976390Y-95835814D01*
X107888789Y-95704711D01*
X107888786Y-95704707D01*
X107777292Y-95593213D01*
X107777288Y-95593210D01*
X107646185Y-95505609D01*
X107646172Y-95505602D01*
X107500501Y-95445264D01*
X107500489Y-95445261D01*
X107345845Y-95414500D01*
X107345842Y-95414500D01*
X107188158Y-95414500D01*
X107188155Y-95414500D01*
X107033510Y-95445261D01*
X107033498Y-95445264D01*
X106887827Y-95505602D01*
X106887814Y-95505609D01*
X106756711Y-95593210D01*
X106756707Y-95593213D01*
X106645213Y-95704707D01*
X106645210Y-95704711D01*
X106557609Y-95835814D01*
X106557602Y-95835827D01*
X106497264Y-95981498D01*
X106497261Y-95981510D01*
X106466500Y-96136153D01*
X104571010Y-96136153D01*
X104571009Y-95067078D01*
X104566834Y-95028245D01*
X104566835Y-95001744D01*
X104571010Y-94962923D01*
X104571009Y-93797078D01*
X104566834Y-93758245D01*
X104566835Y-93731744D01*
X104571010Y-93692923D01*
X104571009Y-92527078D01*
X104564601Y-92467467D01*
X104537915Y-92395919D01*
X104514307Y-92332621D01*
X104514306Y-92332620D01*
X104514306Y-92332619D01*
X104509652Y-92326402D01*
X104485232Y-92260939D01*
X104500082Y-92192665D01*
X104549485Y-92143258D01*
X104617757Y-92128404D01*
X104660006Y-92139102D01*
G37*
%TD.AperFunction*%
%TA.AperFunction,Conductor*%
G36*
X104404793Y-81741223D02*
G01*
X104450585Y-81793995D01*
X104461826Y-81845585D01*
X104461826Y-92008128D01*
X104442141Y-92075167D01*
X104389337Y-92120922D01*
X104320179Y-92130866D01*
X104294493Y-92124310D01*
X104177992Y-92080858D01*
X104177993Y-92080858D01*
X104118393Y-92074451D01*
X104118391Y-92074450D01*
X104118383Y-92074450D01*
X104118374Y-92074450D01*
X102122719Y-92074450D01*
X102122713Y-92074451D01*
X102063106Y-92080858D01*
X101928261Y-92131152D01*
X101928254Y-92131156D01*
X101813045Y-92217402D01*
X101813042Y-92217405D01*
X101726796Y-92332614D01*
X101726792Y-92332621D01*
X101676498Y-92467467D01*
X101670091Y-92527066D01*
X101670091Y-92527073D01*
X101670090Y-92527085D01*
X101670090Y-93692920D01*
X101670091Y-93692926D01*
X101674264Y-93731744D01*
X101674264Y-93758252D01*
X101670090Y-93797076D01*
X101670090Y-94962920D01*
X101670091Y-94962926D01*
X101674264Y-95001744D01*
X101674264Y-95028252D01*
X101670090Y-95067076D01*
X101670090Y-95067077D01*
X101670091Y-96213000D01*
X101650406Y-96280039D01*
X101597603Y-96325794D01*
X101546091Y-96337000D01*
X101493247Y-96337000D01*
X101344968Y-96376730D01*
X101212029Y-96453484D01*
X101212026Y-96453486D01*
X99769379Y-97896133D01*
X99769377Y-97896136D01*
X99692623Y-98029075D01*
X99652893Y-98177354D01*
X99652893Y-98879044D01*
X99633208Y-98946083D01*
X99580404Y-98991838D01*
X99511246Y-99001782D01*
X99447690Y-98972757D01*
X99441212Y-98966725D01*
X99106819Y-98632332D01*
X99073334Y-98571009D01*
X99070500Y-98544651D01*
X99070500Y-98501155D01*
X99070499Y-98501153D01*
X99056780Y-98432182D01*
X99039737Y-98346503D01*
X98980146Y-98202636D01*
X98979397Y-98200827D01*
X98979395Y-98200823D01*
X98979394Y-98200821D01*
X98901497Y-98084241D01*
X98880620Y-98017565D01*
X98899104Y-97950185D01*
X98916915Y-97927674D01*
X100218797Y-96625791D01*
X100280118Y-96592308D01*
X100282128Y-96591889D01*
X100393497Y-96569737D01*
X100539179Y-96509394D01*
X100670289Y-96421789D01*
X100781789Y-96310289D01*
X100869394Y-96179179D01*
X100869607Y-96178666D01*
X100912161Y-96075929D01*
X100929737Y-96033497D01*
X100960500Y-95878842D01*
X100960500Y-95721158D01*
X100960500Y-95721155D01*
X100960499Y-95721153D01*
X100957228Y-95704707D01*
X100929737Y-95566503D01*
X100887514Y-95464566D01*
X100869397Y-95420827D01*
X100869390Y-95420814D01*
X100781789Y-95289711D01*
X100781786Y-95289707D01*
X100670292Y-95178213D01*
X100670288Y-95178210D01*
X100539185Y-95090609D01*
X100539172Y-95090602D01*
X100393501Y-95030264D01*
X100393489Y-95030261D01*
X100238845Y-94999500D01*
X100238842Y-94999500D01*
X100081158Y-94999500D01*
X100024670Y-95010735D01*
X99955078Y-95004506D01*
X99899902Y-94961642D01*
X99897379Y-94958008D01*
X99871789Y-94919711D01*
X99871786Y-94919707D01*
X99760292Y-94808213D01*
X99760288Y-94808210D01*
X99629185Y-94720609D01*
X99629172Y-94720602D01*
X99483501Y-94660264D01*
X99483489Y-94660261D01*
X99328845Y-94629500D01*
X99328842Y-94629500D01*
X99171158Y-94629500D01*
X99171155Y-94629500D01*
X99016510Y-94660261D01*
X99016498Y-94660264D01*
X98870827Y-94720602D01*
X98870809Y-94720612D01*
X98737017Y-94810009D01*
X98670340Y-94830887D01*
X98602960Y-94812402D01*
X98556270Y-94760423D01*
X98546510Y-94731098D01*
X98532419Y-94660261D01*
X98519737Y-94596503D01*
X98517702Y-94591591D01*
X98459397Y-94450827D01*
X98459390Y-94450814D01*
X98371789Y-94319711D01*
X98371786Y-94319707D01*
X98260292Y-94208213D01*
X98260288Y-94208210D01*
X98129185Y-94120609D01*
X98129172Y-94120602D01*
X97983501Y-94060264D01*
X97983489Y-94060261D01*
X97828845Y-94029500D01*
X97828842Y-94029500D01*
X97671158Y-94029500D01*
X97671155Y-94029500D01*
X97516510Y-94060261D01*
X97516498Y-94060264D01*
X97370827Y-94120602D01*
X97370814Y-94120609D01*
X97239711Y-94208210D01*
X97239707Y-94208213D01*
X97128213Y-94319707D01*
X97128210Y-94319711D01*
X97040609Y-94450814D01*
X97040602Y-94450827D01*
X96980264Y-94596498D01*
X96980261Y-94596510D01*
X96949500Y-94751153D01*
X96949500Y-94908846D01*
X96980261Y-95063489D01*
X96980264Y-95063501D01*
X97004719Y-95122540D01*
X97006855Y-95142415D01*
X97013842Y-95161146D01*
X97010514Y-95176442D01*
X97012188Y-95192009D01*
X97003239Y-95209886D01*
X96998990Y-95229419D01*
X96982303Y-95251709D01*
X96980913Y-95254488D01*
X96977839Y-95257674D01*
X96813717Y-95421795D01*
X96752394Y-95455279D01*
X96682702Y-95450295D01*
X96678584Y-95448674D01*
X96567746Y-95402764D01*
X96567734Y-95402761D01*
X96413090Y-95372000D01*
X96413087Y-95372000D01*
X96255403Y-95372000D01*
X96255400Y-95372000D01*
X96100755Y-95402761D01*
X96100743Y-95402764D01*
X95955072Y-95463102D01*
X95955059Y-95463109D01*
X95823956Y-95550710D01*
X95823952Y-95550713D01*
X95712458Y-95662207D01*
X95712455Y-95662211D01*
X95624854Y-95793314D01*
X95624847Y-95793327D01*
X95564509Y-95938998D01*
X95564506Y-95939008D01*
X95534810Y-96088297D01*
X95502425Y-96150208D01*
X95460646Y-96178666D01*
X95431824Y-96190604D01*
X95431814Y-96190609D01*
X95300711Y-96278210D01*
X95300707Y-96278213D01*
X95217181Y-96361740D01*
X95155858Y-96395225D01*
X95086166Y-96390241D01*
X95030233Y-96348369D01*
X95005816Y-96282905D01*
X95005500Y-96274059D01*
X95005500Y-95960451D01*
X95025185Y-95893412D01*
X95041814Y-95872775D01*
X100827561Y-90087027D01*
X100888884Y-90053543D01*
X100958576Y-90058527D01*
X100975178Y-90067023D01*
X100975447Y-90066521D01*
X100980815Y-90069390D01*
X100980821Y-90069394D01*
X100980827Y-90069396D01*
X100980828Y-90069397D01*
X101034880Y-90091786D01*
X101126503Y-90129737D01*
X101281153Y-90160499D01*
X101281156Y-90160500D01*
X101281158Y-90160500D01*
X101438844Y-90160500D01*
X101438845Y-90160499D01*
X101593497Y-90129737D01*
X101739179Y-90069394D01*
X101870289Y-89981789D01*
X101981789Y-89870289D01*
X102069394Y-89739179D01*
X102129737Y-89593497D01*
X102160500Y-89438842D01*
X102160500Y-89281158D01*
X102160500Y-89281155D01*
X102160499Y-89281153D01*
X102151619Y-89236510D01*
X102129737Y-89126503D01*
X102114954Y-89090814D01*
X102069397Y-88980827D01*
X102069390Y-88980814D01*
X101981789Y-88849711D01*
X101981786Y-88849707D01*
X101870292Y-88738213D01*
X101870288Y-88738210D01*
X101739185Y-88650609D01*
X101739172Y-88650602D01*
X101593501Y-88590264D01*
X101593489Y-88590261D01*
X101438845Y-88559500D01*
X101438842Y-88559500D01*
X101281158Y-88559500D01*
X101281155Y-88559500D01*
X101126510Y-88590261D01*
X101126498Y-88590264D01*
X100980827Y-88650602D01*
X100980815Y-88650609D01*
X100886541Y-88713602D01*
X100819864Y-88734480D01*
X100817650Y-88734500D01*
X100608389Y-88734500D01*
X100547971Y-88746518D01*
X100504743Y-88755116D01*
X100487546Y-88758537D01*
X100373716Y-88805687D01*
X100373707Y-88805692D01*
X100271268Y-88874140D01*
X100227705Y-88917703D01*
X100184142Y-88961267D01*
X93983858Y-95161550D01*
X93983850Y-95161558D01*
X93981270Y-95164139D01*
X93981267Y-95164142D01*
X93894142Y-95251267D01*
X93868455Y-95289711D01*
X93863724Y-95296790D01*
X93863717Y-95296799D01*
X93825690Y-95353709D01*
X93825685Y-95353718D01*
X93797889Y-95420827D01*
X93792347Y-95434207D01*
X93787768Y-95445263D01*
X93778537Y-95467545D01*
X93778535Y-95467553D01*
X93754500Y-95588389D01*
X93754500Y-100714997D01*
X93734815Y-100782036D01*
X93718181Y-100802678D01*
X90142630Y-104378229D01*
X90081307Y-104411714D01*
X90011615Y-104406730D01*
X89955682Y-104364858D01*
X89931265Y-104299394D01*
X89930949Y-104290548D01*
X89930949Y-103957078D01*
X89930948Y-103957061D01*
X89927147Y-103921717D01*
X89926523Y-103915904D01*
X89926523Y-103889392D01*
X89930449Y-103852880D01*
X89930450Y-103852869D01*
X89930450Y-103520000D01*
X89584814Y-103520000D01*
X89541478Y-103512181D01*
X89537935Y-103510859D01*
X89537930Y-103510858D01*
X89478333Y-103504451D01*
X89478331Y-103504450D01*
X89478323Y-103504450D01*
X89478315Y-103504450D01*
X87482659Y-103504450D01*
X87482653Y-103504451D01*
X87423045Y-103510859D01*
X87419498Y-103512182D01*
X87376166Y-103520000D01*
X87030530Y-103520000D01*
X87030530Y-103852880D01*
X87034456Y-103889398D01*
X87034456Y-103915906D01*
X87030030Y-103957074D01*
X87030030Y-105122920D01*
X87030031Y-105122926D01*
X87034204Y-105161744D01*
X87034204Y-105188252D01*
X87030030Y-105227076D01*
X87030030Y-106392920D01*
X87030031Y-106392926D01*
X87034204Y-106431744D01*
X87034204Y-106458252D01*
X87030030Y-106497076D01*
X87030030Y-107662920D01*
X87030031Y-107662926D01*
X87034204Y-107701744D01*
X87034204Y-107728252D01*
X87030030Y-107767076D01*
X87030030Y-108932920D01*
X87030031Y-108932926D01*
X87034204Y-108971744D01*
X87034204Y-108998252D01*
X87030030Y-109037076D01*
X87030030Y-110202920D01*
X87030031Y-110202926D01*
X87034204Y-110241744D01*
X87034204Y-110268252D01*
X87030030Y-110307076D01*
X87030030Y-111472920D01*
X87030031Y-111472926D01*
X87034204Y-111511744D01*
X87034204Y-111538252D01*
X87030030Y-111577076D01*
X87030030Y-112742920D01*
X87030031Y-112742926D01*
X87036438Y-112802533D01*
X87086732Y-112937378D01*
X87086736Y-112937385D01*
X87172982Y-113052594D01*
X87172985Y-113052597D01*
X87288194Y-113138843D01*
X87288201Y-113138847D01*
X87423047Y-113189141D01*
X87423046Y-113189141D01*
X87429974Y-113189885D01*
X87482657Y-113195550D01*
X88075601Y-113195549D01*
X88142639Y-113215233D01*
X88188394Y-113268037D01*
X88198338Y-113337196D01*
X88169313Y-113400752D01*
X88163281Y-113407230D01*
X86163529Y-115406984D01*
X86054986Y-115515526D01*
X86054984Y-115515529D01*
X85978230Y-115648468D01*
X85938500Y-115796747D01*
X85938500Y-116677223D01*
X85918815Y-116744262D01*
X85902181Y-116764904D01*
X85815213Y-116851871D01*
X85815210Y-116851875D01*
X85727609Y-116982978D01*
X85727602Y-116982991D01*
X85667264Y-117128662D01*
X85667261Y-117128674D01*
X85636500Y-117283317D01*
X85636500Y-117441010D01*
X85667261Y-117595653D01*
X85667264Y-117595665D01*
X85727602Y-117741336D01*
X85727609Y-117741349D01*
X85815210Y-117872452D01*
X85815213Y-117872456D01*
X85926707Y-117983950D01*
X85926711Y-117983953D01*
X86057814Y-118071554D01*
X86057827Y-118071561D01*
X86203498Y-118131899D01*
X86203503Y-118131901D01*
X86294191Y-118149940D01*
X86356102Y-118182324D01*
X86390676Y-118243040D01*
X86394000Y-118271557D01*
X86394000Y-120168661D01*
X86374315Y-120235700D01*
X86321511Y-120281455D01*
X86252353Y-120291399D01*
X86250602Y-120291134D01*
X86150942Y-120275349D01*
X86045595Y-120258664D01*
X85833021Y-120258664D01*
X85784350Y-120266372D01*
X85623068Y-120291917D01*
X85420893Y-120357608D01*
X85231487Y-120454115D01*
X85059521Y-120579054D01*
X84909198Y-120729377D01*
X84784259Y-120901343D01*
X84687752Y-121090749D01*
X84622061Y-121292924D01*
X84600392Y-121429737D01*
X84588808Y-121502877D01*
X84588808Y-121715451D01*
X84597227Y-121768605D01*
X84621936Y-121924616D01*
X84622062Y-121925407D01*
X84685556Y-122120821D01*
X84687752Y-122127578D01*
X84784259Y-122316984D01*
X84909198Y-122488950D01*
X85059521Y-122639273D01*
X85231487Y-122764212D01*
X85231489Y-122764213D01*
X85231492Y-122764215D01*
X85420896Y-122860721D01*
X85623065Y-122926410D01*
X85833021Y-122959664D01*
X85833022Y-122959664D01*
X86045594Y-122959664D01*
X86045595Y-122959664D01*
X86255551Y-122926410D01*
X86457720Y-122860721D01*
X86647124Y-122764215D01*
X86673251Y-122745233D01*
X86819094Y-122639273D01*
X86819096Y-122639270D01*
X86819100Y-122639268D01*
X86969412Y-122488956D01*
X86969414Y-122488952D01*
X86969417Y-122488950D01*
X87094356Y-122316984D01*
X87094355Y-122316984D01*
X87094359Y-122316980D01*
X87190865Y-122127576D01*
X87256554Y-121925407D01*
X87265569Y-121868488D01*
X87270960Y-121857114D01*
X87271859Y-121844556D01*
X87285642Y-121826143D01*
X87295496Y-121805358D01*
X87306186Y-121798701D01*
X87313731Y-121788623D01*
X87335279Y-121780585D01*
X87354808Y-121768426D01*
X87367398Y-121768605D01*
X87379195Y-121764206D01*
X87401671Y-121769095D01*
X87424670Y-121769424D01*
X87436796Y-121776736D01*
X87447468Y-121779058D01*
X87475722Y-121800209D01*
X87488683Y-121813170D01*
X87522168Y-121874493D01*
X87525002Y-121900851D01*
X87525002Y-122035344D01*
X87555763Y-122189987D01*
X87555766Y-122189999D01*
X87616104Y-122335670D01*
X87616111Y-122335683D01*
X87703712Y-122466786D01*
X87703715Y-122466790D01*
X87815209Y-122578284D01*
X87815213Y-122578287D01*
X87946316Y-122665888D01*
X87946329Y-122665895D01*
X88072179Y-122718023D01*
X88092005Y-122726235D01*
X88230764Y-122753836D01*
X88246655Y-122756997D01*
X88246658Y-122756998D01*
X88246660Y-122756998D01*
X88250153Y-122756998D01*
X88251916Y-122757515D01*
X88252720Y-122757595D01*
X88252704Y-122757747D01*
X88317192Y-122776683D01*
X88337834Y-122793317D01*
X88394069Y-122849552D01*
X88527010Y-122926306D01*
X88527012Y-122926306D01*
X88527013Y-122926307D01*
X88560076Y-122935166D01*
X88570904Y-122941765D01*
X88583390Y-122944007D01*
X88600173Y-122959605D01*
X88619737Y-122971529D01*
X88626493Y-122984066D01*
X88634570Y-122991572D01*
X88644532Y-123017535D01*
X88648106Y-123024167D01*
X88648944Y-123027440D01*
X88670538Y-123135997D01*
X88686837Y-123175349D01*
X88689024Y-123183882D01*
X88688102Y-123210345D01*
X88690933Y-123236674D01*
X88686905Y-123244718D01*
X88686593Y-123253709D01*
X88671510Y-123275472D01*
X88659657Y-123299153D01*
X88656584Y-123302337D01*
X88589213Y-123369707D01*
X88589210Y-123369711D01*
X88501609Y-123500814D01*
X88501602Y-123500827D01*
X88441264Y-123646498D01*
X88441261Y-123646510D01*
X88410500Y-123801153D01*
X88410500Y-123958846D01*
X88441261Y-124113489D01*
X88441264Y-124113501D01*
X88501602Y-124259172D01*
X88501609Y-124259185D01*
X88589210Y-124390288D01*
X88589213Y-124390292D01*
X88609946Y-124411025D01*
X88643431Y-124472348D01*
X88638447Y-124542040D01*
X88636826Y-124546158D01*
X88595264Y-124646498D01*
X88595261Y-124646510D01*
X88564500Y-124801153D01*
X88564500Y-124958846D01*
X88595261Y-125113489D01*
X88595264Y-125113501D01*
X88655602Y-125259172D01*
X88655609Y-125259185D01*
X88743210Y-125390288D01*
X88743213Y-125390292D01*
X88854707Y-125501786D01*
X88854711Y-125501789D01*
X88985814Y-125589390D01*
X88985827Y-125589397D01*
X89062970Y-125621350D01*
X89131503Y-125649737D01*
X89286153Y-125680499D01*
X89286156Y-125680500D01*
X89286158Y-125680500D01*
X89443844Y-125680500D01*
X89443845Y-125680499D01*
X89598497Y-125649737D01*
X89744179Y-125589394D01*
X89875289Y-125501789D01*
X89875292Y-125501786D01*
X89877760Y-125499319D01*
X89879371Y-125498439D01*
X89879999Y-125497924D01*
X89880096Y-125498043D01*
X89904687Y-125484615D01*
X89930506Y-125468023D01*
X89936706Y-125467131D01*
X89939083Y-125465834D01*
X89965441Y-125463000D01*
X90162902Y-125463000D01*
X90210354Y-125472438D01*
X90314764Y-125515687D01*
X90427280Y-125530500D01*
X90427287Y-125530500D01*
X91765500Y-125530500D01*
X91832539Y-125550185D01*
X91878294Y-125602989D01*
X91889500Y-125654500D01*
X91889500Y-126992727D01*
X91904313Y-127105235D01*
X91904313Y-127105236D01*
X91930061Y-127167396D01*
X91931687Y-127175573D01*
X91934477Y-127179914D01*
X91939500Y-127214849D01*
X91939500Y-127258774D01*
X91919815Y-127325813D01*
X91878622Y-127365505D01*
X91854320Y-127379877D01*
X91854308Y-127379886D01*
X91811016Y-127423180D01*
X91749693Y-127456666D01*
X91723334Y-127459500D01*
X87989766Y-127459500D01*
X87922727Y-127439815D01*
X87920875Y-127438602D01*
X87789185Y-127350609D01*
X87789172Y-127350602D01*
X87643501Y-127290264D01*
X87643489Y-127290261D01*
X87488845Y-127259500D01*
X87488842Y-127259500D01*
X87331158Y-127259500D01*
X87331155Y-127259500D01*
X87176510Y-127290261D01*
X87176498Y-127290264D01*
X87030827Y-127350602D01*
X87030814Y-127350609D01*
X86899710Y-127438210D01*
X86895882Y-127441353D01*
X86831572Y-127468666D01*
X86817217Y-127469500D01*
X84410097Y-127469500D01*
X84343058Y-127449815D01*
X84322416Y-127433181D01*
X83809171Y-126919936D01*
X83775686Y-126858613D01*
X83780670Y-126788921D01*
X83822542Y-126732988D01*
X83837117Y-126723592D01*
X83871862Y-126704491D01*
X83899339Y-126681023D01*
X84181022Y-126399339D01*
X84204491Y-126371862D01*
X84281843Y-126231158D01*
X84321774Y-126075638D01*
X84321774Y-125915073D01*
X84321773Y-125915070D01*
X84320796Y-125907336D01*
X84323717Y-125906966D01*
X84325635Y-125850972D01*
X84335958Y-125827960D01*
X84343635Y-125814665D01*
X84383365Y-125666388D01*
X84383365Y-125512882D01*
X84383365Y-125468825D01*
X84403050Y-125401786D01*
X84419679Y-125381148D01*
X84518213Y-125282615D01*
X84541863Y-125254925D01*
X84619823Y-125113114D01*
X84660068Y-124956370D01*
X84660068Y-124794542D01*
X84619823Y-124637798D01*
X84619823Y-124637797D01*
X84541864Y-124495989D01*
X84541863Y-124495987D01*
X84518213Y-124468297D01*
X84518198Y-124468281D01*
X84228752Y-124178835D01*
X84228735Y-124178819D01*
X84201048Y-124155172D01*
X84201044Y-124155169D01*
X84059238Y-124077211D01*
X84036184Y-124071292D01*
X83976146Y-124035554D01*
X83946919Y-123982025D01*
X83941001Y-123958976D01*
X83863041Y-123817165D01*
X83839391Y-123789475D01*
X83839376Y-123789459D01*
X83549930Y-123500013D01*
X83549913Y-123499997D01*
X83522226Y-123476350D01*
X83522222Y-123476347D01*
X83380414Y-123398388D01*
X83223673Y-123358144D01*
X83223670Y-123358144D01*
X83061842Y-123358144D01*
X83061838Y-123358144D01*
X82905097Y-123398388D01*
X82763289Y-123476347D01*
X82763285Y-123476350D01*
X82735598Y-123499997D01*
X82735581Y-123500013D01*
X82462749Y-123772845D01*
X82445289Y-123782378D01*
X82430748Y-123795960D01*
X82415250Y-123798781D01*
X82401426Y-123806330D01*
X82381580Y-123804910D01*
X82362008Y-123808474D01*
X82341524Y-123802046D01*
X82331734Y-123801346D01*
X82327796Y-123799800D01*
X82321395Y-123797160D01*
X82250448Y-123758157D01*
X82187805Y-123742073D01*
X82179776Y-123738762D01*
X82159033Y-123722100D01*
X82136171Y-123708491D01*
X82132214Y-123700557D01*
X82125304Y-123695007D01*
X82116861Y-123669774D01*
X82104987Y-123645966D01*
X82103575Y-123630067D01*
X82103134Y-123628748D01*
X82103374Y-123627800D01*
X82103048Y-123624126D01*
X82103048Y-123611155D01*
X82103047Y-123611153D01*
X82098110Y-123586334D01*
X82072285Y-123456503D01*
X82054662Y-123413957D01*
X82011945Y-123310827D01*
X82011938Y-123310814D01*
X81924337Y-123179711D01*
X81924334Y-123179707D01*
X81812840Y-123068213D01*
X81812836Y-123068210D01*
X81681733Y-122980609D01*
X81681720Y-122980602D01*
X81536049Y-122920264D01*
X81536037Y-122920261D01*
X81381393Y-122889500D01*
X81381390Y-122889500D01*
X81223706Y-122889500D01*
X81223703Y-122889500D01*
X81069058Y-122920261D01*
X81069046Y-122920264D01*
X80923375Y-122980602D01*
X80923362Y-122980609D01*
X80792259Y-123068210D01*
X80792255Y-123068213D01*
X80680761Y-123179707D01*
X80680758Y-123179711D01*
X80593157Y-123310814D01*
X80593150Y-123310827D01*
X80532812Y-123456498D01*
X80532809Y-123456510D01*
X80502048Y-123611153D01*
X80502048Y-123768846D01*
X80532809Y-123923489D01*
X80532812Y-123923501D01*
X80593150Y-124069172D01*
X80593157Y-124069185D01*
X80680758Y-124200288D01*
X80680761Y-124200292D01*
X80792255Y-124311786D01*
X80792259Y-124311789D01*
X80884787Y-124373615D01*
X80929592Y-124427227D01*
X80938659Y-124494188D01*
X80930758Y-124549701D01*
X81321378Y-124940320D01*
X81327986Y-124947468D01*
X81328968Y-124948618D01*
X81328982Y-124948633D01*
X81505174Y-125124825D01*
X81681374Y-125301024D01*
X81681375Y-125301025D01*
X81682520Y-125302003D01*
X81689666Y-125308609D01*
X82080296Y-125699240D01*
X82150125Y-125572223D01*
X82150126Y-125572219D01*
X82166650Y-125507861D01*
X82202387Y-125447823D01*
X82255913Y-125418595D01*
X82321158Y-125401843D01*
X82335010Y-125394228D01*
X82461859Y-125324493D01*
X82461859Y-125324492D01*
X82461862Y-125324491D01*
X82489339Y-125301023D01*
X82591044Y-125199317D01*
X82617975Y-125184611D01*
X82643789Y-125168023D01*
X82649988Y-125167131D01*
X82652365Y-125165834D01*
X82678724Y-125163000D01*
X82797276Y-125163000D01*
X82864315Y-125182685D01*
X82910070Y-125235489D01*
X82920014Y-125304647D01*
X82890989Y-125368203D01*
X82884957Y-125374681D01*
X82738994Y-125520643D01*
X82738983Y-125520655D01*
X82715509Y-125548137D01*
X82638158Y-125688838D01*
X82638156Y-125688845D01*
X82621547Y-125753530D01*
X82585808Y-125813568D01*
X82532282Y-125842795D01*
X82467597Y-125859404D01*
X82467596Y-125859404D01*
X82326888Y-125936757D01*
X82299414Y-125960223D01*
X82299397Y-125960239D01*
X82017746Y-126241891D01*
X82017735Y-126241903D01*
X81994263Y-126269383D01*
X81916909Y-126410089D01*
X81915335Y-126416220D01*
X81911893Y-126422002D01*
X81911413Y-126428716D01*
X81894247Y-126451645D01*
X81879597Y-126476258D01*
X81873573Y-126479262D01*
X81869541Y-126484649D01*
X81842706Y-126494657D01*
X81817073Y-126507443D01*
X81810382Y-126506714D01*
X81804077Y-126509066D01*
X81776088Y-126502977D01*
X81747614Y-126499875D01*
X81740768Y-126495294D01*
X81735804Y-126494214D01*
X81707550Y-126473063D01*
X81559404Y-126324917D01*
X81525919Y-126263594D01*
X81530903Y-126193902D01*
X81572775Y-126137969D01*
X81593033Y-126126644D01*
X81592888Y-126126381D01*
X81726743Y-126052792D01*
X81151975Y-125478025D01*
X80577205Y-124903255D01*
X80503618Y-125037112D01*
X80502054Y-125036252D01*
X80465075Y-125083646D01*
X80399136Y-125106750D01*
X80331173Y-125090537D01*
X80305082Y-125070595D01*
X79138071Y-123903584D01*
X79104586Y-123842261D01*
X79101752Y-123815903D01*
X79101752Y-120891688D01*
X79121437Y-120824649D01*
X79138072Y-120804005D01*
X79140541Y-120801537D01*
X79228146Y-120670427D01*
X79288489Y-120524745D01*
X79319252Y-120370090D01*
X79319252Y-120212406D01*
X79319252Y-120212403D01*
X79319251Y-120212401D01*
X79288489Y-120057751D01*
X79284936Y-120049173D01*
X79228149Y-119912075D01*
X79228142Y-119912062D01*
X79140541Y-119780959D01*
X79140538Y-119780955D01*
X79029044Y-119669461D01*
X79029040Y-119669458D01*
X78897937Y-119581857D01*
X78897924Y-119581850D01*
X78752253Y-119521512D01*
X78752241Y-119521509D01*
X78597597Y-119490748D01*
X78597594Y-119490748D01*
X78439910Y-119490748D01*
X78439907Y-119490748D01*
X78285262Y-119521509D01*
X78285250Y-119521512D01*
X78139579Y-119581850D01*
X78139566Y-119581857D01*
X78008463Y-119669458D01*
X78008459Y-119669461D01*
X77896965Y-119780955D01*
X77896962Y-119780959D01*
X77809361Y-119912062D01*
X77809354Y-119912075D01*
X77749016Y-120057746D01*
X77749013Y-120057758D01*
X77718252Y-120212401D01*
X77718252Y-120370094D01*
X77749013Y-120524737D01*
X77749016Y-120524749D01*
X77809354Y-120670420D01*
X77809361Y-120670433D01*
X77896960Y-120801534D01*
X77896962Y-120801536D01*
X77896963Y-120801537D01*
X77899428Y-120804002D01*
X77900308Y-120805613D01*
X77900828Y-120806247D01*
X77900707Y-120806345D01*
X77932916Y-120865321D01*
X77935752Y-120891688D01*
X77935752Y-124031999D01*
X77935752Y-124185505D01*
X77955401Y-124258836D01*
X77975482Y-124333783D01*
X78008108Y-124390292D01*
X78052236Y-124466723D01*
X84303482Y-130717968D01*
X84303484Y-130717971D01*
X84379720Y-130794207D01*
X84413204Y-130855528D01*
X84408220Y-130925220D01*
X84369786Y-130976563D01*
X84366348Y-130981155D01*
X84340702Y-130990720D01*
X84300885Y-131005571D01*
X84300883Y-131005570D01*
X84300883Y-131005571D01*
X84271181Y-130999109D01*
X84232612Y-130990720D01*
X84227186Y-130987576D01*
X83919857Y-130798996D01*
X83915432Y-130796150D01*
X83145391Y-130277437D01*
X83141091Y-130274406D01*
X82393748Y-129723496D01*
X82389580Y-129720285D01*
X81666278Y-129138169D01*
X81662250Y-129134784D01*
X81654484Y-129127971D01*
X80964271Y-128522490D01*
X80960401Y-128518946D01*
X80925126Y-128485249D01*
X80632994Y-128206182D01*
X80289064Y-127877634D01*
X80285337Y-127873920D01*
X79641785Y-127204684D01*
X79638220Y-127200816D01*
X79569575Y-127123085D01*
X79023623Y-126504869D01*
X79020233Y-126500861D01*
X79018172Y-126498318D01*
X78435732Y-125779494D01*
X78432513Y-125775344D01*
X78422515Y-125761875D01*
X77879120Y-125029808D01*
X77876081Y-125025526D01*
X77870833Y-125017791D01*
X77354822Y-124257202D01*
X77351967Y-124252796D01*
X77324716Y-124208713D01*
X76865935Y-123466557D01*
X76865632Y-123466061D01*
X76862751Y-123461317D01*
X76860631Y-123457686D01*
X76414390Y-122662234D01*
X76414069Y-122661656D01*
X76404623Y-122644486D01*
X76402654Y-122640757D01*
X76402524Y-122640500D01*
X75996430Y-121838687D01*
X75996088Y-121838004D01*
X75981681Y-121808941D01*
X75979886Y-121805158D01*
X75673723Y-121131154D01*
X75613014Y-120997507D01*
X75612569Y-120996515D01*
X75594651Y-120956114D01*
X75593067Y-120952374D01*
X75264811Y-120139849D01*
X75264513Y-120139101D01*
X75244262Y-120087601D01*
X75242880Y-120083908D01*
X74952790Y-119267768D01*
X74952539Y-119267051D01*
X74931161Y-119205023D01*
X74929929Y-119201248D01*
X74677497Y-118382541D01*
X74677267Y-118381782D01*
X74655910Y-118309986D01*
X74654847Y-118306191D01*
X74439556Y-117485832D01*
X74439351Y-117485033D01*
X74418986Y-117404055D01*
X74418080Y-117400187D01*
X74239514Y-116579403D01*
X74239347Y-116578614D01*
X74220798Y-116488777D01*
X74220097Y-116485084D01*
X74077787Y-115664827D01*
X74077638Y-115663936D01*
X74061757Y-115566055D01*
X74061202Y-115562257D01*
X73954734Y-114743761D01*
X73954598Y-114742667D01*
X73942107Y-114637381D01*
X73941723Y-114633643D01*
X73870622Y-113817695D01*
X73870533Y-113816595D01*
X73862075Y-113704503D01*
X73861852Y-113700792D01*
X73825693Y-112888539D01*
X73825659Y-112887665D01*
X73821798Y-112769096D01*
X73821733Y-112765328D01*
X73821274Y-112542102D01*
X73820074Y-111958239D01*
X73820079Y-111956952D01*
X73821347Y-111832770D01*
X73821442Y-111829052D01*
X73821686Y-111823023D01*
X73853812Y-111027779D01*
X73853862Y-111026720D01*
X73860726Y-110897265D01*
X73860960Y-110893819D01*
X73926900Y-110099349D01*
X73926990Y-110098354D01*
X73939847Y-109964470D01*
X73940237Y-109960948D01*
X74039229Y-109174672D01*
X74039385Y-109173501D01*
X74058575Y-109035839D01*
X74059113Y-109032344D01*
X74190633Y-108255334D01*
X74190871Y-108253983D01*
X74216689Y-108113115D01*
X74217367Y-108109693D01*
X74380882Y-107342930D01*
X74381203Y-107341475D01*
X74413901Y-107197969D01*
X74414706Y-107194655D01*
X74609671Y-106439112D01*
X74610048Y-106437695D01*
X74649872Y-106291985D01*
X74650773Y-106288864D01*
X74876587Y-105545648D01*
X74877062Y-105544126D01*
X74924099Y-105397061D01*
X74925134Y-105393969D01*
X75181220Y-104664001D01*
X75181766Y-104662483D01*
X75236155Y-104514549D01*
X75237325Y-104511498D01*
X75523015Y-103795880D01*
X75523579Y-103794498D01*
X75585449Y-103646133D01*
X75586720Y-103643198D01*
X75901312Y-102943008D01*
X75901993Y-102941522D01*
X75971358Y-102793354D01*
X75972714Y-102790557D01*
X76315584Y-102106615D01*
X76316326Y-102105166D01*
X76393136Y-101957847D01*
X76394609Y-101955111D01*
X76764946Y-101288557D01*
X76765836Y-101286985D01*
X76850045Y-101141055D01*
X76851601Y-101138439D01*
X77248786Y-100489980D01*
X77249648Y-100488597D01*
X77341296Y-100344391D01*
X77342855Y-100342007D01*
X77766055Y-99712667D01*
X77767084Y-99711164D01*
X77865858Y-99569510D01*
X77867599Y-99567079D01*
X78315911Y-98957893D01*
X78317059Y-98956361D01*
X78422925Y-98817582D01*
X78424791Y-98815199D01*
X78897414Y-98226982D01*
X78898631Y-98225494D01*
X79011473Y-98089998D01*
X79013260Y-98087906D01*
X79509554Y-97521242D01*
X79510791Y-97519856D01*
X79630312Y-97388218D01*
X79632241Y-97386146D01*
X80151070Y-96842152D01*
X80152470Y-96840710D01*
X80278412Y-96713391D01*
X80280425Y-96711405D01*
X80820989Y-96190751D01*
X80822339Y-96189474D01*
X80954678Y-96066662D01*
X80956574Y-96064945D01*
X81518001Y-95568342D01*
X81519553Y-95566995D01*
X81657579Y-95449478D01*
X81659698Y-95447717D01*
X82240860Y-94976046D01*
X82242465Y-94974768D01*
X82386169Y-94862651D01*
X82388278Y-94861044D01*
X82988307Y-94414909D01*
X82990077Y-94413620D01*
X83139010Y-94307345D01*
X83141179Y-94305835D01*
X83758976Y-93885974D01*
X83760801Y-93884760D01*
X83914698Y-93784586D01*
X83916828Y-93783232D01*
X84551545Y-93390163D01*
X84553412Y-93389033D01*
X84711889Y-93295271D01*
X84714009Y-93294048D01*
X85364396Y-92928500D01*
X85366432Y-92927383D01*
X85529100Y-92840305D01*
X85531168Y-92839227D01*
X86196317Y-92501678D01*
X86198431Y-92500633D01*
X86364651Y-92420600D01*
X86366964Y-92419517D01*
X86923285Y-92166272D01*
X86992456Y-92156414D01*
X87055976Y-92185516D01*
X87093679Y-92244340D01*
X87093593Y-92314210D01*
X87089460Y-92324170D01*
X87089833Y-92324309D01*
X87036438Y-92467467D01*
X87030031Y-92527066D01*
X87030031Y-92527073D01*
X87030030Y-92527085D01*
X87030030Y-93455500D01*
X87010345Y-93522539D01*
X86957541Y-93568294D01*
X86906030Y-93579500D01*
X86847083Y-93579500D01*
X86692438Y-93610261D01*
X86692426Y-93610264D01*
X86546755Y-93670602D01*
X86546742Y-93670609D01*
X86415639Y-93758210D01*
X86415635Y-93758213D01*
X86304141Y-93869707D01*
X86304138Y-93869711D01*
X86216537Y-94000814D01*
X86216530Y-94000827D01*
X86156192Y-94146498D01*
X86156189Y-94146510D01*
X86125428Y-94301153D01*
X86125428Y-94458846D01*
X86156189Y-94613489D01*
X86156192Y-94613501D01*
X86216530Y-94759172D01*
X86216537Y-94759185D01*
X86304138Y-94890288D01*
X86304141Y-94890292D01*
X86415635Y-95001786D01*
X86415639Y-95001789D01*
X86546742Y-95089390D01*
X86546755Y-95089397D01*
X86674754Y-95142415D01*
X86692431Y-95149737D01*
X86835589Y-95178213D01*
X86847081Y-95180499D01*
X86847084Y-95180500D01*
X86906030Y-95180500D01*
X86973069Y-95200185D01*
X87018824Y-95252989D01*
X87030030Y-95304500D01*
X87030030Y-96022402D01*
X87010345Y-96089441D01*
X86957541Y-96135196D01*
X86888383Y-96145140D01*
X86881839Y-96144019D01*
X86808846Y-96129500D01*
X86808842Y-96129500D01*
X86651158Y-96129500D01*
X86651155Y-96129500D01*
X86496510Y-96160261D01*
X86496498Y-96160264D01*
X86350827Y-96220602D01*
X86350814Y-96220609D01*
X86219710Y-96308210D01*
X86215882Y-96311353D01*
X86151572Y-96338666D01*
X86137217Y-96339500D01*
X85606670Y-96339500D01*
X85606654Y-96339499D01*
X85599058Y-96339499D01*
X85440943Y-96339499D01*
X85364579Y-96359961D01*
X85288214Y-96380423D01*
X85288209Y-96380426D01*
X85151290Y-96459475D01*
X85151282Y-96459481D01*
X84067547Y-97543216D01*
X84006224Y-97576701D01*
X83936532Y-97571717D01*
X83883315Y-97533342D01*
X83851401Y-97493738D01*
X83851396Y-97493733D01*
X83851392Y-97493728D01*
X82581620Y-96223959D01*
X82581614Y-96223954D01*
X82577464Y-96220609D01*
X82534934Y-96186334D01*
X82404020Y-96126547D01*
X82404016Y-96126546D01*
X82261561Y-96106066D01*
X82119105Y-96126546D01*
X82119101Y-96126547D01*
X81988190Y-96186333D01*
X81941495Y-96223962D01*
X80671726Y-97493734D01*
X80671717Y-97493744D01*
X80634101Y-97540420D01*
X80574314Y-97671334D01*
X80574313Y-97671338D01*
X80553833Y-97813794D01*
X80574313Y-97956249D01*
X80574314Y-97956253D01*
X80634101Y-98087166D01*
X80634102Y-98087168D01*
X80671712Y-98133839D01*
X80671712Y-98133840D01*
X80671716Y-98133844D01*
X80671721Y-98133850D01*
X80679189Y-98141318D01*
X80712675Y-98202636D01*
X80715510Y-98229000D01*
X80715510Y-99176833D01*
X80658503Y-99143920D01*
X80531336Y-99109845D01*
X80399684Y-99109845D01*
X80272517Y-99143920D01*
X80215510Y-99176833D01*
X80215510Y-98282613D01*
X80215509Y-98282613D01*
X80149385Y-98293086D01*
X79947294Y-98358748D01*
X79757952Y-98455224D01*
X79586050Y-98580117D01*
X79586045Y-98580121D01*
X79435786Y-98730380D01*
X79435782Y-98730385D01*
X79310889Y-98902287D01*
X79214414Y-99091627D01*
X79148752Y-99293715D01*
X79148752Y-99293718D01*
X79138279Y-99359845D01*
X80032498Y-99359845D01*
X79999585Y-99416852D01*
X79965510Y-99544019D01*
X79965510Y-99675671D01*
X79999585Y-99802838D01*
X80032498Y-99859845D01*
X79138279Y-99859845D01*
X79148752Y-99925971D01*
X79148752Y-99925974D01*
X79214414Y-100128062D01*
X79310889Y-100317402D01*
X79435782Y-100489304D01*
X79435786Y-100489309D01*
X79586045Y-100639568D01*
X79586050Y-100639572D01*
X79757952Y-100764465D01*
X79947292Y-100860940D01*
X80149381Y-100926602D01*
X80215510Y-100937076D01*
X80215510Y-100042857D01*
X80272517Y-100075770D01*
X80399684Y-100109845D01*
X80531336Y-100109845D01*
X80658503Y-100075770D01*
X80715510Y-100042857D01*
X80715510Y-100937075D01*
X80746101Y-100932231D01*
X80764626Y-100934624D01*
X80783118Y-100931962D01*
X80798559Y-100939009D01*
X80815394Y-100941185D01*
X80829684Y-100953215D01*
X80846680Y-100960972D01*
X80855861Y-100975251D01*
X80868846Y-100986182D01*
X80874364Y-101004027D01*
X80884468Y-101019742D01*
X80887205Y-101038769D01*
X80887812Y-101038668D01*
X80887813Y-101038674D01*
X80888653Y-101048825D01*
X80889033Y-101051470D01*
X80889486Y-101052933D01*
X80889499Y-101054676D01*
X80889500Y-101059031D01*
X80889499Y-101059034D01*
X80889499Y-101059046D01*
X80889500Y-101059059D01*
X80889500Y-116448309D01*
X80869815Y-116515348D01*
X80865560Y-116521194D01*
X80775609Y-116655814D01*
X80775602Y-116655827D01*
X80715264Y-116801498D01*
X80715261Y-116801510D01*
X80684500Y-116956153D01*
X80684500Y-117113846D01*
X80715261Y-117268489D01*
X80715264Y-117268501D01*
X80775602Y-117414172D01*
X80775609Y-117414185D01*
X80863210Y-117545288D01*
X80863213Y-117545292D01*
X80974707Y-117656786D01*
X80974711Y-117656789D01*
X81105814Y-117744390D01*
X81105827Y-117744397D01*
X81231455Y-117796433D01*
X81251503Y-117804737D01*
X81406153Y-117835499D01*
X81406156Y-117835500D01*
X81406158Y-117835500D01*
X81563844Y-117835500D01*
X81563845Y-117835499D01*
X81718497Y-117804737D01*
X81864179Y-117744394D01*
X81995289Y-117656789D01*
X82106789Y-117545289D01*
X82194394Y-117414179D01*
X82198588Y-117404055D01*
X82232099Y-117323150D01*
X82254737Y-117268497D01*
X82285500Y-117113842D01*
X82285500Y-116956158D01*
X82285500Y-116956155D01*
X82285499Y-116956153D01*
X82270369Y-116880089D01*
X82254737Y-116801503D01*
X82254735Y-116801498D01*
X82194397Y-116655827D01*
X82194390Y-116655814D01*
X82111398Y-116531608D01*
X82090520Y-116464930D01*
X82090500Y-116462717D01*
X82090500Y-102842877D01*
X83228808Y-102842877D01*
X83228808Y-103055450D01*
X83260492Y-103255499D01*
X83262062Y-103265407D01*
X83262844Y-103267815D01*
X83327752Y-103467578D01*
X83424259Y-103656984D01*
X83549198Y-103828950D01*
X83699521Y-103979273D01*
X83871487Y-104104212D01*
X83871489Y-104104213D01*
X83871492Y-104104215D01*
X84060896Y-104200721D01*
X84263065Y-104266410D01*
X84473021Y-104299664D01*
X84473022Y-104299664D01*
X84685594Y-104299664D01*
X84685595Y-104299664D01*
X84895551Y-104266410D01*
X85097720Y-104200721D01*
X85287124Y-104104215D01*
X85360911Y-104050606D01*
X85459094Y-103979273D01*
X85459096Y-103979270D01*
X85459100Y-103979268D01*
X85609412Y-103828956D01*
X85609414Y-103828952D01*
X85609417Y-103828950D01*
X85734356Y-103656984D01*
X85734355Y-103656984D01*
X85734359Y-103656980D01*
X85830865Y-103467576D01*
X85896554Y-103265407D01*
X85929808Y-103055451D01*
X85929808Y-102842877D01*
X85896554Y-102632921D01*
X85830865Y-102430752D01*
X85734359Y-102241348D01*
X85734357Y-102241345D01*
X85734356Y-102241343D01*
X85609417Y-102069377D01*
X85459094Y-101919054D01*
X85287128Y-101794115D01*
X85097722Y-101697608D01*
X85097721Y-101697607D01*
X85097720Y-101697607D01*
X84895551Y-101631918D01*
X84895549Y-101631917D01*
X84895548Y-101631917D01*
X84734265Y-101606372D01*
X84685595Y-101598664D01*
X84473021Y-101598664D01*
X84424350Y-101606372D01*
X84263068Y-101631917D01*
X84060893Y-101697608D01*
X83871487Y-101794115D01*
X83699521Y-101919054D01*
X83549198Y-102069377D01*
X83424259Y-102241343D01*
X83327752Y-102430749D01*
X83262061Y-102632924D01*
X83228808Y-102842877D01*
X82090500Y-102842877D01*
X82090500Y-101270097D01*
X82110185Y-101203058D01*
X82126819Y-101182416D01*
X83266353Y-100042882D01*
X87030530Y-100042882D01*
X87034708Y-100081747D01*
X87034708Y-100108253D01*
X87030530Y-100147117D01*
X87030530Y-100480000D01*
X88230490Y-100480000D01*
X88230490Y-99710000D01*
X87030530Y-99710000D01*
X87030530Y-100042882D01*
X83266353Y-100042882D01*
X83738278Y-99570957D01*
X83932305Y-99376931D01*
X85732417Y-97576819D01*
X85793740Y-97543334D01*
X85820098Y-97540500D01*
X86165200Y-97540500D01*
X86232239Y-97560185D01*
X86234091Y-97561398D01*
X86350814Y-97639390D01*
X86350827Y-97639397D01*
X86427941Y-97671338D01*
X86496503Y-97699737D01*
X86578162Y-97715980D01*
X86651153Y-97730499D01*
X86651156Y-97730500D01*
X86651158Y-97730500D01*
X86808843Y-97730500D01*
X86881838Y-97715980D01*
X86951429Y-97722207D01*
X87006607Y-97765069D01*
X87029852Y-97830959D01*
X87030030Y-97837597D01*
X87030030Y-98772919D01*
X87030031Y-98772928D01*
X87034456Y-98814092D01*
X87034456Y-98840597D01*
X87030530Y-98877117D01*
X87030530Y-99210000D01*
X87376166Y-99210000D01*
X87419502Y-99217819D01*
X87423044Y-99219140D01*
X87423047Y-99219141D01*
X87482657Y-99225550D01*
X89478322Y-99225549D01*
X89537933Y-99219141D01*
X89539623Y-99218510D01*
X89541482Y-99217818D01*
X89584814Y-99210000D01*
X89930450Y-99210000D01*
X89930450Y-98877130D01*
X89930449Y-98877116D01*
X89926523Y-98840603D01*
X89926523Y-98814098D01*
X89930950Y-98772923D01*
X89930949Y-97607078D01*
X89930948Y-97607061D01*
X89926523Y-97565906D01*
X89926523Y-97539392D01*
X89930449Y-97502880D01*
X89930450Y-97502869D01*
X89930450Y-97170000D01*
X89584814Y-97170000D01*
X89541478Y-97162181D01*
X89537935Y-97160859D01*
X89537930Y-97160858D01*
X89478333Y-97154451D01*
X89478331Y-97154450D01*
X89478323Y-97154450D01*
X89478315Y-97154450D01*
X88604490Y-97154450D01*
X88595804Y-97151899D01*
X88586843Y-97153188D01*
X88562802Y-97142209D01*
X88537451Y-97134765D01*
X88531523Y-97127924D01*
X88523287Y-97124163D01*
X88508997Y-97101928D01*
X88491696Y-97081961D01*
X88489408Y-97071446D01*
X88485513Y-97065385D01*
X88480490Y-97030450D01*
X88480490Y-96809549D01*
X88500175Y-96742510D01*
X88552979Y-96696755D01*
X88604490Y-96685549D01*
X89478321Y-96685549D01*
X89478322Y-96685549D01*
X89537933Y-96679141D01*
X89539623Y-96678510D01*
X89541482Y-96677818D01*
X89584814Y-96670000D01*
X89930450Y-96670000D01*
X89930450Y-96504776D01*
X89950135Y-96437737D01*
X90002939Y-96391982D01*
X90072097Y-96382038D01*
X90101897Y-96390213D01*
X90244003Y-96449075D01*
X90317192Y-96463633D01*
X90379102Y-96496017D01*
X90413676Y-96556733D01*
X90417000Y-96585250D01*
X90417000Y-100087151D01*
X90415017Y-100093903D01*
X90416243Y-100100834D01*
X90405300Y-100126993D01*
X90397315Y-100154190D01*
X90391997Y-100158797D01*
X90389281Y-100165292D01*
X90380681Y-100174832D01*
X90142131Y-100413382D01*
X90080808Y-100446867D01*
X90011116Y-100441883D01*
X89955183Y-100400011D01*
X89930766Y-100334547D01*
X89930450Y-100325701D01*
X89930450Y-100147130D01*
X89930449Y-100147114D01*
X89926271Y-100108256D01*
X89926271Y-100081744D01*
X89930449Y-100042885D01*
X89930450Y-100042869D01*
X89930450Y-99710000D01*
X88730490Y-99710000D01*
X88730490Y-100606000D01*
X88710805Y-100673039D01*
X88658001Y-100718794D01*
X88606490Y-100730000D01*
X88480490Y-100730000D01*
X88480490Y-100840450D01*
X88460805Y-100907489D01*
X88408001Y-100953244D01*
X88356490Y-100964450D01*
X87482659Y-100964450D01*
X87482653Y-100964451D01*
X87423045Y-100970859D01*
X87419498Y-100972182D01*
X87376166Y-100980000D01*
X87030530Y-100980000D01*
X87030530Y-101312880D01*
X87034456Y-101349398D01*
X87034456Y-101375906D01*
X87030030Y-101417074D01*
X87030030Y-102582919D01*
X87030031Y-102582928D01*
X87034456Y-102624092D01*
X87034456Y-102650597D01*
X87030530Y-102687117D01*
X87030530Y-103020000D01*
X87376166Y-103020000D01*
X87419502Y-103027819D01*
X87423044Y-103029140D01*
X87423047Y-103029141D01*
X87482657Y-103035550D01*
X89478322Y-103035549D01*
X89537933Y-103029141D01*
X89539623Y-103028510D01*
X89541482Y-103027818D01*
X89584814Y-103020000D01*
X89930450Y-103020000D01*
X89930450Y-102687130D01*
X89930449Y-102687116D01*
X89926523Y-102650603D01*
X89926523Y-102624098D01*
X89930950Y-102582923D01*
X89930950Y-102252036D01*
X89950635Y-102184997D01*
X90003439Y-102139242D01*
X90030751Y-102130420D01*
X90096120Y-102117418D01*
X90212114Y-102069372D01*
X90241795Y-102057078D01*
X90241795Y-102057077D01*
X90241802Y-102057075D01*
X90372912Y-101969470D01*
X90484412Y-101857970D01*
X90572017Y-101726860D01*
X90584134Y-101697608D01*
X90629322Y-101588512D01*
X90656200Y-101548285D01*
X91347761Y-100856723D01*
X91347766Y-100856720D01*
X91357969Y-100846516D01*
X91357971Y-100846516D01*
X91466516Y-100737971D01*
X91543270Y-100605030D01*
X91550528Y-100577944D01*
X91551667Y-100573694D01*
X91573085Y-100493758D01*
X91583001Y-100456753D01*
X91583001Y-100303247D01*
X91583001Y-100295652D01*
X91583000Y-100295634D01*
X91583000Y-94816755D01*
X91583001Y-94816742D01*
X91583001Y-94653249D01*
X91583001Y-94653247D01*
X91543270Y-94504971D01*
X91543270Y-94504970D01*
X91543270Y-94504969D01*
X91466518Y-94372032D01*
X91466513Y-94372026D01*
X91007973Y-93913486D01*
X91007971Y-93913484D01*
X90941500Y-93875107D01*
X90875031Y-93836730D01*
X90800891Y-93816865D01*
X90726753Y-93797000D01*
X90726752Y-93797000D01*
X90054950Y-93797000D01*
X89987911Y-93777315D01*
X89942156Y-93724511D01*
X89930950Y-93673000D01*
X89930949Y-92527079D01*
X89930948Y-92527073D01*
X89930947Y-92527066D01*
X89924541Y-92467467D01*
X89897855Y-92395919D01*
X89874247Y-92332621D01*
X89874243Y-92332614D01*
X89787997Y-92217405D01*
X89787994Y-92217402D01*
X89672785Y-92131156D01*
X89672778Y-92131152D01*
X89537932Y-92080858D01*
X89537933Y-92080858D01*
X89478333Y-92074451D01*
X89478331Y-92074450D01*
X89478323Y-92074450D01*
X89478314Y-92074450D01*
X87482659Y-92074450D01*
X87482653Y-92074451D01*
X87423045Y-92080859D01*
X87299493Y-92126940D01*
X87229802Y-92131924D01*
X87168479Y-92098438D01*
X87134994Y-92037115D01*
X87132161Y-92010767D01*
X87132160Y-90291153D01*
X95149500Y-90291153D01*
X95149500Y-90448846D01*
X95180261Y-90603489D01*
X95180264Y-90603501D01*
X95240602Y-90749172D01*
X95240609Y-90749185D01*
X95328210Y-90880288D01*
X95328213Y-90880292D01*
X95439707Y-90991786D01*
X95439711Y-90991789D01*
X95570814Y-91079390D01*
X95570827Y-91079397D01*
X95716498Y-91139735D01*
X95716503Y-91139737D01*
X95871153Y-91170499D01*
X95871156Y-91170500D01*
X95871158Y-91170500D01*
X96028844Y-91170500D01*
X96028845Y-91170499D01*
X96183497Y-91139737D01*
X96329179Y-91079394D01*
X96423459Y-91016398D01*
X96437307Y-91011480D01*
X96446479Y-91004296D01*
X96470532Y-90999683D01*
X96480794Y-90996040D01*
X96486563Y-90995500D01*
X96561607Y-90995500D01*
X96622029Y-90983481D01*
X96682452Y-90971463D01*
X96682455Y-90971461D01*
X96682458Y-90971461D01*
X96715787Y-90957654D01*
X96715786Y-90957654D01*
X96715792Y-90957652D01*
X96796286Y-90924312D01*
X96862169Y-90880289D01*
X96898733Y-90855858D01*
X96985858Y-90768733D01*
X96985859Y-90768731D01*
X96992925Y-90761665D01*
X96992928Y-90761661D01*
X97458797Y-90295791D01*
X97520118Y-90262308D01*
X97522128Y-90261889D01*
X97633497Y-90239737D01*
X97779179Y-90179394D01*
X97910289Y-90091789D01*
X98021789Y-89980289D01*
X98109394Y-89849179D01*
X98169737Y-89703497D01*
X98200500Y-89548842D01*
X98200500Y-89391158D01*
X98200500Y-89391155D01*
X98200499Y-89391153D01*
X98169738Y-89236510D01*
X98169738Y-89236508D01*
X98169737Y-89236503D01*
X98124172Y-89126498D01*
X98109397Y-89090827D01*
X98109390Y-89090814D01*
X98021789Y-88959711D01*
X98021786Y-88959707D01*
X97910292Y-88848213D01*
X97910288Y-88848210D01*
X97779185Y-88760609D01*
X97779172Y-88760602D01*
X97633501Y-88700264D01*
X97633489Y-88700261D01*
X97478845Y-88669500D01*
X97478842Y-88669500D01*
X97321158Y-88669500D01*
X97321155Y-88669500D01*
X97166510Y-88700261D01*
X97166498Y-88700264D01*
X97020827Y-88760602D01*
X97020814Y-88760609D01*
X96889711Y-88848210D01*
X96889707Y-88848213D01*
X96778213Y-88959707D01*
X96778210Y-88959711D01*
X96690609Y-89090814D01*
X96690602Y-89090827D01*
X96630264Y-89236498D01*
X96630261Y-89236508D01*
X96608141Y-89347714D01*
X96575756Y-89409625D01*
X96574205Y-89411203D01*
X96384671Y-89600737D01*
X96323348Y-89634222D01*
X96253656Y-89629238D01*
X96249539Y-89627618D01*
X96242136Y-89624551D01*
X96183497Y-89600263D01*
X96183493Y-89600262D01*
X96183488Y-89600260D01*
X96028845Y-89569500D01*
X96028842Y-89569500D01*
X95871158Y-89569500D01*
X95871155Y-89569500D01*
X95716510Y-89600261D01*
X95716498Y-89600264D01*
X95570827Y-89660602D01*
X95570814Y-89660609D01*
X95439711Y-89748210D01*
X95439707Y-89748213D01*
X95328213Y-89859707D01*
X95328210Y-89859711D01*
X95240609Y-89990814D01*
X95240602Y-89990827D01*
X95180264Y-90136498D01*
X95180261Y-90136510D01*
X95149500Y-90291153D01*
X87132160Y-90291153D01*
X87132159Y-86093234D01*
X95808500Y-86093234D01*
X95808500Y-86244765D01*
X95847719Y-86391136D01*
X95885602Y-86456750D01*
X95923485Y-86522365D01*
X96030635Y-86629515D01*
X96161865Y-86705281D01*
X96308234Y-86744500D01*
X96308236Y-86744500D01*
X96459764Y-86744500D01*
X96459766Y-86744500D01*
X96606135Y-86705281D01*
X96737365Y-86629515D01*
X96844515Y-86522365D01*
X96920281Y-86391135D01*
X96959500Y-86244766D01*
X96959500Y-86093234D01*
X99808500Y-86093234D01*
X99808500Y-86244765D01*
X99847719Y-86391136D01*
X99885602Y-86456750D01*
X99923485Y-86522365D01*
X100030635Y-86629515D01*
X100161865Y-86705281D01*
X100308234Y-86744500D01*
X100308236Y-86744500D01*
X100459764Y-86744500D01*
X100459766Y-86744500D01*
X100606135Y-86705281D01*
X100737365Y-86629515D01*
X100844515Y-86522365D01*
X100920281Y-86391135D01*
X100959500Y-86244766D01*
X100959500Y-86093234D01*
X100920281Y-85946865D01*
X100844515Y-85815635D01*
X100737365Y-85708485D01*
X100671750Y-85670602D01*
X100606136Y-85632719D01*
X100532950Y-85613109D01*
X100459766Y-85593500D01*
X100308234Y-85593500D01*
X100161863Y-85632719D01*
X100030635Y-85708485D01*
X100030632Y-85708487D01*
X99923487Y-85815632D01*
X99923485Y-85815635D01*
X99847719Y-85946863D01*
X99808500Y-86093234D01*
X96959500Y-86093234D01*
X96920281Y-85946865D01*
X96844515Y-85815635D01*
X96737365Y-85708485D01*
X96671750Y-85670602D01*
X96606136Y-85632719D01*
X96532950Y-85613109D01*
X96459766Y-85593500D01*
X96308234Y-85593500D01*
X96161863Y-85632719D01*
X96030635Y-85708485D01*
X96030632Y-85708487D01*
X95923487Y-85815632D01*
X95923485Y-85815635D01*
X95847719Y-85946863D01*
X95808500Y-86093234D01*
X87132159Y-86093234D01*
X87132158Y-81857412D01*
X87151843Y-81790374D01*
X87204647Y-81744619D01*
X87256071Y-81733413D01*
X104337743Y-81721585D01*
X104404793Y-81741223D01*
G37*
%TD.AperFunction*%
%TA.AperFunction,Conductor*%
G36*
X93400039Y-128079685D02*
G01*
X93445794Y-128132489D01*
X93457000Y-128184000D01*
X93457000Y-128693247D01*
X93457000Y-128846753D01*
X93476865Y-128920891D01*
X93496730Y-128995031D01*
X93530296Y-129053167D01*
X93573484Y-129127971D01*
X93573486Y-129127973D01*
X93630832Y-129185319D01*
X93664317Y-129246642D01*
X93659333Y-129316334D01*
X93617461Y-129372267D01*
X93551997Y-129396684D01*
X93543151Y-129397000D01*
X86212849Y-129397000D01*
X86145810Y-129377315D01*
X86125168Y-129360681D01*
X85876773Y-129112286D01*
X85868382Y-129097247D01*
X85856723Y-129086006D01*
X85849572Y-129063534D01*
X85843788Y-129053167D01*
X85840500Y-129039276D01*
X85840500Y-129031158D01*
X85809737Y-128876503D01*
X85791614Y-128832750D01*
X85789321Y-128823062D01*
X85790670Y-128797717D01*
X85787957Y-128772483D01*
X85792496Y-128763415D01*
X85793035Y-128753291D01*
X85807872Y-128732699D01*
X85819233Y-128710004D01*
X85827952Y-128704830D01*
X85833880Y-128696604D01*
X85857495Y-128687302D01*
X85879322Y-128674352D01*
X85895547Y-128672313D01*
X85898888Y-128670998D01*
X85901652Y-128671546D01*
X85909987Y-128670500D01*
X86845200Y-128670500D01*
X86912239Y-128690185D01*
X86914091Y-128691398D01*
X87030814Y-128769390D01*
X87030827Y-128769397D01*
X87159019Y-128822495D01*
X87176503Y-128829737D01*
X87275858Y-128849500D01*
X87331153Y-128860499D01*
X87331156Y-128860500D01*
X87331158Y-128860500D01*
X87488844Y-128860500D01*
X87488845Y-128860499D01*
X87643497Y-128829737D01*
X87761592Y-128780821D01*
X87789172Y-128769397D01*
X87789172Y-128769396D01*
X87789179Y-128769394D01*
X87846908Y-128730821D01*
X87920875Y-128681398D01*
X87987553Y-128660520D01*
X87989766Y-128660500D01*
X91723334Y-128660500D01*
X91790373Y-128680185D01*
X91811016Y-128696820D01*
X91854307Y-128740112D01*
X91854311Y-128740115D01*
X91854313Y-128740117D01*
X91993605Y-128822494D01*
X92018535Y-128829737D01*
X92149002Y-128867642D01*
X92149005Y-128867642D01*
X92149007Y-128867643D01*
X92185310Y-128870500D01*
X92185318Y-128870500D01*
X92594682Y-128870500D01*
X92594690Y-128870500D01*
X92630993Y-128867643D01*
X92630995Y-128867642D01*
X92630997Y-128867642D01*
X92702899Y-128846752D01*
X92786395Y-128822494D01*
X92807369Y-128810089D01*
X92875088Y-128792906D01*
X92933613Y-128810090D01*
X92953803Y-128822031D01*
X93100000Y-128864504D01*
X93100000Y-128558352D01*
X93117267Y-128495233D01*
X93122494Y-128486395D01*
X93147679Y-128399711D01*
X93167642Y-128330997D01*
X93167643Y-128330991D01*
X93170499Y-128294697D01*
X93170500Y-128294690D01*
X93170500Y-128184000D01*
X93173050Y-128175314D01*
X93171762Y-128166353D01*
X93182740Y-128142312D01*
X93190185Y-128116961D01*
X93197025Y-128111033D01*
X93200787Y-128102797D01*
X93223021Y-128088507D01*
X93242989Y-128071206D01*
X93253503Y-128068918D01*
X93259565Y-128065023D01*
X93294500Y-128060000D01*
X93333000Y-128060000D01*
X93400039Y-128079685D01*
G37*
%TD.AperFunction*%
%TA.AperFunction,Conductor*%
G36*
X106222347Y-115388849D02*
G01*
X106268102Y-115441653D01*
X106279308Y-115493164D01*
X106279308Y-116147953D01*
X106300218Y-116146309D01*
X106455503Y-116101195D01*
X106594682Y-116018885D01*
X106594691Y-116018878D01*
X106709022Y-115904547D01*
X106709027Y-115904541D01*
X106761870Y-115815187D01*
X106812939Y-115767503D01*
X106881681Y-115754999D01*
X106946270Y-115781644D01*
X106956277Y-115790619D01*
X107416396Y-116250738D01*
X108452489Y-117286831D01*
X108485974Y-117348154D01*
X108488808Y-117374512D01*
X108488808Y-120049165D01*
X108488809Y-120049182D01*
X108499308Y-120151960D01*
X108499309Y-120151963D01*
X108527057Y-120235700D01*
X108554494Y-120318498D01*
X108646596Y-120467820D01*
X108770652Y-120591876D01*
X108919974Y-120683978D01*
X109086511Y-120739163D01*
X109189299Y-120749664D01*
X110789316Y-120749663D01*
X110892105Y-120739163D01*
X111058642Y-120683978D01*
X111207964Y-120591876D01*
X111332020Y-120467820D01*
X111369269Y-120407428D01*
X111421216Y-120360704D01*
X111490179Y-120349481D01*
X111554261Y-120377324D01*
X111593118Y-120435393D01*
X111598808Y-120472525D01*
X111598808Y-121321134D01*
X111579123Y-121388173D01*
X111577910Y-121390024D01*
X111530612Y-121460810D01*
X111530602Y-121460828D01*
X111470264Y-121606498D01*
X111470261Y-121606508D01*
X111439361Y-121761850D01*
X111406976Y-121823761D01*
X111405425Y-121825339D01*
X110027584Y-123203181D01*
X109966261Y-123236666D01*
X109939903Y-123239500D01*
X109524568Y-123239500D01*
X109457529Y-123219815D01*
X109436887Y-123203181D01*
X109349560Y-123115854D01*
X109322088Y-123092389D01*
X109322086Y-123092388D01*
X109322083Y-123092385D01*
X109261347Y-123058995D01*
X109181383Y-123015034D01*
X109181373Y-123015031D01*
X109025862Y-122975102D01*
X109025859Y-122975102D01*
X108865294Y-122975102D01*
X108865290Y-122975102D01*
X108709780Y-123015031D01*
X108709770Y-123015034D01*
X108659815Y-123042498D01*
X108600078Y-123057836D01*
X106439894Y-123057836D01*
X106372855Y-123038151D01*
X106327100Y-122985347D01*
X106317156Y-122916189D01*
X106346181Y-122852633D01*
X106352213Y-122846155D01*
X106409597Y-122788771D01*
X106469412Y-122728956D01*
X106469414Y-122728952D01*
X106469417Y-122728950D01*
X106594356Y-122556984D01*
X106594355Y-122556984D01*
X106594359Y-122556980D01*
X106690865Y-122367576D01*
X106756554Y-122165407D01*
X106789808Y-121955451D01*
X106789808Y-121742877D01*
X106756554Y-121532921D01*
X106690865Y-121330752D01*
X106594359Y-121141348D01*
X106594357Y-121141345D01*
X106594356Y-121141343D01*
X106469417Y-120969377D01*
X106319094Y-120819054D01*
X106147128Y-120694115D01*
X105957722Y-120597608D01*
X105957721Y-120597607D01*
X105957720Y-120597607D01*
X105755551Y-120531918D01*
X105755549Y-120531917D01*
X105755548Y-120531917D01*
X105594265Y-120506372D01*
X105545595Y-120498664D01*
X105333021Y-120498664D01*
X105284350Y-120506372D01*
X105123068Y-120531917D01*
X104920893Y-120597608D01*
X104731487Y-120694115D01*
X104559521Y-120819054D01*
X104409198Y-120969377D01*
X104284259Y-121141343D01*
X104187752Y-121330749D01*
X104122061Y-121532924D01*
X104088808Y-121742877D01*
X104088808Y-121955450D01*
X104121674Y-122162961D01*
X104122062Y-122165407D01*
X104180908Y-122346516D01*
X104187752Y-122367578D01*
X104284259Y-122556984D01*
X104409198Y-122728950D01*
X104526403Y-122846155D01*
X104559888Y-122907478D01*
X104554904Y-122977170D01*
X104513032Y-123033103D01*
X104447568Y-123057520D01*
X104438722Y-123057836D01*
X103268844Y-123057836D01*
X103201805Y-123038151D01*
X103156050Y-122985347D01*
X103154334Y-122973414D01*
X103135505Y-122948336D01*
X102829352Y-122948336D01*
X102766233Y-122931068D01*
X102757395Y-122925842D01*
X102757393Y-122925841D01*
X102757389Y-122925839D01*
X102601997Y-122880693D01*
X102601991Y-122880692D01*
X102565697Y-122877836D01*
X102565690Y-122877836D01*
X102096310Y-122877836D01*
X102096302Y-122877836D01*
X102060008Y-122880692D01*
X102060002Y-122880693D01*
X101904608Y-122925840D01*
X101904600Y-122925843D01*
X101895767Y-122931068D01*
X101879865Y-122935418D01*
X101867581Y-122943313D01*
X101832646Y-122948336D01*
X101729354Y-122948336D01*
X101666233Y-122931068D01*
X101657399Y-122925843D01*
X101657391Y-122925840D01*
X101501997Y-122880693D01*
X101501991Y-122880692D01*
X101465697Y-122877836D01*
X101465690Y-122877836D01*
X101355000Y-122877836D01*
X101346314Y-122875285D01*
X101337353Y-122876574D01*
X101313312Y-122865595D01*
X101287961Y-122858151D01*
X101282033Y-122851310D01*
X101273797Y-122847549D01*
X101259507Y-122825314D01*
X101242206Y-122805347D01*
X101239918Y-122794832D01*
X101236023Y-122788771D01*
X101231000Y-122753836D01*
X101231000Y-122572336D01*
X101250685Y-122505297D01*
X101303489Y-122459542D01*
X101355000Y-122448336D01*
X102081000Y-122448336D01*
X102581000Y-122448336D01*
X103135504Y-122448336D01*
X103093031Y-122302140D01*
X103010721Y-122162961D01*
X103010714Y-122162952D01*
X102896383Y-122048621D01*
X102896374Y-122048614D01*
X102757195Y-121966304D01*
X102757190Y-121966302D01*
X102601918Y-121921191D01*
X102601912Y-121921190D01*
X102581000Y-121919545D01*
X102581000Y-122448336D01*
X102081000Y-122448336D01*
X102081000Y-121966456D01*
X101947359Y-121939048D01*
X101942498Y-121936468D01*
X101936997Y-121936453D01*
X101911967Y-121920266D01*
X101885642Y-121906296D01*
X101882948Y-121901499D01*
X101878327Y-121898511D01*
X101866022Y-121871361D01*
X101851428Y-121845376D01*
X101851755Y-121839883D01*
X101849484Y-121834872D01*
X101853809Y-121805382D01*
X101855582Y-121775630D01*
X101858826Y-121771186D01*
X101859625Y-121765742D01*
X101884588Y-121729898D01*
X105416516Y-118197971D01*
X105493270Y-118065030D01*
X105533000Y-117916753D01*
X105533000Y-117763247D01*
X105533000Y-116245978D01*
X105552685Y-116178939D01*
X105605489Y-116133184D01*
X105674647Y-116123240D01*
X105691595Y-116126902D01*
X105758394Y-116146308D01*
X105779308Y-116147953D01*
X105779308Y-115493164D01*
X105798993Y-115426125D01*
X105851797Y-115380370D01*
X105903308Y-115369164D01*
X106155308Y-115369164D01*
X106222347Y-115388849D01*
G37*
%TD.AperFunction*%
%TA.AperFunction,Conductor*%
G36*
X99369878Y-107887521D02*
G01*
X99402659Y-107888692D01*
X99404543Y-107890000D01*
X99406834Y-107890164D01*
X99433104Y-107909830D01*
X99460052Y-107928540D01*
X99461614Y-107931173D01*
X99462767Y-107932036D01*
X99478061Y-107958893D01*
X99490604Y-107989176D01*
X99490609Y-107989185D01*
X99578208Y-108120286D01*
X99578210Y-108120288D01*
X99578211Y-108120289D01*
X99580676Y-108122754D01*
X99581556Y-108124365D01*
X99582076Y-108124999D01*
X99581955Y-108125097D01*
X99614164Y-108184073D01*
X99617000Y-108210440D01*
X99617000Y-109063247D01*
X99617000Y-109216753D01*
X99629642Y-109263933D01*
X99656730Y-109365031D01*
X99695107Y-109431500D01*
X99733484Y-109497971D01*
X101422029Y-111186516D01*
X101554970Y-111263270D01*
X101578180Y-111269489D01*
X101600125Y-111282863D01*
X101623870Y-111292692D01*
X101629465Y-111300746D01*
X101637841Y-111305851D01*
X101649070Y-111328966D01*
X101663734Y-111350073D01*
X101665943Y-111363697D01*
X101668372Y-111368696D01*
X101670010Y-111384805D01*
X101670090Y-111387042D01*
X101670091Y-111472922D01*
X101674735Y-111516126D01*
X101674894Y-111520538D01*
X101674264Y-111523009D01*
X101674264Y-111538252D01*
X101670090Y-111577076D01*
X101670090Y-112742920D01*
X101670091Y-112742926D01*
X101676498Y-112802533D01*
X101726792Y-112937378D01*
X101726796Y-112937385D01*
X101813042Y-113052594D01*
X101813045Y-113052597D01*
X101928254Y-113138843D01*
X101928261Y-113138847D01*
X102063107Y-113189141D01*
X102063106Y-113189141D01*
X102070034Y-113189885D01*
X102122717Y-113195550D01*
X104118382Y-113195549D01*
X104177993Y-113189141D01*
X104189666Y-113184786D01*
X104220276Y-113182597D01*
X104250647Y-113178231D01*
X104254802Y-113180128D01*
X104259358Y-113179803D01*
X104286284Y-113194506D01*
X104314203Y-113207256D01*
X104316673Y-113211099D01*
X104320681Y-113213288D01*
X104335384Y-113240215D01*
X104351977Y-113266034D01*
X104352868Y-113272234D01*
X104354166Y-113274611D01*
X104357000Y-113300969D01*
X104357000Y-113377150D01*
X104337315Y-113444189D01*
X104320681Y-113464831D01*
X103934587Y-113850924D01*
X103934588Y-113850925D01*
X103843484Y-113942029D01*
X103766730Y-114074968D01*
X103727000Y-114223247D01*
X103727000Y-117237151D01*
X103707315Y-117304190D01*
X103690681Y-117324832D01*
X102179806Y-118835706D01*
X102152571Y-118850577D01*
X102126359Y-118867206D01*
X102122163Y-118867181D01*
X102118483Y-118869191D01*
X102087524Y-118866977D01*
X102056490Y-118866794D01*
X102052975Y-118864506D01*
X102048791Y-118864207D01*
X102023942Y-118845605D01*
X101997935Y-118828674D01*
X101995631Y-118824411D01*
X101992858Y-118822335D01*
X101979029Y-118798871D01*
X101975472Y-118790959D01*
X101968494Y-118766941D01*
X101952562Y-118740002D01*
X101949725Y-118733691D01*
X101945864Y-118705667D01*
X101938906Y-118678245D01*
X101941070Y-118670873D01*
X101940189Y-118664475D01*
X101947711Y-118648256D01*
X101956091Y-118619720D01*
X101968032Y-118599530D01*
X102010504Y-118453336D01*
X101704352Y-118453336D01*
X101641233Y-118436068D01*
X101632395Y-118430842D01*
X101632393Y-118430841D01*
X101632389Y-118430839D01*
X101476997Y-118385693D01*
X101476991Y-118385692D01*
X101440697Y-118382836D01*
X101440690Y-118382836D01*
X101330000Y-118382836D01*
X101262961Y-118363151D01*
X101217206Y-118310347D01*
X101206000Y-118258836D01*
X101206000Y-118203336D01*
X101146597Y-118203336D01*
X101117156Y-118194691D01*
X101087170Y-118188168D01*
X101082154Y-118184413D01*
X101079558Y-118183651D01*
X101058916Y-118167017D01*
X100992319Y-118100420D01*
X100958834Y-118039097D01*
X100956000Y-118012739D01*
X100956000Y-117953336D01*
X101456000Y-117953336D01*
X102010504Y-117953336D01*
X101968031Y-117807140D01*
X101885721Y-117667961D01*
X101885714Y-117667952D01*
X101771383Y-117553621D01*
X101771374Y-117553614D01*
X101632195Y-117471304D01*
X101632190Y-117471302D01*
X101476918Y-117426191D01*
X101476912Y-117426190D01*
X101456000Y-117424545D01*
X101456000Y-117953336D01*
X100956000Y-117953336D01*
X100956000Y-117424546D01*
X100955999Y-117424545D01*
X100935087Y-117426190D01*
X100935081Y-117426191D01*
X100779809Y-117471302D01*
X100779804Y-117471304D01*
X100640625Y-117553614D01*
X100640614Y-117553623D01*
X100630746Y-117563491D01*
X100569422Y-117596974D01*
X100499731Y-117591987D01*
X100455387Y-117563488D01*
X99845896Y-116953997D01*
X99812411Y-116892674D01*
X99817395Y-116822982D01*
X99830472Y-116797429D01*
X99869394Y-116739179D01*
X99929737Y-116593497D01*
X99960500Y-116438842D01*
X99960500Y-116281158D01*
X99960500Y-116281155D01*
X99960499Y-116281153D01*
X99947568Y-116216146D01*
X99929737Y-116126503D01*
X99929735Y-116126498D01*
X99869397Y-115980827D01*
X99869390Y-115980814D01*
X99781789Y-115849711D01*
X99781786Y-115849707D01*
X99670292Y-115738213D01*
X99670288Y-115738210D01*
X99539185Y-115650609D01*
X99539176Y-115650604D01*
X99527044Y-115645579D01*
X99472642Y-115601736D01*
X99450579Y-115535441D01*
X99450500Y-115531019D01*
X99450500Y-113612783D01*
X99470185Y-113545744D01*
X99478647Y-113534118D01*
X99481789Y-113530289D01*
X99569390Y-113399185D01*
X99569390Y-113399184D01*
X99569394Y-113399179D01*
X99629737Y-113253497D01*
X99660500Y-113098842D01*
X99660500Y-112941158D01*
X99660500Y-112941155D01*
X99660499Y-112941153D01*
X99650098Y-112888863D01*
X99629737Y-112786503D01*
X99620966Y-112765328D01*
X99569397Y-112640827D01*
X99569390Y-112640814D01*
X99481398Y-112509125D01*
X99460520Y-112442447D01*
X99460500Y-112440234D01*
X99460500Y-110248916D01*
X99460501Y-110248903D01*
X99460501Y-110080800D01*
X99450751Y-110044414D01*
X99419577Y-109928072D01*
X99406990Y-109906271D01*
X99340524Y-109791146D01*
X99340518Y-109791138D01*
X98813312Y-109263933D01*
X98786432Y-109223704D01*
X98783553Y-109216753D01*
X98746894Y-109128249D01*
X98746892Y-109128247D01*
X98746892Y-109128245D01*
X98659289Y-108997139D01*
X98659286Y-108997135D01*
X98547790Y-108885639D01*
X98530181Y-108873873D01*
X98485377Y-108820259D01*
X98476671Y-108750934D01*
X98506827Y-108687907D01*
X98511374Y-108683110D01*
X99275821Y-107918663D01*
X99304609Y-107902944D01*
X99332834Y-107886198D01*
X99335127Y-107886279D01*
X99337142Y-107885180D01*
X99369878Y-107887521D01*
G37*
%TD.AperFunction*%
%TA.AperFunction,Conductor*%
G36*
X97329650Y-109951781D02*
G01*
X97344178Y-109952820D01*
X97361043Y-109965445D01*
X97380359Y-109973853D01*
X97396959Y-109992332D01*
X97400111Y-109994692D01*
X97403945Y-110000109D01*
X97415711Y-110017718D01*
X97527207Y-110129214D01*
X97527211Y-110129217D01*
X97658314Y-110216818D01*
X97658327Y-110216825D01*
X97803998Y-110277163D01*
X97804003Y-110277165D01*
X97954375Y-110307076D01*
X97958653Y-110307927D01*
X97958656Y-110307928D01*
X98107475Y-110307928D01*
X98136915Y-110316572D01*
X98166902Y-110323096D01*
X98171917Y-110326850D01*
X98174514Y-110327613D01*
X98195156Y-110344247D01*
X98223181Y-110372272D01*
X98256666Y-110433595D01*
X98259500Y-110459953D01*
X98259500Y-112440234D01*
X98239815Y-112507273D01*
X98238602Y-112509125D01*
X98150609Y-112640814D01*
X98150602Y-112640827D01*
X98090264Y-112786498D01*
X98090261Y-112786510D01*
X98059500Y-112941153D01*
X98059500Y-113098846D01*
X98090261Y-113253489D01*
X98090264Y-113253501D01*
X98150602Y-113399172D01*
X98150609Y-113399185D01*
X98228602Y-113515908D01*
X98249480Y-113582585D01*
X98249500Y-113584799D01*
X98249500Y-115516778D01*
X98229815Y-115583817D01*
X98177011Y-115629572D01*
X98135231Y-115640396D01*
X98099699Y-115643192D01*
X98099694Y-115643193D01*
X97944301Y-115688340D01*
X97944296Y-115688342D01*
X97923320Y-115700747D01*
X97855595Y-115717928D01*
X97797081Y-115700747D01*
X97776883Y-115688802D01*
X97776882Y-115688801D01*
X97630693Y-115646329D01*
X97630692Y-115646330D01*
X97630692Y-115952481D01*
X97613426Y-116015599D01*
X97608199Y-116024436D01*
X97608196Y-116024444D01*
X97563049Y-116179838D01*
X97563048Y-116179844D01*
X97560192Y-116216138D01*
X97560192Y-116326836D01*
X97540507Y-116393875D01*
X97487703Y-116439630D01*
X97436192Y-116450836D01*
X97380692Y-116450836D01*
X97380692Y-116576836D01*
X97361007Y-116643875D01*
X97308203Y-116689630D01*
X97256692Y-116700836D01*
X96593558Y-116700836D01*
X96587653Y-116704368D01*
X96564771Y-116721581D01*
X96556305Y-116723118D01*
X96552259Y-116725539D01*
X96530301Y-116729163D01*
X96525738Y-116729500D01*
X96427280Y-116729500D01*
X96314764Y-116744313D01*
X96312502Y-116745249D01*
X96299134Y-116746237D01*
X96281291Y-116742399D01*
X96273683Y-116742399D01*
X96273291Y-116745374D01*
X96265237Y-116744313D01*
X96265236Y-116744313D01*
X96235324Y-116740375D01*
X96230813Y-116739781D01*
X96166917Y-116711513D01*
X96128446Y-116653188D01*
X96123000Y-116616842D01*
X96123000Y-116200835D01*
X96601901Y-116200835D01*
X96601902Y-116200836D01*
X97130692Y-116200836D01*
X97130692Y-115646330D01*
X97130690Y-115646329D01*
X96984501Y-115688801D01*
X96984498Y-115688803D01*
X96845317Y-115771114D01*
X96845308Y-115771121D01*
X96730977Y-115885452D01*
X96730970Y-115885461D01*
X96648660Y-116024640D01*
X96648658Y-116024645D01*
X96603547Y-116179917D01*
X96603546Y-116179923D01*
X96601901Y-116200835D01*
X96123000Y-116200835D01*
X96123000Y-116113249D01*
X96123000Y-116113247D01*
X96083270Y-115964970D01*
X96052113Y-115911004D01*
X96035500Y-115849004D01*
X96035500Y-115806155D01*
X96035499Y-115806153D01*
X96012156Y-115688801D01*
X96004737Y-115651503D01*
X96004367Y-115650609D01*
X95944397Y-115505827D01*
X95944390Y-115505814D01*
X95856789Y-115374711D01*
X95856786Y-115374707D01*
X95745292Y-115263213D01*
X95745288Y-115263210D01*
X95614185Y-115175609D01*
X95614172Y-115175602D01*
X95468501Y-115115264D01*
X95468489Y-115115261D01*
X95313845Y-115084500D01*
X95313842Y-115084500D01*
X95156158Y-115084500D01*
X95156155Y-115084500D01*
X95001510Y-115115261D01*
X95001502Y-115115263D01*
X94945880Y-115138302D01*
X94876410Y-115145769D01*
X94813932Y-115114494D01*
X94795327Y-115092631D01*
X94713863Y-114970712D01*
X94713860Y-114970708D01*
X94602366Y-114859214D01*
X94602362Y-114859211D01*
X94471259Y-114771610D01*
X94471246Y-114771603D01*
X94325575Y-114711265D01*
X94325563Y-114711262D01*
X94170919Y-114680501D01*
X94170916Y-114680501D01*
X94013232Y-114680501D01*
X94013229Y-114680501D01*
X93858584Y-114711262D01*
X93858577Y-114711264D01*
X93854449Y-114712974D01*
X93784979Y-114720440D01*
X93722501Y-114689163D01*
X93686851Y-114629073D01*
X93683000Y-114598411D01*
X93683000Y-113562847D01*
X93702685Y-113495808D01*
X93719314Y-113475171D01*
X97213165Y-109981319D01*
X97231650Y-109971225D01*
X97247325Y-109957146D01*
X97261703Y-109954815D01*
X97274486Y-109947836D01*
X97295497Y-109949338D01*
X97316295Y-109945968D01*
X97329650Y-109951781D01*
G37*
%TD.AperFunction*%
%TA.AperFunction,Conductor*%
G36*
X111554261Y-111877324D02*
G01*
X111593118Y-111935393D01*
X111598808Y-111972525D01*
X111598808Y-115525802D01*
X111579123Y-115592841D01*
X111526319Y-115638596D01*
X111457161Y-115648540D01*
X111393605Y-115619515D01*
X111369269Y-115590899D01*
X111351582Y-115562224D01*
X111332020Y-115530508D01*
X111207964Y-115406452D01*
X111058642Y-115314350D01*
X110892105Y-115259165D01*
X110892103Y-115259164D01*
X110789318Y-115248664D01*
X109189306Y-115248664D01*
X109189289Y-115248665D01*
X109086511Y-115259164D01*
X109086508Y-115259165D01*
X108919976Y-115314349D01*
X108919971Y-115314351D01*
X108770650Y-115406453D01*
X108646597Y-115530506D01*
X108613920Y-115583485D01*
X108561972Y-115630209D01*
X108493009Y-115641432D01*
X108428927Y-115613588D01*
X108420700Y-115606069D01*
X106751532Y-113936901D01*
X106751882Y-113936550D01*
X106732348Y-113912238D01*
X106707590Y-113870373D01*
X106690409Y-113802649D01*
X106707590Y-113744134D01*
X106771802Y-113635559D01*
X106792762Y-113563413D01*
X106824154Y-113510331D01*
X108428914Y-111905571D01*
X108490235Y-111872088D01*
X108559927Y-111877072D01*
X108615860Y-111918944D01*
X108622131Y-111928157D01*
X108646593Y-111967816D01*
X108646595Y-111967819D01*
X108646596Y-111967820D01*
X108770652Y-112091876D01*
X108919974Y-112183978D01*
X109086511Y-112239163D01*
X109189299Y-112249664D01*
X110789316Y-112249663D01*
X110892105Y-112239163D01*
X111058642Y-112183978D01*
X111207964Y-112091876D01*
X111332020Y-111967820D01*
X111369269Y-111907428D01*
X111421216Y-111860704D01*
X111490179Y-111849481D01*
X111554261Y-111877324D01*
G37*
%TD.AperFunction*%
%TD*%
M02*
