M48
; DRILL file {KiCad 9.0.7+1} date 2026-05-06T07:07:17+0000
; FORMAT={-:-/ absolute / metric / decimal}
; #@! TF.CreationDate,2026-05-06T07:07:17+00:00
; #@! TF.GenerationSoftware,Kicad,Pcbnew,9.0.7+1
; #@! TF.FileFunction,Plated,1,2,PTH
FMAT,2
METRIC
; #@! TA.AperFunction,Plated,PTH,ViaDrill
T1C0.300
; #@! TA.AperFunction,Plated,PTH,ComponentDrill
T2C1.000
%
G90
G05
T1
X97.495Y-102.064
X99.655Y-93.704
X99.845Y-111.164
X101.614Y-109.705
X104.398Y-113.104
X104.58Y-106.449
X105.695Y-94.794
X106.045Y-109.704
X108.135Y-118.524
X108.605Y-89.104
X109.505Y-114.044
X109.532Y-106.776
X109.825Y-86.344
X110.021Y-83.794
X110.505Y-117.474
X111.421Y-111.37
X111.595Y-118.414
X111.804Y-108.685
X112.305Y-106.992
X112.306Y-113.294
X112.46Y-114.294
X112.535Y-112.316
X112.595Y-122.164
X112.958Y-90.762
X113.149Y-120.413
X113.572Y-85.093
X115.095Y-118.554
X115.39Y-111.31
X115.425Y-112.784
X115.485Y-109.994
X115.885Y-89.004
X116.045Y-109.444
X116.115Y-79.586
X116.461Y-72.864
X116.835Y-110.074
X117.187Y-104.895
X117.505Y-112.884
X117.585Y-111.914
X117.657Y-117.544
X117.924Y-114.324
X118.137Y-110.154
X118.178Y-102.317
X118.33Y-105.299
X118.385Y-96.354
X118.455Y-87.154
X118.53Y-101.318
X118.573Y-82.474
X118.906Y-86.314
X119.045Y-79.784
X119.429Y-85.587
X119.596Y-100.985
X119.634Y-110.084
X119.706Y-101.934
X119.765Y-104.944
X119.844Y-112.074
X119.844Y-113.674
X120.174Y-74.404
X120.179Y-114.509
X120.188Y-109.559
X120.275Y-94.174
X120.365Y-87.964
X120.387Y-111.404
X120.406Y-95.255
X120.46Y-118.846
X120.495Y-78.884
X120.72Y-108.964
X120.845Y-84.244
X121.132Y-98.921
X121.186Y-96.935
X121.365Y-87.994
X121.955Y-102.434
X122.255Y-105.774
X122.345Y-84.844
X122.425Y-116.354
X122.441Y-115.54
X122.535Y-72.907
X122.687Y-118.324
X122.825Y-122.684
X122.985Y-103.76
X123.255Y-85.214
X123.295Y-97.024
X123.415Y-115.611
X123.446Y-106.473
X123.645Y-100.404
X124.125Y-97.764
X124.245Y-96.414
X124.455Y-78.774
X124.924Y-116.489
X125.095Y-118.574
X126.805Y-106.604
X127.78Y-114.397
X128.187Y-94.433
X129.254Y-97.683
X129.635Y-116.884
X129.945Y-120.004
X130.327Y-86.677
X130.362Y-85.629
X131.845Y-110.664
X133.086Y-103.185
X134.212Y-87.684
X134.725Y-94.986
X135.294Y-97.863
X135.335Y-111.254
X136.165Y-114.404
X136.76Y-91.869
X137.623Y-103.054
X139.383Y-97.677
X139.445Y-107.184
X179.99Y-100.317
X183.141Y-112.874
X183.397Y-90.064
X189.329Y-84.046
X192.037Y-99.97
X192.125Y-90.206
X192.576Y-112.35
X193.76Y-79.465
X193.879Y-71.861
X194.97Y-96.996
X196.295Y-110.324
X197.641Y-121.614
X198.492Y-98.574
X198.588Y-107.91
X198.699Y-104.505
X198.981Y-90.286
X199.125Y-102.489
X199.294Y-103.535
X199.368Y-111.317
X200.2Y-103.271
X200.531Y-101.967
X200.594Y-79.37
X200.637Y-92.769
X201.31Y-90.286
X201.864Y-113.388
X203.224Y-90.286
X204.894Y-100.508
X205.471Y-89.209
X205.561Y-81.275
X206.902Y-110.072
X206.902Y-112.091
X207.04Y-113.81
X207.458Y-71.563
X207.549Y-78.339
X210.871Y-109.749
X211.072Y-83.759
X211.546Y-89.246
X212.207Y-118.036
X212.371Y-109.099
X212.833Y-113.163
X213.558Y-108.887
X214.25Y-109.966
X215.885Y-87.706
X216.175Y-107.516
X219.605Y-108.59
X221.01Y-99.969
T2
X103.561Y-89.024
X105.357Y-87.228
M30
