%TF.GenerationSoftware,KiCad,Pcbnew,9.0.7+1*%
%TF.CreationDate,2026-05-05T09:25:56+00:00*%
%TF.ProjectId,Nano-Board-rev-2,4e616e6f-2d42-46f6-9172-642d7265762d,rev?*%
%TF.SameCoordinates,Original*%
%TF.FileFunction,Copper,L1,Top*%
%TF.FilePolarity,Positive*%
%FSLAX46Y46*%
G04 Gerber Fmt 4.6, Leading zero omitted, Abs format (unit mm)*
G04 Created by KiCad (PCBNEW 9.0.7+1) date 2026-05-05 09:25:56*
%MOMM*%
%LPD*%
G01*
G04 APERTURE LIST*
G04 Aperture macros list*
%AMRoundRect*
0 Rectangle with rounded corners*
0 $1 Rounding radius*
0 $2 $3 $4 $5 $6 $7 $8 $9 X,Y pos of 4 corners*
0 Add a 4 corners polygon primitive as box body*
4,1,4,$2,$3,$4,$5,$6,$7,$8,$9,$2,$3,0*
0 Add four circle primitives for the rounded corners*
1,1,$1+$1,$2,$3*
1,1,$1+$1,$4,$5*
1,1,$1+$1,$6,$7*
1,1,$1+$1,$8,$9*
0 Add four rect primitives between the rounded corners*
20,1,$1+$1,$2,$3,$4,$5,0*
20,1,$1+$1,$4,$5,$6,$7,0*
20,1,$1+$1,$6,$7,$8,$9,0*
20,1,$1+$1,$8,$9,$2,$3,0*%
%AMRotRect*
0 Rectangle, with rotation*
0 The origin of the aperture is its center*
0 $1 length*
0 $2 width*
0 $3 Rotation angle, in degrees counterclockwise*
0 Add horizontal line*
21,1,$1,$2,0,0,$3*%
G04 Aperture macros list end*
%TA.AperFunction,SMDPad,CuDef*%
%ADD10RoundRect,0.218750X0.256250X-0.218750X0.256250X0.218750X-0.256250X0.218750X-0.256250X-0.218750X0*%
%TD*%
%TA.AperFunction,SMDPad,CuDef*%
%ADD11RoundRect,0.135000X-0.185000X0.135000X-0.185000X-0.135000X0.185000X-0.135000X0.185000X0.135000X0*%
%TD*%
%TA.AperFunction,SMDPad,CuDef*%
%ADD12RoundRect,0.140000X0.170000X-0.140000X0.170000X0.140000X-0.170000X0.140000X-0.170000X-0.140000X0*%
%TD*%
%TA.AperFunction,SMDPad,CuDef*%
%ADD13RoundRect,0.200000X-0.275000X0.200000X-0.275000X-0.200000X0.275000X-0.200000X0.275000X0.200000X0*%
%TD*%
%TA.AperFunction,SMDPad,CuDef*%
%ADD14R,3.000000X1.000000*%
%TD*%
%TA.AperFunction,SMDPad,CuDef*%
%ADD15R,1.000000X1.250000*%
%TD*%
%TA.AperFunction,SMDPad,CuDef*%
%ADD16RoundRect,0.140000X0.140000X0.170000X-0.140000X0.170000X-0.140000X-0.170000X0.140000X-0.170000X0*%
%TD*%
%TA.AperFunction,SMDPad,CuDef*%
%ADD17RoundRect,0.135000X0.135000X0.185000X-0.135000X0.185000X-0.135000X-0.185000X0.135000X-0.185000X0*%
%TD*%
%TA.AperFunction,SMDPad,CuDef*%
%ADD18RotRect,1.250000X1.000000X45.000000*%
%TD*%
%TA.AperFunction,SMDPad,CuDef*%
%ADD19RoundRect,0.150000X0.150000X-0.512500X0.150000X0.512500X-0.150000X0.512500X-0.150000X-0.512500X0*%
%TD*%
%TA.AperFunction,SMDPad,CuDef*%
%ADD20RotRect,1.250000X1.000000X317.000000*%
%TD*%
%TA.AperFunction,SMDPad,CuDef*%
%ADD21RoundRect,0.140000X-0.140000X-0.170000X0.140000X-0.170000X0.140000X0.170000X-0.140000X0.170000X0*%
%TD*%
%TA.AperFunction,SMDPad,CuDef*%
%ADD22R,1.000000X3.000000*%
%TD*%
%TA.AperFunction,SMDPad,CuDef*%
%ADD23RoundRect,0.218750X-0.256250X0.218750X-0.256250X-0.218750X0.256250X-0.218750X0.256250X0.218750X0*%
%TD*%
%TA.AperFunction,SMDPad,CuDef*%
%ADD24R,0.400000X1.300000*%
%TD*%
%TA.AperFunction,SMDPad,CuDef*%
%ADD25R,1.500000X1.200000*%
%TD*%
%TA.AperFunction,SMDPad,CuDef*%
%ADD26R,1.000000X1.000000*%
%TD*%
%TA.AperFunction,SMDPad,CuDef*%
%ADD27RoundRect,0.135000X0.185000X-0.135000X0.185000X0.135000X-0.185000X0.135000X-0.185000X-0.135000X0*%
%TD*%
%TA.AperFunction,SMDPad,CuDef*%
%ADD28RoundRect,0.140000X-0.219203X-0.021213X-0.021213X-0.219203X0.219203X0.021213X0.021213X0.219203X0*%
%TD*%
%TA.AperFunction,SMDPad,CuDef*%
%ADD29RoundRect,0.135000X0.035355X-0.226274X0.226274X-0.035355X-0.035355X0.226274X-0.226274X0.035355X0*%
%TD*%
%TA.AperFunction,SMDPad,CuDef*%
%ADD30RoundRect,0.225000X0.375000X-0.225000X0.375000X0.225000X-0.375000X0.225000X-0.375000X-0.225000X0*%
%TD*%
%TA.AperFunction,SMDPad,CuDef*%
%ADD31RoundRect,0.140000X-0.170000X0.140000X-0.170000X-0.140000X0.170000X-0.140000X0.170000X0.140000X0*%
%TD*%
%TA.AperFunction,SMDPad,CuDef*%
%ADD32RoundRect,0.218750X-0.218750X-0.256250X0.218750X-0.256250X0.218750X0.256250X-0.218750X0.256250X0*%
%TD*%
%TA.AperFunction,SMDPad,CuDef*%
%ADD33RoundRect,0.062500X0.062500X-0.337500X0.062500X0.337500X-0.062500X0.337500X-0.062500X-0.337500X0*%
%TD*%
%TA.AperFunction,SMDPad,CuDef*%
%ADD34RoundRect,0.062500X0.337500X-0.062500X0.337500X0.062500X-0.337500X0.062500X-0.337500X-0.062500X0*%
%TD*%
%TA.AperFunction,HeatsinkPad*%
%ADD35R,2.600000X2.700000*%
%TD*%
%TA.AperFunction,SMDPad,CuDef*%
%ADD36RoundRect,0.135000X-0.135000X-0.185000X0.135000X-0.185000X0.135000X0.185000X-0.135000X0.185000X0*%
%TD*%
%TA.AperFunction,SMDPad,CuDef*%
%ADD37RoundRect,0.135000X-0.035355X0.226274X-0.226274X0.035355X0.035355X-0.226274X0.226274X-0.035355X0*%
%TD*%
%TA.AperFunction,ComponentPad*%
%ADD38RotRect,1.700000X1.700000X315.000000*%
%TD*%
%TA.AperFunction,ComponentPad*%
%ADD39C,1.700000*%
%TD*%
%TA.AperFunction,ViaPad*%
%ADD40C,0.600000*%
%TD*%
%TA.AperFunction,ViaPad*%
%ADD41C,0.500000*%
%TD*%
%TA.AperFunction,Conductor*%
%ADD42C,0.165000*%
%TD*%
%TA.AperFunction,Conductor*%
%ADD43C,0.200000*%
%TD*%
%TA.AperFunction,Conductor*%
%ADD44C,0.250000*%
%TD*%
G04 APERTURE END LIST*
D10*
%TO.P,D2,1,K*%
%TO.N,GND*%
X115932328Y-115386664D03*
%TO.P,D2,2,A*%
%TO.N,Net-(D2-A)*%
X115932328Y-113811664D03*
%TD*%
D11*
%TO.P,R11,1*%
%TO.N,+3V3*%
X91560000Y-112400000D03*
%TO.P,R11,2*%
%TO.N,I2C1_SDA*%
X91560000Y-113420000D03*
%TD*%
D12*
%TO.P,C20,1*%
%TO.N,Net-(U8-REGOUT)*%
X99181492Y-112076836D03*
%TO.P,C20,2*%
%TO.N,GND*%
X99181492Y-111116836D03*
%TD*%
D13*
%TO.P,R25,1*%
%TO.N,Net-(U6A-T_VCC)*%
X92890000Y-95245000D03*
%TO.P,R25,2*%
%TO.N,+3V3*%
X92890000Y-96895000D03*
%TD*%
D14*
%TO.P,P3,1,Pin_1*%
%TO.N,+3V3*%
X79442308Y-117362164D03*
%TO.P,P3,2,Pin_2*%
%TO.N,MPU_INT*%
X84482308Y-117362164D03*
%TO.P,P3,3,Pin_3*%
%TO.N,PA15*%
X79442308Y-114822164D03*
%TO.P,P3,4,Pin_4*%
%TO.N,PB4*%
X84482308Y-114822164D03*
%TO.P,P3,5,Pin_5*%
%TO.N,PB5*%
X79442308Y-112282164D03*
%TO.P,P3,6,Pin_6*%
%TO.N,I2C1_SCL*%
X84482308Y-112282164D03*
%TO.P,P3,7,Pin_7*%
%TO.N,I2C1_SDA*%
X79442308Y-109742164D03*
%TO.P,P3,8,Pin_8*%
%TO.N,PB8*%
X84482308Y-109742164D03*
%TO.P,P3,9,Pin_9*%
%TO.N,PB9*%
X79442308Y-107202164D03*
%TO.P,P3,10,Pin_10*%
%TO.N,GND*%
X84482308Y-107202164D03*
%TD*%
D15*
%TO.P,RESET,1,1*%
%TO.N,GND*%
X89730000Y-83190000D03*
%TO.P,RESET,2,2*%
%TO.N,RESET*%
X89730000Y-90940000D03*
%TD*%
D16*
%TO.P,C7,1*%
%TO.N,+5V*%
X112357500Y-104742500D03*
%TO.P,C7,2*%
%TO.N,GND*%
X111397500Y-104742500D03*
%TD*%
D17*
%TO.P,R16,1*%
%TO.N,LED_3*%
X96941000Y-131628336D03*
%TO.P,R16,2*%
%TO.N,Net-(D4-A)*%
X95921000Y-131628336D03*
%TD*%
D18*
%TO.P,BOOT,1,1*%
%TO.N,Net-(BOOT1-Pad1)*%
X105769922Y-128110078D03*
%TO.P,BOOT,2,2*%
%TO.N,+3V3*%
X111250000Y-122630000D03*
%TD*%
D19*
%TO.P,U4,1,IO1*%
%TO.N,Net-(J2-D+)*%
X94880308Y-94205000D03*
%TO.P,U4,2,VN*%
%TO.N,GND*%
X95830308Y-94205000D03*
%TO.P,U4,3,IO2*%
%TO.N,Net-(J2-D-)*%
X96780308Y-94205000D03*
%TO.P,U4,4,IO3*%
%TO.N,unconnected-(U4-IO3-Pad4)*%
X96780308Y-91930000D03*
%TO.P,U4,5,VP*%
%TO.N,Net-(D6-A)*%
X95830308Y-91930000D03*
%TO.P,U4,6,IO4*%
%TO.N,unconnected-(U4-IO4-Pad6)*%
X94880308Y-91930000D03*
%TD*%
D20*
%TO.P,USER,1,1*%
%TO.N,Net-(C21-Pad2)*%
X80209068Y-122596520D03*
%TO.P,USER,2,2*%
%TO.N,+3V3*%
X85877060Y-127882008D03*
%TD*%
D11*
%TO.P,R5,1*%
%TO.N,Net-(J2-D+)*%
X98270000Y-96340000D03*
%TO.P,R5,2*%
%TO.N,USB_DP*%
X98270000Y-97360000D03*
%TD*%
%TO.P,R6,1*%
%TO.N,Net-(J2-D-)*%
X97270000Y-96340000D03*
%TO.P,R6,2*%
%TO.N,USB_DM*%
X97270000Y-97360000D03*
%TD*%
D21*
%TO.P,C8,1*%
%TO.N,+3V3*%
X110158000Y-99160000D03*
%TO.P,C8,2*%
%TO.N,GND*%
X111118000Y-99160000D03*
%TD*%
D22*
%TO.P,P2,1,Pin_1*%
%TO.N,PB0*%
X100869308Y-128509164D03*
%TO.P,P2,2,Pin_2*%
%TO.N,PB1*%
X100869308Y-123469164D03*
%TO.P,P2,3,Pin_3*%
%TO.N,PB10*%
X98329308Y-128509164D03*
%TO.P,P2,4,Pin_4*%
%TO.N,PB11*%
X98329308Y-123469164D03*
%TO.P,P2,5,Pin_5*%
%TO.N,PB12*%
X95789308Y-128509164D03*
%TO.P,P2,6,Pin_6*%
%TO.N,PB13*%
X95789308Y-123469164D03*
%TO.P,P2,7,Pin_7*%
%TO.N,PB14*%
X93249308Y-128509164D03*
%TO.P,P2,8,Pin_8*%
%TO.N,PB15*%
X93249308Y-123469164D03*
%TO.P,P2,9,Pin_9*%
%TO.N,USART1_TX*%
X90709308Y-128509164D03*
%TO.P,P2,10,Pin_10*%
%TO.N,USART1_RX*%
X90709308Y-123469164D03*
%TD*%
D23*
%TO.P,D1,1,K*%
%TO.N,GND*%
X105599308Y-94531664D03*
%TO.P,D1,2,A*%
%TO.N,Net-(D1-A)*%
X105599308Y-96106664D03*
%TD*%
D24*
%TO.P,J2,1,VBUS*%
%TO.N,Net-(D6-A)*%
X99684000Y-86769000D03*
%TO.P,J2,2,D-*%
%TO.N,Net-(J2-D-)*%
X99034000Y-86769000D03*
%TO.P,J2,3,D+*%
%TO.N,Net-(J2-D+)*%
X98384000Y-86769000D03*
%TO.P,J2,4,ID*%
%TO.N,GND*%
X97734000Y-86769000D03*
%TO.P,J2,5,GND*%
X97084000Y-86769000D03*
D25*
%TO.P,J2,6,Shield*%
X101834000Y-84019000D03*
D26*
X101534000Y-86469000D03*
X95234000Y-86469000D03*
D25*
X94934000Y-84019000D03*
%TD*%
D27*
%TO.P,R4,1*%
%TO.N,+3V3*%
X89920000Y-94030000D03*
%TO.P,R4,2*%
%TO.N,RESET*%
X89920000Y-93010000D03*
%TD*%
D28*
%TO.P,C11,1*%
%TO.N,+5V*%
X84081000Y-95916000D03*
%TO.P,C11,2*%
%TO.N,GND*%
X84759822Y-96594822D03*
%TD*%
D29*
%TO.P,R14,1*%
%TO.N,Net-(C21-Pad2)*%
X78638128Y-121831872D03*
%TO.P,R14,2*%
%TO.N,USER_BTN*%
X79359376Y-121110624D03*
%TD*%
D30*
%TO.P,D6,1,K*%
%TO.N,+5V*%
X99707862Y-94247500D03*
%TO.P,D6,2,A*%
%TO.N,Net-(D6-A)*%
X99707862Y-90947500D03*
%TD*%
D31*
%TO.P,C10,1*%
%TO.N,RESET*%
X90980000Y-93030000D03*
%TO.P,C10,2*%
%TO.N,GND*%
X90980000Y-93990000D03*
%TD*%
D19*
%TO.P,U5,1,IN*%
%TO.N,+5V*%
X110485000Y-103180000D03*
%TO.P,U5,2,GND*%
%TO.N,GND*%
X111435000Y-103180000D03*
%TO.P,U5,3,EN*%
%TO.N,+5V*%
X112385000Y-103180000D03*
%TO.P,U5,4,NC*%
%TO.N,unconnected-(U5-NC-Pad4)*%
X112385000Y-100905000D03*
%TO.P,U5,5,OUT*%
%TO.N,+3V3*%
X110485000Y-100905000D03*
%TD*%
D32*
%TO.P,D4,1,K*%
%TO.N,GND*%
X95132500Y-133080000D03*
%TO.P,D4,2,A*%
%TO.N,Net-(D4-A)*%
X96707500Y-133080000D03*
%TD*%
D11*
%TO.P,R2,1*%
%TO.N,LED_1*%
X115892328Y-111369164D03*
%TO.P,R2,2*%
%TO.N,Net-(D2-A)*%
X115892328Y-112389164D03*
%TD*%
D14*
%TO.P,P1,1,Pin_1*%
%TO.N,+3V3*%
X112199308Y-107269164D03*
%TO.P,P1,2,Pin_2*%
%TO.N,PC13*%
X107159308Y-107269164D03*
%TO.P,P1,3,Pin_3*%
%TO.N,LED_1*%
X112199308Y-109809164D03*
%TO.P,P1,4,Pin_4*%
%TO.N,LED_2*%
X107159308Y-109809164D03*
%TO.P,P1,5,Pin_5*%
%TO.N,LED_3*%
X112199308Y-112349164D03*
%TO.P,P1,6,Pin_6*%
%TO.N,PA4*%
X107159308Y-112349164D03*
%TO.P,P1,7,Pin_7*%
%TO.N,PA5*%
X112199308Y-114889164D03*
%TO.P,P1,8,Pin_8*%
%TO.N,PA6*%
X107159308Y-114889164D03*
%TO.P,P1,9,Pin_9*%
%TO.N,PA7*%
X112199308Y-117429164D03*
%TO.P,P1,10,Pin_10*%
%TO.N,GND*%
X107159308Y-117429164D03*
%TD*%
D10*
%TO.P,D3,1,K*%
%TO.N,GND*%
X75972328Y-114194164D03*
%TO.P,D3,2,A*%
%TO.N,Net-(D3-A)*%
X75972328Y-112619164D03*
%TD*%
D11*
%TO.P,R7,1*%
%TO.N,+3V3*%
X99270000Y-96340000D03*
%TO.P,R7,2*%
%TO.N,USB_DP*%
X99270000Y-97360000D03*
%TD*%
D33*
%TO.P,U8,1,CLKIN*%
%TO.N,GND*%
X94551492Y-114244856D03*
%TO.P,U8,2*%
%TO.N,N/C*%
X95051492Y-114244856D03*
%TO.P,U8,3*%
X95551492Y-114244856D03*
%TO.P,U8,4*%
X96051492Y-114244856D03*
%TO.P,U8,5*%
X96551492Y-114244856D03*
%TO.P,U8,6,AUX_DA*%
%TO.N,unconnected-(U8-AUX_DA-Pad6)*%
X97051492Y-114244856D03*
D34*
%TO.P,U8,7,AUX_CL*%
%TO.N,unconnected-(U8-AUX_CL-Pad7)*%
X97776492Y-113519856D03*
%TO.P,U8,8,VLOGIC*%
%TO.N,+3V3*%
X97776492Y-113019856D03*
%TO.P,U8,9,AD0*%
%TO.N,GND*%
X97776492Y-112519856D03*
%TO.P,U8,10,REGOUT*%
%TO.N,Net-(U8-REGOUT)*%
X97776492Y-112019856D03*
%TO.P,U8,11,FSYNC*%
%TO.N,GND*%
X97776492Y-111519856D03*
%TO.P,U8,12,INT*%
%TO.N,MPU_INT*%
X97776492Y-111019856D03*
D33*
%TO.P,U8,13,VDD*%
%TO.N,+3V3*%
X97051492Y-110294856D03*
%TO.P,U8,14*%
%TO.N,N/C*%
X96551492Y-110294856D03*
%TO.P,U8,15*%
X96051492Y-110294856D03*
%TO.P,U8,16*%
X95551492Y-110294856D03*
%TO.P,U8,17*%
X95051492Y-110294856D03*
%TO.P,U8,18,GND*%
%TO.N,GND*%
X94551492Y-110294856D03*
D34*
%TO.P,U8,19*%
%TO.N,N/C*%
X93826492Y-111019856D03*
%TO.P,U8,20,CPOUT*%
%TO.N,Net-(U8-CPOUT)*%
X93826492Y-111519856D03*
%TO.P,U8,21*%
%TO.N,N/C*%
X93826492Y-112019856D03*
%TO.P,U8,22*%
X93826492Y-112519856D03*
%TO.P,U8,23,SCL*%
%TO.N,I2C1_SCL*%
X93826492Y-113019856D03*
%TO.P,U8,24,SDA*%
%TO.N,I2C1_SDA*%
X93826492Y-113519856D03*
D35*
%TO.P,U8,25,DP*%
%TO.N,GND*%
X95801492Y-112269856D03*
%TD*%
D27*
%TO.P,R1,1*%
%TO.N,+3V3*%
X105630308Y-99157499D03*
%TO.P,R1,2*%
%TO.N,Net-(D1-A)*%
X105630308Y-98137501D03*
%TD*%
D36*
%TO.P,R19,1*%
%TO.N,+3V3*%
X93560000Y-131640000D03*
%TO.P,R19,2*%
%TO.N,Net-(U1-PB2)*%
X94580000Y-131640000D03*
%TD*%
D11*
%TO.P,R15,1*%
%TO.N,LED_2*%
X75962328Y-110196664D03*
%TO.P,R15,2*%
%TO.N,Net-(D3-A)*%
X75962328Y-111216664D03*
%TD*%
D37*
%TO.P,R9,1*%
%TO.N,Net-(BOOT1-Pad1)*%
X104555932Y-129636876D03*
%TO.P,R9,2*%
%TO.N,BOOT0*%
X103834684Y-130358124D03*
%TD*%
D12*
%TO.P,C19,1*%
%TO.N,Net-(U8-CPOUT)*%
X92561492Y-111426836D03*
%TO.P,C19,2*%
%TO.N,GND*%
X92561492Y-110466836D03*
%TD*%
D11*
%TO.P,R10,1*%
%TO.N,+3V3*%
X92580000Y-112400000D03*
%TO.P,R10,2*%
%TO.N,I2C1_SCL*%
X92580000Y-113420000D03*
%TD*%
D30*
%TO.P,D7,1,K*%
%TO.N,+5V*%
X102267862Y-94250000D03*
%TO.P,D7,2,A*%
%TO.N,Net-(D7-A)*%
X102267862Y-90950000D03*
%TD*%
D16*
%TO.P,C18,1*%
%TO.N,+3V3*%
X97051492Y-108876836D03*
%TO.P,C18,2*%
%TO.N,GND*%
X96091492Y-108876836D03*
%TD*%
D38*
%TO.P,J1,1,Pin_1*%
%TO.N,+5V*%
X82261561Y-97813794D03*
D39*
%TO.P,J1,2,Pin_2*%
%TO.N,GND*%
X80465510Y-99609845D03*
%TD*%
D40*
%TO.N,GND*%
X85510000Y-99690000D03*
X106850000Y-130590000D03*
X93366000Y-83450000D03*
X113070000Y-124990000D03*
X89500000Y-132750000D03*
X74400000Y-112650000D03*
X82600000Y-105380000D03*
X86410000Y-124630000D03*
X114528000Y-113640000D03*
X96670000Y-115530000D03*
X99730000Y-133270000D03*
X103710000Y-117190000D03*
X96500674Y-111570674D03*
X88500000Y-129000000D03*
X90054000Y-130999000D03*
X104685000Y-124983000D03*
X82950000Y-120290000D03*
X100351000Y-117059000D03*
X92000000Y-129140000D03*
D41*
X88709000Y-119271000D03*
D40*
X111726000Y-105668000D03*
X109991000Y-113771000D03*
X116288000Y-108263000D03*
X108750000Y-121250000D03*
X95083000Y-112903000D03*
X100550000Y-110990000D03*
X96611000Y-112519856D03*
X107232000Y-97263000D03*
X116350000Y-117770000D03*
X95478000Y-93060000D03*
X95435318Y-111903682D03*
X99890000Y-114346000D03*
X111117000Y-98270000D03*
X92790000Y-99590000D03*
X76750000Y-121750000D03*
X105092000Y-105019000D03*
X97079000Y-84990000D03*
X99440000Y-83493000D03*
X93020000Y-90172000D03*
X76560000Y-104290000D03*
%TO.N,+3V3*%
X99250000Y-95430000D03*
X99160000Y-116360000D03*
X89209536Y-117578464D03*
X86730000Y-96930000D03*
X98037500Y-109507428D03*
X81485000Y-117035000D03*
X112240000Y-121840000D03*
X98860000Y-113020000D03*
X112199308Y-108449308D03*
X87410000Y-128060000D03*
X95811000Y-96900000D03*
%TO.N,RESET*%
X89862623Y-101347681D03*
X86925928Y-94380000D03*
X97625000Y-119550000D03*
%TO.N,+5V*%
X107267000Y-96215000D03*
X95360000Y-97740000D03*
X113665000Y-102455000D03*
X100160000Y-95800000D03*
%TO.N,Net-(BOOT1-Pad1)*%
X106540000Y-127470000D03*
%TO.N,Net-(C21-Pad2)*%
X81302548Y-123690000D03*
%TO.N,PA7*%
X101829310Y-127074515D03*
%TO.N,LED_1*%
X97291810Y-121990000D03*
%TO.N,PA5*%
X99330000Y-126940000D03*
%TO.N,PA4*%
X97083571Y-125095000D03*
%TO.N,LED_3*%
X99345579Y-126126215D03*
%TO.N,LED_2*%
X85040000Y-129110000D03*
X96749310Y-122660000D03*
%TO.N,PA6*%
X100320000Y-126197500D03*
%TO.N,PC13*%
X106159236Y-108269236D03*
%TO.N,PB11*%
X96749310Y-124260000D03*
%TO.N,PB14*%
X89211000Y-123880000D03*
%TO.N,PB12*%
X89365000Y-124880000D03*
%TO.N,PB15*%
X92330000Y-123370000D03*
%TO.N,PB0*%
X99592000Y-128910000D03*
%TO.N,PB1*%
X94829306Y-124910000D03*
%TO.N,USART1_RX*%
X97310877Y-105840877D03*
X100200000Y-107610000D03*
X92295162Y-121895998D03*
%TO.N,USART1_TX*%
X88325502Y-121956498D03*
X97180000Y-104760000D03*
X101150000Y-107000000D03*
%TO.N,PB13*%
X94410000Y-123470000D03*
%TO.N,PB10*%
X97365000Y-129432500D03*
%TO.N,I2C1_SDA*%
X95235000Y-115885000D03*
X95042500Y-120740000D03*
%TO.N,PB9*%
X97093193Y-120144965D03*
%TO.N,PB5*%
X93740000Y-120660000D03*
%TO.N,PB8*%
X96539000Y-120670000D03*
%TO.N,PA15*%
X92390000Y-120580000D03*
%TO.N,I2C1_SCL*%
X94490000Y-122500000D03*
X94092074Y-115481001D03*
%TO.N,PB4*%
X92950000Y-120030000D03*
%TO.N,MPU_INT*%
X86437000Y-117362164D03*
X95289843Y-106939843D03*
X89440275Y-122902500D03*
%TO.N,BOOT0*%
X102000000Y-129160000D03*
%TO.N,USER_BTN*%
X78518752Y-120291248D03*
%TO.N,Net-(U1-PB2)*%
X94562500Y-128130000D03*
%TO.N,Net-(J2-D-)*%
X96334245Y-96172500D03*
X97750000Y-94830000D03*
%TO.N,SWCLK*%
X98091394Y-107521394D03*
X101030000Y-108350000D03*
%TO.N,Net-(U6A-T_VCC)*%
X90477500Y-95679338D03*
%TO.N,USB_DP*%
X98270000Y-98580000D03*
%TO.N,USB_DM*%
X97270000Y-98550000D03*
%TO.N,Net-(D6-A)*%
X95950000Y-90370000D03*
X97400000Y-89470000D03*
%TO.N,Net-(D7-A)*%
X101360000Y-89360000D03*
%TD*%
D42*
%TO.N,GND*%
X96611000Y-112519856D02*
X97776492Y-112519856D01*
X111397500Y-105339500D02*
X111397500Y-104742500D01*
X97084000Y-86769000D02*
X97734000Y-86769000D01*
X111435000Y-103180000D02*
X111435000Y-104705000D01*
X94379512Y-110466836D02*
X94551492Y-110294856D01*
X95801492Y-112269856D02*
X96051492Y-112519856D01*
X97776492Y-111519856D02*
X96551492Y-111519856D01*
X96551492Y-111519856D02*
X96500674Y-111570674D01*
X95801492Y-112269856D02*
X95435318Y-111903682D01*
X111117000Y-98690000D02*
X111118000Y-98691000D01*
X96051492Y-112519856D02*
X96611000Y-112519856D01*
X96500674Y-111570674D02*
X95801492Y-112269856D01*
X95083000Y-112903000D02*
X95083000Y-112988348D01*
X97776492Y-111519856D02*
X98778472Y-111519856D01*
X95168348Y-112903000D02*
X95083000Y-112903000D01*
X94551492Y-111019856D02*
X94551492Y-110294856D01*
X111435000Y-104705000D02*
X111397500Y-104742500D01*
X97084000Y-84995000D02*
X97079000Y-84990000D01*
X94551492Y-113519856D02*
X94551492Y-114244856D01*
X111117000Y-98270000D02*
X111117000Y-98690000D01*
X111726000Y-105668000D02*
X111397500Y-105339500D01*
X95801492Y-112269856D02*
X95168348Y-112903000D01*
X97084000Y-86769000D02*
X97084000Y-84995000D01*
X95830308Y-93412308D02*
X95830308Y-94205000D01*
X95478000Y-93060000D02*
X95830308Y-93412308D01*
X98778472Y-111519856D02*
X99181492Y-111116836D01*
X111118000Y-98691000D02*
X111118000Y-99160000D01*
X95083000Y-112988348D02*
X94551492Y-113519856D01*
X95435318Y-111903682D02*
X94551492Y-111019856D01*
X92561492Y-110466836D02*
X94379512Y-110466836D01*
D43*
%TO.N,+3V3*%
X87943072Y-116312000D02*
X82208000Y-116312000D01*
X99250000Y-95600000D02*
X99270000Y-95620000D01*
X110485000Y-99487000D02*
X110158000Y-99160000D01*
X82208000Y-116312000D02*
X81485000Y-117035000D01*
X85590760Y-128140760D02*
X85598308Y-128140760D01*
X88200000Y-96895000D02*
X87950000Y-96895000D01*
X112199308Y-108449308D02*
X112180692Y-108449308D01*
X86765000Y-96895000D02*
X86730000Y-96930000D01*
X110485000Y-100905000D02*
X110485000Y-99487000D01*
X93330000Y-108170000D02*
X96344656Y-108170000D01*
X101480000Y-96340000D02*
X99270000Y-96340000D01*
X89209536Y-117578464D02*
X87943072Y-116312000D01*
X91550000Y-112390000D02*
X91550000Y-109950000D01*
X105530000Y-108890000D02*
X100569000Y-113851000D01*
X111132367Y-122947633D02*
X111132367Y-122949125D01*
X105630308Y-99157499D02*
X105632809Y-99160000D01*
X97776636Y-113020000D02*
X97776492Y-113019856D01*
X100569000Y-113851000D02*
X100569000Y-115548000D01*
X104297499Y-99157499D02*
X101480000Y-96340000D01*
X89920000Y-95175000D02*
X88200000Y-96895000D01*
X81485000Y-117035000D02*
X81157836Y-117362164D01*
X111740000Y-108890000D02*
X105530000Y-108890000D01*
X98860000Y-113020000D02*
X97776636Y-113020000D01*
X100569000Y-115548000D02*
X99757000Y-116360000D01*
X109448000Y-104517856D02*
X112199308Y-107269164D01*
X91550000Y-109950000D02*
X93330000Y-108170000D01*
X79442308Y-118912308D02*
X84240000Y-123710000D01*
X91560000Y-112400000D02*
X91550000Y-112390000D01*
X81157836Y-117362164D02*
X79442308Y-117362164D01*
X99250000Y-95430000D02*
X99250000Y-95600000D01*
X89145884Y-131688336D02*
X85598308Y-128140760D01*
X95806000Y-96895000D02*
X86765000Y-96895000D01*
X112199308Y-108449308D02*
X112199308Y-107269164D01*
X110485000Y-100905000D02*
X109448000Y-101942000D01*
X93611000Y-131688336D02*
X89145884Y-131688336D01*
X105630308Y-99157499D02*
X104297499Y-99157499D01*
X97484836Y-108876836D02*
X97051492Y-108876836D01*
X105632809Y-99160000D02*
X110158000Y-99160000D01*
X98037500Y-109429500D02*
X97484836Y-108876836D01*
X84240000Y-126790000D02*
X85590760Y-128140760D01*
X89920000Y-94030000D02*
X89920000Y-95175000D01*
X86730000Y-96930000D02*
X86590000Y-96930000D01*
X84240000Y-123710000D02*
X84240000Y-126790000D01*
X112240000Y-121840000D02*
X111132367Y-122947633D01*
X79442308Y-117362164D02*
X79442308Y-118912308D01*
X96344656Y-108170000D02*
X97051492Y-108876836D01*
X85679068Y-128060000D02*
X85598308Y-128140760D01*
X109448000Y-101942000D02*
X109448000Y-104517856D01*
X98037500Y-109507428D02*
X98037500Y-109429500D01*
X99757000Y-116360000D02*
X99160000Y-116360000D01*
X87410000Y-128060000D02*
X85679068Y-128060000D01*
X95811000Y-96900000D02*
X95806000Y-96895000D01*
X99270000Y-95620000D02*
X99270000Y-96340000D01*
X112180692Y-108449308D02*
X111740000Y-108890000D01*
X97051492Y-108876836D02*
X97051492Y-110294856D01*
X91560000Y-112400000D02*
X92580000Y-112400000D01*
D42*
%TO.N,RESET*%
X86925928Y-94380000D02*
X86925928Y-93744072D01*
X86925928Y-93744072D02*
X89730000Y-90940000D01*
X90980000Y-93030000D02*
X89940000Y-93030000D01*
X87230000Y-110040000D02*
X96740000Y-119550000D01*
X90950000Y-92160000D02*
X90950000Y-93000000D01*
X87230000Y-103380000D02*
X87230000Y-110040000D01*
X90950000Y-93000000D02*
X90980000Y-93030000D01*
X96740000Y-119550000D02*
X97625000Y-119550000D01*
X89262319Y-101347681D02*
X87230000Y-103380000D01*
X89730000Y-90940000D02*
X90950000Y-92160000D01*
X89862623Y-101347681D02*
X89262319Y-101347681D01*
X89940000Y-93030000D02*
X89920000Y-93010000D01*
D44*
%TO.N,+5V*%
X112385000Y-102379000D02*
X112385000Y-103180000D01*
X110485000Y-103180000D02*
X110485000Y-102302000D01*
X113665000Y-102489000D02*
X113001000Y-103153000D01*
X112385000Y-103180000D02*
X112385000Y-104715000D01*
X106334000Y-95282000D02*
X107267000Y-96215000D01*
X100160000Y-95800000D02*
X100240000Y-95720000D01*
X100240000Y-95720000D02*
X100240000Y-95300000D01*
X113001000Y-103153000D02*
X112412000Y-103153000D01*
X84081000Y-95994355D02*
X82261561Y-97813794D01*
X113665000Y-102455000D02*
X113665000Y-102489000D01*
X100240000Y-95300000D02*
X100222000Y-95282000D01*
X110485000Y-102302000D02*
X110787000Y-102000000D01*
X112385000Y-104715000D02*
X112357500Y-104742500D01*
X95150000Y-97740000D02*
X95076206Y-97813794D01*
X99707862Y-94247500D02*
X99707862Y-94767862D01*
X95076206Y-97813794D02*
X82261561Y-97813794D01*
X110787000Y-102000000D02*
X112006000Y-102000000D01*
X84081000Y-95916000D02*
X84081000Y-95994355D01*
D42*
X102265362Y-94247500D02*
X102267862Y-94250000D01*
D44*
X112006000Y-102000000D02*
X112385000Y-102379000D01*
X100222000Y-95282000D02*
X106334000Y-95282000D01*
X99707862Y-94247500D02*
X102265362Y-94247500D01*
X95360000Y-97740000D02*
X95150000Y-97740000D01*
X99707862Y-94767862D02*
X100240000Y-95300000D01*
D42*
%TO.N,Net-(BOOT1-Pad1)*%
X105652289Y-128429203D02*
X105652289Y-128540519D01*
X106540000Y-127541492D02*
X105652289Y-128429203D01*
X105652289Y-128540519D02*
X104555932Y-129636876D01*
X106540000Y-127470000D02*
X106540000Y-127541492D01*
%TO.N,Net-(U8-CPOUT)*%
X92561492Y-111426836D02*
X93733472Y-111426836D01*
X93733472Y-111426836D02*
X93826492Y-111519856D01*
%TO.N,Net-(U8-REGOUT)*%
X97776492Y-112019856D02*
X99124512Y-112019856D01*
X99124512Y-112019856D02*
X99181492Y-112076836D01*
%TO.N,Net-(C21-Pad2)*%
X80209068Y-122596520D02*
X79444420Y-121831872D01*
X80189068Y-122596520D02*
X80209068Y-122596520D01*
X81302548Y-123690000D02*
X80209068Y-122596520D01*
X79444420Y-121831872D02*
X78638128Y-121831872D01*
%TO.N,Net-(D1-A)*%
X105630308Y-98137501D02*
X105630308Y-96137664D01*
X105630308Y-96137664D02*
X105599308Y-96106664D01*
%TO.N,Net-(D2-A)*%
X115892328Y-112389164D02*
X115892328Y-113771664D01*
X115892328Y-113771664D02*
X115932328Y-113811664D01*
%TO.N,Net-(D3-A)*%
X75962328Y-111216664D02*
X75962328Y-112609164D01*
X75962328Y-112609164D02*
X75972328Y-112619164D01*
%TO.N,Net-(D4-A)*%
X95921000Y-132293500D02*
X96707500Y-133080000D01*
X95921000Y-131628336D02*
X95921000Y-132293500D01*
%TO.N,PA7*%
X103178000Y-125398000D02*
X103178000Y-119582248D01*
X103180000Y-119580244D02*
X103180000Y-116929000D01*
X104049000Y-116060000D02*
X110830144Y-116060000D01*
X103180000Y-116929000D02*
X104049000Y-116060000D01*
X103180002Y-119580246D02*
X103180000Y-119580244D01*
X103178000Y-119582248D02*
X103180002Y-119580246D01*
X101829310Y-127074515D02*
X101829310Y-126746690D01*
X110830144Y-116060000D02*
X112199308Y-117429164D01*
X101829310Y-126746690D02*
X103178000Y-125398000D01*
%TO.N,LED_1*%
X97291810Y-121688190D02*
X98222966Y-120757034D01*
X97291810Y-121990000D02*
X97291810Y-121802495D01*
X98222966Y-120757034D02*
X99921966Y-120757034D01*
X97291810Y-121860000D02*
X97291810Y-121688190D01*
X99921966Y-120757034D02*
X101445000Y-119234000D01*
X104830000Y-111230000D02*
X110778472Y-111230000D01*
X110778472Y-111230000D02*
X112199308Y-109809164D01*
X112199308Y-109809164D02*
X114979164Y-109809164D01*
X101445000Y-119234000D02*
X101445000Y-114615000D01*
X114979164Y-109809164D02*
X115892328Y-110722328D01*
X115892328Y-110722328D02*
X115892328Y-111369164D01*
X101445000Y-114615000D02*
X104830000Y-111230000D01*
%TO.N,PA5*%
X99530000Y-126740000D02*
X101175000Y-126740000D01*
X99330000Y-126940000D02*
X99530000Y-126740000D01*
X103746000Y-115680000D02*
X111408472Y-115680000D01*
X101175000Y-126740000D02*
X102862000Y-125053000D01*
X111408472Y-115680000D02*
X112199308Y-114889164D01*
X102862000Y-116564000D02*
X103746000Y-115680000D01*
X102862000Y-125053000D02*
X102862000Y-116564000D01*
%TO.N,PA4*%
X104600836Y-112349164D02*
X107159308Y-112349164D01*
X97288571Y-125300000D02*
X98985472Y-125300000D01*
X99430000Y-121930000D02*
X101868000Y-119492000D01*
X99430000Y-124855472D02*
X99430000Y-121930000D01*
X101868000Y-115082000D02*
X104600836Y-112349164D01*
X101868000Y-119492000D02*
X101868000Y-115082000D01*
X97083571Y-125095000D02*
X97288571Y-125300000D01*
X98985472Y-125300000D02*
X99430000Y-124855472D01*
%TO.N,LED_3*%
X108379000Y-113820000D02*
X109849836Y-112349164D01*
X101290000Y-125470000D02*
X102250000Y-124510000D01*
X99345579Y-126126215D02*
X100001794Y-125470000D01*
X104050000Y-113820000D02*
X108379000Y-113820000D01*
X98241472Y-126110000D02*
X96824972Y-127526500D01*
X100001794Y-125470000D02*
X101290000Y-125470000D01*
X109849836Y-112349164D02*
X112199308Y-112349164D01*
X102250000Y-124510000D02*
X102250000Y-115620000D01*
X96824972Y-127526500D02*
X96824972Y-131512308D01*
X99329364Y-126110000D02*
X98241472Y-126110000D01*
X99345579Y-126126215D02*
X99329364Y-126110000D01*
X96824972Y-131512308D02*
X96941000Y-131628336D01*
X102250000Y-115620000D02*
X104050000Y-113820000D01*
%TO.N,LED_2*%
X85040000Y-129110000D02*
X83530000Y-127600000D01*
X99704000Y-120271000D02*
X101087000Y-118888000D01*
X96749310Y-121330690D02*
X97809000Y-120271000D01*
X96749310Y-122660000D02*
X96749310Y-121330690D01*
X101087000Y-114203000D02*
X105480836Y-109809164D01*
X83530000Y-127600000D02*
X83530000Y-124000000D01*
X101087000Y-118888000D02*
X101087000Y-114203000D01*
X83530000Y-124000000D02*
X77230000Y-117700000D01*
X105480836Y-109809164D02*
X107159308Y-109809164D01*
X77230000Y-111464336D02*
X75962328Y-110196664D01*
X97809000Y-120271000D02*
X99704000Y-120271000D01*
X77230000Y-117700000D02*
X77230000Y-111464336D01*
%TO.N,PA6*%
X102556000Y-116164000D02*
X103770000Y-114950000D01*
X101168000Y-126150000D02*
X102556000Y-124762000D01*
X100367500Y-126150000D02*
X101168000Y-126150000D01*
X107098472Y-114950000D02*
X107159308Y-114889164D01*
X100320000Y-126197500D02*
X100367500Y-126150000D01*
X103770000Y-114950000D02*
X107098472Y-114950000D01*
X102556000Y-124762000D02*
X102556000Y-116164000D01*
%TO.N,PC13*%
X106159236Y-108269236D02*
X107159308Y-107269164D01*
%TO.N,PB11*%
X97134310Y-123470000D02*
X98328472Y-123470000D01*
X98328472Y-123470000D02*
X98329308Y-123469164D01*
X96749310Y-124260000D02*
X96749310Y-123855000D01*
X96749310Y-123855000D02*
X97134310Y-123470000D01*
%TO.N,PB14*%
X89211000Y-123880000D02*
X88842500Y-124248500D01*
X88842500Y-125632500D02*
X89610000Y-126400000D01*
X93249308Y-126759308D02*
X93249308Y-128509164D01*
X88842500Y-124248500D02*
X88842500Y-125632500D01*
X89610000Y-126400000D02*
X92890000Y-126400000D01*
X92890000Y-126400000D02*
X93249308Y-126759308D01*
%TO.N,PB12*%
X89365000Y-124880000D02*
X89365000Y-125575000D01*
X95789308Y-126799308D02*
X95789308Y-128509164D01*
X89365000Y-125575000D02*
X89860000Y-126070000D01*
X95060000Y-126070000D02*
X95789308Y-126799308D01*
X89860000Y-126070000D02*
X95060000Y-126070000D01*
%TO.N,PB15*%
X93150144Y-123370000D02*
X93249308Y-123469164D01*
X92330000Y-123370000D02*
X93150144Y-123370000D01*
%TO.N,PB0*%
X99592000Y-128910000D02*
X100468472Y-128910000D01*
X100468472Y-128910000D02*
X100869308Y-128509164D01*
%TO.N,PB1*%
X99108006Y-125638500D02*
X95557806Y-125638500D01*
X100869308Y-123469164D02*
X100869308Y-123877198D01*
X95557806Y-125638500D02*
X94829306Y-124910000D01*
X100869308Y-123877198D02*
X99108006Y-125638500D01*
%TO.N,USART1_RX*%
X100200000Y-107610000D02*
X100180000Y-107630000D01*
X97480877Y-105840877D02*
X97310877Y-105840877D01*
X92282474Y-121895998D02*
X90709308Y-123469164D01*
X99270000Y-107630000D02*
X97480877Y-105840877D01*
X100180000Y-107630000D02*
X99270000Y-107630000D01*
X92295162Y-121895998D02*
X92282474Y-121895998D01*
%TO.N,USART1_TX*%
X90709308Y-128089308D02*
X90709308Y-128509164D01*
X101150000Y-107000000D02*
X99500000Y-107000000D01*
X88325502Y-121956498D02*
X88320000Y-121962000D01*
X88320000Y-125700000D02*
X90709308Y-128089308D01*
X97270000Y-104770000D02*
X97190000Y-104770000D01*
X99500000Y-107000000D02*
X97270000Y-104770000D01*
X97190000Y-104770000D02*
X97180000Y-104760000D01*
X88320000Y-121962000D02*
X88320000Y-125700000D01*
%TO.N,PB13*%
X95788472Y-123470000D02*
X95789308Y-123469164D01*
X94410000Y-123470000D02*
X95788472Y-123470000D01*
%TO.N,PB10*%
X98270808Y-128509164D02*
X98329308Y-128509164D01*
X98100144Y-128280000D02*
X98329308Y-128509164D01*
X97365000Y-129414972D02*
X98270808Y-128509164D01*
X97365000Y-129432500D02*
X97365000Y-129414972D01*
%TO.N,I2C1_SDA*%
X93826492Y-114476492D02*
X93826492Y-113519856D01*
X95042500Y-120032500D02*
X86170000Y-111160000D01*
X95052500Y-120740000D02*
X95042500Y-120730000D01*
X80860144Y-111160000D02*
X79442308Y-109742164D01*
X93654874Y-116003500D02*
X91560000Y-113908626D01*
X95235000Y-115885000D02*
X95116500Y-116003500D01*
X95235000Y-115885000D02*
X93826492Y-114476492D01*
X91560000Y-113908626D02*
X91560000Y-113420000D01*
X95042500Y-120730000D02*
X95042500Y-120032500D01*
X86170000Y-111160000D02*
X80860144Y-111160000D01*
X95042500Y-120740000D02*
X95052500Y-120740000D01*
X95116500Y-116003500D02*
X93654874Y-116003500D01*
%TO.N,PB9*%
X79442308Y-107202164D02*
X81512164Y-107202164D01*
X86500000Y-109250000D02*
X86500000Y-109970000D01*
X83060000Y-108750000D02*
X86000000Y-108750000D01*
X86500000Y-109970000D02*
X96651537Y-120121537D01*
X96651537Y-120121537D02*
X97069765Y-120121537D01*
X97069765Y-120121537D02*
X97093193Y-120144965D01*
X81512164Y-107202164D02*
X83060000Y-108750000D01*
X86000000Y-108750000D02*
X86500000Y-109250000D01*
%TO.N,PB5*%
X93740000Y-120050000D02*
X87500000Y-113810000D01*
X93740000Y-120660000D02*
X93740000Y-120050000D01*
X80970144Y-113810000D02*
X79442308Y-112282164D01*
X87500000Y-113810000D02*
X80970144Y-113810000D01*
%TO.N,PB8*%
X85412164Y-109742164D02*
X84482308Y-109742164D01*
X96539000Y-120670000D02*
X96340000Y-120670000D01*
X96340000Y-120670000D02*
X85412164Y-109742164D01*
%TO.N,PA15*%
X79442308Y-114822164D02*
X81812164Y-114822164D01*
X81812164Y-114822164D02*
X82712000Y-115722000D01*
X88092000Y-115722000D02*
X92390000Y-120020000D01*
X92390000Y-120020000D02*
X92390000Y-120580000D01*
X82712000Y-115722000D02*
X88092000Y-115722000D01*
%TO.N,I2C1_SCL*%
X94490000Y-122500000D02*
X94490000Y-120150000D01*
X86622164Y-112282164D02*
X84482308Y-112282164D01*
X92580000Y-113420000D02*
X92980144Y-113019856D01*
X92580000Y-113968926D02*
X92580000Y-113420000D01*
X92980144Y-113019856D02*
X93826492Y-113019856D01*
X94092074Y-115481001D02*
X92580000Y-113968926D01*
X94490000Y-120150000D02*
X86622164Y-112282164D01*
%TO.N,PB4*%
X92801106Y-119811106D02*
X87812164Y-114822164D01*
X92950000Y-120030000D02*
X92801106Y-119881106D01*
X92801106Y-119881106D02*
X92801106Y-119811106D01*
X87812164Y-114822164D02*
X84482308Y-114822164D01*
%TO.N,MPU_INT*%
X89370000Y-122832225D02*
X89440275Y-122902500D01*
X89370000Y-118750000D02*
X89370000Y-122832225D01*
X95289843Y-106939843D02*
X96609843Y-106939843D01*
X98560000Y-110780000D02*
X98320144Y-111019856D01*
X86437000Y-117362164D02*
X87982164Y-117362164D01*
X96609843Y-106939843D02*
X98560000Y-108890000D01*
X98560000Y-108890000D02*
X98560000Y-110780000D01*
X98320144Y-111019856D02*
X97776492Y-111019856D01*
X86437000Y-117362164D02*
X84482308Y-117362164D01*
X87982164Y-117362164D02*
X89370000Y-118750000D01*
%TO.N,BOOT0*%
X102000000Y-129160000D02*
X102010000Y-129160000D01*
X103208124Y-130358124D02*
X103834684Y-130358124D01*
X102010000Y-129160000D02*
X103208124Y-130358124D01*
%TO.N,USER_BTN*%
X78518752Y-120291248D02*
X78540000Y-120291248D01*
X78540000Y-120291248D02*
X79359376Y-121110624D01*
%TO.N,Net-(U1-PB2)*%
X94562500Y-131619836D02*
X94631000Y-131688336D01*
X94562500Y-128130000D02*
X94562500Y-131619836D01*
%TO.N,Net-(J2-D-)*%
X96335055Y-96192500D02*
X97122500Y-96192500D01*
X96710000Y-90200000D02*
X97760000Y-91250000D01*
X97760000Y-91250000D02*
X97760000Y-93225308D01*
X96334245Y-96172500D02*
X96334245Y-96191690D01*
X99034000Y-86769000D02*
X99034000Y-87366749D01*
X97760000Y-93225308D02*
X96780308Y-94205000D01*
X98180749Y-88220000D02*
X97560000Y-88220000D01*
X99034000Y-87366749D02*
X98180749Y-88220000D01*
X97122500Y-96192500D02*
X97270000Y-96340000D01*
X96710000Y-89070000D02*
X96710000Y-90200000D01*
X97750000Y-94830000D02*
X97125000Y-94205000D01*
X97125000Y-94205000D02*
X96780308Y-94205000D01*
X96334245Y-96191690D02*
X96335055Y-96192500D01*
X97560000Y-88220000D02*
X96710000Y-89070000D01*
%TO.N,Net-(J2-D+)*%
X93710000Y-91640000D02*
X93710000Y-93034692D01*
X94880000Y-95210000D02*
X95320000Y-95650000D01*
X94880000Y-94478458D02*
X94880000Y-95210000D01*
X98270000Y-95850000D02*
X98270000Y-96340000D01*
X94880308Y-94478150D02*
X94880000Y-94478458D01*
X98384000Y-87584000D02*
X98384000Y-86769000D01*
X98054000Y-87914000D02*
X98384000Y-87584000D01*
X94880308Y-94205000D02*
X94880308Y-94478150D01*
X96190000Y-89160000D02*
X93710000Y-91640000D01*
X97433250Y-87914000D02*
X96190000Y-89157250D01*
X93710000Y-93034692D02*
X94880308Y-94205000D01*
X95320000Y-95650000D02*
X98070000Y-95650000D01*
X98070000Y-95650000D02*
X98270000Y-95850000D01*
X96190000Y-89157250D02*
X96190000Y-89160000D01*
X97433250Y-87914000D02*
X98054000Y-87914000D01*
%TO.N,SWCLK*%
X98920000Y-108350000D02*
X98091394Y-107521394D01*
X101030000Y-108350000D02*
X98920000Y-108350000D01*
%TO.N,Net-(U6A-T_VCC)*%
X92455662Y-95679338D02*
X92890000Y-95245000D01*
X90477500Y-95679338D02*
X92455662Y-95679338D01*
%TO.N,USB_DP*%
X98270000Y-97360000D02*
X99270000Y-97360000D01*
X98270000Y-98580000D02*
X98270000Y-97360000D01*
%TO.N,USB_DM*%
X97270000Y-97360000D02*
X97270000Y-98550000D01*
D44*
%TO.N,Net-(D6-A)*%
X99684000Y-90923638D02*
X99707862Y-90947500D01*
X97400000Y-89470000D02*
X98877500Y-90947500D01*
X95830308Y-90489692D02*
X95950000Y-90370000D01*
X99684000Y-86769000D02*
X99684000Y-90923638D01*
X98877500Y-90947500D02*
X99707862Y-90947500D01*
X95830308Y-91930000D02*
X95830308Y-90489692D01*
%TO.N,Net-(D7-A)*%
X101360000Y-90290000D02*
X102020000Y-90950000D01*
X102020000Y-90950000D02*
X102267862Y-90950000D01*
X101360000Y-89360000D02*
X101360000Y-90290000D01*
%TD*%
%TA.AperFunction,Conductor*%
%TO.N,GND*%
G36*
X104404793Y-81741223D02*
G01*
X104450585Y-81793995D01*
X104461826Y-81845585D01*
X104461826Y-92023786D01*
X104458302Y-92041071D01*
X104461693Y-92049481D01*
X104462117Y-92049662D01*
X104462119Y-92049664D01*
X104462121Y-92049664D01*
X104462720Y-92049920D01*
X104462762Y-92049955D01*
X104465087Y-92050962D01*
X105228010Y-92395949D01*
X105230306Y-92397017D01*
X105370138Y-92463914D01*
X105396402Y-92476479D01*
X105398726Y-92477621D01*
X105444355Y-92500633D01*
X106064751Y-92813519D01*
X106067062Y-92814716D01*
X106229483Y-92901138D01*
X106231635Y-92902312D01*
X106780833Y-93209180D01*
X106883053Y-93266296D01*
X106885440Y-93267664D01*
X107043597Y-93360704D01*
X107045679Y-93361956D01*
X107394978Y-93577063D01*
X107681460Y-93753485D01*
X107683778Y-93754948D01*
X107837504Y-93854464D01*
X107839475Y-93855768D01*
X108458512Y-94274209D01*
X108460764Y-94275770D01*
X108557593Y-94344500D01*
X108609528Y-94381364D01*
X108611491Y-94382786D01*
X108660984Y-94419393D01*
X109212725Y-94827481D01*
X109214954Y-94829171D01*
X109358540Y-94940618D01*
X109360308Y-94942017D01*
X109942791Y-95412346D01*
X109945029Y-95414197D01*
X110064405Y-95515320D01*
X110082918Y-95531002D01*
X110084684Y-95532527D01*
X110647442Y-96027801D01*
X110649563Y-96029713D01*
X110781573Y-96151605D01*
X110783249Y-96153182D01*
X111309482Y-96657498D01*
X111325242Y-96672601D01*
X111327383Y-96674704D01*
X111453166Y-96801228D01*
X111454746Y-96802845D01*
X111975108Y-97345718D01*
X111977185Y-97347939D01*
X112040196Y-97416988D01*
X112096583Y-97478780D01*
X112097969Y-97480326D01*
X112590369Y-98039711D01*
X112595790Y-98045869D01*
X112597793Y-98048202D01*
X112619980Y-98074708D01*
X112710482Y-98182827D01*
X112711865Y-98184510D01*
X113186160Y-98771789D01*
X113188092Y-98774244D01*
X113293881Y-98912204D01*
X113295167Y-98913911D01*
X113745203Y-99522242D01*
X113747053Y-99524810D01*
X113845773Y-99665634D01*
X113846962Y-99667361D01*
X113932797Y-99794318D01*
X114161171Y-100132103D01*
X114271824Y-100295767D01*
X114273566Y-100298416D01*
X114291713Y-100326813D01*
X114365102Y-100441653D01*
X114366194Y-100443393D01*
X114765106Y-101091024D01*
X114766773Y-101093811D01*
X114851006Y-101238942D01*
X114852002Y-101240692D01*
X115224155Y-101906580D01*
X115225722Y-101909472D01*
X115302539Y-102055909D01*
X115303441Y-102057663D01*
X115648141Y-102740975D01*
X115649601Y-102743968D01*
X115718969Y-102891180D01*
X115719778Y-102892934D01*
X116036241Y-103592595D01*
X116037589Y-103595685D01*
X116099545Y-103743216D01*
X116100264Y-103744965D01*
X116387824Y-104460061D01*
X116389052Y-104463242D01*
X116443599Y-104610462D01*
X116444229Y-104612203D01*
X116702196Y-105341683D01*
X116703302Y-105344953D01*
X116750494Y-105491236D01*
X116751037Y-105492962D01*
X116978801Y-106235902D01*
X116979778Y-106239256D01*
X117019767Y-106384140D01*
X117020225Y-106385847D01*
X117217141Y-107141125D01*
X117217984Y-107144558D01*
X117250901Y-107287370D01*
X117251277Y-107289055D01*
X117416779Y-108055717D01*
X117417483Y-108059223D01*
X117443515Y-108199278D01*
X117443812Y-108200938D01*
X117577345Y-108978015D01*
X117577905Y-108981588D01*
X117597303Y-109118245D01*
X117597524Y-109119874D01*
X117698534Y-109906271D01*
X117698946Y-109909907D01*
X117712045Y-110042818D01*
X117712192Y-110044414D01*
X117780136Y-110838887D01*
X117780396Y-110842577D01*
X117787527Y-110970977D01*
X117787604Y-110972537D01*
X117822000Y-111774164D01*
X117822104Y-111777902D01*
X117823673Y-111901213D01*
X117823683Y-111902735D01*
X117824046Y-112710388D01*
X117823990Y-112714170D01*
X117820454Y-112831788D01*
X117820401Y-112833266D01*
X117786265Y-113645911D01*
X117786045Y-113649728D01*
X117777926Y-113761036D01*
X117777813Y-113762470D01*
X117708727Y-114578935D01*
X117708342Y-114582780D01*
X117696217Y-114687221D01*
X117696048Y-114688608D01*
X117591559Y-115507923D01*
X117591004Y-115511788D01*
X117575541Y-115608628D01*
X117575320Y-115609967D01*
X117434977Y-116431090D01*
X117434250Y-116434967D01*
X117416157Y-116523722D01*
X117415887Y-116525011D01*
X117239269Y-117346743D01*
X117238369Y-117350626D01*
X117218454Y-117430666D01*
X117218140Y-117431902D01*
X117004773Y-118253300D01*
X117003697Y-118257182D01*
X116982830Y-118327977D01*
X116982475Y-118329158D01*
X116731929Y-119149037D01*
X116730677Y-119152908D01*
X116709831Y-119213889D01*
X116709440Y-119215015D01*
X116421215Y-120032395D01*
X116419784Y-120036247D01*
X116399987Y-120086965D01*
X116399563Y-120088037D01*
X116073186Y-120901770D01*
X116071576Y-120905597D01*
X116054057Y-120945368D01*
X116053605Y-120946381D01*
X115688491Y-121755544D01*
X115686702Y-121759338D01*
X115672748Y-121787666D01*
X115672272Y-121788621D01*
X115267790Y-122592236D01*
X115265822Y-122595985D01*
X115256941Y-122612224D01*
X115256445Y-122613123D01*
X114811887Y-123410249D01*
X114809734Y-123413957D01*
X114807372Y-123417868D01*
X114806865Y-123418700D01*
X114322598Y-124206491D01*
X114319748Y-124210913D01*
X113800414Y-124980542D01*
X113797380Y-124984840D01*
X113245862Y-125731751D01*
X113242647Y-125735916D01*
X112659961Y-126458737D01*
X112656573Y-126462762D01*
X112043750Y-127160215D01*
X112040195Y-127164093D01*
X111398321Y-127834938D01*
X111394604Y-127838662D01*
X110724840Y-128481687D01*
X110720968Y-128485249D01*
X110024560Y-129099259D01*
X110020541Y-129102654D01*
X109298687Y-129686590D01*
X109294527Y-129689811D01*
X108548571Y-130242587D01*
X108544278Y-130245629D01*
X107775556Y-130766259D01*
X107771138Y-130769117D01*
X106980992Y-131256686D01*
X106976457Y-131259353D01*
X106166360Y-131712955D01*
X106161717Y-131715427D01*
X105333093Y-132134265D01*
X105328348Y-132136538D01*
X104482721Y-132519841D01*
X104477884Y-132521911D01*
X103616747Y-132869002D01*
X103611826Y-132870865D01*
X102736756Y-133181108D01*
X102731762Y-133182761D01*
X101844297Y-133455613D01*
X101839236Y-133457052D01*
X100941001Y-133692011D01*
X100935884Y-133693234D01*
X100028500Y-133889877D01*
X100023335Y-133890882D01*
X99108417Y-134048858D01*
X99103215Y-134049643D01*
X98182412Y-134168668D01*
X98177181Y-134169231D01*
X97252202Y-134249085D01*
X97246950Y-134249427D01*
X97228069Y-134250252D01*
X97160234Y-134233512D01*
X97112218Y-134182756D01*
X97099265Y-134114098D01*
X97125488Y-134049336D01*
X97182561Y-134009031D01*
X97183493Y-134008717D01*
X97232287Y-133992549D01*
X97375391Y-133904281D01*
X97494281Y-133785391D01*
X97582549Y-133642287D01*
X97635436Y-133482685D01*
X97645500Y-133384174D01*
X97645500Y-132775826D01*
X97635436Y-132677315D01*
X97582549Y-132517713D01*
X97514919Y-132408068D01*
X97496479Y-132340678D01*
X97517401Y-132274015D01*
X97532778Y-132255291D01*
X97582130Y-132205939D01*
X97582135Y-132205934D01*
X97663869Y-132067729D01*
X97708665Y-131913540D01*
X97711500Y-131877517D01*
X97711499Y-131379156D01*
X97708665Y-131343132D01*
X97663869Y-131188943D01*
X97582135Y-131050738D01*
X97468598Y-130937201D01*
X97468592Y-130937197D01*
X97462432Y-130932419D01*
X97463254Y-130931359D01*
X97421162Y-130886271D01*
X97407972Y-130830618D01*
X97407972Y-130564207D01*
X97427657Y-130497168D01*
X97480461Y-130451413D01*
X97549619Y-130441469D01*
X97578243Y-130450997D01*
X97578667Y-130449861D01*
X97721825Y-130503255D01*
X97721824Y-130503255D01*
X97728752Y-130503999D01*
X97781435Y-130509664D01*
X98877180Y-130509663D01*
X98936791Y-130503255D01*
X99071639Y-130452960D01*
X99186854Y-130366710D01*
X99273104Y-130251495D01*
X99323399Y-130116647D01*
X99329808Y-130057037D01*
X99329807Y-129825122D01*
X99349491Y-129758084D01*
X99402295Y-129712329D01*
X99471454Y-129702385D01*
X99477972Y-129703501D01*
X99513158Y-129710500D01*
X99670843Y-129710500D01*
X99689312Y-129706826D01*
X99720616Y-129700599D01*
X99790207Y-129706826D01*
X99845385Y-129749688D01*
X99868630Y-129815577D01*
X99868808Y-129822215D01*
X99868808Y-130057033D01*
X99868809Y-130057040D01*
X99875216Y-130116647D01*
X99925510Y-130251492D01*
X99925514Y-130251499D01*
X100011760Y-130366708D01*
X100011763Y-130366711D01*
X100126972Y-130452957D01*
X100126979Y-130452961D01*
X100261825Y-130503255D01*
X100261824Y-130503255D01*
X100268752Y-130503999D01*
X100321435Y-130509664D01*
X101417180Y-130509663D01*
X101476791Y-130503255D01*
X101611639Y-130452960D01*
X101726854Y-130366710D01*
X101813104Y-130251495D01*
X101863399Y-130116647D01*
X101863399Y-130116645D01*
X101865182Y-130109102D01*
X101868079Y-130109786D01*
X101889486Y-130058094D01*
X101946876Y-130018242D01*
X102016701Y-130015742D01*
X102073725Y-130048212D01*
X102850153Y-130824640D01*
X102983094Y-130901394D01*
X103131371Y-130941124D01*
X103276672Y-130941124D01*
X103343711Y-130960809D01*
X103364353Y-130977443D01*
X103466056Y-131079146D01*
X103493533Y-131102615D01*
X103634236Y-131179967D01*
X103789757Y-131219898D01*
X103789761Y-131219898D01*
X103950318Y-131219898D01*
X103950322Y-131219898D01*
X104105842Y-131179967D01*
X104105846Y-131179965D01*
X104246543Y-131102617D01*
X104246543Y-131102616D01*
X104246546Y-131102615D01*
X104274023Y-131079147D01*
X104555706Y-130797463D01*
X104579175Y-130769986D01*
X104656527Y-130629282D01*
X104673136Y-130564591D01*
X104708871Y-130504557D01*
X104762399Y-130475328D01*
X104827090Y-130458719D01*
X104837566Y-130452960D01*
X104967791Y-130381369D01*
X104967791Y-130381368D01*
X104967794Y-130381367D01*
X104995271Y-130357899D01*
X105276954Y-130076215D01*
X105300423Y-130048738D01*
X105377775Y-129908034D01*
X105417706Y-129752514D01*
X105417706Y-129650950D01*
X105426351Y-129621506D01*
X105432874Y-129591524D01*
X105436628Y-129586508D01*
X105437391Y-129583911D01*
X105454016Y-129563278D01*
X105571672Y-129445621D01*
X105632991Y-129412139D01*
X105676999Y-129410568D01*
X105681534Y-129411220D01*
X105823991Y-129390738D01*
X105954907Y-129330950D01*
X106001589Y-129293331D01*
X106953174Y-128341745D01*
X106990794Y-128295063D01*
X107050582Y-128164147D01*
X107056907Y-128120148D01*
X107085930Y-128056594D01*
X107091946Y-128050130D01*
X107161789Y-127980289D01*
X107249394Y-127849179D01*
X107309737Y-127703497D01*
X107340500Y-127548842D01*
X107340500Y-127391158D01*
X107340500Y-127391155D01*
X107340499Y-127391153D01*
X107338982Y-127383525D01*
X107309737Y-127236503D01*
X107256096Y-127107000D01*
X107249397Y-127090827D01*
X107249390Y-127090814D01*
X107161789Y-126959711D01*
X107161786Y-126959707D01*
X107050292Y-126848213D01*
X107050288Y-126848210D01*
X106919185Y-126760609D01*
X106919172Y-126760602D01*
X106773501Y-126700264D01*
X106773489Y-126700261D01*
X106618845Y-126669500D01*
X106618842Y-126669500D01*
X106461158Y-126669500D01*
X106461155Y-126669500D01*
X106306510Y-126700261D01*
X106306498Y-126700264D01*
X106160828Y-126760602D01*
X106160817Y-126760608D01*
X106087237Y-126809773D01*
X106020560Y-126830650D01*
X106000701Y-126829408D01*
X105858310Y-126808936D01*
X105715853Y-126829417D01*
X105584939Y-126889204D01*
X105584934Y-126889207D01*
X105538259Y-126926821D01*
X105538252Y-126926827D01*
X104586673Y-127878407D01*
X104586664Y-127878417D01*
X104549049Y-127925092D01*
X104489261Y-128056009D01*
X104468780Y-128198465D01*
X104489261Y-128340923D01*
X104549049Y-128471838D01*
X104549050Y-128471840D01*
X104586660Y-128518511D01*
X104586671Y-128518524D01*
X104630552Y-128562405D01*
X104634875Y-128570322D01*
X104642102Y-128575727D01*
X104651360Y-128600512D01*
X104664037Y-128623728D01*
X104663393Y-128632726D01*
X104666551Y-128641179D01*
X104660940Y-128667031D01*
X104659053Y-128693420D01*
X104653253Y-128702448D01*
X104651732Y-128709459D01*
X104630595Y-128737724D01*
X104629580Y-128738740D01*
X104568274Y-128772255D01*
X104541856Y-128775102D01*
X104440290Y-128775102D01*
X104284771Y-128815033D01*
X104144072Y-128892382D01*
X104144072Y-128892383D01*
X104116594Y-128915851D01*
X104116577Y-128915867D01*
X103834926Y-129197519D01*
X103834915Y-129197531D01*
X103811441Y-129225013D01*
X103734090Y-129365714D01*
X103734088Y-129365721D01*
X103717479Y-129430406D01*
X103681740Y-129490444D01*
X103628214Y-129519671D01*
X103563529Y-129536280D01*
X103563525Y-129536281D01*
X103417487Y-129616565D01*
X103349257Y-129631611D01*
X103283723Y-129607380D01*
X103270070Y-129595583D01*
X102836773Y-129162286D01*
X102803288Y-129100963D01*
X102801050Y-129086751D01*
X102800500Y-129081166D01*
X102800500Y-129081158D01*
X102798714Y-129072181D01*
X102785225Y-129004366D01*
X102769737Y-128926503D01*
X102769735Y-128926498D01*
X102709397Y-128780827D01*
X102709390Y-128780814D01*
X102621789Y-128649711D01*
X102621786Y-128649707D01*
X102510292Y-128538213D01*
X102510288Y-128538210D01*
X102379185Y-128450609D01*
X102379172Y-128450602D01*
X102233501Y-128390264D01*
X102233489Y-128390261D01*
X102078845Y-128359500D01*
X102078842Y-128359500D01*
X101993807Y-128359500D01*
X101926768Y-128339815D01*
X101881013Y-128287011D01*
X101869807Y-128235500D01*
X101869807Y-127984406D01*
X101889492Y-127917367D01*
X101942296Y-127871612D01*
X101969616Y-127862789D01*
X101974448Y-127861827D01*
X102062807Y-127844252D01*
X102208489Y-127783909D01*
X102339599Y-127696304D01*
X102451099Y-127584804D01*
X102538704Y-127453694D01*
X102599047Y-127308012D01*
X102629810Y-127153357D01*
X102629810Y-126995673D01*
X102629810Y-126995670D01*
X102629809Y-126995668D01*
X102605411Y-126873009D01*
X102611638Y-126803418D01*
X102639345Y-126761139D01*
X103525761Y-125874724D01*
X103525766Y-125874720D01*
X103535969Y-125864516D01*
X103535971Y-125864516D01*
X103644516Y-125755971D01*
X103721270Y-125623030D01*
X103733949Y-125575711D01*
X103761001Y-125474753D01*
X103761001Y-125321247D01*
X103761001Y-125313652D01*
X103761000Y-125313634D01*
X103761000Y-121742877D01*
X104088808Y-121742877D01*
X104088808Y-121955450D01*
X104107503Y-122073489D01*
X104122062Y-122165407D01*
X104177388Y-122335683D01*
X104187752Y-122367578D01*
X104284259Y-122556984D01*
X104409198Y-122728950D01*
X104559521Y-122879273D01*
X104731487Y-123004212D01*
X104731489Y-123004213D01*
X104731492Y-123004215D01*
X104920896Y-123100721D01*
X105123065Y-123166410D01*
X105333021Y-123199664D01*
X105333022Y-123199664D01*
X105545594Y-123199664D01*
X105545595Y-123199664D01*
X105755551Y-123166410D01*
X105957720Y-123100721D01*
X106147124Y-123004215D01*
X106208444Y-122959664D01*
X106319094Y-122879273D01*
X106319096Y-122879270D01*
X106319100Y-122879268D01*
X106469412Y-122728956D01*
X106477091Y-122718387D01*
X109948858Y-122718387D01*
X109969339Y-122860845D01*
X110029126Y-122991758D01*
X110029127Y-122991759D01*
X110029128Y-122991761D01*
X110066747Y-123038444D01*
X110066750Y-123038447D01*
X110066755Y-123038453D01*
X110658162Y-123629858D01*
X110841556Y-123813252D01*
X110888239Y-123850872D01*
X111019154Y-123910660D01*
X111161612Y-123931142D01*
X111304069Y-123910660D01*
X111434985Y-123850872D01*
X111481667Y-123813253D01*
X112433252Y-122861667D01*
X112470872Y-122814985D01*
X112530660Y-122684069D01*
X112535594Y-122649747D01*
X112564617Y-122586192D01*
X112610883Y-122552829D01*
X112619179Y-122549394D01*
X112750289Y-122461789D01*
X112861789Y-122350289D01*
X112949394Y-122219179D01*
X113009737Y-122073497D01*
X113040500Y-121918842D01*
X113040500Y-121761158D01*
X113040500Y-121761155D01*
X113040499Y-121761153D01*
X113009738Y-121606510D01*
X113009737Y-121606503D01*
X113009735Y-121606498D01*
X112949397Y-121460827D01*
X112949390Y-121460814D01*
X112861789Y-121329711D01*
X112861786Y-121329707D01*
X112750292Y-121218213D01*
X112750288Y-121218210D01*
X112619185Y-121130609D01*
X112619172Y-121130602D01*
X112473501Y-121070264D01*
X112473489Y-121070261D01*
X112318845Y-121039500D01*
X112318842Y-121039500D01*
X112161158Y-121039500D01*
X112161155Y-121039500D01*
X112006510Y-121070261D01*
X112006498Y-121070264D01*
X111860827Y-121130602D01*
X111860814Y-121130609D01*
X111729711Y-121218210D01*
X111622548Y-121325373D01*
X111561225Y-121358857D01*
X111491533Y-121353873D01*
X111483359Y-121350487D01*
X111480849Y-121349341D01*
X111480845Y-121349339D01*
X111351540Y-121330749D01*
X111338388Y-121328858D01*
X111338387Y-121328858D01*
X111195931Y-121349339D01*
X111065017Y-121409126D01*
X111065012Y-121409129D01*
X111018337Y-121446743D01*
X111018330Y-121446749D01*
X110066751Y-122398329D01*
X110066742Y-122398339D01*
X110029127Y-122445014D01*
X109969339Y-122575931D01*
X109948858Y-122718387D01*
X106477091Y-122718387D01*
X106594359Y-122556980D01*
X106690865Y-122367576D01*
X106756554Y-122165407D01*
X106789808Y-121955451D01*
X106789808Y-121742877D01*
X106756554Y-121532921D01*
X106690865Y-121330752D01*
X106594359Y-121141348D01*
X106594357Y-121141345D01*
X106594356Y-121141343D01*
X106469417Y-120969377D01*
X106319094Y-120819054D01*
X106147128Y-120694115D01*
X105957722Y-120597608D01*
X105957721Y-120597607D01*
X105957720Y-120597607D01*
X105755551Y-120531918D01*
X105755549Y-120531917D01*
X105755548Y-120531917D01*
X105561341Y-120501158D01*
X105545595Y-120498664D01*
X105333021Y-120498664D01*
X105317275Y-120501158D01*
X105123068Y-120531917D01*
X104920893Y-120597608D01*
X104731487Y-120694115D01*
X104559521Y-120819054D01*
X104409198Y-120969377D01*
X104284259Y-121141343D01*
X104187752Y-121330749D01*
X104187751Y-121330751D01*
X104187751Y-121330752D01*
X104178619Y-121358857D01*
X104122061Y-121532924D01*
X104088808Y-121742877D01*
X103761000Y-121742877D01*
X103761000Y-119680332D01*
X103762061Y-119664145D01*
X103763002Y-119656998D01*
X103763002Y-119495906D01*
X103763000Y-119495872D01*
X103763000Y-117977008D01*
X105159308Y-117977008D01*
X105165709Y-118036536D01*
X105165711Y-118036543D01*
X105215953Y-118171250D01*
X105215957Y-118171257D01*
X105302117Y-118286351D01*
X105302120Y-118286354D01*
X105417214Y-118372514D01*
X105417221Y-118372518D01*
X105551928Y-118422760D01*
X105551935Y-118422762D01*
X105611463Y-118429163D01*
X105611480Y-118429164D01*
X106909308Y-118429164D01*
X107409308Y-118429164D01*
X108707136Y-118429164D01*
X108707152Y-118429163D01*
X108766680Y-118422762D01*
X108766687Y-118422760D01*
X108901394Y-118372518D01*
X108901401Y-118372514D01*
X109016495Y-118286354D01*
X109016498Y-118286351D01*
X109102658Y-118171257D01*
X109102662Y-118171250D01*
X109152904Y-118036543D01*
X109152906Y-118036536D01*
X109159307Y-117977008D01*
X109159308Y-117976991D01*
X109159308Y-117679164D01*
X107409308Y-117679164D01*
X107409308Y-118429164D01*
X106909308Y-118429164D01*
X106909308Y-117679164D01*
X105159308Y-117679164D01*
X105159308Y-117977008D01*
X103763000Y-117977008D01*
X103763000Y-117221848D01*
X103782685Y-117154809D01*
X103799319Y-117134167D01*
X104254167Y-116679319D01*
X104315490Y-116645834D01*
X104341848Y-116643000D01*
X105053800Y-116643000D01*
X105120839Y-116662685D01*
X105166594Y-116715489D01*
X105176538Y-116784647D01*
X105169982Y-116810332D01*
X105165712Y-116821780D01*
X105165709Y-116821791D01*
X105159308Y-116881319D01*
X105159308Y-117179164D01*
X109159308Y-117179164D01*
X109159308Y-116881336D01*
X109159307Y-116881319D01*
X109152906Y-116821791D01*
X109152903Y-116821780D01*
X109148634Y-116810332D01*
X109143650Y-116740640D01*
X109177136Y-116679317D01*
X109238460Y-116645833D01*
X109264816Y-116643000D01*
X110093267Y-116643000D01*
X110160306Y-116662685D01*
X110206061Y-116715489D01*
X110216005Y-116784647D01*
X110209450Y-116810331D01*
X110205216Y-116821681D01*
X110198809Y-116881280D01*
X110198809Y-116881287D01*
X110198808Y-116881299D01*
X110198808Y-117977034D01*
X110198809Y-117977040D01*
X110205216Y-118036647D01*
X110255510Y-118171492D01*
X110255514Y-118171499D01*
X110341760Y-118286708D01*
X110341763Y-118286711D01*
X110456972Y-118372957D01*
X110456979Y-118372961D01*
X110591825Y-118423255D01*
X110591824Y-118423255D01*
X110598752Y-118423999D01*
X110651435Y-118429664D01*
X113747180Y-118429663D01*
X113806791Y-118423255D01*
X113941639Y-118372960D01*
X114056854Y-118286710D01*
X114143104Y-118171495D01*
X114193399Y-118036647D01*
X114199808Y-117977037D01*
X114199807Y-116881292D01*
X114193399Y-116821681D01*
X114179586Y-116784647D01*
X114143105Y-116686835D01*
X114143101Y-116686828D01*
X114056855Y-116571619D01*
X114056852Y-116571616D01*
X113941643Y-116485370D01*
X113941636Y-116485366D01*
X113806790Y-116435072D01*
X113806791Y-116435072D01*
X113747191Y-116428665D01*
X113747189Y-116428664D01*
X113747181Y-116428664D01*
X113747173Y-116428664D01*
X112074657Y-116428664D01*
X112045216Y-116420019D01*
X112015230Y-116413496D01*
X112010214Y-116409741D01*
X112007618Y-116408979D01*
X111986976Y-116392345D01*
X111841475Y-116246844D01*
X111807990Y-116185521D01*
X111812974Y-116115829D01*
X111841470Y-116071488D01*
X111986978Y-115925979D01*
X112048299Y-115892497D01*
X112074657Y-115889663D01*
X113747179Y-115889663D01*
X113747180Y-115889663D01*
X113806791Y-115883255D01*
X113941639Y-115832960D01*
X114056854Y-115746710D01*
X114126769Y-115653316D01*
X114957329Y-115653316D01*
X114967384Y-115751747D01*
X115020234Y-115911236D01*
X115020236Y-115911241D01*
X115108442Y-116054244D01*
X115227247Y-116173049D01*
X115370250Y-116261255D01*
X115370255Y-116261257D01*
X115529744Y-116314106D01*
X115628183Y-116324163D01*
X116182328Y-116324163D01*
X116236464Y-116324163D01*
X116236480Y-116324162D01*
X116334911Y-116314107D01*
X116494400Y-116261257D01*
X116494405Y-116261255D01*
X116637408Y-116173049D01*
X116756213Y-116054244D01*
X116844419Y-115911241D01*
X116844421Y-115911236D01*
X116897270Y-115751747D01*
X116907327Y-115653314D01*
X116907328Y-115653301D01*
X116907328Y-115636664D01*
X116182328Y-115636664D01*
X116182328Y-116324163D01*
X115628183Y-116324163D01*
X115682327Y-116324162D01*
X115682328Y-116324162D01*
X115682328Y-115636664D01*
X114957329Y-115636664D01*
X114957329Y-115653316D01*
X114126769Y-115653316D01*
X114143104Y-115631495D01*
X114193399Y-115496647D01*
X114199808Y-115437037D01*
X114199807Y-114341292D01*
X114193399Y-114281681D01*
X114168099Y-114213849D01*
X114143105Y-114146835D01*
X114143101Y-114146828D01*
X114056855Y-114031619D01*
X114056852Y-114031616D01*
X113941643Y-113945370D01*
X113941636Y-113945366D01*
X113806790Y-113895072D01*
X113806791Y-113895072D01*
X113747191Y-113888665D01*
X113747189Y-113888664D01*
X113747181Y-113888664D01*
X113747172Y-113888664D01*
X110651437Y-113888664D01*
X110651431Y-113888665D01*
X110591824Y-113895072D01*
X110456979Y-113945366D01*
X110456972Y-113945370D01*
X110341763Y-114031616D01*
X110341760Y-114031619D01*
X110255514Y-114146828D01*
X110255510Y-114146835D01*
X110209814Y-114269355D01*
X110205217Y-114281681D01*
X110198808Y-114341291D01*
X110198808Y-114719083D01*
X110198809Y-114973000D01*
X110179125Y-115040039D01*
X110126321Y-115085794D01*
X110074809Y-115097000D01*
X109283808Y-115097000D01*
X109216769Y-115077315D01*
X109171014Y-115024511D01*
X109159808Y-114973000D01*
X109159807Y-114341291D01*
X109159806Y-114341287D01*
X109159286Y-114336451D01*
X109153399Y-114281681D01*
X109128099Y-114213849D01*
X109103105Y-114146835D01*
X109103103Y-114146832D01*
X109103100Y-114146828D01*
X109070547Y-114103342D01*
X109046130Y-114037881D01*
X109060981Y-113969608D01*
X109082129Y-113941356D01*
X110031192Y-112992294D01*
X110092513Y-112958811D01*
X110162205Y-112963795D01*
X110218138Y-113005667D01*
X110235053Y-113036643D01*
X110255511Y-113091494D01*
X110255514Y-113091499D01*
X110341760Y-113206708D01*
X110341763Y-113206711D01*
X110456972Y-113292957D01*
X110456979Y-113292961D01*
X110591825Y-113343255D01*
X110591824Y-113343255D01*
X110598752Y-113343999D01*
X110651435Y-113349664D01*
X113747180Y-113349663D01*
X113806791Y-113343255D01*
X113941639Y-113292960D01*
X114056854Y-113206710D01*
X114143104Y-113091495D01*
X114193399Y-112956647D01*
X114199808Y-112897037D01*
X114199807Y-111801292D01*
X114194071Y-111747931D01*
X114193399Y-111741680D01*
X114143105Y-111606835D01*
X114143101Y-111606828D01*
X114056855Y-111491619D01*
X114056852Y-111491616D01*
X113941643Y-111405370D01*
X113941636Y-111405366D01*
X113806790Y-111355072D01*
X113806791Y-111355072D01*
X113747191Y-111348665D01*
X113747189Y-111348664D01*
X113747181Y-111348664D01*
X113747173Y-111348664D01*
X111783656Y-111348664D01*
X111716617Y-111328979D01*
X111670862Y-111276175D01*
X111660918Y-111207017D01*
X111689943Y-111143461D01*
X111695975Y-111136983D01*
X111986975Y-110845982D01*
X112048298Y-110812497D01*
X112074656Y-110809663D01*
X113747179Y-110809663D01*
X113747180Y-110809663D01*
X113806791Y-110803255D01*
X113941639Y-110752960D01*
X114056854Y-110666710D01*
X114143104Y-110551495D01*
X114163319Y-110497296D01*
X114172444Y-110472831D01*
X114214315Y-110416897D01*
X114279779Y-110392480D01*
X114288626Y-110392164D01*
X114686315Y-110392164D01*
X114753354Y-110411849D01*
X114773996Y-110428483D01*
X115127934Y-110782421D01*
X115161419Y-110843744D01*
X115156435Y-110913436D01*
X115146987Y-110933220D01*
X115119460Y-110979767D01*
X115119457Y-110979775D01*
X115074663Y-111133955D01*
X115074662Y-111133961D01*
X115071828Y-111169975D01*
X115071828Y-111568333D01*
X115071829Y-111568355D01*
X115074663Y-111604369D01*
X115119457Y-111758552D01*
X115119460Y-111758559D01*
X115153456Y-111816045D01*
X115170637Y-111883769D01*
X115153456Y-111942283D01*
X115119460Y-111999768D01*
X115119457Y-111999775D01*
X115074663Y-112153955D01*
X115074662Y-112153961D01*
X115071828Y-112189975D01*
X115071828Y-112588333D01*
X115071829Y-112588355D01*
X115074663Y-112624369D01*
X115119457Y-112778552D01*
X115119459Y-112778558D01*
X115201978Y-112918090D01*
X115219161Y-112985814D01*
X115197001Y-113052077D01*
X115182928Y-113068892D01*
X115108044Y-113143776D01*
X115019783Y-113286868D01*
X115019778Y-113286879D01*
X115009140Y-113318982D01*
X114966892Y-113446479D01*
X114966892Y-113446480D01*
X114966891Y-113446480D01*
X114956828Y-113544982D01*
X114956828Y-114078345D01*
X114966891Y-114176847D01*
X115019778Y-114336448D01*
X115019783Y-114336459D01*
X115108044Y-114479551D01*
X115108047Y-114479556D01*
X115140328Y-114511837D01*
X115173813Y-114573161D01*
X115168827Y-114642852D01*
X115140328Y-114687197D01*
X115108442Y-114719083D01*
X115020236Y-114862086D01*
X115020234Y-114862091D01*
X114967385Y-115021580D01*
X114957328Y-115120013D01*
X114957328Y-115136664D01*
X116907327Y-115136664D01*
X116907327Y-115120028D01*
X116907326Y-115120011D01*
X116897271Y-115021580D01*
X116844421Y-114862091D01*
X116844419Y-114862086D01*
X116756213Y-114719083D01*
X116724328Y-114687198D01*
X116690843Y-114625875D01*
X116695827Y-114556183D01*
X116724328Y-114511836D01*
X116756609Y-114479555D01*
X116844877Y-114336451D01*
X116897764Y-114176849D01*
X116907828Y-114078338D01*
X116907828Y-113544990D01*
X116897764Y-113446479D01*
X116844877Y-113286877D01*
X116844873Y-113286871D01*
X116844872Y-113286868D01*
X116756611Y-113143776D01*
X116756608Y-113143772D01*
X116632612Y-113019776D01*
X116634621Y-113017766D01*
X116601753Y-112971349D01*
X116598615Y-112901550D01*
X116612305Y-112867992D01*
X116665197Y-112778557D01*
X116709993Y-112624368D01*
X116712828Y-112588345D01*
X116712827Y-112189984D01*
X116709993Y-112153960D01*
X116665197Y-111999771D01*
X116631197Y-111942281D01*
X116614016Y-111874562D01*
X116631197Y-111816046D01*
X116665197Y-111758557D01*
X116667473Y-111750725D01*
X116709992Y-111604372D01*
X116709992Y-111604370D01*
X116709993Y-111604368D01*
X116712828Y-111568345D01*
X116712827Y-111169984D01*
X116709993Y-111133960D01*
X116665197Y-110979771D01*
X116583463Y-110841566D01*
X116583461Y-110841564D01*
X116583458Y-110841560D01*
X116511647Y-110769749D01*
X116478162Y-110708426D01*
X116475328Y-110682068D01*
X116475328Y-110645577D01*
X116475328Y-110645575D01*
X116435598Y-110497298D01*
X116428208Y-110484499D01*
X116387201Y-110413472D01*
X116358844Y-110364357D01*
X116250299Y-110255812D01*
X115337135Y-109342648D01*
X115268863Y-109303231D01*
X115204195Y-109265894D01*
X115123319Y-109244224D01*
X115055917Y-109226164D01*
X115055916Y-109226164D01*
X114288626Y-109226164D01*
X114221587Y-109206479D01*
X114175832Y-109153675D01*
X114172444Y-109145497D01*
X114143105Y-109066835D01*
X114143101Y-109066828D01*
X114056855Y-108951619D01*
X114056852Y-108951616D01*
X113941643Y-108865370D01*
X113941636Y-108865366D01*
X113806790Y-108815072D01*
X113806791Y-108815072D01*
X113747191Y-108808665D01*
X113747189Y-108808664D01*
X113747181Y-108808664D01*
X113747173Y-108808664D01*
X113095105Y-108808664D01*
X113028066Y-108788979D01*
X112982311Y-108736175D01*
X112972367Y-108667017D01*
X112973488Y-108660473D01*
X112999807Y-108528154D01*
X112999808Y-108528152D01*
X112999808Y-108393663D01*
X113019493Y-108326624D01*
X113072297Y-108280869D01*
X113123808Y-108269663D01*
X113747179Y-108269663D01*
X113747180Y-108269663D01*
X113806791Y-108263255D01*
X113941639Y-108212960D01*
X114056854Y-108126710D01*
X114143104Y-108011495D01*
X114193399Y-107876647D01*
X114199808Y-107817037D01*
X114199807Y-106721292D01*
X114193399Y-106661681D01*
X114190653Y-106654319D01*
X114143105Y-106526835D01*
X114143101Y-106526828D01*
X114056855Y-106411619D01*
X114056852Y-106411616D01*
X113941643Y-106325370D01*
X113941636Y-106325366D01*
X113806790Y-106275072D01*
X113806791Y-106275072D01*
X113747191Y-106268665D01*
X113747189Y-106268664D01*
X113747181Y-106268664D01*
X113747173Y-106268664D01*
X112099405Y-106268664D01*
X112032366Y-106248979D01*
X112011724Y-106232345D01*
X111541791Y-105762412D01*
X111508306Y-105701089D01*
X111513290Y-105631397D01*
X111555162Y-105575464D01*
X111619749Y-105551113D01*
X111638411Y-105549645D01*
X111793694Y-105504532D01*
X111813884Y-105492591D01*
X111881608Y-105475406D01*
X111940129Y-105492589D01*
X111961105Y-105504994D01*
X112002087Y-105516900D01*
X112116502Y-105550142D01*
X112116505Y-105550142D01*
X112116507Y-105550143D01*
X112152810Y-105553000D01*
X112152818Y-105553000D01*
X112562182Y-105553000D01*
X112562190Y-105553000D01*
X112598493Y-105550143D01*
X112598495Y-105550142D01*
X112598497Y-105550142D01*
X112639475Y-105538236D01*
X112753895Y-105504994D01*
X112893187Y-105422617D01*
X113007617Y-105308187D01*
X113089994Y-105168895D01*
X113135143Y-105013493D01*
X113138000Y-104977190D01*
X113138000Y-104507810D01*
X113135143Y-104471507D01*
X113125640Y-104438799D01*
X113089995Y-104316109D01*
X113089994Y-104316106D01*
X113089994Y-104316105D01*
X113042514Y-104235820D01*
X113025332Y-104168099D01*
X113047492Y-104101837D01*
X113051273Y-104096695D01*
X113053076Y-104094369D01*
X113053081Y-104094365D01*
X113136744Y-103952898D01*
X113179280Y-103806490D01*
X113195904Y-103780457D01*
X113210733Y-103753345D01*
X113215068Y-103750450D01*
X113216886Y-103747604D01*
X113239002Y-103732213D01*
X113244801Y-103729051D01*
X113297286Y-103707312D01*
X113348509Y-103673084D01*
X113399733Y-103638858D01*
X113486858Y-103551733D01*
X113486859Y-103551731D01*
X113493925Y-103544665D01*
X113493928Y-103544661D01*
X113766239Y-103272349D01*
X113827560Y-103238866D01*
X113829571Y-103238446D01*
X113898497Y-103224737D01*
X114044179Y-103164394D01*
X114175289Y-103076789D01*
X114286789Y-102965289D01*
X114374394Y-102834179D01*
X114434737Y-102688497D01*
X114465500Y-102533842D01*
X114465500Y-102376158D01*
X114465500Y-102376155D01*
X114465499Y-102376153D01*
X114434738Y-102221510D01*
X114434737Y-102221503D01*
X114405676Y-102151343D01*
X114374397Y-102075827D01*
X114374390Y-102075814D01*
X114286789Y-101944711D01*
X114286786Y-101944707D01*
X114175292Y-101833213D01*
X114175288Y-101833210D01*
X114044185Y-101745609D01*
X114044172Y-101745602D01*
X113898501Y-101685264D01*
X113898489Y-101685261D01*
X113743845Y-101654500D01*
X113743842Y-101654500D01*
X113586158Y-101654500D01*
X113586155Y-101654500D01*
X113431510Y-101685261D01*
X113431507Y-101685262D01*
X113431506Y-101685262D01*
X113431503Y-101685263D01*
X113371268Y-101710213D01*
X113332560Y-101726246D01*
X113263090Y-101733714D01*
X113200611Y-101702438D01*
X113164959Y-101642349D01*
X113166032Y-101577088D01*
X113182598Y-101520069D01*
X113185500Y-101483194D01*
X113185500Y-100326806D01*
X113182598Y-100289931D01*
X113136744Y-100132102D01*
X113053081Y-99990635D01*
X113053079Y-99990633D01*
X113053076Y-99990629D01*
X112936870Y-99874423D01*
X112936862Y-99874417D01*
X112858681Y-99828181D01*
X112795398Y-99790756D01*
X112795397Y-99790755D01*
X112795396Y-99790755D01*
X112795393Y-99790754D01*
X112637573Y-99744902D01*
X112637567Y-99744901D01*
X112600701Y-99742000D01*
X112600694Y-99742000D01*
X112169306Y-99742000D01*
X112169298Y-99742000D01*
X112132432Y-99744901D01*
X111978864Y-99789517D01*
X111908995Y-99789317D01*
X111850325Y-99751374D01*
X111821482Y-99687736D01*
X111831623Y-99618606D01*
X111837540Y-99607316D01*
X111850031Y-99586195D01*
X111850033Y-99586190D01*
X111895144Y-99430918D01*
X111895145Y-99430912D01*
X111896790Y-99410000D01*
X111242000Y-99410000D01*
X111174961Y-99390315D01*
X111129206Y-99337511D01*
X111118000Y-99286000D01*
X111118000Y-99160000D01*
X111062500Y-99160000D01*
X110995461Y-99140315D01*
X110949706Y-99087511D01*
X110938500Y-99036000D01*
X110938500Y-98925317D01*
X110938499Y-98925302D01*
X110937468Y-98912204D01*
X110935643Y-98889007D01*
X110918155Y-98828815D01*
X110890495Y-98733608D01*
X110890492Y-98733600D01*
X110885266Y-98724763D01*
X110868000Y-98661645D01*
X110868000Y-98355494D01*
X111368000Y-98355494D01*
X111368000Y-98910000D01*
X111896790Y-98910000D01*
X111895145Y-98889089D01*
X111850031Y-98733804D01*
X111767721Y-98594625D01*
X111767714Y-98594616D01*
X111653383Y-98480285D01*
X111653374Y-98480278D01*
X111514193Y-98397967D01*
X111514190Y-98397965D01*
X111368001Y-98355493D01*
X111368000Y-98355494D01*
X110868000Y-98355494D01*
X110867998Y-98355493D01*
X110721809Y-98397965D01*
X110721806Y-98397967D01*
X110701608Y-98409912D01*
X110633884Y-98427092D01*
X110575370Y-98409910D01*
X110554397Y-98397507D01*
X110554390Y-98397504D01*
X110398997Y-98352357D01*
X110398991Y-98352356D01*
X110362697Y-98349500D01*
X110362690Y-98349500D01*
X109953310Y-98349500D01*
X109953302Y-98349500D01*
X109917008Y-98352356D01*
X109917002Y-98352357D01*
X109761609Y-98397504D01*
X109761606Y-98397505D01*
X109622315Y-98479881D01*
X109622307Y-98479887D01*
X109579016Y-98523180D01*
X109517693Y-98556666D01*
X109491334Y-98559500D01*
X106558857Y-98559500D01*
X106491818Y-98539815D01*
X106446063Y-98487011D01*
X106436119Y-98417853D01*
X106439780Y-98400906D01*
X106441366Y-98395443D01*
X106447973Y-98372705D01*
X106450808Y-98336682D01*
X106450807Y-97938321D01*
X106447973Y-97902297D01*
X106403177Y-97748108D01*
X106321443Y-97609903D01*
X106321441Y-97609901D01*
X106321438Y-97609897D01*
X106249627Y-97538086D01*
X106216142Y-97476763D01*
X106213308Y-97450405D01*
X106213308Y-97019022D01*
X106232993Y-96951983D01*
X106272212Y-96913483D01*
X106272592Y-96913248D01*
X106304699Y-96893445D01*
X106423589Y-96774555D01*
X106444841Y-96740100D01*
X106496785Y-96693377D01*
X106565748Y-96682154D01*
X106629830Y-96709997D01*
X106640814Y-96721070D01*
X106640903Y-96720982D01*
X106756707Y-96836786D01*
X106756711Y-96836789D01*
X106887814Y-96924390D01*
X106887827Y-96924397D01*
X107014387Y-96976819D01*
X107033503Y-96984737D01*
X107188153Y-97015499D01*
X107188156Y-97015500D01*
X107188158Y-97015500D01*
X107345844Y-97015500D01*
X107345845Y-97015499D01*
X107500497Y-96984737D01*
X107646179Y-96924394D01*
X107777289Y-96836789D01*
X107888789Y-96725289D01*
X107976394Y-96594179D01*
X108036737Y-96448497D01*
X108067500Y-96293842D01*
X108067500Y-96136158D01*
X108067500Y-96136155D01*
X108067499Y-96136153D01*
X108053676Y-96066662D01*
X108036737Y-95981503D01*
X107994772Y-95880189D01*
X107976397Y-95835827D01*
X107976390Y-95835814D01*
X107888789Y-95704711D01*
X107888786Y-95704707D01*
X107777292Y-95593213D01*
X107777288Y-95593210D01*
X107646185Y-95505609D01*
X107646172Y-95505602D01*
X107500501Y-95445264D01*
X107500489Y-95445261D01*
X107389285Y-95423141D01*
X107327374Y-95390756D01*
X107325795Y-95389205D01*
X106827276Y-94890686D01*
X106819860Y-94883270D01*
X106819858Y-94883267D01*
X106732733Y-94796142D01*
X106677414Y-94759179D01*
X106630286Y-94727688D01*
X106630287Y-94727688D01*
X106630285Y-94727687D01*
X106556914Y-94697297D01*
X106549792Y-94694347D01*
X106516452Y-94680537D01*
X106447037Y-94666730D01*
X106442650Y-94665857D01*
X106442638Y-94665854D01*
X106395611Y-94656500D01*
X106395607Y-94656500D01*
X106395606Y-94656500D01*
X103492057Y-94656500D01*
X103425018Y-94636815D01*
X103379263Y-94584011D01*
X103368217Y-94526203D01*
X103368362Y-94523351D01*
X103368362Y-94265013D01*
X104624308Y-94265013D01*
X104624308Y-94281664D01*
X105349308Y-94281664D01*
X105849308Y-94281664D01*
X106574307Y-94281664D01*
X106574307Y-94265028D01*
X106574306Y-94265011D01*
X106564251Y-94166580D01*
X106511401Y-94007091D01*
X106511399Y-94007086D01*
X106423193Y-93864083D01*
X106304388Y-93745278D01*
X106161385Y-93657072D01*
X106161380Y-93657070D01*
X106001891Y-93604221D01*
X105903458Y-93594164D01*
X105849308Y-93594164D01*
X105849308Y-94281664D01*
X105349308Y-94281664D01*
X105349308Y-93594164D01*
X105349307Y-93594163D01*
X105295172Y-93594164D01*
X105295155Y-93594165D01*
X105196723Y-93604221D01*
X105037235Y-93657070D01*
X105037230Y-93657072D01*
X104894227Y-93745278D01*
X104775422Y-93864083D01*
X104687216Y-94007086D01*
X104687214Y-94007091D01*
X104634365Y-94166580D01*
X104624308Y-94265013D01*
X103368362Y-94265013D01*
X103368362Y-94261864D01*
X103368361Y-93976663D01*
X103368360Y-93976644D01*
X103358211Y-93877292D01*
X103358210Y-93877289D01*
X103347161Y-93843945D01*
X103304865Y-93716303D01*
X103304861Y-93716297D01*
X103304860Y-93716294D01*
X103215832Y-93571959D01*
X103215829Y-93571955D01*
X103095906Y-93452032D01*
X103095902Y-93452029D01*
X102951567Y-93363001D01*
X102951561Y-93362998D01*
X102951559Y-93362997D01*
X102792348Y-93310240D01*
X102790571Y-93309651D01*
X102691208Y-93299500D01*
X101844524Y-93299500D01*
X101844506Y-93299501D01*
X101745154Y-93309650D01*
X101745151Y-93309651D01*
X101584167Y-93362996D01*
X101584156Y-93363001D01*
X101439821Y-93452029D01*
X101319893Y-93571956D01*
X101317559Y-93574909D01*
X101315441Y-93576408D01*
X101314787Y-93577063D01*
X101314675Y-93576951D01*
X101260538Y-93615287D01*
X101220291Y-93622000D01*
X100757409Y-93622000D01*
X100690370Y-93602315D01*
X100660138Y-93574905D01*
X100655829Y-93569455D01*
X100605414Y-93519040D01*
X100535906Y-93449532D01*
X100535903Y-93449530D01*
X100535902Y-93449529D01*
X100391567Y-93360501D01*
X100391561Y-93360498D01*
X100391559Y-93360497D01*
X100324274Y-93338201D01*
X100230571Y-93307151D01*
X100131208Y-93297000D01*
X99284524Y-93297000D01*
X99284506Y-93297001D01*
X99185154Y-93307150D01*
X99185151Y-93307151D01*
X99024167Y-93360496D01*
X99024156Y-93360501D01*
X98879821Y-93449529D01*
X98879817Y-93449532D01*
X98759894Y-93569455D01*
X98759891Y-93569459D01*
X98670863Y-93713794D01*
X98670858Y-93713805D01*
X98617513Y-93874790D01*
X98607362Y-93974147D01*
X98607362Y-94263497D01*
X98587677Y-94330536D01*
X98534873Y-94376291D01*
X98465715Y-94386235D01*
X98402159Y-94357210D01*
X98380260Y-94332388D01*
X98371789Y-94319711D01*
X98371786Y-94319707D01*
X98260292Y-94208213D01*
X98260288Y-94208210D01*
X98129185Y-94120609D01*
X98129172Y-94120602D01*
X97989510Y-94062753D01*
X97963968Y-94042170D01*
X97937695Y-94022502D01*
X97936893Y-94020352D01*
X97935106Y-94018912D01*
X97924743Y-93987777D01*
X97913278Y-93957038D01*
X97913765Y-93954795D01*
X97913041Y-93952618D01*
X97921156Y-93920822D01*
X97928130Y-93888765D01*
X97929963Y-93886315D01*
X97930320Y-93884919D01*
X97949275Y-93860517D01*
X98107761Y-93702031D01*
X98107766Y-93702028D01*
X98117969Y-93691824D01*
X98117971Y-93691824D01*
X98226516Y-93583279D01*
X98303270Y-93450338D01*
X98305519Y-93441941D01*
X98311667Y-93419002D01*
X98326673Y-93362996D01*
X98343001Y-93302061D01*
X98343001Y-93148555D01*
X98343001Y-93140960D01*
X98343000Y-93140942D01*
X98343000Y-91574629D01*
X98343921Y-91571492D01*
X98343161Y-91568313D01*
X98353697Y-91538197D01*
X98362685Y-91507590D01*
X98365155Y-91505449D01*
X98366235Y-91502363D01*
X98391386Y-91482719D01*
X98415489Y-91461835D01*
X98418723Y-91461369D01*
X98421301Y-91459357D01*
X98453076Y-91456430D01*
X98484647Y-91451891D01*
X98488591Y-91453159D01*
X98490876Y-91452949D01*
X98501235Y-91457224D01*
X98524190Y-91464605D01*
X98530229Y-91467744D01*
X98581215Y-91501812D01*
X98647897Y-91529432D01*
X98652870Y-91531491D01*
X98652874Y-91531494D01*
X98681661Y-91543418D01*
X98736065Y-91587258D01*
X98739747Y-91592881D01*
X98759893Y-91625543D01*
X98879817Y-91745467D01*
X98879821Y-91745470D01*
X99024156Y-91834498D01*
X99024159Y-91834499D01*
X99024165Y-91834503D01*
X99185154Y-91887849D01*
X99284517Y-91898000D01*
X100131206Y-91897999D01*
X100131214Y-91897998D01*
X100131217Y-91897998D01*
X100206096Y-91890349D01*
X100230570Y-91887849D01*
X100391559Y-91834503D01*
X100535906Y-91745468D01*
X100655830Y-91625544D01*
X100744865Y-91481197D01*
X100798211Y-91320208D01*
X100808362Y-91220845D01*
X100808361Y-90922311D01*
X100814599Y-90901066D01*
X100816179Y-90878979D01*
X100824250Y-90868196D01*
X100828045Y-90855274D01*
X100844781Y-90840772D01*
X100858051Y-90823046D01*
X100870669Y-90818339D01*
X100880849Y-90809519D01*
X100902767Y-90806367D01*
X100923515Y-90798629D01*
X100936675Y-90801491D01*
X100950008Y-90799575D01*
X100970150Y-90808774D01*
X100991788Y-90813481D01*
X101009514Y-90826751D01*
X101013563Y-90828600D01*
X101020042Y-90834632D01*
X101131043Y-90945633D01*
X101164528Y-91006956D01*
X101167362Y-91033313D01*
X101167362Y-91223336D01*
X101167363Y-91223355D01*
X101177512Y-91322707D01*
X101177513Y-91322710D01*
X101230858Y-91483694D01*
X101230863Y-91483705D01*
X101319891Y-91628040D01*
X101319894Y-91628044D01*
X101439817Y-91747967D01*
X101439821Y-91747970D01*
X101584156Y-91836998D01*
X101584159Y-91836999D01*
X101584165Y-91837003D01*
X101745154Y-91890349D01*
X101844517Y-91900500D01*
X102691206Y-91900499D01*
X102691214Y-91900498D01*
X102691217Y-91900498D01*
X102745622Y-91894940D01*
X102790570Y-91890349D01*
X102951559Y-91837003D01*
X103095906Y-91747968D01*
X103215830Y-91628044D01*
X103304865Y-91483697D01*
X103358211Y-91322708D01*
X103368362Y-91223345D01*
X103368361Y-90676656D01*
X103358211Y-90577292D01*
X103304865Y-90416303D01*
X103304861Y-90416297D01*
X103304860Y-90416294D01*
X103215832Y-90271959D01*
X103215829Y-90271955D01*
X103095906Y-90152032D01*
X103095902Y-90152029D01*
X102951567Y-90063001D01*
X102951561Y-90062998D01*
X102951559Y-90062997D01*
X102951556Y-90062996D01*
X102790571Y-90009651D01*
X102691214Y-89999500D01*
X102691207Y-89999500D01*
X102127441Y-89999500D01*
X102060402Y-89979815D01*
X102014647Y-89927011D01*
X102004703Y-89857853D01*
X102024339Y-89806609D01*
X102069390Y-89739185D01*
X102069390Y-89739184D01*
X102069394Y-89739179D01*
X102129737Y-89593497D01*
X102160500Y-89438842D01*
X102160500Y-89281158D01*
X102160500Y-89281155D01*
X102160499Y-89281153D01*
X102129737Y-89126503D01*
X102114954Y-89090814D01*
X102069397Y-88980827D01*
X102069390Y-88980814D01*
X101981789Y-88849711D01*
X101981786Y-88849707D01*
X101870292Y-88738213D01*
X101870288Y-88738210D01*
X101739185Y-88650609D01*
X101739172Y-88650602D01*
X101593501Y-88590264D01*
X101593489Y-88590261D01*
X101438845Y-88559500D01*
X101438842Y-88559500D01*
X101281158Y-88559500D01*
X101281155Y-88559500D01*
X101126510Y-88590261D01*
X101126498Y-88590264D01*
X100980827Y-88650602D01*
X100980814Y-88650609D01*
X100849711Y-88738210D01*
X100849707Y-88738213D01*
X100738213Y-88849707D01*
X100738210Y-88849711D01*
X100650609Y-88980814D01*
X100650602Y-88980827D01*
X100590264Y-89126498D01*
X100590261Y-89126510D01*
X100559500Y-89281153D01*
X100559500Y-89438846D01*
X100590261Y-89593489D01*
X100590264Y-89593501D01*
X100650602Y-89739172D01*
X100650609Y-89739184D01*
X100713602Y-89833459D01*
X100719252Y-89851505D01*
X100729477Y-89867415D01*
X100733928Y-89898374D01*
X100734480Y-89900136D01*
X100734500Y-89902350D01*
X100734500Y-90050433D01*
X100714815Y-90117472D01*
X100662011Y-90163227D01*
X100592853Y-90173171D01*
X100543018Y-90151756D01*
X100542052Y-90153323D01*
X100391564Y-90060499D01*
X100385017Y-90057447D01*
X100385911Y-90055529D01*
X100337045Y-90021689D01*
X100310227Y-89957171D01*
X100309500Y-89943764D01*
X100309500Y-87726486D01*
X100324671Y-87667054D01*
X100327793Y-87661333D01*
X100327796Y-87661331D01*
X100378091Y-87526483D01*
X100384500Y-87466873D01*
X100384499Y-87308266D01*
X100404183Y-87241229D01*
X100456987Y-87195474D01*
X100526145Y-87185530D01*
X100589701Y-87214555D01*
X100607765Y-87233956D01*
X100676812Y-87326190D01*
X100791906Y-87412350D01*
X100791913Y-87412354D01*
X100926620Y-87462596D01*
X100926627Y-87462598D01*
X100986155Y-87468999D01*
X100986172Y-87469000D01*
X101284000Y-87469000D01*
X101784000Y-87469000D01*
X102081828Y-87469000D01*
X102081844Y-87468999D01*
X102141372Y-87462598D01*
X102141379Y-87462596D01*
X102276086Y-87412354D01*
X102276093Y-87412350D01*
X102391187Y-87326190D01*
X102391190Y-87326187D01*
X102477350Y-87211093D01*
X102477354Y-87211086D01*
X102527596Y-87076379D01*
X102527598Y-87076372D01*
X102533999Y-87016844D01*
X102534000Y-87016827D01*
X102534000Y-86719000D01*
X101784000Y-86719000D01*
X101784000Y-87469000D01*
X101284000Y-87469000D01*
X101284000Y-86219000D01*
X101784000Y-86219000D01*
X102534000Y-86219000D01*
X102534000Y-85921172D01*
X102533999Y-85921155D01*
X102527598Y-85861627D01*
X102527596Y-85861620D01*
X102477354Y-85726913D01*
X102477350Y-85726906D01*
X102391190Y-85611812D01*
X102391187Y-85611809D01*
X102276093Y-85525649D01*
X102276086Y-85525645D01*
X102141379Y-85475403D01*
X102141372Y-85475401D01*
X102081844Y-85469000D01*
X101784000Y-85469000D01*
X101784000Y-86219000D01*
X101284000Y-86219000D01*
X101284000Y-85469000D01*
X100986155Y-85469000D01*
X100926627Y-85475401D01*
X100926620Y-85475403D01*
X100791913Y-85525645D01*
X100791906Y-85525649D01*
X100685835Y-85605055D01*
X100620371Y-85629473D01*
X100579432Y-85625564D01*
X100459766Y-85593500D01*
X100308234Y-85593500D01*
X100161865Y-85632719D01*
X100161863Y-85632719D01*
X100161863Y-85632720D01*
X100161858Y-85632721D01*
X100153804Y-85637372D01*
X100085904Y-85653842D01*
X100048476Y-85646165D01*
X99991488Y-85624910D01*
X99991484Y-85624909D01*
X99991483Y-85624909D01*
X99931873Y-85618500D01*
X99931863Y-85618500D01*
X99436129Y-85618500D01*
X99436120Y-85618501D01*
X99372248Y-85625367D01*
X99345742Y-85625367D01*
X99341483Y-85624909D01*
X99281873Y-85618500D01*
X99281864Y-85618500D01*
X98786129Y-85618500D01*
X98786120Y-85618501D01*
X98722248Y-85625367D01*
X98695742Y-85625367D01*
X98691483Y-85624909D01*
X98631873Y-85618500D01*
X98631864Y-85618500D01*
X98136129Y-85618500D01*
X98136125Y-85618501D01*
X98088160Y-85623657D01*
X98076517Y-85624909D01*
X98076516Y-85624909D01*
X98069904Y-85625620D01*
X98043393Y-85625619D01*
X97981842Y-85619000D01*
X97934000Y-85619000D01*
X97933948Y-85619051D01*
X97914315Y-85685914D01*
X97900083Y-85704087D01*
X97892796Y-85711789D01*
X97826454Y-85761454D01*
X97752988Y-85859590D01*
X97748083Y-85864777D01*
X97723812Y-85878918D01*
X97701332Y-85895747D01*
X97694035Y-85896268D01*
X97687714Y-85899952D01*
X97659654Y-85898727D01*
X97631641Y-85900731D01*
X97625220Y-85897224D01*
X97617911Y-85896906D01*
X97594967Y-85880705D01*
X97570318Y-85867245D01*
X97566811Y-85860823D01*
X97560836Y-85856604D01*
X97550292Y-85830570D01*
X97536834Y-85805922D01*
X97535577Y-85794235D01*
X97534609Y-85791844D01*
X97535062Y-85789442D01*
X97534000Y-85779565D01*
X97534000Y-85619000D01*
X97486172Y-85619000D01*
X97486153Y-85619001D01*
X97422255Y-85625871D01*
X97395745Y-85625871D01*
X97331846Y-85619001D01*
X97331828Y-85619000D01*
X97284000Y-85619000D01*
X97284000Y-86645000D01*
X97264315Y-86712039D01*
X97211511Y-86757794D01*
X97160000Y-86769000D01*
X97008000Y-86769000D01*
X96999314Y-86766449D01*
X96990353Y-86767738D01*
X96966312Y-86756759D01*
X96940961Y-86749315D01*
X96935033Y-86742474D01*
X96926797Y-86738713D01*
X96912507Y-86716478D01*
X96895206Y-86696511D01*
X96892918Y-86685996D01*
X96889023Y-86679935D01*
X96884000Y-86645000D01*
X96884000Y-86487201D01*
X96900614Y-86425200D01*
X96920278Y-86391140D01*
X96920277Y-86391140D01*
X96920281Y-86391135D01*
X96959500Y-86244766D01*
X96959500Y-86093234D01*
X96920281Y-85946865D01*
X96900612Y-85912797D01*
X96884000Y-85850798D01*
X96884000Y-85619000D01*
X96836155Y-85619000D01*
X96776627Y-85625401D01*
X96776617Y-85625403D01*
X96720084Y-85646489D01*
X96650393Y-85651473D01*
X96614752Y-85637694D01*
X96606137Y-85632720D01*
X96606136Y-85632719D01*
X96606135Y-85632719D01*
X96459766Y-85593500D01*
X96308234Y-85593500D01*
X96188568Y-85625563D01*
X96118719Y-85623901D01*
X96082165Y-85605055D01*
X95976093Y-85525649D01*
X95976086Y-85525645D01*
X95841379Y-85475403D01*
X95841372Y-85475401D01*
X95781844Y-85469000D01*
X95484000Y-85469000D01*
X95484000Y-87469000D01*
X95781828Y-87469000D01*
X95781844Y-87468999D01*
X95841372Y-87462598D01*
X95841379Y-87462596D01*
X95976086Y-87412354D01*
X95976093Y-87412350D01*
X96091187Y-87326190D01*
X96091190Y-87326187D01*
X96160734Y-87233290D01*
X96216668Y-87191419D01*
X96286359Y-87186435D01*
X96347682Y-87219921D01*
X96381166Y-87281244D01*
X96384000Y-87307601D01*
X96384000Y-87466844D01*
X96390401Y-87526372D01*
X96390403Y-87526379D01*
X96440645Y-87661086D01*
X96440649Y-87661093D01*
X96526808Y-87776186D01*
X96537928Y-87784510D01*
X96579801Y-87840443D01*
X96584787Y-87910135D01*
X96551303Y-87971458D01*
X96551301Y-87971460D01*
X95832541Y-88690221D01*
X95832496Y-88690266D01*
X95832029Y-88690734D01*
X95723484Y-88799279D01*
X95720058Y-88805210D01*
X95709624Y-88815878D01*
X95709408Y-88815998D01*
X95708663Y-88816849D01*
X93334587Y-91190924D01*
X93334588Y-91190925D01*
X93243484Y-91282029D01*
X93166730Y-91414968D01*
X93135508Y-91531494D01*
X93127000Y-91563247D01*
X93127000Y-92957939D01*
X93127000Y-93111445D01*
X93143874Y-93174419D01*
X93166730Y-93259723D01*
X93194113Y-93307150D01*
X93243484Y-93392663D01*
X93243486Y-93392665D01*
X94043489Y-94192668D01*
X94076974Y-94253991D01*
X94079808Y-94280349D01*
X94079808Y-94783209D01*
X94081095Y-94799557D01*
X94081096Y-94799561D01*
X94082710Y-94820069D01*
X94104147Y-94893857D01*
X94104154Y-94893883D01*
X94128562Y-94977895D01*
X94128563Y-94977896D01*
X94128564Y-94977898D01*
X94134768Y-94988388D01*
X94212225Y-95119362D01*
X94212231Y-95119370D01*
X94260680Y-95167818D01*
X94294166Y-95229141D01*
X94297000Y-95255500D01*
X94297000Y-95286752D01*
X94336730Y-95435031D01*
X94367088Y-95487612D01*
X94413484Y-95567971D01*
X94413486Y-95567973D01*
X94928332Y-96082819D01*
X94961817Y-96144142D01*
X94956833Y-96213834D01*
X94914961Y-96269767D01*
X94849497Y-96294184D01*
X94840651Y-96294500D01*
X93806520Y-96294500D01*
X93777079Y-96285855D01*
X93747093Y-96279332D01*
X93742077Y-96275577D01*
X93739481Y-96274815D01*
X93718839Y-96258181D01*
X93618339Y-96157681D01*
X93584854Y-96096358D01*
X93589838Y-96026666D01*
X93618339Y-95982319D01*
X93720468Y-95880189D01*
X93720469Y-95880188D01*
X93720472Y-95880185D01*
X93808478Y-95734606D01*
X93859086Y-95572196D01*
X93865500Y-95501616D01*
X93865500Y-94988384D01*
X93859086Y-94917804D01*
X93808478Y-94755394D01*
X93720472Y-94609815D01*
X93720470Y-94609813D01*
X93720469Y-94609811D01*
X93600188Y-94489530D01*
X93454606Y-94401522D01*
X93373635Y-94376291D01*
X93292196Y-94350914D01*
X93292194Y-94350913D01*
X93292192Y-94350913D01*
X93242778Y-94346423D01*
X93221616Y-94344500D01*
X92558384Y-94344500D01*
X92539145Y-94346248D01*
X92487807Y-94350913D01*
X92325393Y-94401522D01*
X92179811Y-94489530D01*
X92059530Y-94609811D01*
X91971522Y-94755393D01*
X91920913Y-94917806D01*
X91917505Y-94955316D01*
X91914938Y-94983562D01*
X91889269Y-95048543D01*
X91832541Y-95089331D01*
X91791448Y-95096338D01*
X91077941Y-95096338D01*
X91010902Y-95076653D01*
X90990260Y-95060019D01*
X90987792Y-95057551D01*
X90987788Y-95057548D01*
X90856685Y-94969947D01*
X90856672Y-94969940D01*
X90797889Y-94945592D01*
X90743485Y-94901751D01*
X90721420Y-94835457D01*
X90730000Y-94801840D01*
X90730000Y-94768789D01*
X91230000Y-94768789D01*
X91250910Y-94767145D01*
X91406195Y-94722031D01*
X91545374Y-94639721D01*
X91545383Y-94639714D01*
X91659714Y-94525383D01*
X91659721Y-94525374D01*
X91742031Y-94386195D01*
X91784504Y-94240000D01*
X91230000Y-94240000D01*
X91230000Y-94768789D01*
X90730000Y-94768789D01*
X90730000Y-94309234D01*
X90730467Y-94298478D01*
X90731523Y-94286343D01*
X90737665Y-94265204D01*
X90740500Y-94229181D01*
X90740500Y-94114000D01*
X90760185Y-94046961D01*
X90812989Y-94001206D01*
X90864500Y-93990000D01*
X90980000Y-93990000D01*
X90980000Y-93934500D01*
X90999685Y-93867461D01*
X91052489Y-93821706D01*
X91104000Y-93810500D01*
X91214682Y-93810500D01*
X91214690Y-93810500D01*
X91250993Y-93807643D01*
X91250995Y-93807642D01*
X91250997Y-93807642D01*
X91406389Y-93762496D01*
X91406389Y-93762495D01*
X91406395Y-93762494D01*
X91415233Y-93757267D01*
X91478352Y-93740000D01*
X91784504Y-93740000D01*
X91742031Y-93593803D01*
X91730090Y-93573613D01*
X91712906Y-93505889D01*
X91730089Y-93447369D01*
X91742494Y-93426395D01*
X91787643Y-93270993D01*
X91790500Y-93234690D01*
X91790500Y-92825310D01*
X91787643Y-92789007D01*
X91783514Y-92774796D01*
X91742495Y-92633609D01*
X91742494Y-92633606D01*
X91742494Y-92633605D01*
X91660117Y-92494313D01*
X91660115Y-92494311D01*
X91660112Y-92494307D01*
X91569319Y-92403514D01*
X91554615Y-92376586D01*
X91538023Y-92350768D01*
X91537131Y-92344567D01*
X91535834Y-92342191D01*
X91533000Y-92315833D01*
X91533000Y-92246755D01*
X91533001Y-92246742D01*
X91533001Y-92083249D01*
X91533001Y-92083247D01*
X91493270Y-91934971D01*
X91493270Y-91934970D01*
X91493270Y-91934969D01*
X91416518Y-91802032D01*
X91416517Y-91802031D01*
X91416516Y-91802029D01*
X91307971Y-91693484D01*
X91307970Y-91693483D01*
X91303640Y-91689153D01*
X91303629Y-91689143D01*
X90766818Y-91152332D01*
X90733333Y-91091009D01*
X90730499Y-91064651D01*
X90730499Y-90267129D01*
X90730498Y-90267123D01*
X90730497Y-90267116D01*
X90724091Y-90207517D01*
X90703396Y-90152032D01*
X90673797Y-90072671D01*
X90673793Y-90072664D01*
X90587547Y-89957455D01*
X90587544Y-89957452D01*
X90472335Y-89871206D01*
X90472328Y-89871202D01*
X90337482Y-89820908D01*
X90337483Y-89820908D01*
X90277883Y-89814501D01*
X90277881Y-89814500D01*
X90277873Y-89814500D01*
X90277864Y-89814500D01*
X89182129Y-89814500D01*
X89182123Y-89814501D01*
X89122516Y-89820908D01*
X88987671Y-89871202D01*
X88987664Y-89871206D01*
X88872455Y-89957452D01*
X88872452Y-89957455D01*
X88786206Y-90072664D01*
X88786202Y-90072671D01*
X88735908Y-90207517D01*
X88729501Y-90267116D01*
X88729501Y-90267123D01*
X88729500Y-90267135D01*
X88729500Y-91064650D01*
X88709815Y-91131689D01*
X88693181Y-91152331D01*
X86550515Y-93294996D01*
X86550516Y-93294997D01*
X86459412Y-93386101D01*
X86382658Y-93519040D01*
X86342928Y-93667319D01*
X86342928Y-93779559D01*
X86323243Y-93846598D01*
X86306609Y-93867240D01*
X86304141Y-93869707D01*
X86304138Y-93869711D01*
X86216537Y-94000814D01*
X86216530Y-94000827D01*
X86156192Y-94146498D01*
X86156189Y-94146510D01*
X86125428Y-94301153D01*
X86125428Y-94458846D01*
X86156189Y-94613489D01*
X86156192Y-94613501D01*
X86216530Y-94759172D01*
X86216537Y-94759185D01*
X86304138Y-94890288D01*
X86304141Y-94890292D01*
X86415635Y-95001786D01*
X86415639Y-95001789D01*
X86546742Y-95089390D01*
X86546755Y-95089397D01*
X86692426Y-95149735D01*
X86692431Y-95149737D01*
X86847081Y-95180499D01*
X86847084Y-95180500D01*
X86847086Y-95180500D01*
X87004772Y-95180500D01*
X87004773Y-95180499D01*
X87159425Y-95149737D01*
X87287850Y-95096542D01*
X87305100Y-95089397D01*
X87305100Y-95089396D01*
X87305107Y-95089394D01*
X87436217Y-95001789D01*
X87547717Y-94890289D01*
X87635322Y-94759179D01*
X87695665Y-94613497D01*
X87726428Y-94458842D01*
X87726428Y-94301158D01*
X87726428Y-94301155D01*
X87726427Y-94301153D01*
X87712111Y-94229181D01*
X87695665Y-94146503D01*
X87695663Y-94146498D01*
X87635325Y-94000827D01*
X87635319Y-94000816D01*
X87635124Y-94000524D01*
X87635068Y-94000347D01*
X87632449Y-93995446D01*
X87633378Y-93994949D01*
X87614241Y-93933848D01*
X87632721Y-93866467D01*
X87650536Y-93843949D01*
X88917533Y-92576951D01*
X88978854Y-92543468D01*
X89048546Y-92548452D01*
X89104479Y-92590324D01*
X89128896Y-92655788D01*
X89124289Y-92699228D01*
X89102334Y-92774797D01*
X89099500Y-92810811D01*
X89099500Y-93209169D01*
X89099501Y-93209191D01*
X89102335Y-93245205D01*
X89147129Y-93399388D01*
X89147132Y-93399395D01*
X89181128Y-93456881D01*
X89198309Y-93524605D01*
X89181128Y-93583119D01*
X89147132Y-93640604D01*
X89147129Y-93640611D01*
X89102335Y-93794791D01*
X89102334Y-93794797D01*
X89099500Y-93830811D01*
X89099500Y-94229169D01*
X89099501Y-94229191D01*
X89102335Y-94265205D01*
X89147129Y-94419388D01*
X89147131Y-94419393D01*
X89228865Y-94557598D01*
X89283182Y-94611915D01*
X89297888Y-94638846D01*
X89314477Y-94664660D01*
X89315368Y-94670859D01*
X89316666Y-94673236D01*
X89319500Y-94699595D01*
X89319500Y-94874903D01*
X89299815Y-94941942D01*
X89283181Y-94962584D01*
X87987584Y-96258181D01*
X87926261Y-96291666D01*
X87899903Y-96294500D01*
X87257384Y-96294500D01*
X87190345Y-96274815D01*
X87188493Y-96273602D01*
X87109184Y-96220609D01*
X87109172Y-96220602D01*
X86963501Y-96160264D01*
X86963489Y-96160261D01*
X86808845Y-96129500D01*
X86808842Y-96129500D01*
X86651158Y-96129500D01*
X86651155Y-96129500D01*
X86496510Y-96160261D01*
X86496498Y-96160264D01*
X86350827Y-96220602D01*
X86350814Y-96220609D01*
X86219711Y-96308210D01*
X86219707Y-96308213D01*
X86108213Y-96419707D01*
X86108210Y-96419711D01*
X86020609Y-96550814D01*
X86020602Y-96550827D01*
X85960264Y-96696498D01*
X85960261Y-96696510D01*
X85929500Y-96851153D01*
X85929500Y-97008843D01*
X85935718Y-97040101D01*
X85933840Y-97061085D01*
X85936839Y-97081941D01*
X85930788Y-97095189D01*
X85929491Y-97109693D01*
X85916566Y-97126330D01*
X85907814Y-97145497D01*
X85895562Y-97153370D01*
X85886629Y-97164871D01*
X85866759Y-97171880D01*
X85849036Y-97183271D01*
X85824455Y-97186805D01*
X85820740Y-97188116D01*
X85814101Y-97188294D01*
X85568638Y-97188294D01*
X85501599Y-97168609D01*
X85455844Y-97115805D01*
X85445900Y-97046647D01*
X85474925Y-96983091D01*
X85477068Y-96980696D01*
X85500907Y-96952785D01*
X85500914Y-96952775D01*
X85578810Y-96811084D01*
X85578813Y-96811074D01*
X85619024Y-96654463D01*
X85619025Y-96654456D01*
X85619025Y-96492757D01*
X85619024Y-96492752D01*
X85578811Y-96336134D01*
X85505469Y-96202726D01*
X85024279Y-96683917D01*
X85016333Y-96688255D01*
X85010908Y-96695503D01*
X84986148Y-96704737D01*
X84962956Y-96717402D01*
X84953926Y-96716756D01*
X84945444Y-96719920D01*
X84919623Y-96714303D01*
X84893264Y-96712418D01*
X84884210Y-96706599D01*
X84877171Y-96705068D01*
X84848917Y-96683917D01*
X84720578Y-96555578D01*
X84687093Y-96494255D01*
X84692077Y-96424563D01*
X84720576Y-96380217D01*
X84798848Y-96301946D01*
X84822498Y-96274256D01*
X84900458Y-96132445D01*
X84903011Y-96122500D01*
X84935435Y-96065653D01*
X85151915Y-95849172D01*
X85018511Y-95775833D01*
X85018503Y-95775830D01*
X84995783Y-95769997D01*
X84935745Y-95734259D01*
X84906517Y-95680730D01*
X84900458Y-95657129D01*
X84822498Y-95515318D01*
X84798848Y-95487628D01*
X84798833Y-95487612D01*
X84509387Y-95198166D01*
X84509370Y-95198150D01*
X84481683Y-95174503D01*
X84481679Y-95174500D01*
X84339871Y-95096541D01*
X84183130Y-95056297D01*
X84183127Y-95056297D01*
X84021299Y-95056297D01*
X84021295Y-95056297D01*
X83864554Y-95096541D01*
X83722746Y-95174500D01*
X83722742Y-95174503D01*
X83695055Y-95198150D01*
X83695038Y-95198166D01*
X83363166Y-95530038D01*
X83363150Y-95530055D01*
X83339503Y-95557742D01*
X83339500Y-95557746D01*
X83261541Y-95699554D01*
X83221297Y-95856295D01*
X83221297Y-95918105D01*
X83201612Y-95985144D01*
X83184978Y-96005786D01*
X82861893Y-96328870D01*
X82800570Y-96362355D01*
X82730878Y-96357371D01*
X82686532Y-96328870D01*
X82581617Y-96223956D01*
X82577464Y-96220609D01*
X82534934Y-96186334D01*
X82404020Y-96126547D01*
X82404016Y-96126546D01*
X82261561Y-96106066D01*
X82119105Y-96126546D01*
X82119101Y-96126547D01*
X81988190Y-96186333D01*
X81941495Y-96223962D01*
X80671726Y-97493734D01*
X80671717Y-97493744D01*
X80634101Y-97540420D01*
X80574314Y-97671334D01*
X80574313Y-97671338D01*
X80553833Y-97813794D01*
X80574313Y-97956249D01*
X80574314Y-97956253D01*
X80634101Y-98087166D01*
X80634102Y-98087168D01*
X80671712Y-98133839D01*
X80671712Y-98133840D01*
X80671716Y-98133844D01*
X80671721Y-98133850D01*
X80679189Y-98141318D01*
X80712675Y-98202636D01*
X80715510Y-98229000D01*
X80715510Y-99176833D01*
X80658503Y-99143920D01*
X80531336Y-99109845D01*
X80399684Y-99109845D01*
X80272517Y-99143920D01*
X80215510Y-99176833D01*
X80215510Y-98282613D01*
X80215509Y-98282613D01*
X80149385Y-98293086D01*
X79947294Y-98358748D01*
X79757952Y-98455224D01*
X79586050Y-98580117D01*
X79586045Y-98580121D01*
X79435786Y-98730380D01*
X79435782Y-98730385D01*
X79310889Y-98902287D01*
X79214414Y-99091627D01*
X79148752Y-99293715D01*
X79148752Y-99293718D01*
X79138279Y-99359845D01*
X80032498Y-99359845D01*
X79999585Y-99416852D01*
X79965510Y-99544019D01*
X79965510Y-99675671D01*
X79999585Y-99802838D01*
X80032498Y-99859845D01*
X79138279Y-99859845D01*
X79148752Y-99925971D01*
X79148752Y-99925974D01*
X79214414Y-100128062D01*
X79310889Y-100317402D01*
X79435782Y-100489304D01*
X79435786Y-100489309D01*
X79586045Y-100639568D01*
X79586050Y-100639572D01*
X79757952Y-100764465D01*
X79947292Y-100860940D01*
X80149381Y-100926602D01*
X80215510Y-100937076D01*
X80215510Y-100042857D01*
X80272517Y-100075770D01*
X80399684Y-100109845D01*
X80531336Y-100109845D01*
X80658503Y-100075770D01*
X80715510Y-100042857D01*
X80715510Y-100937075D01*
X80781636Y-100926602D01*
X80781639Y-100926602D01*
X80983727Y-100860940D01*
X81173067Y-100764465D01*
X81344969Y-100639572D01*
X81344974Y-100639568D01*
X81495233Y-100489309D01*
X81495237Y-100489304D01*
X81620130Y-100317402D01*
X81716605Y-100128062D01*
X81782267Y-99925974D01*
X81782267Y-99925971D01*
X81792741Y-99859845D01*
X80898522Y-99859845D01*
X80931435Y-99802838D01*
X80965510Y-99675671D01*
X80965510Y-99544019D01*
X80931435Y-99416852D01*
X80898522Y-99359845D01*
X81846356Y-99359845D01*
X81913395Y-99379530D01*
X81934036Y-99396163D01*
X81941505Y-99403632D01*
X81941509Y-99403635D01*
X81941511Y-99403637D01*
X81988187Y-99441253D01*
X82119101Y-99501040D01*
X82119102Y-99501040D01*
X82119104Y-99501041D01*
X82261561Y-99521522D01*
X82404018Y-99501041D01*
X82534934Y-99441253D01*
X82581617Y-99403634D01*
X83509636Y-98475612D01*
X83570959Y-98442128D01*
X83597317Y-98439294D01*
X94931773Y-98439294D01*
X94979226Y-98448733D01*
X94980819Y-98449393D01*
X94980821Y-98449394D01*
X95126503Y-98509737D01*
X95265141Y-98537314D01*
X95281153Y-98540499D01*
X95281156Y-98540500D01*
X95281158Y-98540500D01*
X95438844Y-98540500D01*
X95438845Y-98540499D01*
X95593497Y-98509737D01*
X95706166Y-98463067D01*
X95739172Y-98449397D01*
X95739172Y-98449396D01*
X95739179Y-98449394D01*
X95870289Y-98361789D01*
X95981789Y-98250289D01*
X96069394Y-98119179D01*
X96129737Y-97973497D01*
X96160500Y-97818842D01*
X96160500Y-97695504D01*
X96162736Y-97687886D01*
X96161467Y-97680051D01*
X96172440Y-97654841D01*
X96180185Y-97628465D01*
X96186893Y-97621635D01*
X96189352Y-97615987D01*
X96215609Y-97592402D01*
X96272428Y-97554436D01*
X96339104Y-97533559D01*
X96406484Y-97552043D01*
X96453175Y-97604022D01*
X96460394Y-97622944D01*
X96497129Y-97749388D01*
X96497131Y-97749393D01*
X96578863Y-97887595D01*
X96578869Y-97887603D01*
X96609403Y-97918136D01*
X96642889Y-97979458D01*
X96637905Y-98049150D01*
X96624825Y-98074708D01*
X96560612Y-98170809D01*
X96560602Y-98170827D01*
X96500264Y-98316498D01*
X96500261Y-98316510D01*
X96469500Y-98471153D01*
X96469500Y-98628846D01*
X96500261Y-98783489D01*
X96500264Y-98783501D01*
X96560602Y-98929172D01*
X96560609Y-98929185D01*
X96648210Y-99060288D01*
X96648213Y-99060292D01*
X96759707Y-99171786D01*
X96759711Y-99171789D01*
X96890814Y-99259390D01*
X96890827Y-99259397D01*
X97036498Y-99319735D01*
X97036503Y-99319737D01*
X97187312Y-99349735D01*
X97191153Y-99350499D01*
X97191156Y-99350500D01*
X97191158Y-99350500D01*
X97348844Y-99350500D01*
X97348845Y-99350499D01*
X97503497Y-99319737D01*
X97649179Y-99259394D01*
X97678659Y-99239695D01*
X97745335Y-99218817D01*
X97812715Y-99237301D01*
X97816441Y-99239695D01*
X97890814Y-99289390D01*
X97890827Y-99289397D01*
X98036498Y-99349735D01*
X98036503Y-99349737D01*
X98186282Y-99379530D01*
X98191153Y-99380499D01*
X98191156Y-99380500D01*
X98191158Y-99380500D01*
X98348844Y-99380500D01*
X98348845Y-99380499D01*
X98503497Y-99349737D01*
X98649179Y-99289394D01*
X98780289Y-99201789D01*
X98891789Y-99090289D01*
X98979394Y-98959179D01*
X99039737Y-98813497D01*
X99070500Y-98658842D01*
X99070500Y-98501158D01*
X99070500Y-98501155D01*
X99070499Y-98501153D01*
X99063959Y-98468274D01*
X99039737Y-98346503D01*
X99021282Y-98301950D01*
X99013814Y-98232483D01*
X99045089Y-98170003D01*
X99105178Y-98134351D01*
X99135837Y-98130499D01*
X99519180Y-98130499D01*
X99555204Y-98127665D01*
X99709393Y-98082869D01*
X99847598Y-98001135D01*
X99961135Y-97887598D01*
X100042869Y-97749393D01*
X100083396Y-97609897D01*
X100087664Y-97595208D01*
X100087665Y-97595202D01*
X100090500Y-97559181D01*
X100090499Y-97160820D01*
X100087665Y-97124796D01*
X100080198Y-97099094D01*
X100080397Y-97029227D01*
X100118338Y-96970556D01*
X100181976Y-96941712D01*
X100199274Y-96940500D01*
X101179903Y-96940500D01*
X101246942Y-96960185D01*
X101267584Y-96976819D01*
X103812638Y-99521873D01*
X103812648Y-99521884D01*
X103816978Y-99526214D01*
X103816979Y-99526215D01*
X103928783Y-99638019D01*
X104010325Y-99685097D01*
X104065714Y-99717076D01*
X104218441Y-99757999D01*
X104218442Y-99757999D01*
X104960712Y-99757999D01*
X105027751Y-99777684D01*
X105048393Y-99794318D01*
X105052704Y-99798629D01*
X105052708Y-99798632D01*
X105052710Y-99798634D01*
X105190915Y-99880368D01*
X105231576Y-99892181D01*
X105345099Y-99925163D01*
X105345102Y-99925163D01*
X105345104Y-99925164D01*
X105381127Y-99927999D01*
X105879488Y-99927998D01*
X105915512Y-99925164D01*
X106069701Y-99880368D01*
X106207906Y-99798634D01*
X106207911Y-99798629D01*
X106209722Y-99796819D01*
X106211490Y-99795853D01*
X106214072Y-99793851D01*
X106214394Y-99794267D01*
X106271045Y-99763334D01*
X106297403Y-99760500D01*
X109491334Y-99760500D01*
X109558373Y-99780185D01*
X109563863Y-99783924D01*
X109571956Y-99789760D01*
X109622313Y-99840117D01*
X109730559Y-99904133D01*
X109735118Y-99907421D01*
X109753238Y-99930747D01*
X109773393Y-99952333D01*
X109774428Y-99958027D01*
X109777980Y-99962599D01*
X109780612Y-99992022D01*
X109785897Y-100021075D01*
X109783782Y-100027458D01*
X109784206Y-100032190D01*
X109778779Y-100042563D01*
X109769322Y-100071117D01*
X109733254Y-100132105D01*
X109733254Y-100132106D01*
X109687402Y-100289926D01*
X109687401Y-100289932D01*
X109684500Y-100326798D01*
X109684500Y-100804902D01*
X109664815Y-100871941D01*
X109648181Y-100892583D01*
X108967481Y-101573282D01*
X108967477Y-101573287D01*
X108952827Y-101598664D01*
X108947664Y-101607607D01*
X108888423Y-101710215D01*
X108847499Y-101862943D01*
X108847499Y-101862945D01*
X108847499Y-102031046D01*
X108847500Y-102031059D01*
X108847500Y-104431186D01*
X108847499Y-104431204D01*
X108847499Y-104596910D01*
X108847498Y-104596910D01*
X108888423Y-104749643D01*
X108888424Y-104749644D01*
X108903990Y-104776604D01*
X108903992Y-104776607D01*
X108967477Y-104886568D01*
X108967481Y-104886573D01*
X109086349Y-105005441D01*
X109086355Y-105005446D01*
X110330330Y-106249421D01*
X110363815Y-106310744D01*
X110358831Y-106380436D01*
X110341915Y-106411413D01*
X110255514Y-106526828D01*
X110255510Y-106526835D01*
X110205216Y-106661681D01*
X110200414Y-106706353D01*
X110198809Y-106721287D01*
X110198808Y-106721299D01*
X110198808Y-107817034D01*
X110198809Y-107817040D01*
X110205216Y-107876647D01*
X110255510Y-108011492D01*
X110255511Y-108011493D01*
X110255512Y-108011495D01*
X110291606Y-108059710D01*
X110315171Y-108091189D01*
X110339588Y-108156653D01*
X110324737Y-108224926D01*
X110275332Y-108274332D01*
X110215904Y-108289500D01*
X109142712Y-108289500D01*
X109075673Y-108269815D01*
X109029918Y-108217011D01*
X109019974Y-108147853D01*
X109043445Y-108091189D01*
X109058080Y-108071639D01*
X109103104Y-108011495D01*
X109153399Y-107876647D01*
X109159808Y-107817037D01*
X109159807Y-106721292D01*
X109153399Y-106661681D01*
X109150653Y-106654319D01*
X109103105Y-106526835D01*
X109103101Y-106526828D01*
X109016855Y-106411619D01*
X109016852Y-106411616D01*
X108901643Y-106325370D01*
X108901636Y-106325366D01*
X108766790Y-106275072D01*
X108766791Y-106275072D01*
X108707191Y-106268665D01*
X108707189Y-106268664D01*
X108707181Y-106268664D01*
X108707172Y-106268664D01*
X105611437Y-106268664D01*
X105611431Y-106268665D01*
X105551824Y-106275072D01*
X105416979Y-106325366D01*
X105416972Y-106325370D01*
X105301763Y-106411616D01*
X105301760Y-106411619D01*
X105215514Y-106526828D01*
X105215510Y-106526835D01*
X105165216Y-106661681D01*
X105160414Y-106706353D01*
X105158809Y-106721287D01*
X105158808Y-106721299D01*
X105158808Y-107817034D01*
X105158809Y-107817040D01*
X105165216Y-107876647D01*
X105215510Y-108011492D01*
X105215511Y-108011493D01*
X105215512Y-108011495D01*
X105301762Y-108126710D01*
X105301763Y-108126710D01*
X105301765Y-108126713D01*
X105303363Y-108127909D01*
X105304557Y-108129504D01*
X105308030Y-108132977D01*
X105307530Y-108133476D01*
X105345232Y-108183844D01*
X105350214Y-108253536D01*
X105316727Y-108314858D01*
X105291049Y-108334560D01*
X105161287Y-108409477D01*
X105161282Y-108409481D01*
X100088481Y-113482282D01*
X100088477Y-113482287D01*
X100045248Y-113557164D01*
X100041806Y-113563126D01*
X100009423Y-113619215D01*
X99968499Y-113771943D01*
X99968499Y-113771945D01*
X99968499Y-113940046D01*
X99968500Y-113940059D01*
X99968500Y-115247902D01*
X99948815Y-115314941D01*
X99932181Y-115335583D01*
X99652905Y-115614858D01*
X99591582Y-115648343D01*
X99521890Y-115643359D01*
X99517772Y-115641738D01*
X99393501Y-115590264D01*
X99393489Y-115590261D01*
X99238845Y-115559500D01*
X99238842Y-115559500D01*
X99081158Y-115559500D01*
X99081155Y-115559500D01*
X98926510Y-115590261D01*
X98926498Y-115590264D01*
X98780827Y-115650602D01*
X98780814Y-115650609D01*
X98649711Y-115738210D01*
X98649707Y-115738213D01*
X98538213Y-115849707D01*
X98538210Y-115849711D01*
X98450609Y-115980814D01*
X98450602Y-115980827D01*
X98390264Y-116126498D01*
X98390261Y-116126510D01*
X98359500Y-116281153D01*
X98359500Y-116438846D01*
X98390261Y-116593489D01*
X98390264Y-116593501D01*
X98450602Y-116739172D01*
X98450609Y-116739185D01*
X98538210Y-116870288D01*
X98538213Y-116870292D01*
X98649707Y-116981786D01*
X98649711Y-116981789D01*
X98780814Y-117069390D01*
X98780827Y-117069397D01*
X98926498Y-117129735D01*
X98926503Y-117129737D01*
X99052548Y-117154809D01*
X99081153Y-117160499D01*
X99081156Y-117160500D01*
X99081158Y-117160500D01*
X99238844Y-117160500D01*
X99238845Y-117160499D01*
X99393497Y-117129737D01*
X99539179Y-117069394D01*
X99670289Y-116981789D01*
X99670288Y-116981789D01*
X99670873Y-116981399D01*
X99737550Y-116960521D01*
X99739764Y-116960501D01*
X99836054Y-116960501D01*
X99836057Y-116960501D01*
X99988785Y-116919577D01*
X100071923Y-116871577D01*
X100125716Y-116840520D01*
X100237520Y-116728716D01*
X100237520Y-116728714D01*
X100247724Y-116718511D01*
X100247728Y-116718505D01*
X100292320Y-116673913D01*
X100353643Y-116640429D01*
X100423335Y-116645415D01*
X100479268Y-116687287D01*
X100503684Y-116752751D01*
X100504000Y-116761596D01*
X100504000Y-118595151D01*
X100484315Y-118662190D01*
X100467681Y-118682832D01*
X99498832Y-119651681D01*
X99437509Y-119685166D01*
X99411151Y-119688000D01*
X98549500Y-119688000D01*
X98482461Y-119668315D01*
X98436706Y-119615511D01*
X98425500Y-119564000D01*
X98425500Y-119471155D01*
X98425499Y-119471153D01*
X98394737Y-119316503D01*
X98374624Y-119267945D01*
X98334397Y-119170827D01*
X98334390Y-119170814D01*
X98246789Y-119039711D01*
X98246786Y-119039707D01*
X98135292Y-118928213D01*
X98135288Y-118928210D01*
X98004185Y-118840609D01*
X98004172Y-118840602D01*
X97858501Y-118780264D01*
X97858489Y-118780261D01*
X97703845Y-118749500D01*
X97703842Y-118749500D01*
X97546158Y-118749500D01*
X97546155Y-118749500D01*
X97391510Y-118780261D01*
X97391498Y-118780264D01*
X97245827Y-118840602D01*
X97245814Y-118840609D01*
X97114711Y-118928210D01*
X97110001Y-118932076D01*
X97108836Y-118930657D01*
X97055062Y-118960021D01*
X96985370Y-118955037D01*
X96941023Y-118926536D01*
X94874580Y-116860093D01*
X94841095Y-116798770D01*
X94846079Y-116729078D01*
X94887951Y-116673145D01*
X94953415Y-116648728D01*
X94998266Y-116653754D01*
X95001488Y-116654730D01*
X95001503Y-116654737D01*
X95156153Y-116685499D01*
X95156156Y-116685500D01*
X95156158Y-116685500D01*
X95313844Y-116685500D01*
X95313845Y-116685499D01*
X95468497Y-116654737D01*
X95614179Y-116594394D01*
X95745289Y-116506789D01*
X95856789Y-116395289D01*
X95944394Y-116264179D01*
X96004737Y-116118497D01*
X96035500Y-115963842D01*
X96035500Y-115806158D01*
X96035500Y-115806155D01*
X96035499Y-115806153D01*
X96029054Y-115773754D01*
X96004737Y-115651503D01*
X96004367Y-115650609D01*
X95944397Y-115505827D01*
X95944390Y-115505814D01*
X95856789Y-115374711D01*
X95856786Y-115374707D01*
X95836513Y-115354434D01*
X95803028Y-115293111D01*
X95808012Y-115223419D01*
X95849884Y-115167486D01*
X95915348Y-115143069D01*
X95940377Y-115143813D01*
X95952091Y-115145356D01*
X96150892Y-115145355D01*
X96150893Y-115145355D01*
X96168257Y-115143069D01*
X96260964Y-115130865D01*
X96260967Y-115130863D01*
X96268818Y-115128761D01*
X96269702Y-115132063D01*
X96323417Y-115126248D01*
X96334006Y-115129357D01*
X96334166Y-115128761D01*
X96342016Y-115130864D01*
X96342018Y-115130864D01*
X96342020Y-115130865D01*
X96452091Y-115145356D01*
X96650892Y-115145355D01*
X96650893Y-115145355D01*
X96668257Y-115143069D01*
X96760964Y-115130865D01*
X96760967Y-115130863D01*
X96768818Y-115128761D01*
X96769702Y-115132063D01*
X96823417Y-115126248D01*
X96834006Y-115129357D01*
X96834166Y-115128761D01*
X96842016Y-115130864D01*
X96842018Y-115130864D01*
X96842020Y-115130865D01*
X96952091Y-115145356D01*
X97150892Y-115145355D01*
X97150895Y-115145355D01*
X97260955Y-115130867D01*
X97260959Y-115130865D01*
X97260964Y-115130865D01*
X97397921Y-115074135D01*
X97515528Y-114983892D01*
X97605771Y-114866285D01*
X97662501Y-114729328D01*
X97676992Y-114619257D01*
X97676991Y-114269354D01*
X97696675Y-114202316D01*
X97749479Y-114156561D01*
X97800991Y-114145355D01*
X98150895Y-114145355D01*
X98260955Y-114130867D01*
X98260959Y-114130865D01*
X98260964Y-114130865D01*
X98397921Y-114074135D01*
X98515528Y-113983892D01*
X98605771Y-113866285D01*
X98605771Y-113866282D01*
X98610718Y-113859837D01*
X98612924Y-113861529D01*
X98653675Y-113822666D01*
X98722281Y-113809435D01*
X98734686Y-113811255D01*
X98781158Y-113820500D01*
X98938844Y-113820500D01*
X98938845Y-113820499D01*
X99093497Y-113789737D01*
X99239179Y-113729394D01*
X99370289Y-113641789D01*
X99481789Y-113530289D01*
X99569394Y-113399179D01*
X99629737Y-113253497D01*
X99660500Y-113098842D01*
X99660500Y-112941158D01*
X99660500Y-112941155D01*
X99648644Y-112881555D01*
X99654871Y-112811964D01*
X99697733Y-112756786D01*
X99707134Y-112750635D01*
X99747179Y-112726953D01*
X99861609Y-112612523D01*
X99943986Y-112473231D01*
X99989135Y-112317829D01*
X99991992Y-112281526D01*
X99991992Y-111872146D01*
X99989135Y-111835843D01*
X99988242Y-111832770D01*
X99943987Y-111680445D01*
X99943986Y-111680441D01*
X99939838Y-111673427D01*
X99931581Y-111659466D01*
X99914398Y-111591745D01*
X99931583Y-111533220D01*
X99943524Y-111513030D01*
X99985996Y-111366836D01*
X99679844Y-111366836D01*
X99616725Y-111349568D01*
X99607887Y-111344342D01*
X99607885Y-111344341D01*
X99607881Y-111344339D01*
X99452489Y-111299193D01*
X99452483Y-111299192D01*
X99416189Y-111296336D01*
X99416182Y-111296336D01*
X99305492Y-111296336D01*
X99238453Y-111276651D01*
X99192698Y-111223847D01*
X99190331Y-111218313D01*
X99119315Y-111040435D01*
X99118329Y-111030008D01*
X99113310Y-111020816D01*
X99114145Y-110985752D01*
X99112739Y-110970875D01*
X99114585Y-110967302D01*
X99114702Y-110962360D01*
X99119863Y-110943103D01*
X99122149Y-110934574D01*
X99129642Y-110906605D01*
X99140299Y-110866836D01*
X99431492Y-110866836D01*
X99985996Y-110866836D01*
X99943523Y-110720640D01*
X99861213Y-110581461D01*
X99861206Y-110581452D01*
X99746875Y-110467121D01*
X99746866Y-110467114D01*
X99607687Y-110384804D01*
X99607682Y-110384802D01*
X99452410Y-110339691D01*
X99452404Y-110339690D01*
X99431492Y-110338045D01*
X99431492Y-110866836D01*
X99140299Y-110866836D01*
X99143001Y-110856753D01*
X99143001Y-110703247D01*
X99143001Y-110695652D01*
X99143000Y-110695634D01*
X99143000Y-109057000D01*
X99162685Y-108989961D01*
X99215489Y-108944206D01*
X99267000Y-108933000D01*
X100429559Y-108933000D01*
X100496598Y-108952685D01*
X100517240Y-108969319D01*
X100519707Y-108971786D01*
X100519711Y-108971789D01*
X100650814Y-109059390D01*
X100650827Y-109059397D01*
X100780767Y-109113219D01*
X100796503Y-109119737D01*
X100937313Y-109147746D01*
X100951153Y-109150499D01*
X100951156Y-109150500D01*
X100951158Y-109150500D01*
X101108844Y-109150500D01*
X101108845Y-109150499D01*
X101263497Y-109119737D01*
X101409179Y-109059394D01*
X101540289Y-108971789D01*
X101651789Y-108860289D01*
X101739394Y-108729179D01*
X101799737Y-108583497D01*
X101830500Y-108428842D01*
X101830500Y-108271158D01*
X101830500Y-108271155D01*
X101830499Y-108271153D01*
X101818924Y-108212961D01*
X101799737Y-108116503D01*
X101797428Y-108110929D01*
X101739397Y-107970827D01*
X101739390Y-107970814D01*
X101651789Y-107839711D01*
X101651786Y-107839707D01*
X101631399Y-107819320D01*
X101597914Y-107757997D01*
X101602898Y-107688305D01*
X101644770Y-107632372D01*
X101650194Y-107628534D01*
X101660289Y-107621789D01*
X101771789Y-107510289D01*
X101859394Y-107379179D01*
X101919737Y-107233497D01*
X101950500Y-107078842D01*
X101950500Y-106921158D01*
X101950500Y-106921155D01*
X101950499Y-106921153D01*
X101919738Y-106766510D01*
X101919737Y-106766503D01*
X101906983Y-106735711D01*
X101859397Y-106620827D01*
X101859390Y-106620814D01*
X101771789Y-106489711D01*
X101771786Y-106489707D01*
X101660292Y-106378213D01*
X101660288Y-106378210D01*
X101529185Y-106290609D01*
X101529172Y-106290602D01*
X101383501Y-106230264D01*
X101383489Y-106230261D01*
X101228845Y-106199500D01*
X101228842Y-106199500D01*
X101071158Y-106199500D01*
X101071155Y-106199500D01*
X100916510Y-106230261D01*
X100916498Y-106230264D01*
X100770827Y-106290602D01*
X100770814Y-106290609D01*
X100639711Y-106378210D01*
X100639707Y-106378213D01*
X100637240Y-106380681D01*
X100635628Y-106381560D01*
X100635001Y-106382076D01*
X100634903Y-106381956D01*
X100575917Y-106414166D01*
X100549559Y-106417000D01*
X99792849Y-106417000D01*
X99725810Y-106397315D01*
X99705168Y-106380681D01*
X98000853Y-104676366D01*
X97967368Y-104615043D01*
X97966945Y-104613017D01*
X97949737Y-104526503D01*
X97934651Y-104490082D01*
X97889397Y-104380827D01*
X97889390Y-104380814D01*
X97801789Y-104249711D01*
X97801786Y-104249707D01*
X97690292Y-104138213D01*
X97690288Y-104138210D01*
X97559185Y-104050609D01*
X97559172Y-104050602D01*
X97413501Y-103990264D01*
X97413489Y-103990261D01*
X97258845Y-103959500D01*
X97258842Y-103959500D01*
X97101158Y-103959500D01*
X97101155Y-103959500D01*
X96946510Y-103990261D01*
X96946498Y-103990264D01*
X96800827Y-104050602D01*
X96800814Y-104050609D01*
X96669711Y-104138210D01*
X96669707Y-104138213D01*
X96558213Y-104249707D01*
X96558210Y-104249711D01*
X96470609Y-104380814D01*
X96470602Y-104380827D01*
X96410264Y-104526498D01*
X96410261Y-104526510D01*
X96379500Y-104681153D01*
X96379500Y-104838846D01*
X96410261Y-104993489D01*
X96410264Y-104993501D01*
X96470602Y-105139172D01*
X96470609Y-105139185D01*
X96558210Y-105270288D01*
X96558213Y-105270292D01*
X96588859Y-105300938D01*
X96622344Y-105362261D01*
X96617360Y-105431953D01*
X96604287Y-105457500D01*
X96601488Y-105461689D01*
X96601479Y-105461705D01*
X96541141Y-105607375D01*
X96541138Y-105607387D01*
X96510377Y-105762030D01*
X96510377Y-105919723D01*
X96541138Y-106074366D01*
X96541141Y-106074378D01*
X96587124Y-106185391D01*
X96594593Y-106254860D01*
X96563318Y-106317339D01*
X96503229Y-106352991D01*
X96472563Y-106356843D01*
X95890284Y-106356843D01*
X95823245Y-106337158D01*
X95802603Y-106320524D01*
X95800135Y-106318056D01*
X95800131Y-106318053D01*
X95669028Y-106230452D01*
X95669015Y-106230445D01*
X95523344Y-106170107D01*
X95523332Y-106170104D01*
X95368688Y-106139343D01*
X95368685Y-106139343D01*
X95211001Y-106139343D01*
X95210998Y-106139343D01*
X95056353Y-106170104D01*
X95056341Y-106170107D01*
X94910670Y-106230445D01*
X94910657Y-106230452D01*
X94779554Y-106318053D01*
X94779550Y-106318056D01*
X94668056Y-106429550D01*
X94668053Y-106429554D01*
X94580452Y-106560657D01*
X94580445Y-106560670D01*
X94520107Y-106706341D01*
X94520104Y-106706353D01*
X94489343Y-106860996D01*
X94489343Y-107018689D01*
X94520104Y-107173332D01*
X94520107Y-107173344D01*
X94580445Y-107319015D01*
X94580452Y-107319028D01*
X94618927Y-107376609D01*
X94639805Y-107443286D01*
X94621321Y-107510667D01*
X94569342Y-107557357D01*
X94515825Y-107569500D01*
X93250943Y-107569500D01*
X93098214Y-107610423D01*
X93050661Y-107637879D01*
X93050659Y-107637879D01*
X92961290Y-107689475D01*
X92961282Y-107689481D01*
X91069481Y-109581282D01*
X91069475Y-109581290D01*
X91027848Y-109653392D01*
X91027848Y-109653394D01*
X90990423Y-109718214D01*
X90990423Y-109718215D01*
X90949499Y-109870943D01*
X90949499Y-109870945D01*
X90949499Y-110039046D01*
X90949500Y-110039059D01*
X90949500Y-111740404D01*
X90929815Y-111807443D01*
X90913181Y-111828085D01*
X90868869Y-111872396D01*
X90868863Y-111872404D01*
X90787131Y-112010606D01*
X90787129Y-112010611D01*
X90742335Y-112164791D01*
X90742334Y-112164797D01*
X90739500Y-112200811D01*
X90739500Y-112425651D01*
X90719815Y-112492690D01*
X90667011Y-112538445D01*
X90597853Y-112548389D01*
X90534297Y-112519364D01*
X90527819Y-112513332D01*
X87849319Y-109834832D01*
X87815834Y-109773509D01*
X87813000Y-109747151D01*
X87813000Y-103672848D01*
X87832685Y-103605809D01*
X87849314Y-103585172D01*
X88681608Y-102752877D01*
X105718808Y-102752877D01*
X105718808Y-102965450D01*
X105750317Y-103164394D01*
X105752062Y-103175407D01*
X105791022Y-103295314D01*
X105817752Y-103377578D01*
X105914259Y-103566984D01*
X106039198Y-103738950D01*
X106189521Y-103889273D01*
X106361487Y-104014212D01*
X106361489Y-104014213D01*
X106361492Y-104014215D01*
X106550896Y-104110721D01*
X106753065Y-104176410D01*
X106963021Y-104209664D01*
X106963022Y-104209664D01*
X107175594Y-104209664D01*
X107175595Y-104209664D01*
X107385551Y-104176410D01*
X107587720Y-104110721D01*
X107777124Y-104014215D01*
X107825225Y-103979268D01*
X107949094Y-103889273D01*
X107949096Y-103889270D01*
X107949100Y-103889268D01*
X108099412Y-103738956D01*
X108099414Y-103738952D01*
X108099417Y-103738950D01*
X108224356Y-103566984D01*
X108224355Y-103566984D01*
X108224359Y-103566980D01*
X108320865Y-103377576D01*
X108386554Y-103175407D01*
X108419808Y-102965451D01*
X108419808Y-102752877D01*
X108386554Y-102542921D01*
X108320865Y-102340752D01*
X108224359Y-102151348D01*
X108224357Y-102151345D01*
X108224356Y-102151343D01*
X108099417Y-101979377D01*
X107949094Y-101829054D01*
X107777128Y-101704115D01*
X107587722Y-101607608D01*
X107587721Y-101607607D01*
X107587720Y-101607607D01*
X107385551Y-101541918D01*
X107385549Y-101541917D01*
X107385548Y-101541917D01*
X107224265Y-101516372D01*
X107175595Y-101508664D01*
X106963021Y-101508664D01*
X106914350Y-101516372D01*
X106753068Y-101541917D01*
X106550893Y-101607608D01*
X106361487Y-101704115D01*
X106189521Y-101829054D01*
X106039198Y-101979377D01*
X105914259Y-102151343D01*
X105817752Y-102340749D01*
X105752061Y-102542924D01*
X105718808Y-102752877D01*
X88681608Y-102752877D01*
X89349882Y-102084603D01*
X89411203Y-102051120D01*
X89480895Y-102056104D01*
X89484998Y-102057719D01*
X89629126Y-102117418D01*
X89783776Y-102148180D01*
X89783779Y-102148181D01*
X89783781Y-102148181D01*
X89941467Y-102148181D01*
X89941468Y-102148180D01*
X90096120Y-102117418D01*
X90240233Y-102057725D01*
X90241795Y-102057078D01*
X90241795Y-102057077D01*
X90241802Y-102057075D01*
X90372912Y-101969470D01*
X90484412Y-101857970D01*
X90572017Y-101726860D01*
X90632360Y-101581178D01*
X90663123Y-101426523D01*
X90663123Y-101268839D01*
X90663123Y-101268836D01*
X90663122Y-101268834D01*
X90657176Y-101238942D01*
X90632360Y-101114184D01*
X90622767Y-101091024D01*
X90572020Y-100968508D01*
X90572013Y-100968495D01*
X90484412Y-100837392D01*
X90484409Y-100837388D01*
X90372915Y-100725894D01*
X90372911Y-100725891D01*
X90241808Y-100638290D01*
X90241795Y-100638283D01*
X90096124Y-100577945D01*
X90096112Y-100577942D01*
X89941468Y-100547181D01*
X89941465Y-100547181D01*
X89783781Y-100547181D01*
X89783778Y-100547181D01*
X89629133Y-100577942D01*
X89629121Y-100577945D01*
X89483450Y-100638283D01*
X89483437Y-100638290D01*
X89352334Y-100725891D01*
X89352330Y-100725894D01*
X89349863Y-100728362D01*
X89348251Y-100729241D01*
X89347624Y-100729757D01*
X89347526Y-100729637D01*
X89288540Y-100761847D01*
X89262182Y-100764681D01*
X89185566Y-100764681D01*
X89037287Y-100804411D01*
X88904348Y-100881165D01*
X88904345Y-100881167D01*
X86763486Y-103022026D01*
X86763484Y-103022029D01*
X86686730Y-103154968D01*
X86647000Y-103303247D01*
X86647000Y-106383188D01*
X86627315Y-106450227D01*
X86574511Y-106495982D01*
X86505353Y-106505926D01*
X86441797Y-106476901D01*
X86423734Y-106457500D01*
X86339495Y-106344973D01*
X86224401Y-106258813D01*
X86224394Y-106258809D01*
X86089687Y-106208567D01*
X86089680Y-106208565D01*
X86030152Y-106202164D01*
X84732308Y-106202164D01*
X84732308Y-107078164D01*
X84712623Y-107145203D01*
X84659819Y-107190958D01*
X84608308Y-107202164D01*
X84356308Y-107202164D01*
X84289269Y-107182479D01*
X84243514Y-107129675D01*
X84232308Y-107078164D01*
X84232308Y-106202164D01*
X82934463Y-106202164D01*
X82874935Y-106208565D01*
X82874928Y-106208567D01*
X82740221Y-106258809D01*
X82740214Y-106258813D01*
X82625120Y-106344973D01*
X82625117Y-106344976D01*
X82538957Y-106460070D01*
X82538953Y-106460077D01*
X82488711Y-106594784D01*
X82488709Y-106594791D01*
X82482308Y-106654319D01*
X82482308Y-107048459D01*
X82462623Y-107115498D01*
X82409819Y-107161253D01*
X82340661Y-107171197D01*
X82277105Y-107142172D01*
X82270627Y-107136140D01*
X81870137Y-106735650D01*
X81870136Y-106735649D01*
X81870135Y-106735648D01*
X81803664Y-106697271D01*
X81737195Y-106658894D01*
X81630224Y-106630232D01*
X81588917Y-106619164D01*
X81588916Y-106619164D01*
X81531626Y-106619164D01*
X81464587Y-106599479D01*
X81418832Y-106546675D01*
X81415444Y-106538497D01*
X81386105Y-106459835D01*
X81386101Y-106459828D01*
X81299855Y-106344619D01*
X81299852Y-106344616D01*
X81184643Y-106258370D01*
X81184636Y-106258366D01*
X81049790Y-106208072D01*
X81049791Y-106208072D01*
X80990191Y-106201665D01*
X80990189Y-106201664D01*
X80990181Y-106201664D01*
X80990172Y-106201664D01*
X77894437Y-106201664D01*
X77894431Y-106201665D01*
X77834824Y-106208072D01*
X77699979Y-106258366D01*
X77699972Y-106258370D01*
X77584763Y-106344616D01*
X77584760Y-106344619D01*
X77498514Y-106459828D01*
X77498510Y-106459835D01*
X77448216Y-106594681D01*
X77441809Y-106654280D01*
X77441808Y-106654299D01*
X77441808Y-107750034D01*
X77441809Y-107750040D01*
X77448216Y-107809647D01*
X77498510Y-107944492D01*
X77498514Y-107944499D01*
X77584760Y-108059708D01*
X77584763Y-108059711D01*
X77699972Y-108145957D01*
X77699979Y-108145961D01*
X77834825Y-108196255D01*
X77834824Y-108196255D01*
X77841752Y-108196999D01*
X77894435Y-108202664D01*
X80990180Y-108202663D01*
X81049791Y-108196255D01*
X81184639Y-108145960D01*
X81299854Y-108059710D01*
X81319141Y-108033944D01*
X81375072Y-107992075D01*
X81444763Y-107987089D01*
X81506087Y-108020574D01*
X81506088Y-108020575D01*
X82467720Y-108982206D01*
X82501205Y-109043529D01*
X82496221Y-109113219D01*
X82488217Y-109134678D01*
X82488216Y-109134680D01*
X82484043Y-109173501D01*
X82481809Y-109194287D01*
X82481808Y-109194299D01*
X82481808Y-110290034D01*
X82481809Y-110290040D01*
X82488216Y-110349647D01*
X82510603Y-110409667D01*
X82515587Y-110479358D01*
X82482102Y-110540681D01*
X82420779Y-110574166D01*
X82394421Y-110577000D01*
X81530195Y-110577000D01*
X81463156Y-110557315D01*
X81417401Y-110504511D01*
X81407457Y-110435353D01*
X81414013Y-110409667D01*
X81414319Y-110408847D01*
X81436399Y-110349647D01*
X81442808Y-110290037D01*
X81442807Y-109194292D01*
X81436399Y-109134681D01*
X81430876Y-109119874D01*
X81386105Y-108999835D01*
X81386101Y-108999828D01*
X81299855Y-108884619D01*
X81299852Y-108884616D01*
X81184643Y-108798370D01*
X81184636Y-108798366D01*
X81049790Y-108748072D01*
X81049791Y-108748072D01*
X80990191Y-108741665D01*
X80990189Y-108741664D01*
X80990181Y-108741664D01*
X80990172Y-108741664D01*
X77894437Y-108741664D01*
X77894431Y-108741665D01*
X77834824Y-108748072D01*
X77699979Y-108798366D01*
X77699972Y-108798370D01*
X77584763Y-108884616D01*
X77584760Y-108884619D01*
X77498514Y-108999828D01*
X77498510Y-108999835D01*
X77448216Y-109134681D01*
X77444043Y-109173501D01*
X77441809Y-109194287D01*
X77441808Y-109194299D01*
X77441808Y-110290034D01*
X77441809Y-110290040D01*
X77448216Y-110349647D01*
X77498510Y-110484492D01*
X77498514Y-110484499D01*
X77584760Y-110599708D01*
X77584763Y-110599711D01*
X77699972Y-110685957D01*
X77699979Y-110685961D01*
X77834825Y-110736255D01*
X77834824Y-110736255D01*
X77841752Y-110736999D01*
X77894435Y-110742664D01*
X79566958Y-110742663D01*
X79633997Y-110762348D01*
X79654639Y-110778982D01*
X79945640Y-111069983D01*
X79979125Y-111131306D01*
X79974141Y-111200998D01*
X79932269Y-111256931D01*
X79866805Y-111281348D01*
X79857959Y-111281664D01*
X77894437Y-111281664D01*
X77894424Y-111281665D01*
X77883646Y-111282824D01*
X77814887Y-111270416D01*
X77763751Y-111222803D01*
X77763009Y-111221534D01*
X77696516Y-111106365D01*
X77587971Y-110997820D01*
X76819146Y-110228995D01*
X76785661Y-110167672D01*
X76782827Y-110141314D01*
X76782827Y-109997495D01*
X76782826Y-109997470D01*
X76782545Y-109993900D01*
X76779993Y-109961460D01*
X76735197Y-109807271D01*
X76653463Y-109669066D01*
X76653461Y-109669064D01*
X76653458Y-109669060D01*
X76539931Y-109555533D01*
X76539923Y-109555527D01*
X76401721Y-109473795D01*
X76401716Y-109473793D01*
X76247536Y-109428999D01*
X76247530Y-109428998D01*
X76211509Y-109426164D01*
X75713158Y-109426164D01*
X75713136Y-109426165D01*
X75677122Y-109428999D01*
X75522939Y-109473793D01*
X75522934Y-109473795D01*
X75384732Y-109555527D01*
X75384724Y-109555533D01*
X75271197Y-109669060D01*
X75271191Y-109669068D01*
X75189459Y-109807270D01*
X75189457Y-109807275D01*
X75144663Y-109961455D01*
X75144662Y-109961461D01*
X75141828Y-109997475D01*
X75141828Y-110395833D01*
X75141829Y-110395855D01*
X75144663Y-110431869D01*
X75189457Y-110586052D01*
X75189460Y-110586059D01*
X75223456Y-110643545D01*
X75240637Y-110711269D01*
X75223456Y-110769783D01*
X75189460Y-110827268D01*
X75189457Y-110827275D01*
X75144663Y-110981455D01*
X75144662Y-110981461D01*
X75141828Y-111017475D01*
X75141828Y-111415833D01*
X75141829Y-111415855D01*
X75144663Y-111451869D01*
X75189457Y-111606052D01*
X75189459Y-111606058D01*
X75253397Y-111714171D01*
X75270580Y-111781895D01*
X75248420Y-111848158D01*
X75234347Y-111864973D01*
X75148044Y-111951276D01*
X75059783Y-112094368D01*
X75059778Y-112094379D01*
X75051534Y-112119259D01*
X75006892Y-112253979D01*
X75006892Y-112253980D01*
X75006891Y-112253980D01*
X74996828Y-112352482D01*
X74996828Y-112885845D01*
X75006891Y-112984347D01*
X75059778Y-113143948D01*
X75059783Y-113143959D01*
X75148044Y-113287051D01*
X75148047Y-113287056D01*
X75180328Y-113319337D01*
X75213813Y-113380661D01*
X75208827Y-113450352D01*
X75180328Y-113494697D01*
X75148442Y-113526583D01*
X75060236Y-113669586D01*
X75060234Y-113669591D01*
X75007385Y-113829080D01*
X74997328Y-113927513D01*
X74997328Y-113944164D01*
X75848328Y-113944164D01*
X75915367Y-113963849D01*
X75961122Y-114016653D01*
X75972328Y-114068164D01*
X75972328Y-114194164D01*
X76098328Y-114194164D01*
X76165367Y-114213849D01*
X76211122Y-114266653D01*
X76222328Y-114318164D01*
X76222328Y-115131663D01*
X76276464Y-115131663D01*
X76276480Y-115131662D01*
X76374910Y-115121607D01*
X76483995Y-115085459D01*
X76553823Y-115083057D01*
X76613866Y-115118788D01*
X76645059Y-115181308D01*
X76647000Y-115203165D01*
X76647000Y-117623247D01*
X76647000Y-117776753D01*
X76662740Y-117835498D01*
X76686730Y-117925031D01*
X76716730Y-117976991D01*
X76763484Y-118057971D01*
X76763486Y-118057973D01*
X78121328Y-119415815D01*
X78154813Y-119477138D01*
X78149829Y-119546830D01*
X78107957Y-119602763D01*
X78102539Y-119606597D01*
X78008465Y-119669456D01*
X78008459Y-119669461D01*
X77896965Y-119780955D01*
X77896962Y-119780959D01*
X77809361Y-119912062D01*
X77809354Y-119912075D01*
X77749016Y-120057746D01*
X77749013Y-120057758D01*
X77718252Y-120212401D01*
X77718252Y-120370094D01*
X77749013Y-120524737D01*
X77749016Y-120524749D01*
X77809354Y-120670420D01*
X77809361Y-120670433D01*
X77896962Y-120801536D01*
X77896965Y-120801540D01*
X78008459Y-120913034D01*
X78008463Y-120913037D01*
X78115504Y-120984560D01*
X78160309Y-121038172D01*
X78169016Y-121107497D01*
X78138862Y-121170525D01*
X78134294Y-121175343D01*
X77917122Y-121392515D01*
X77917111Y-121392527D01*
X77893639Y-121420007D01*
X77893637Y-121420008D01*
X77893637Y-121420010D01*
X77888290Y-121429737D01*
X77816284Y-121560713D01*
X77776354Y-121716230D01*
X77776354Y-121876802D01*
X77816283Y-122032313D01*
X77816286Y-122032323D01*
X77838922Y-122073497D01*
X77893637Y-122173023D01*
X77904479Y-122185717D01*
X77917103Y-122200498D01*
X77917119Y-122200515D01*
X78269482Y-122552877D01*
X78269492Y-122552886D01*
X78269500Y-122552894D01*
X78296977Y-122576363D01*
X78437680Y-122653715D01*
X78593201Y-122693646D01*
X78593205Y-122693646D01*
X78753762Y-122693646D01*
X78753766Y-122693646D01*
X78813202Y-122678385D01*
X78883028Y-122680778D01*
X78940478Y-122720544D01*
X78954964Y-122743069D01*
X78995395Y-122824000D01*
X79034620Y-122869341D01*
X80018837Y-123787136D01*
X80066804Y-123823104D01*
X80199726Y-123878287D01*
X80342812Y-123893784D01*
X80409929Y-123881730D01*
X80479390Y-123889254D01*
X80533759Y-123933138D01*
X80546408Y-123956324D01*
X80593152Y-124069176D01*
X80593157Y-124069185D01*
X80680758Y-124200288D01*
X80680761Y-124200292D01*
X80792255Y-124311786D01*
X80792259Y-124311789D01*
X80923362Y-124399390D01*
X80923375Y-124399397D01*
X81069046Y-124459735D01*
X81069051Y-124459737D01*
X81223701Y-124490499D01*
X81223704Y-124490500D01*
X81223706Y-124490500D01*
X81381392Y-124490500D01*
X81381393Y-124490499D01*
X81536045Y-124459737D01*
X81681727Y-124399394D01*
X81812837Y-124311789D01*
X81924337Y-124200289D01*
X82011942Y-124069179D01*
X82072285Y-123923497D01*
X82103048Y-123768842D01*
X82103048Y-123696897D01*
X82122733Y-123629858D01*
X82175537Y-123584103D01*
X82244695Y-123574159D01*
X82308251Y-123603184D01*
X82314729Y-123609216D01*
X82910681Y-124205168D01*
X82944166Y-124266491D01*
X82947000Y-124292849D01*
X82947000Y-127676752D01*
X82986730Y-127825031D01*
X83008530Y-127862789D01*
X83063484Y-127957971D01*
X83643726Y-128538213D01*
X84203181Y-129097667D01*
X84236666Y-129158990D01*
X84239500Y-129185348D01*
X84239500Y-129188846D01*
X84270261Y-129343489D01*
X84270264Y-129343501D01*
X84330602Y-129489172D01*
X84330609Y-129489185D01*
X84418210Y-129620288D01*
X84418213Y-129620292D01*
X84529707Y-129731786D01*
X84529711Y-129731789D01*
X84660814Y-129819390D01*
X84660827Y-129819397D01*
X84806498Y-129879735D01*
X84806503Y-129879737D01*
X84948761Y-129908034D01*
X84961153Y-129910499D01*
X84961156Y-129910500D01*
X84961158Y-129910500D01*
X85118844Y-129910500D01*
X85118845Y-129910499D01*
X85273497Y-129879737D01*
X85386166Y-129833067D01*
X85419172Y-129819397D01*
X85419172Y-129819396D01*
X85419179Y-129819394D01*
X85550289Y-129731789D01*
X85661789Y-129620289D01*
X85749394Y-129489179D01*
X85780331Y-129414487D01*
X85824171Y-129360086D01*
X85890465Y-129338020D01*
X85958164Y-129355298D01*
X85982573Y-129374260D01*
X88661023Y-132052710D01*
X88661033Y-132052721D01*
X88665363Y-132057051D01*
X88665364Y-132057052D01*
X88777168Y-132168856D01*
X88777170Y-132168857D01*
X88836024Y-132202836D01*
X88836023Y-132202836D01*
X88836026Y-132202837D01*
X88914093Y-132247910D01*
X88914094Y-132247910D01*
X88914099Y-132247913D01*
X89066827Y-132288836D01*
X92938740Y-132288836D01*
X93005779Y-132308521D01*
X93026421Y-132325155D01*
X93032396Y-132331130D01*
X93032400Y-132331133D01*
X93032402Y-132331135D01*
X93170607Y-132412869D01*
X93211268Y-132424682D01*
X93324791Y-132457664D01*
X93324794Y-132457664D01*
X93324796Y-132457665D01*
X93360819Y-132460500D01*
X93759180Y-132460499D01*
X93795204Y-132457665D01*
X93949393Y-132412869D01*
X94006882Y-132378869D01*
X94019763Y-132375601D01*
X94030673Y-132368004D01*
X94052972Y-132367175D01*
X94074602Y-132361688D01*
X94088764Y-132365846D01*
X94100495Y-132365411D01*
X94133114Y-132378867D01*
X94189970Y-132412492D01*
X94237651Y-132463560D01*
X94250154Y-132532302D01*
X94244552Y-132558225D01*
X94205057Y-132677414D01*
X94195000Y-132775849D01*
X94195000Y-132830000D01*
X95008500Y-132830000D01*
X95075539Y-132849685D01*
X95121294Y-132902489D01*
X95132500Y-132954000D01*
X95132500Y-133206000D01*
X95112815Y-133273039D01*
X95060011Y-133318794D01*
X95008500Y-133330000D01*
X94195001Y-133330000D01*
X94195001Y-133384152D01*
X94205056Y-133482583D01*
X94257906Y-133642072D01*
X94257908Y-133642077D01*
X94346114Y-133785080D01*
X94464919Y-133903885D01*
X94607922Y-133992091D01*
X94607927Y-133992093D01*
X94689984Y-134019284D01*
X94704982Y-134029667D01*
X94722257Y-134035523D01*
X94733108Y-134049141D01*
X94747429Y-134059056D01*
X94754432Y-134075902D01*
X94765799Y-134090166D01*
X94767565Y-134107489D01*
X94774252Y-134123572D01*
X94771036Y-134141529D01*
X94772887Y-134159675D01*
X94765006Y-134175205D01*
X94761937Y-134192348D01*
X94749525Y-134205713D01*
X94741271Y-134221982D01*
X94726243Y-134230786D01*
X94714394Y-134243548D01*
X94696724Y-134248082D01*
X94680987Y-134257304D01*
X94647480Y-134260721D01*
X94646718Y-134260917D01*
X94645875Y-134260885D01*
X94452733Y-134252927D01*
X94447482Y-134252599D01*
X93522259Y-134175059D01*
X93517027Y-134174508D01*
X92595951Y-134057792D01*
X92590747Y-134057020D01*
X91675444Y-133901338D01*
X91670277Y-133900346D01*
X90762403Y-133705977D01*
X90757283Y-133704767D01*
X89858475Y-133472062D01*
X89853410Y-133470636D01*
X88965259Y-133200006D01*
X88960260Y-133198366D01*
X88084395Y-132890307D01*
X88079470Y-132888456D01*
X87217473Y-132543526D01*
X87212631Y-132541468D01*
X86366046Y-132160284D01*
X86361296Y-132158023D01*
X85916482Y-131934584D01*
X85531623Y-131741261D01*
X85526976Y-131738802D01*
X84715747Y-131287231D01*
X84711205Y-131284575D01*
X83919857Y-130798996D01*
X83915432Y-130796150D01*
X83145391Y-130277437D01*
X83141091Y-130274406D01*
X82393748Y-129723496D01*
X82389580Y-129720285D01*
X81666278Y-129138169D01*
X81662250Y-129134784D01*
X80964271Y-128522490D01*
X80960401Y-128518946D01*
X80959959Y-128518524D01*
X80624916Y-128198465D01*
X80289064Y-127877634D01*
X80285337Y-127873920D01*
X79641785Y-127204684D01*
X79638220Y-127200816D01*
X79541088Y-127090827D01*
X79023623Y-126504869D01*
X79020233Y-126500861D01*
X79006399Y-126483788D01*
X78435732Y-125779494D01*
X78432513Y-125775344D01*
X78418134Y-125755973D01*
X77879120Y-125029808D01*
X77876081Y-125025526D01*
X77619613Y-124647499D01*
X77354822Y-124257202D01*
X77351967Y-124252796D01*
X76865935Y-123466557D01*
X76865632Y-123466061D01*
X76862751Y-123461317D01*
X76860631Y-123457686D01*
X76414390Y-122662234D01*
X76414069Y-122661656D01*
X76404623Y-122644486D01*
X76402654Y-122640757D01*
X75996430Y-121838687D01*
X75996088Y-121838004D01*
X75981681Y-121808941D01*
X75979886Y-121805158D01*
X75657583Y-121095622D01*
X75613014Y-120997507D01*
X75612569Y-120996515D01*
X75607267Y-120984560D01*
X75594651Y-120956114D01*
X75593067Y-120952374D01*
X75264811Y-120139849D01*
X75264513Y-120139101D01*
X75244262Y-120087601D01*
X75242880Y-120083908D01*
X74952790Y-119267768D01*
X74952539Y-119267051D01*
X74931161Y-119205023D01*
X74929929Y-119201248D01*
X74677497Y-118382541D01*
X74677267Y-118381782D01*
X74655910Y-118309986D01*
X74654847Y-118306191D01*
X74439556Y-117485832D01*
X74439351Y-117485033D01*
X74418986Y-117404055D01*
X74418080Y-117400187D01*
X74406453Y-117346743D01*
X74239514Y-116579403D01*
X74239347Y-116578614D01*
X74220798Y-116488777D01*
X74220097Y-116485084D01*
X74077787Y-115664827D01*
X74077638Y-115663936D01*
X74061757Y-115566055D01*
X74061202Y-115562257D01*
X73954734Y-114743761D01*
X73954598Y-114742667D01*
X73942107Y-114637381D01*
X73941723Y-114633643D01*
X73926663Y-114460816D01*
X74997329Y-114460816D01*
X75007384Y-114559247D01*
X75060234Y-114718736D01*
X75060236Y-114718741D01*
X75148442Y-114861744D01*
X75267247Y-114980549D01*
X75410250Y-115068755D01*
X75410255Y-115068757D01*
X75569744Y-115121606D01*
X75668183Y-115131663D01*
X75722327Y-115131662D01*
X75722328Y-115131662D01*
X75722328Y-114444164D01*
X74997329Y-114444164D01*
X74997329Y-114460816D01*
X73926663Y-114460816D01*
X73870621Y-113817679D01*
X73870533Y-113816597D01*
X73862075Y-113704503D01*
X73861852Y-113700792D01*
X73825693Y-112888539D01*
X73825659Y-112887665D01*
X73821798Y-112769096D01*
X73821733Y-112765328D01*
X73820074Y-111958239D01*
X73820079Y-111956952D01*
X73821347Y-111832770D01*
X73821442Y-111829052D01*
X73821481Y-111828085D01*
X73853812Y-111027779D01*
X73853862Y-111026720D01*
X73860726Y-110897265D01*
X73860960Y-110893819D01*
X73926900Y-110099349D01*
X73926990Y-110098354D01*
X73939847Y-109964470D01*
X73940237Y-109960948D01*
X74039229Y-109174672D01*
X74039385Y-109173501D01*
X74058575Y-109035839D01*
X74059113Y-109032344D01*
X74190633Y-108255334D01*
X74190871Y-108253983D01*
X74216689Y-108113115D01*
X74217367Y-108109693D01*
X74380882Y-107342930D01*
X74381203Y-107341475D01*
X74413901Y-107197969D01*
X74414706Y-107194655D01*
X74609671Y-106439112D01*
X74610048Y-106437695D01*
X74649872Y-106291985D01*
X74650773Y-106288864D01*
X74876587Y-105545648D01*
X74877062Y-105544126D01*
X74924099Y-105397061D01*
X74925134Y-105393969D01*
X75181220Y-104664001D01*
X75181766Y-104662483D01*
X75236155Y-104514549D01*
X75237325Y-104511498D01*
X75523015Y-103795880D01*
X75523579Y-103794498D01*
X75585449Y-103646133D01*
X75586720Y-103643198D01*
X75901312Y-102943008D01*
X75901993Y-102941522D01*
X75948174Y-102842877D01*
X83228808Y-102842877D01*
X83228808Y-103055450D01*
X83261571Y-103262312D01*
X83262062Y-103265407D01*
X83271779Y-103295314D01*
X83327752Y-103467578D01*
X83424259Y-103656984D01*
X83549198Y-103828950D01*
X83699521Y-103979273D01*
X83871487Y-104104212D01*
X83871489Y-104104213D01*
X83871492Y-104104215D01*
X84060896Y-104200721D01*
X84263065Y-104266410D01*
X84473021Y-104299664D01*
X84473022Y-104299664D01*
X84685594Y-104299664D01*
X84685595Y-104299664D01*
X84895551Y-104266410D01*
X85097720Y-104200721D01*
X85287124Y-104104215D01*
X85327882Y-104074603D01*
X85459094Y-103979273D01*
X85459096Y-103979270D01*
X85459100Y-103979268D01*
X85609412Y-103828956D01*
X85609414Y-103828952D01*
X85609417Y-103828950D01*
X85734356Y-103656984D01*
X85734355Y-103656984D01*
X85734359Y-103656980D01*
X85830865Y-103467576D01*
X85896554Y-103265407D01*
X85929808Y-103055451D01*
X85929808Y-102842877D01*
X85896554Y-102632921D01*
X85830865Y-102430752D01*
X85734359Y-102241348D01*
X85734357Y-102241345D01*
X85734356Y-102241343D01*
X85609417Y-102069377D01*
X85459094Y-101919054D01*
X85287128Y-101794115D01*
X85097722Y-101697608D01*
X85097721Y-101697607D01*
X85097720Y-101697607D01*
X84895551Y-101631918D01*
X84895549Y-101631917D01*
X84895548Y-101631917D01*
X84734265Y-101606372D01*
X84685595Y-101598664D01*
X84473021Y-101598664D01*
X84424350Y-101606372D01*
X84263068Y-101631917D01*
X84060893Y-101697608D01*
X83871487Y-101794115D01*
X83699521Y-101919054D01*
X83549198Y-102069377D01*
X83424259Y-102241343D01*
X83327752Y-102430749D01*
X83262061Y-102632924D01*
X83228808Y-102842877D01*
X75948174Y-102842877D01*
X75971358Y-102793354D01*
X75972714Y-102790557D01*
X76315584Y-102106615D01*
X76316326Y-102105166D01*
X76393136Y-101957847D01*
X76394609Y-101955111D01*
X76764946Y-101288557D01*
X76765836Y-101286985D01*
X76850045Y-101141055D01*
X76851601Y-101138439D01*
X77248786Y-100489980D01*
X77249648Y-100488597D01*
X77341296Y-100344391D01*
X77342855Y-100342007D01*
X77766055Y-99712667D01*
X77767084Y-99711164D01*
X77865858Y-99569510D01*
X77867599Y-99567079D01*
X78315911Y-98957893D01*
X78317059Y-98956361D01*
X78422925Y-98817582D01*
X78424791Y-98815199D01*
X78897414Y-98226982D01*
X78898631Y-98225494D01*
X79011473Y-98089998D01*
X79013260Y-98087906D01*
X79509554Y-97521242D01*
X79510791Y-97519856D01*
X79630312Y-97388218D01*
X79632241Y-97386146D01*
X80151070Y-96842152D01*
X80152470Y-96840710D01*
X80278412Y-96713391D01*
X80280425Y-96711405D01*
X80820989Y-96190751D01*
X80822339Y-96189474D01*
X80954678Y-96066662D01*
X80956574Y-96064945D01*
X81518001Y-95568342D01*
X81519553Y-95566995D01*
X81657579Y-95449478D01*
X81659698Y-95447717D01*
X82240860Y-94976046D01*
X82242465Y-94974768D01*
X82386169Y-94862651D01*
X82388278Y-94861044D01*
X82988307Y-94414909D01*
X82990077Y-94413620D01*
X83139010Y-94307345D01*
X83141179Y-94305835D01*
X83758976Y-93885974D01*
X83760801Y-93884760D01*
X83914698Y-93784586D01*
X83916828Y-93783232D01*
X84551545Y-93390163D01*
X84553412Y-93389033D01*
X84711889Y-93295271D01*
X84714009Y-93294048D01*
X85364396Y-92928500D01*
X85366432Y-92927383D01*
X85529100Y-92840305D01*
X85531168Y-92839227D01*
X86196317Y-92501678D01*
X86198431Y-92500633D01*
X86364651Y-92420600D01*
X86366964Y-92419517D01*
X87128899Y-92072674D01*
X87131329Y-92071601D01*
X87131869Y-92071369D01*
X87131870Y-92071369D01*
X87131870Y-92071367D01*
X87132292Y-92071187D01*
X87132314Y-92071131D01*
X87132315Y-92071131D01*
X87132314Y-92071130D01*
X87135756Y-92062506D01*
X87132161Y-92045131D01*
X87132159Y-87016844D01*
X94234000Y-87016844D01*
X94240401Y-87076372D01*
X94240403Y-87076379D01*
X94290645Y-87211086D01*
X94290649Y-87211093D01*
X94376809Y-87326187D01*
X94376812Y-87326190D01*
X94491906Y-87412350D01*
X94491913Y-87412354D01*
X94626620Y-87462596D01*
X94626627Y-87462598D01*
X94686155Y-87468999D01*
X94686172Y-87469000D01*
X94984000Y-87469000D01*
X94984000Y-86719000D01*
X94234000Y-86719000D01*
X94234000Y-87016844D01*
X87132159Y-87016844D01*
X87132159Y-85921155D01*
X94234000Y-85921155D01*
X94234000Y-86219000D01*
X94984000Y-86219000D01*
X94984000Y-85469000D01*
X94686155Y-85469000D01*
X94626627Y-85475401D01*
X94626620Y-85475403D01*
X94491913Y-85525645D01*
X94491906Y-85525649D01*
X94376812Y-85611809D01*
X94376809Y-85611812D01*
X94290649Y-85726906D01*
X94290645Y-85726913D01*
X94240403Y-85861620D01*
X94240401Y-85861627D01*
X94234000Y-85921155D01*
X87132159Y-85921155D01*
X87132158Y-84666844D01*
X93684000Y-84666844D01*
X93690401Y-84726372D01*
X93690403Y-84726379D01*
X93740645Y-84861086D01*
X93740649Y-84861093D01*
X93826809Y-84976187D01*
X93826812Y-84976190D01*
X93941906Y-85062350D01*
X93941913Y-85062354D01*
X94076620Y-85112596D01*
X94076627Y-85112598D01*
X94136155Y-85118999D01*
X94136172Y-85119000D01*
X94684000Y-85119000D01*
X95184000Y-85119000D01*
X95731828Y-85119000D01*
X95731844Y-85118999D01*
X95791372Y-85112598D01*
X95791379Y-85112596D01*
X95926086Y-85062354D01*
X95926093Y-85062350D01*
X96041187Y-84976190D01*
X96041190Y-84976187D01*
X96127350Y-84861093D01*
X96127354Y-84861086D01*
X96177596Y-84726379D01*
X96177598Y-84726372D01*
X96183999Y-84666844D01*
X100584000Y-84666844D01*
X100590401Y-84726372D01*
X100590403Y-84726379D01*
X100640645Y-84861086D01*
X100640649Y-84861093D01*
X100726809Y-84976187D01*
X100726812Y-84976190D01*
X100841906Y-85062350D01*
X100841913Y-85062354D01*
X100976620Y-85112596D01*
X100976627Y-85112598D01*
X101036155Y-85118999D01*
X101036172Y-85119000D01*
X101584000Y-85119000D01*
X102084000Y-85119000D01*
X102631828Y-85119000D01*
X102631844Y-85118999D01*
X102691372Y-85112598D01*
X102691379Y-85112596D01*
X102826086Y-85062354D01*
X102826093Y-85062350D01*
X102941187Y-84976190D01*
X102941190Y-84976187D01*
X103027350Y-84861093D01*
X103027354Y-84861086D01*
X103077596Y-84726379D01*
X103077598Y-84726372D01*
X103083999Y-84666844D01*
X103084000Y-84666827D01*
X103084000Y-84269000D01*
X102084000Y-84269000D01*
X102084000Y-85119000D01*
X101584000Y-85119000D01*
X101584000Y-84269000D01*
X100584000Y-84269000D01*
X100584000Y-84666844D01*
X96183999Y-84666844D01*
X96184000Y-84666827D01*
X96184000Y-84269000D01*
X95184000Y-84269000D01*
X95184000Y-85119000D01*
X94684000Y-85119000D01*
X94684000Y-84269000D01*
X93684000Y-84269000D01*
X93684000Y-84666844D01*
X87132158Y-84666844D01*
X87132158Y-83862844D01*
X88730000Y-83862844D01*
X88736401Y-83922372D01*
X88736403Y-83922379D01*
X88786645Y-84057086D01*
X88786649Y-84057093D01*
X88872809Y-84172187D01*
X88872812Y-84172190D01*
X88987906Y-84258350D01*
X88987913Y-84258354D01*
X89122620Y-84308596D01*
X89122627Y-84308598D01*
X89182155Y-84314999D01*
X89182172Y-84315000D01*
X89480000Y-84315000D01*
X89980000Y-84315000D01*
X90277828Y-84315000D01*
X90277844Y-84314999D01*
X90337372Y-84308598D01*
X90337379Y-84308596D01*
X90472086Y-84258354D01*
X90472093Y-84258350D01*
X90587187Y-84172190D01*
X90608796Y-84143326D01*
X90673353Y-84057088D01*
X90673354Y-84057086D01*
X90723596Y-83922379D01*
X90723598Y-83922372D01*
X90729999Y-83862844D01*
X90730000Y-83862827D01*
X90730000Y-83440000D01*
X89980000Y-83440000D01*
X89980000Y-84315000D01*
X89480000Y-84315000D01*
X89480000Y-83440000D01*
X88730000Y-83440000D01*
X88730000Y-83862844D01*
X87132158Y-83862844D01*
X87132158Y-83371155D01*
X93684000Y-83371155D01*
X93684000Y-83769000D01*
X94684000Y-83769000D01*
X95184000Y-83769000D01*
X96184000Y-83769000D01*
X96184000Y-83371172D01*
X96183999Y-83371155D01*
X100584000Y-83371155D01*
X100584000Y-83769000D01*
X101584000Y-83769000D01*
X102084000Y-83769000D01*
X103084000Y-83769000D01*
X103084000Y-83371172D01*
X103083999Y-83371155D01*
X103077598Y-83311627D01*
X103077596Y-83311620D01*
X103027354Y-83176913D01*
X103027350Y-83176906D01*
X102941190Y-83061812D01*
X102941187Y-83061809D01*
X102826093Y-82975649D01*
X102826086Y-82975645D01*
X102691379Y-82925403D01*
X102691372Y-82925401D01*
X102631844Y-82919000D01*
X102084000Y-82919000D01*
X102084000Y-83769000D01*
X101584000Y-83769000D01*
X101584000Y-82919000D01*
X101036155Y-82919000D01*
X100976627Y-82925401D01*
X100976620Y-82925403D01*
X100841913Y-82975645D01*
X100841906Y-82975649D01*
X100726812Y-83061809D01*
X100726809Y-83061812D01*
X100640649Y-83176906D01*
X100640645Y-83176913D01*
X100590403Y-83311620D01*
X100590401Y-83311627D01*
X100584000Y-83371155D01*
X96183999Y-83371155D01*
X96177598Y-83311627D01*
X96177596Y-83311620D01*
X96127354Y-83176913D01*
X96127350Y-83176906D01*
X96041190Y-83061812D01*
X96041187Y-83061809D01*
X95926093Y-82975649D01*
X95926086Y-82975645D01*
X95791379Y-82925403D01*
X95791372Y-82925401D01*
X95731844Y-82919000D01*
X95184000Y-82919000D01*
X95184000Y-83769000D01*
X94684000Y-83769000D01*
X94684000Y-82919000D01*
X94136155Y-82919000D01*
X94076627Y-82925401D01*
X94076620Y-82925403D01*
X93941913Y-82975645D01*
X93941906Y-82975649D01*
X93826812Y-83061809D01*
X93826809Y-83061812D01*
X93740649Y-83176906D01*
X93740645Y-83176913D01*
X93690403Y-83311620D01*
X93690401Y-83311627D01*
X93684000Y-83371155D01*
X87132158Y-83371155D01*
X87132158Y-82517155D01*
X88730000Y-82517155D01*
X88730000Y-82940000D01*
X89480000Y-82940000D01*
X89980000Y-82940000D01*
X90730000Y-82940000D01*
X90730000Y-82517172D01*
X90729999Y-82517155D01*
X90723598Y-82457627D01*
X90723596Y-82457620D01*
X90673354Y-82322913D01*
X90673350Y-82322906D01*
X90587190Y-82207812D01*
X90587187Y-82207809D01*
X90472093Y-82121649D01*
X90472086Y-82121645D01*
X90337379Y-82071403D01*
X90337372Y-82071401D01*
X90277844Y-82065000D01*
X89980000Y-82065000D01*
X89980000Y-82940000D01*
X89480000Y-82940000D01*
X89480000Y-82065000D01*
X89182155Y-82065000D01*
X89122627Y-82071401D01*
X89122620Y-82071403D01*
X88987913Y-82121645D01*
X88987906Y-82121649D01*
X88872812Y-82207809D01*
X88872809Y-82207812D01*
X88786649Y-82322906D01*
X88786645Y-82322913D01*
X88736403Y-82457620D01*
X88736401Y-82457627D01*
X88730000Y-82517155D01*
X87132158Y-82517155D01*
X87132158Y-81857412D01*
X87151843Y-81790374D01*
X87204647Y-81744619D01*
X87256071Y-81733413D01*
X104337743Y-81721585D01*
X104404793Y-81741223D01*
G37*
%TD.AperFunction*%
%TA.AperFunction,Conductor*%
G36*
X82421081Y-117237046D02*
G01*
X82468691Y-117288183D01*
X82481808Y-117343688D01*
X82481808Y-117910034D01*
X82481809Y-117910040D01*
X82488216Y-117969647D01*
X82538510Y-118104492D01*
X82538514Y-118104499D01*
X82624760Y-118219708D01*
X82624763Y-118219711D01*
X82739972Y-118305957D01*
X82739979Y-118305961D01*
X82874825Y-118356255D01*
X82874824Y-118356255D01*
X82881752Y-118356999D01*
X82934435Y-118362664D01*
X86030180Y-118362663D01*
X86089791Y-118356255D01*
X86224639Y-118305960D01*
X86339854Y-118219710D01*
X86345360Y-118212355D01*
X86401293Y-118170483D01*
X86444628Y-118162664D01*
X86515844Y-118162664D01*
X86515845Y-118162663D01*
X86670497Y-118131901D01*
X86816179Y-118071558D01*
X86947289Y-117983953D01*
X86947292Y-117983950D01*
X86949760Y-117981483D01*
X86951371Y-117980603D01*
X86951999Y-117980088D01*
X86952096Y-117980207D01*
X87011083Y-117947998D01*
X87037441Y-117945164D01*
X87689315Y-117945164D01*
X87756354Y-117964849D01*
X87776996Y-117981483D01*
X88750681Y-118955167D01*
X88784166Y-119016490D01*
X88787000Y-119042848D01*
X88787000Y-121095622D01*
X88767315Y-121162661D01*
X88714511Y-121208416D01*
X88645353Y-121218360D01*
X88615549Y-121210184D01*
X88582132Y-121196343D01*
X88558999Y-121186761D01*
X88558995Y-121186760D01*
X88558991Y-121186759D01*
X88404347Y-121155998D01*
X88404344Y-121155998D01*
X88246660Y-121155998D01*
X88246657Y-121155998D01*
X88092012Y-121186759D01*
X88092000Y-121186762D01*
X87946329Y-121247100D01*
X87946316Y-121247107D01*
X87815213Y-121334708D01*
X87815209Y-121334711D01*
X87703715Y-121446205D01*
X87703712Y-121446209D01*
X87616111Y-121577312D01*
X87616104Y-121577325D01*
X87555766Y-121722996D01*
X87555763Y-121723008D01*
X87525002Y-121877651D01*
X87525002Y-122035344D01*
X87555763Y-122189987D01*
X87555766Y-122189999D01*
X87616104Y-122335670D01*
X87616111Y-122335683D01*
X87703712Y-122466786D01*
X87707578Y-122471497D01*
X87705727Y-122473015D01*
X87734156Y-122525030D01*
X87737000Y-122551436D01*
X87737000Y-125623247D01*
X87737000Y-125776753D01*
X87756865Y-125850891D01*
X87776730Y-125925031D01*
X87815107Y-125991500D01*
X87853484Y-126057971D01*
X87853486Y-126057973D01*
X89672489Y-127876976D01*
X89705974Y-127938299D01*
X89708808Y-127964657D01*
X89708808Y-130057034D01*
X89708809Y-130057040D01*
X89715216Y-130116647D01*
X89765510Y-130251492D01*
X89765514Y-130251499D01*
X89851760Y-130366708D01*
X89851763Y-130366711D01*
X89966972Y-130452957D01*
X89966979Y-130452961D01*
X90101825Y-130503255D01*
X90101824Y-130503255D01*
X90108752Y-130503999D01*
X90161435Y-130509664D01*
X91257180Y-130509663D01*
X91316791Y-130503255D01*
X91451639Y-130452960D01*
X91566854Y-130366710D01*
X91653104Y-130251495D01*
X91703399Y-130116647D01*
X91709808Y-130057037D01*
X91709807Y-127106999D01*
X91729492Y-127039961D01*
X91782296Y-126994206D01*
X91833807Y-126983000D01*
X92124808Y-126983000D01*
X92191847Y-127002685D01*
X92237602Y-127055489D01*
X92248808Y-127107000D01*
X92248808Y-130057034D01*
X92248809Y-130057040D01*
X92255216Y-130116647D01*
X92305510Y-130251492D01*
X92305514Y-130251499D01*
X92391760Y-130366708D01*
X92391763Y-130366711D01*
X92506972Y-130452957D01*
X92506979Y-130452961D01*
X92641825Y-130503255D01*
X92641824Y-130503255D01*
X92648752Y-130503999D01*
X92701435Y-130509664D01*
X93797180Y-130509663D01*
X93842247Y-130504818D01*
X93857652Y-130507597D01*
X93873147Y-130505370D01*
X93891330Y-130513674D01*
X93911005Y-130517224D01*
X93922462Y-130527891D01*
X93936703Y-130534395D01*
X93947511Y-130551213D01*
X93962142Y-130564835D01*
X93966519Y-130580790D01*
X93974477Y-130593173D01*
X93979500Y-130628108D01*
X93979500Y-130710725D01*
X93959815Y-130777764D01*
X93907011Y-130823519D01*
X93837853Y-130833463D01*
X93820906Y-130829802D01*
X93795202Y-130822334D01*
X93759181Y-130819500D01*
X93360830Y-130819500D01*
X93360808Y-130819501D01*
X93324794Y-130822335D01*
X93170611Y-130867129D01*
X93170606Y-130867131D01*
X93032404Y-130948863D01*
X93032400Y-130948866D01*
X93003824Y-130977443D01*
X92929748Y-131051518D01*
X92868428Y-131085002D01*
X92842069Y-131087836D01*
X89445981Y-131087836D01*
X89378942Y-131068151D01*
X89358300Y-131051517D01*
X87378964Y-129072181D01*
X87345479Y-129010858D01*
X87350463Y-128941166D01*
X87392335Y-128885233D01*
X87457799Y-128860816D01*
X87466645Y-128860500D01*
X87488844Y-128860500D01*
X87488845Y-128860499D01*
X87643497Y-128829737D01*
X87761592Y-128780821D01*
X87789172Y-128769397D01*
X87789172Y-128769396D01*
X87789179Y-128769394D01*
X87920289Y-128681789D01*
X88031789Y-128570289D01*
X88119394Y-128439179D01*
X88179737Y-128293497D01*
X88210500Y-128138842D01*
X88210500Y-127981158D01*
X88210500Y-127981155D01*
X88210499Y-127981153D01*
X88190061Y-127878407D01*
X88179737Y-127826503D01*
X88165009Y-127790946D01*
X88119397Y-127680827D01*
X88119390Y-127680814D01*
X88031789Y-127549711D01*
X88031786Y-127549707D01*
X87920292Y-127438213D01*
X87920288Y-127438210D01*
X87789185Y-127350609D01*
X87789172Y-127350602D01*
X87643501Y-127290264D01*
X87643489Y-127290261D01*
X87488845Y-127259500D01*
X87488842Y-127259500D01*
X87331158Y-127259500D01*
X87331155Y-127259500D01*
X87176510Y-127290261D01*
X87176498Y-127290264D01*
X87030827Y-127350602D01*
X87030809Y-127350612D01*
X86962973Y-127395939D01*
X86896296Y-127416817D01*
X86828916Y-127398332D01*
X86809515Y-127383525D01*
X86067292Y-126691393D01*
X86064525Y-126689318D01*
X86019324Y-126655424D01*
X86019322Y-126655423D01*
X85886403Y-126600241D01*
X85886400Y-126600240D01*
X85743314Y-126584743D01*
X85601666Y-126610182D01*
X85601664Y-126610182D01*
X85472909Y-126674506D01*
X85427574Y-126713724D01*
X85427563Y-126713735D01*
X85315077Y-126834361D01*
X85254960Y-126869966D01*
X85185137Y-126867416D01*
X85136709Y-126837474D01*
X84876819Y-126577584D01*
X84843334Y-126516261D01*
X84840500Y-126489903D01*
X84840500Y-123630945D01*
X84840500Y-123630943D01*
X84818501Y-123548842D01*
X84799577Y-123478215D01*
X84762204Y-123413484D01*
X84762204Y-123413482D01*
X84720524Y-123341290D01*
X84720521Y-123341286D01*
X84720520Y-123341284D01*
X84608716Y-123229480D01*
X84608715Y-123229479D01*
X84604385Y-123225149D01*
X84604374Y-123225139D01*
X82882112Y-121502877D01*
X84588808Y-121502877D01*
X84588808Y-121715451D01*
X84598842Y-121778808D01*
X84621022Y-121918846D01*
X84622062Y-121925407D01*
X84656801Y-122032323D01*
X84687752Y-122127578D01*
X84784259Y-122316984D01*
X84909198Y-122488950D01*
X85059521Y-122639273D01*
X85231487Y-122764212D01*
X85231489Y-122764213D01*
X85231492Y-122764215D01*
X85420896Y-122860721D01*
X85623065Y-122926410D01*
X85833021Y-122959664D01*
X85833022Y-122959664D01*
X86045594Y-122959664D01*
X86045595Y-122959664D01*
X86255551Y-122926410D01*
X86457720Y-122860721D01*
X86647124Y-122764215D01*
X86695654Y-122728956D01*
X86819094Y-122639273D01*
X86819096Y-122639270D01*
X86819100Y-122639268D01*
X86969412Y-122488956D01*
X86969414Y-122488952D01*
X86969417Y-122488950D01*
X87094356Y-122316984D01*
X87094355Y-122316984D01*
X87094359Y-122316980D01*
X87190865Y-122127576D01*
X87256554Y-121925407D01*
X87289808Y-121715451D01*
X87289808Y-121502877D01*
X87256554Y-121292921D01*
X87190865Y-121090752D01*
X87094359Y-120901348D01*
X87094357Y-120901345D01*
X87094356Y-120901343D01*
X86969417Y-120729377D01*
X86819094Y-120579054D01*
X86647128Y-120454115D01*
X86457722Y-120357608D01*
X86457721Y-120357607D01*
X86457720Y-120357607D01*
X86255551Y-120291918D01*
X86255549Y-120291917D01*
X86255548Y-120291917D01*
X86094265Y-120266372D01*
X86045595Y-120258664D01*
X85833021Y-120258664D01*
X85784350Y-120266372D01*
X85623068Y-120291917D01*
X85420893Y-120357608D01*
X85231487Y-120454115D01*
X85059521Y-120579054D01*
X84909198Y-120729377D01*
X84784259Y-120901343D01*
X84687752Y-121090749D01*
X84687751Y-121090751D01*
X84687751Y-121090752D01*
X84682310Y-121107497D01*
X84622061Y-121292924D01*
X84591860Y-121483605D01*
X84588808Y-121502877D01*
X82882112Y-121502877D01*
X80079127Y-118699892D01*
X80064423Y-118672964D01*
X80047831Y-118647146D01*
X80046939Y-118640945D01*
X80045642Y-118638569D01*
X80042808Y-118612211D01*
X80042808Y-118486663D01*
X80062493Y-118419624D01*
X80115297Y-118373869D01*
X80166808Y-118362663D01*
X80990179Y-118362663D01*
X80990180Y-118362663D01*
X81049791Y-118356255D01*
X81184639Y-118305960D01*
X81299854Y-118219710D01*
X81386104Y-118104495D01*
X81436399Y-117969647D01*
X81438252Y-117952408D01*
X81440287Y-117947494D01*
X81439782Y-117942199D01*
X81453515Y-117915559D01*
X81464988Y-117887860D01*
X81470011Y-117883558D01*
X81471797Y-117880096D01*
X81499534Y-117858282D01*
X81510694Y-117851839D01*
X81560546Y-117835824D01*
X81563832Y-117835500D01*
X81563842Y-117835500D01*
X81718497Y-117804737D01*
X81864179Y-117744394D01*
X81995289Y-117656789D01*
X82106789Y-117545289D01*
X82194394Y-117414179D01*
X82194395Y-117414176D01*
X82194397Y-117414173D01*
X82243247Y-117296236D01*
X82287087Y-117241832D01*
X82353381Y-117219767D01*
X82421081Y-117237046D01*
G37*
%TD.AperFunction*%
%TA.AperFunction,Conductor*%
G36*
X96334006Y-111179357D02*
G01*
X96334166Y-111178761D01*
X96342016Y-111180864D01*
X96342018Y-111180864D01*
X96342020Y-111180865D01*
X96452091Y-111195356D01*
X96650892Y-111195355D01*
X96750417Y-111182253D01*
X96819450Y-111193019D01*
X96871706Y-111239399D01*
X96890591Y-111306668D01*
X96889539Y-111321377D01*
X96879865Y-111394855D01*
X96879866Y-111394856D01*
X96907986Y-111394856D01*
X96911656Y-111395933D01*
X96915385Y-111395077D01*
X96944917Y-111405700D01*
X96975025Y-111414541D01*
X96978574Y-111417807D01*
X96981131Y-111418727D01*
X97006377Y-111443390D01*
X97007144Y-111444390D01*
X97032325Y-111509564D01*
X97018273Y-111578006D01*
X97007144Y-111595322D01*
X97006377Y-111596322D01*
X96985436Y-111611619D01*
X96969448Y-111627986D01*
X96960087Y-111630137D01*
X96949958Y-111637537D01*
X96907986Y-111644856D01*
X96879866Y-111644856D01*
X96890970Y-111729202D01*
X96893074Y-111737053D01*
X96889805Y-111737928D01*
X96895140Y-111792368D01*
X96892142Y-111802410D01*
X96892587Y-111802529D01*
X96890483Y-111810380D01*
X96875992Y-111920454D01*
X96875992Y-112119259D01*
X96890481Y-112229324D01*
X96892586Y-112237178D01*
X96889502Y-112238004D01*
X96895341Y-112292593D01*
X96892506Y-112302509D01*
X96893074Y-112302662D01*
X96890970Y-112310514D01*
X96879865Y-112394856D01*
X96907986Y-112394856D01*
X96911656Y-112395933D01*
X96915385Y-112395077D01*
X96944917Y-112405700D01*
X96975025Y-112414541D01*
X96978574Y-112417807D01*
X96981131Y-112418727D01*
X97006377Y-112443390D01*
X97007144Y-112444390D01*
X97032325Y-112509564D01*
X97018273Y-112578006D01*
X97007144Y-112595322D01*
X97006377Y-112596322D01*
X96985436Y-112611619D01*
X96969448Y-112627986D01*
X96960087Y-112630137D01*
X96949958Y-112637537D01*
X96907986Y-112644856D01*
X96879866Y-112644856D01*
X96890970Y-112729202D01*
X96893074Y-112737053D01*
X96889805Y-112737928D01*
X96895140Y-112792368D01*
X96892142Y-112802410D01*
X96892587Y-112802529D01*
X96890483Y-112810380D01*
X96875992Y-112920454D01*
X96875992Y-113119259D01*
X96889026Y-113218268D01*
X96878259Y-113287303D01*
X96831879Y-113339558D01*
X96764609Y-113358442D01*
X96749903Y-113357390D01*
X96650895Y-113344356D01*
X96452088Y-113344356D01*
X96342023Y-113358845D01*
X96334170Y-113360950D01*
X96333294Y-113357680D01*
X96279345Y-113363423D01*
X96268969Y-113360374D01*
X96268815Y-113360951D01*
X96260962Y-113358846D01*
X96150893Y-113344356D01*
X95952088Y-113344356D01*
X95842023Y-113358845D01*
X95834170Y-113360950D01*
X95833294Y-113357680D01*
X95779345Y-113363423D01*
X95768969Y-113360374D01*
X95768815Y-113360951D01*
X95760962Y-113358846D01*
X95650893Y-113344356D01*
X95452088Y-113344356D01*
X95342023Y-113358845D01*
X95334170Y-113360950D01*
X95333294Y-113357680D01*
X95279345Y-113363423D01*
X95268969Y-113360374D01*
X95268815Y-113360951D01*
X95260962Y-113358846D01*
X95150893Y-113344356D01*
X94952088Y-113344356D01*
X94853079Y-113357390D01*
X94784044Y-113346623D01*
X94731789Y-113300242D01*
X94712905Y-113232973D01*
X94713957Y-113218265D01*
X94726992Y-113119257D01*
X94726991Y-112920456D01*
X94712501Y-112810384D01*
X94712500Y-112810381D01*
X94710397Y-112802530D01*
X94713699Y-112801645D01*
X94707884Y-112747931D01*
X94710993Y-112737341D01*
X94710397Y-112737182D01*
X94712500Y-112729331D01*
X94712500Y-112729330D01*
X94712501Y-112729328D01*
X94726992Y-112619257D01*
X94726991Y-112420456D01*
X94726763Y-112418727D01*
X94715663Y-112334406D01*
X94712501Y-112310384D01*
X94712500Y-112310381D01*
X94710397Y-112302530D01*
X94713699Y-112301645D01*
X94707884Y-112247931D01*
X94710993Y-112237341D01*
X94710397Y-112237182D01*
X94712500Y-112229331D01*
X94712500Y-112229330D01*
X94712501Y-112229328D01*
X94726992Y-112119257D01*
X94726991Y-111920456D01*
X94712501Y-111810384D01*
X94712500Y-111810381D01*
X94710397Y-111802530D01*
X94713699Y-111801645D01*
X94707884Y-111747931D01*
X94710993Y-111737341D01*
X94710397Y-111737182D01*
X94712500Y-111729331D01*
X94712500Y-111729330D01*
X94712501Y-111729328D01*
X94726992Y-111619257D01*
X94726991Y-111420456D01*
X94726763Y-111418727D01*
X94725577Y-111409718D01*
X94713956Y-111321441D01*
X94724722Y-111252410D01*
X94771102Y-111200154D01*
X94838370Y-111181269D01*
X94853078Y-111182320D01*
X94952091Y-111195356D01*
X95150892Y-111195355D01*
X95150893Y-111195355D01*
X95168637Y-111193019D01*
X95260964Y-111180865D01*
X95260967Y-111180863D01*
X95268818Y-111178761D01*
X95269702Y-111182063D01*
X95323417Y-111176248D01*
X95334006Y-111179357D01*
X95334166Y-111178761D01*
X95342016Y-111180864D01*
X95342018Y-111180864D01*
X95342020Y-111180865D01*
X95452091Y-111195356D01*
X95650892Y-111195355D01*
X95650893Y-111195355D01*
X95668637Y-111193019D01*
X95760964Y-111180865D01*
X95760967Y-111180863D01*
X95768818Y-111178761D01*
X95769702Y-111182063D01*
X95823417Y-111176248D01*
X95834006Y-111179357D01*
X95834166Y-111178761D01*
X95842016Y-111180864D01*
X95842018Y-111180864D01*
X95842020Y-111180865D01*
X95952091Y-111195356D01*
X96150892Y-111195355D01*
X96150893Y-111195355D01*
X96168637Y-111193019D01*
X96260964Y-111180865D01*
X96260967Y-111180863D01*
X96268818Y-111178761D01*
X96269702Y-111182063D01*
X96323417Y-111176248D01*
X96334006Y-111179357D01*
G37*
%TD.AperFunction*%
%TA.AperFunction,Conductor*%
G36*
X96034531Y-108790185D02*
G01*
X96080286Y-108842989D01*
X96091492Y-108894500D01*
X96091492Y-109002836D01*
X96071807Y-109069875D01*
X96019003Y-109115630D01*
X95967492Y-109126836D01*
X95312702Y-109126836D01*
X95314346Y-109147746D01*
X95342375Y-109244224D01*
X95342175Y-109314094D01*
X95304232Y-109372763D01*
X95240593Y-109401606D01*
X95207114Y-109401757D01*
X95150895Y-109394356D01*
X94952088Y-109394356D01*
X94842021Y-109408845D01*
X94834173Y-109410949D01*
X94833348Y-109407871D01*
X94778721Y-109413698D01*
X94768847Y-109410845D01*
X94768689Y-109411438D01*
X94760838Y-109409334D01*
X94676492Y-109398229D01*
X94676492Y-109426350D01*
X94675414Y-109430020D01*
X94676271Y-109433749D01*
X94665647Y-109463281D01*
X94656807Y-109493389D01*
X94653540Y-109496938D01*
X94652621Y-109499495D01*
X94627958Y-109524741D01*
X94625958Y-109526275D01*
X94560784Y-109551456D01*
X94492342Y-109537404D01*
X94442362Y-109488579D01*
X94426492Y-109427884D01*
X94426492Y-109398229D01*
X94342151Y-109409334D01*
X94342149Y-109409334D01*
X94205316Y-109466012D01*
X94087812Y-109556176D01*
X93997648Y-109673680D01*
X93940970Y-109810513D01*
X93940970Y-109810514D01*
X93926492Y-109920478D01*
X93926492Y-110169856D01*
X93939311Y-110182675D01*
X93972796Y-110243998D01*
X93967812Y-110313690D01*
X93925940Y-110369623D01*
X93860476Y-110394040D01*
X93851630Y-110394356D01*
X93495491Y-110394356D01*
X93428452Y-110374671D01*
X93382697Y-110321867D01*
X93371491Y-110270356D01*
X93371491Y-110262211D01*
X93371490Y-110262186D01*
X93368637Y-110225925D01*
X93323522Y-110070639D01*
X93241213Y-109931461D01*
X93241206Y-109931452D01*
X93126875Y-109817121D01*
X93126866Y-109817114D01*
X92987687Y-109734804D01*
X92987683Y-109734802D01*
X92899804Y-109709271D01*
X92840919Y-109671665D01*
X92811713Y-109608192D01*
X92821459Y-109539005D01*
X92846714Y-109502520D01*
X93542416Y-108806819D01*
X93603739Y-108773334D01*
X93630097Y-108770500D01*
X95967492Y-108770500D01*
X96034531Y-108790185D01*
G37*
%TD.AperFunction*%
%TA.AperFunction,Conductor*%
G36*
X111527539Y-103199685D02*
G01*
X111573294Y-103252489D01*
X111584500Y-103304000D01*
X111584500Y-103758201D01*
X111587401Y-103795067D01*
X111587402Y-103795073D01*
X111633254Y-103952893D01*
X111633255Y-103952896D01*
X111633256Y-103952898D01*
X111667732Y-104011194D01*
X111672082Y-104027094D01*
X111679977Y-104039379D01*
X111685000Y-104074314D01*
X111685000Y-104180737D01*
X111667733Y-104243857D01*
X111625004Y-104316108D01*
X111625004Y-104316109D01*
X111579857Y-104471502D01*
X111579856Y-104471508D01*
X111577000Y-104507802D01*
X111577000Y-104618500D01*
X111574449Y-104627185D01*
X111575738Y-104636147D01*
X111564759Y-104660187D01*
X111557315Y-104685539D01*
X111550474Y-104691466D01*
X111546713Y-104699703D01*
X111524478Y-104713992D01*
X111504511Y-104731294D01*
X111493996Y-104733581D01*
X111487935Y-104737477D01*
X111453000Y-104742500D01*
X111271500Y-104742500D01*
X111204461Y-104722815D01*
X111158706Y-104670011D01*
X111147500Y-104618500D01*
X111147500Y-104137724D01*
X111164768Y-104074603D01*
X111185599Y-104039379D01*
X111236744Y-103952898D01*
X111279280Y-103806490D01*
X111282597Y-103795073D01*
X111282598Y-103795067D01*
X111285499Y-103758201D01*
X111285500Y-103758194D01*
X111285500Y-103304000D01*
X111288050Y-103295314D01*
X111286762Y-103286353D01*
X111297740Y-103262312D01*
X111305185Y-103236961D01*
X111312025Y-103231033D01*
X111315787Y-103222797D01*
X111338021Y-103208507D01*
X111357989Y-103191206D01*
X111368503Y-103188918D01*
X111374565Y-103185023D01*
X111409500Y-103180000D01*
X111460500Y-103180000D01*
X111527539Y-103199685D01*
G37*
%TD.AperFunction*%
%TD*%
M02*
