%TF.GenerationSoftware,KiCad,Pcbnew,9.0.7+1*%
%TF.CreationDate,2026-05-06T06:12:29+00:00*%
%TF.ProjectId,Nano-Board-rev-2,4e616e6f-2d42-46f6-9172-642d7265762d,rev?*%
%TF.SameCoordinates,Original*%
%TF.FileFunction,Paste,Bot*%
%TF.FilePolarity,Positive*%
%FSLAX46Y46*%
G04 Gerber Fmt 4.6, Leading zero omitted, Abs format (unit mm)*
G04 Created by KiCad (PCBNEW 9.0.7+1) date 2026-05-06 06:12:29*
%MOMM*%
%LPD*%
G01*
G04 APERTURE LIST*
G04 Aperture macros list*
%AMRoundRect*
0 Rectangle with rounded corners*
0 $1 Rounding radius*
0 $2 $3 $4 $5 $6 $7 $8 $9 X,Y pos of 4 corners*
0 Add a 4 corners polygon primitive as box body*
4,1,4,$2,$3,$4,$5,$6,$7,$8,$9,$2,$3,0*
0 Add four circle primitives for the rounded corners*
1,1,$1+$1,$2,$3*
1,1,$1+$1,$4,$5*
1,1,$1+$1,$6,$7*
1,1,$1+$1,$8,$9*
0 Add four rect primitives between the rounded corners*
20,1,$1+$1,$2,$3,$4,$5,0*
20,1,$1+$1,$4,$5,$6,$7,0*
20,1,$1+$1,$6,$7,$8,$9,0*
20,1,$1+$1,$8,$9,$2,$3,0*%
G04 Aperture macros list end*
%ADD10RoundRect,0.075000X0.662500X0.075000X-0.662500X0.075000X-0.662500X-0.075000X0.662500X-0.075000X0*%
%ADD11RoundRect,0.075000X0.075000X0.662500X-0.075000X0.662500X-0.075000X-0.662500X0.075000X-0.662500X0*%
%ADD12RoundRect,0.140000X0.170000X-0.140000X0.170000X0.140000X-0.170000X0.140000X-0.170000X-0.140000X0*%
%ADD13R,0.230000X0.470000*%
%ADD14RoundRect,0.135000X-0.035355X0.226274X-0.226274X0.035355X0.035355X-0.226274X0.226274X-0.035355X0*%
%ADD15RoundRect,0.140000X-0.021213X0.219203X-0.219203X0.021213X0.021213X-0.219203X0.219203X-0.021213X0*%
%ADD16RoundRect,0.140000X0.219203X0.021213X0.021213X0.219203X-0.219203X-0.021213X-0.021213X-0.219203X0*%
%ADD17RoundRect,0.140000X-0.170000X0.140000X-0.170000X-0.140000X0.170000X-0.140000X0.170000X0.140000X0*%
%ADD18RoundRect,0.250000X0.750000X-2.000000X0.750000X2.000000X-0.750000X2.000000X-0.750000X-2.000000X0*%
%ADD19RoundRect,0.135000X0.035355X-0.226274X0.226274X-0.035355X-0.035355X0.226274X-0.226274X0.035355X0*%
%ADD20R,1.899920X1.070100*%
%ADD21RoundRect,0.140000X0.140000X0.170000X-0.140000X0.170000X-0.140000X-0.170000X0.140000X-0.170000X0*%
%ADD22RoundRect,0.140000X-0.140000X-0.170000X0.140000X-0.170000X0.140000X0.170000X-0.140000X0.170000X0*%
G04 APERTURE END LIST*
D10*
%TO.C,U1*%
X122547500Y-108794000D03*
X122547500Y-109294000D03*
X122547500Y-109794000D03*
X122547500Y-110294000D03*
X122547500Y-110794000D03*
X122547500Y-111294000D03*
X122547500Y-111794000D03*
X122547500Y-112294000D03*
X122547500Y-112794000D03*
X122547500Y-113294000D03*
X122547500Y-113794000D03*
X122547500Y-114294000D03*
D11*
X121135000Y-115706500D03*
X120635000Y-115706500D03*
X120135000Y-115706500D03*
X119635000Y-115706500D03*
X119135000Y-115706500D03*
X118635000Y-115706500D03*
X118135000Y-115706500D03*
X117635000Y-115706500D03*
X117135000Y-115706500D03*
X116635000Y-115706500D03*
X116135000Y-115706500D03*
X115635000Y-115706500D03*
D10*
X114222500Y-114294000D03*
X114222500Y-113794000D03*
X114222500Y-113294000D03*
X114222500Y-112794000D03*
X114222500Y-112294000D03*
X114222500Y-111794000D03*
X114222500Y-111294000D03*
X114222500Y-110794000D03*
X114222500Y-110294000D03*
X114222500Y-109794000D03*
X114222500Y-109294000D03*
X114222500Y-108794000D03*
D11*
X115635000Y-107381500D03*
X116135000Y-107381500D03*
X116635000Y-107381500D03*
X117135000Y-107381500D03*
X117635000Y-107381500D03*
X118135000Y-107381500D03*
X118635000Y-107381500D03*
X119135000Y-107381500D03*
X119635000Y-107381500D03*
X120135000Y-107381500D03*
X120635000Y-107381500D03*
X121135000Y-107381500D03*
%TD*%
D12*
%TO.C,C9*%
X125426000Y-113072336D03*
X125426000Y-112112336D03*
%TD*%
D13*
%TO.C,U3*%
X199571000Y-110379500D03*
X199971000Y-110379500D03*
X200371000Y-110379500D03*
X200771000Y-110379500D03*
X201171000Y-110379500D03*
X201571000Y-110379500D03*
X201971000Y-110379500D03*
X202371000Y-110379500D03*
X202771000Y-110379500D03*
X203171000Y-110379500D03*
X203571000Y-110379500D03*
X203971000Y-110379500D03*
X203971000Y-112569500D03*
X203571000Y-112569500D03*
X203171000Y-112569500D03*
X202771000Y-112569500D03*
X202371000Y-112569500D03*
X201971000Y-112569500D03*
X201571000Y-112569500D03*
X201171000Y-112569500D03*
X200771000Y-112569500D03*
X200371000Y-112569500D03*
X199971000Y-112569500D03*
X199571000Y-112569500D03*
%TD*%
D12*
%TO.C,C6*%
X129124308Y-104783164D03*
X129124308Y-103823164D03*
%TD*%
%TO.C,C3*%
X124301000Y-108577336D03*
X124301000Y-107617336D03*
%TD*%
D14*
%TO.C,R8*%
X132200932Y-115175876D03*
X131479684Y-115897124D03*
%TD*%
D15*
%TO.C,C15*%
X130579719Y-114722089D03*
X129900897Y-115400911D03*
%TD*%
D16*
%TO.C,C21*%
X106895365Y-114310669D03*
X106216543Y-113631847D03*
%TD*%
D17*
%TO.C,C5*%
X129104308Y-101693164D03*
X129104308Y-102653164D03*
%TD*%
D18*
%TO.C,Y1*%
X133084308Y-107413164D03*
X133084308Y-98913164D03*
%TD*%
D17*
%TO.C,C2*%
X112585692Y-108174836D03*
X112585692Y-109134836D03*
%TD*%
D19*
%TO.C,R12*%
X105833752Y-116095248D03*
X106555000Y-115374000D03*
%TD*%
D12*
%TO.C,C17*%
X124326000Y-113072336D03*
X124326000Y-112112336D03*
%TD*%
D19*
%TO.C,R13*%
X104423752Y-114715248D03*
X105145000Y-113994000D03*
%TD*%
D20*
%TO.C,U6*%
X126215550Y-82524000D03*
X126215550Y-83794000D03*
X126215550Y-85064000D03*
X126215550Y-86334000D03*
X126215550Y-87604000D03*
X126215550Y-88874000D03*
X126215550Y-90144000D03*
X126215550Y-91414000D03*
X126215550Y-92684000D03*
X126215550Y-93954000D03*
X126215550Y-95224000D03*
X126215550Y-96494000D03*
X126215550Y-97764000D03*
X126215550Y-99034000D03*
X126215550Y-100304000D03*
X126215550Y-101574000D03*
X111575490Y-101574000D03*
X111575490Y-100304000D03*
X111575490Y-99034000D03*
X111575490Y-97764000D03*
X111575490Y-96494000D03*
X111575490Y-95224000D03*
X111575490Y-93954000D03*
X111575490Y-92684000D03*
X111575490Y-91414000D03*
X111575490Y-90144000D03*
X111575490Y-88874000D03*
X111575490Y-87604000D03*
X111575490Y-86334000D03*
X111575490Y-85064000D03*
X111575490Y-83794000D03*
X111575490Y-82524000D03*
%TD*%
D21*
%TO.C,C4*%
X121435692Y-105864836D03*
X120475692Y-105864836D03*
%TD*%
D14*
%TO.C,R3*%
X132075932Y-113250876D03*
X131354684Y-113972124D03*
%TD*%
D22*
%TO.C,C1*%
X115485000Y-117474000D03*
X116445000Y-117474000D03*
%TD*%
M02*
