M48
; DRILL file {KiCad 9.0.7+1} date 2026-05-05T04:21:06+0000
; FORMAT={-:-/ absolute / metric / decimal}
; #@! TF.CreationDate,2026-05-05T04:21:06+00:00
; #@! TF.GenerationSoftware,Kicad,Pcbnew,9.0.7+1
; #@! TF.FileFunction,Plated,1,2,PTH
FMAT,2
METRIC
; #@! TA.AperFunction,Plated,PTH,ViaDrill
T1C0.300
; #@! TA.AperFunction,Plated,PTH,ComponentDrill
T2C1.000
%
G90
G05
T1
X74.4Y-112.65
X76.56Y-104.29
X76.75Y-121.75
X78.519Y-120.291
X81.303Y-123.69
X81.485Y-117.035
X82.6Y-105.38
X82.95Y-120.29
X85.04Y-129.11
X85.51Y-99.69
X86.41Y-124.63
X86.437Y-117.362
X86.73Y-96.93
X86.926Y-94.38
X87.41Y-128.06
X88.326Y-121.956
X88.5Y-129.0
X88.709Y-119.271
X89.21Y-117.578
X89.211Y-123.88
X89.365Y-124.88
X89.44Y-122.902
X89.5Y-132.75
X89.863Y-101.348
X90.054Y-130.999
X90.477Y-95.679
X92.0Y-129.14
X92.295Y-121.896
X92.33Y-123.37
X92.39Y-120.58
X92.79Y-99.59
X92.95Y-120.03
X93.02Y-90.172
X93.366Y-83.45
X93.74Y-120.66
X94.092Y-115.481
X94.41Y-123.47
X94.49Y-122.5
X94.562Y-128.13
X94.829Y-124.91
X95.042Y-120.74
X95.083Y-112.903
X95.235Y-115.885
X95.29Y-106.94
X95.36Y-97.74
X95.435Y-111.904
X95.478Y-93.06
X95.811Y-96.9
X95.95Y-90.37
X96.334Y-96.172
X96.501Y-111.571
X96.539Y-120.67
X96.611Y-112.52
X96.67Y-115.53
X96.749Y-122.66
X96.749Y-124.26
X97.079Y-84.99
X97.084Y-125.095
X97.093Y-120.145
X97.18Y-104.76
X97.27Y-98.55
X97.292Y-121.99
X97.311Y-105.841
X97.365Y-129.433
X97.4Y-89.47
X97.625Y-119.55
X97.75Y-94.83
X98.037Y-109.507
X98.091Y-107.521
X98.27Y-98.58
X98.86Y-113.02
X99.16Y-116.36
X99.25Y-95.43
X99.33Y-126.94
X99.346Y-126.126
X99.44Y-83.493
X99.592Y-128.91
X99.73Y-133.27
X99.89Y-114.346
X100.16Y-95.8
X100.2Y-107.61
X100.32Y-126.197
X100.351Y-117.059
X100.55Y-110.99
X101.03Y-108.35
X101.15Y-107.0
X101.36Y-89.36
X101.829Y-127.075
X102.0Y-129.16
X103.71Y-117.19
X104.685Y-124.983
X105.092Y-105.019
X106.159Y-108.269
X106.54Y-127.47
X106.85Y-130.59
X107.232Y-97.263
X107.267Y-96.215
X108.75Y-121.25
X109.991Y-113.771
X111.117Y-98.27
X111.726Y-105.668
X112.199Y-108.449
X112.24Y-121.84
X113.07Y-124.99
X113.665Y-102.455
X114.528Y-113.64
X116.288Y-108.263
X116.35Y-117.77
X156.895Y-110.903
X160.046Y-123.46
X160.302Y-100.65
X166.234Y-94.632
X168.942Y-110.556
X169.03Y-100.792
X169.481Y-122.936
X170.665Y-90.051
X170.784Y-82.447
X171.875Y-107.582
X173.2Y-120.91
X174.546Y-132.2
X175.397Y-109.16
X175.493Y-118.496
X175.604Y-115.091
X175.886Y-100.872
X176.03Y-113.075
X176.199Y-114.121
X176.273Y-121.903
X177.105Y-113.857
X177.436Y-112.553
X177.499Y-89.956
X177.542Y-103.355
X178.215Y-100.872
X178.769Y-123.974
X180.129Y-100.872
X181.799Y-111.094
X182.376Y-99.795
X182.466Y-91.861
X183.807Y-120.658
X183.807Y-122.677
X183.945Y-124.396
X184.363Y-82.149
X184.454Y-88.925
X187.776Y-120.335
X187.977Y-94.345
X188.451Y-99.832
X189.112Y-128.622
X189.276Y-119.685
X189.738Y-123.749
X190.463Y-119.473
X191.155Y-120.552
X192.79Y-98.292
X193.08Y-118.102
X196.51Y-119.176
X197.915Y-110.555
T2
X80.466Y-99.61
X82.262Y-97.814
M30
