%TF.GenerationSoftware,KiCad,Pcbnew,9.0.7+1*%
%TF.CreationDate,2026-05-06T07:11:13+00:00*%
%TF.ProjectId,Nano-Board-rev-2,4e616e6f-2d42-46f6-9172-642d7265762d,rev?*%
%TF.SameCoordinates,Original*%
%TF.FileFunction,Soldermask,Top*%
%TF.FilePolarity,Negative*%
%FSLAX46Y46*%
G04 Gerber Fmt 4.6, Leading zero omitted, Abs format (unit mm)*
G04 Created by KiCad (PCBNEW 9.0.7+1) date 2026-05-06 07:11:13*
%MOMM*%
%LPD*%
G01*
G04 APERTURE LIST*
G04 Aperture macros list*
%AMRoundRect*
0 Rectangle with rounded corners*
0 $1 Rounding radius*
0 $2 $3 $4 $5 $6 $7 $8 $9 X,Y pos of 4 corners*
0 Add a 4 corners polygon primitive as box body*
4,1,4,$2,$3,$4,$5,$6,$7,$8,$9,$2,$3,0*
0 Add four circle primitives for the rounded corners*
1,1,$1+$1,$2,$3*
1,1,$1+$1,$4,$5*
1,1,$1+$1,$6,$7*
1,1,$1+$1,$8,$9*
0 Add four rect primitives between the rounded corners*
20,1,$1+$1,$2,$3,$4,$5,0*
20,1,$1+$1,$4,$5,$6,$7,0*
20,1,$1+$1,$6,$7,$8,$9,0*
20,1,$1+$1,$8,$9,$2,$3,0*%
%AMRotRect*
0 Rectangle, with rotation*
0 The origin of the aperture is its center*
0 $1 length*
0 $2 width*
0 $3 Rotation angle, in degrees counterclockwise*
0 Add horizontal line*
21,1,$1,$2,0,0,$3*%
G04 Aperture macros list end*
%ADD10R,1.000000X3.150000*%
%ADD11RoundRect,0.140000X-0.219203X-0.021213X-0.021213X-0.219203X0.219203X0.021213X0.021213X0.219203X0*%
%ADD12RoundRect,0.135000X0.185000X-0.135000X0.185000X0.135000X-0.185000X0.135000X-0.185000X-0.135000X0*%
%ADD13RoundRect,0.135000X-0.185000X0.135000X-0.185000X-0.135000X0.185000X-0.135000X0.185000X0.135000X0*%
%ADD14RoundRect,0.225000X-0.225000X-0.375000X0.225000X-0.375000X0.225000X0.375000X-0.225000X0.375000X0*%
%ADD15RoundRect,0.135000X-0.035355X0.226274X-0.226274X0.035355X0.035355X-0.226274X0.226274X-0.035355X0*%
%ADD16RoundRect,0.135000X-0.135000X-0.185000X0.135000X-0.185000X0.135000X0.185000X-0.135000X0.185000X0*%
%ADD17R,3.150000X1.000000*%
%ADD18RoundRect,0.200000X-0.275000X0.200000X-0.275000X-0.200000X0.275000X-0.200000X0.275000X0.200000X0*%
%ADD19R,3.000000X1.000000*%
%ADD20RoundRect,0.135000X0.035355X-0.226274X0.226274X-0.035355X-0.035355X0.226274X-0.226274X0.035355X0*%
%ADD21RoundRect,0.150000X0.150000X-0.512500X0.150000X0.512500X-0.150000X0.512500X-0.150000X-0.512500X0*%
%ADD22C,2.200000*%
%ADD23RoundRect,0.225000X0.375000X-0.225000X0.375000X0.225000X-0.375000X0.225000X-0.375000X-0.225000X0*%
%ADD24C,0.650000*%
%ADD25R,0.400000X1.300000*%
%ADD26R,1.500000X1.200000*%
%ADD27R,1.000000X1.000000*%
%ADD28C,1.000000*%
%ADD29RoundRect,0.102000X0.350000X0.800000X-0.350000X0.800000X-0.350000X-0.800000X0.350000X-0.800000X0*%
%ADD30RoundRect,0.102000X0.600000X0.900000X-0.600000X0.900000X-0.600000X-0.900000X0.600000X-0.900000X0*%
%ADD31RoundRect,0.102000X0.600000X1.100000X-0.600000X1.100000X-0.600000X-1.100000X0.600000X-1.100000X0*%
%ADD32RoundRect,0.102000X0.800000X0.750000X-0.800000X0.750000X-0.800000X-0.750000X0.800000X-0.750000X0*%
%ADD33RoundRect,0.218750X-0.218750X-0.256250X0.218750X-0.256250X0.218750X0.256250X-0.218750X0.256250X0*%
%ADD34RoundRect,0.140000X0.170000X-0.140000X0.170000X0.140000X-0.170000X0.140000X-0.170000X-0.140000X0*%
%ADD35RoundRect,0.140000X0.140000X0.170000X-0.140000X0.170000X-0.140000X-0.170000X0.140000X-0.170000X0*%
%ADD36RoundRect,0.218750X-0.256250X0.218750X-0.256250X-0.218750X0.256250X-0.218750X0.256250X0.218750X0*%
%ADD37RoundRect,0.218750X0.256250X-0.218750X0.256250X0.218750X-0.256250X0.218750X-0.256250X-0.218750X0*%
%ADD38RoundRect,0.062500X0.062500X-0.337500X0.062500X0.337500X-0.062500X0.337500X-0.062500X-0.337500X0*%
%ADD39RoundRect,0.062500X0.337500X-0.062500X0.337500X0.062500X-0.337500X0.062500X-0.337500X-0.062500X0*%
%ADD40R,2.600000X2.700000*%
%ADD41RoundRect,0.140000X-0.170000X0.140000X-0.170000X-0.140000X0.170000X-0.140000X0.170000X0.140000X0*%
%ADD42RoundRect,0.135000X0.135000X0.185000X-0.135000X0.185000X-0.135000X-0.185000X0.135000X-0.185000X0*%
%ADD43RoundRect,0.140000X-0.140000X-0.170000X0.140000X-0.170000X0.140000X0.170000X-0.140000X0.170000X0*%
%ADD44RotRect,1.700000X1.700000X315.000000*%
%ADD45C,1.700000*%
%ADD46RotRect,1.250000X1.000000X45.000000*%
%ADD47R,1.000000X1.250000*%
%ADD48RotRect,1.250000X1.000000X317.000000*%
%ADD49R,1.000000X3.000000*%
G04 APERTURE END LIST*
D10*
%TO.C,J4*%
X195475650Y-117469295D03*
X195475650Y-112419295D03*
X198015650Y-117469295D03*
X198015650Y-112419295D03*
X200555650Y-117469295D03*
X200555650Y-112419295D03*
X203095650Y-117469295D03*
X203095650Y-112419295D03*
X205635650Y-117469295D03*
X205635650Y-112419295D03*
%TD*%
D11*
%TO.C,C11*%
X107176000Y-85330000D03*
X107854822Y-86008822D03*
%TD*%
D12*
%TO.C,R4*%
X113015000Y-83444000D03*
X113015000Y-82424000D03*
%TD*%
D13*
%TO.C,R15*%
X99057328Y-99610664D03*
X99057328Y-100630664D03*
%TD*%
D14*
%TO.C,D5*%
X194954000Y-95457000D03*
X198254000Y-95457000D03*
%TD*%
D13*
%TO.C,R2*%
X138987328Y-100783164D03*
X138987328Y-101803164D03*
%TD*%
D15*
%TO.C,R9*%
X127650932Y-119050876D03*
X126929684Y-119772124D03*
%TD*%
D16*
%TO.C,R19*%
X116655000Y-121054000D03*
X117675000Y-121054000D03*
%TD*%
D17*
%TO.C,J5*%
X216970650Y-106384295D03*
X211920650Y-106384295D03*
X216970650Y-103844295D03*
X211920650Y-103844295D03*
X216970650Y-101304295D03*
X211920650Y-101304295D03*
X216970650Y-98764295D03*
X211920650Y-98764295D03*
X216970650Y-96224295D03*
X211920650Y-96224295D03*
%TD*%
D13*
%TO.C,R5*%
X121365000Y-85754000D03*
X121365000Y-86774000D03*
%TD*%
D12*
%TO.C,R17*%
X204853000Y-89209000D03*
X204853000Y-88189000D03*
%TD*%
D13*
%TO.C,R11*%
X114655000Y-101814000D03*
X114655000Y-102834000D03*
%TD*%
D18*
%TO.C,R25*%
X115985000Y-84659000D03*
X115985000Y-86309000D03*
%TD*%
D19*
%TO.C,P3*%
X102537308Y-106776164D03*
X107577308Y-106776164D03*
X102537308Y-104236164D03*
X107577308Y-104236164D03*
X102537308Y-101696164D03*
X107577308Y-101696164D03*
X102537308Y-99156164D03*
X107577308Y-99156164D03*
X102537308Y-96616164D03*
X107577308Y-96616164D03*
%TD*%
D20*
%TO.C,R14*%
X101733128Y-111245872D03*
X102454376Y-110524624D03*
%TD*%
D21*
%TO.C,U4*%
X117975308Y-83619000D03*
X118925308Y-83619000D03*
X119875308Y-83619000D03*
X119875308Y-81344000D03*
X118925308Y-81344000D03*
X117975308Y-81344000D03*
%TD*%
D22*
%TO.C,H4*%
X130164308Y-92273164D03*
%TD*%
%TO.C,H1*%
X109034308Y-111023164D03*
%TD*%
D12*
%TO.C,R20*%
X200548000Y-89231000D03*
X200548000Y-88211000D03*
%TD*%
D22*
%TO.C,H2*%
X128534308Y-111263164D03*
%TD*%
D23*
%TO.C,D6*%
X122802862Y-83661500D03*
X122802862Y-80361500D03*
%TD*%
D13*
%TO.C,R7*%
X122365000Y-85754000D03*
X122365000Y-86774000D03*
%TD*%
D24*
%TO.C,J2*%
X123479000Y-75583000D03*
X119479000Y-75583000D03*
D25*
X122779000Y-76183000D03*
X122129000Y-76183000D03*
X121479000Y-76183000D03*
X120829000Y-76183000D03*
X120179000Y-76183000D03*
D26*
X124929000Y-73433000D03*
D27*
X124629000Y-75883000D03*
X118329000Y-75883000D03*
D26*
X118029000Y-73433000D03*
%TD*%
D12*
%TO.C,R21*%
X199367000Y-89232000D03*
X199367000Y-88212000D03*
%TD*%
D28*
%TO.C,J6*%
X205519000Y-74842000D03*
X197519000Y-74842000D03*
D29*
X198319000Y-85842000D03*
X199419000Y-85842000D03*
X200519000Y-85842000D03*
X201619000Y-85842000D03*
X202719000Y-85842000D03*
X203819000Y-85842000D03*
X204919000Y-85842000D03*
X206019000Y-85842000D03*
X207119000Y-85842000D03*
D30*
X208319000Y-84542000D03*
D31*
X208319000Y-75242000D03*
D32*
X193719000Y-84792000D03*
D31*
X192819000Y-75242000D03*
%TD*%
D33*
%TO.C,D4*%
X118227500Y-122494000D03*
X119802500Y-122494000D03*
%TD*%
D22*
%TO.C,H3*%
X107674308Y-92363164D03*
%TD*%
D34*
%TO.C,C20*%
X122276492Y-101490836D03*
X122276492Y-100530836D03*
%TD*%
D35*
%TO.C,C18*%
X120146492Y-98290836D03*
X119186492Y-98290836D03*
%TD*%
D36*
%TO.C,D1*%
X128694308Y-83945664D03*
X128694308Y-85520664D03*
%TD*%
D12*
%TO.C,R22*%
X198149000Y-89225000D03*
X198149000Y-88205000D03*
%TD*%
D37*
%TO.C,D3*%
X99067328Y-103608164D03*
X99067328Y-102033164D03*
%TD*%
D17*
%TO.C,J3*%
X184203650Y-96157295D03*
X189253650Y-96157295D03*
X184203650Y-98697295D03*
X189253650Y-98697295D03*
X184203650Y-101237295D03*
X189253650Y-101237295D03*
X184203650Y-103777295D03*
X189253650Y-103777295D03*
X184203650Y-106317295D03*
X189253650Y-106317295D03*
%TD*%
D38*
%TO.C,U8*%
X117646492Y-103658856D03*
X118146492Y-103658856D03*
X118646492Y-103658856D03*
X119146492Y-103658856D03*
X119646492Y-103658856D03*
X120146492Y-103658856D03*
D39*
X120871492Y-102933856D03*
X120871492Y-102433856D03*
X120871492Y-101933856D03*
X120871492Y-101433856D03*
X120871492Y-100933856D03*
X120871492Y-100433856D03*
D38*
X120146492Y-99708856D03*
X119646492Y-99708856D03*
X119146492Y-99708856D03*
X118646492Y-99708856D03*
X118146492Y-99708856D03*
X117646492Y-99708856D03*
D39*
X116921492Y-100433856D03*
X116921492Y-100933856D03*
X116921492Y-101433856D03*
X116921492Y-101933856D03*
X116921492Y-102433856D03*
X116921492Y-102933856D03*
D40*
X118896492Y-101683856D03*
%TD*%
D41*
%TO.C,C10*%
X114075000Y-82444000D03*
X114075000Y-83404000D03*
%TD*%
D42*
%TO.C,R16*%
X120036000Y-121042336D03*
X119016000Y-121042336D03*
%TD*%
D21*
%TO.C,U5*%
X133580000Y-92594000D03*
X134530000Y-92594000D03*
X135480000Y-92594000D03*
X135480000Y-90319000D03*
X133580000Y-90319000D03*
%TD*%
D12*
%TO.C,R18*%
X202697000Y-89212000D03*
X202697000Y-88192000D03*
%TD*%
D13*
%TO.C,R10*%
X115675000Y-101814000D03*
X115675000Y-102834000D03*
%TD*%
D19*
%TO.C,P1*%
X135294308Y-96683164D03*
X130254308Y-96683164D03*
X135294308Y-99223164D03*
X130254308Y-99223164D03*
X135294308Y-101763164D03*
X130254308Y-101763164D03*
X135294308Y-104303164D03*
X130254308Y-104303164D03*
X135294308Y-106843164D03*
X130254308Y-106843164D03*
%TD*%
D35*
%TO.C,C7*%
X135452500Y-94156500D03*
X134492500Y-94156500D03*
%TD*%
D12*
%TO.C,R1*%
X128725308Y-88571499D03*
X128725308Y-87551501D03*
%TD*%
D43*
%TO.C,C8*%
X133253000Y-88574000D03*
X134213000Y-88574000D03*
%TD*%
D34*
%TO.C,C19*%
X115656492Y-100840836D03*
X115656492Y-99880836D03*
%TD*%
D44*
%TO.C,J1*%
X105356561Y-87227794D03*
D45*
X103560510Y-89023845D03*
%TD*%
D13*
%TO.C,R6*%
X120365000Y-85754000D03*
X120365000Y-86774000D03*
%TD*%
D23*
%TO.C,D7*%
X125362862Y-83664000D03*
X125362862Y-80364000D03*
%TD*%
D12*
%TO.C,R23*%
X206118000Y-89221000D03*
X206118000Y-88201000D03*
%TD*%
D46*
%TO.C,BOOT*%
X128864922Y-117524078D03*
X134345000Y-112044000D03*
%TD*%
D37*
%TO.C,D2*%
X139027328Y-104800664D03*
X139027328Y-103225664D03*
%TD*%
D47*
%TO.C,RESET*%
X112825000Y-72604000D03*
X112825000Y-80354000D03*
%TD*%
D48*
%TO.C,USER*%
X103304068Y-112010520D03*
X108972060Y-117296008D03*
%TD*%
D49*
%TO.C,P2*%
X123964308Y-117923164D03*
X123964308Y-112883164D03*
X121424308Y-117923164D03*
X121424308Y-112883164D03*
X118884308Y-117923164D03*
X118884308Y-112883164D03*
X116344308Y-117923164D03*
X116344308Y-112883164D03*
X113804308Y-117923164D03*
X113804308Y-112883164D03*
%TD*%
M02*
