%TF.GenerationSoftware,KiCad,Pcbnew,9.0.7+1*%
%TF.CreationDate,2026-05-05T09:18:05+00:00*%
%TF.ProjectId,Nano-Board-rev-2,4e616e6f-2d42-46f6-9172-642d7265762d,rev?*%
%TF.SameCoordinates,Original*%
%TF.FileFunction,Drillmap*%
%TF.FilePolarity,Positive*%
%FSLAX45Y45*%
G04 Gerber Fmt 4.5, Leading zero omitted, Abs format (unit mm)*
G04 Created by KiCad (PCBNEW 9.0.7+1) date 2026-05-05 09:18:05*
%MOMM*%
%LPD*%
G01*
G04 APERTURE LIST*
%ADD10C,0.050000*%
%ADD11C,0.200000*%
%ADD12C,0.100000*%
%ADD13C,0.220000*%
G04 APERTURE END LIST*
D10*
X8713166Y-9207087D02*
X8713166Y-8173300D01*
X16880277Y-9161174D02*
X16880311Y-8126187D01*
X18613344Y-9159004D02*
G75*
G02*
X16880277Y-9161174I-864000J-2024000D01*
G01*
X10446233Y-9204916D02*
G75*
G02*
X8713166Y-9207087I-864000J-2024000D01*
G01*
X16880311Y-8126187D02*
X18613344Y-8126187D01*
X10446233Y-9204916D02*
X10446233Y-8172100D01*
X10446233Y-8172100D02*
X8713166Y-8173300D01*
X18613344Y-8126187D02*
X18613344Y-9159004D01*
D11*
D12*
X9605900Y-8584400D02*
X9670900Y-8649400D01*
X9670900Y-8584400D02*
X9605900Y-8649400D01*
X10005900Y-8584400D02*
X10070900Y-8649400D01*
X10070900Y-8584400D02*
X10005900Y-8649400D01*
X17492400Y-8542800D02*
G75*
G02*
X17392400Y-8542800I-50000J0D01*
G01*
X17392400Y-8542800D02*
G75*
G02*
X17492400Y-8542800I50000J0D01*
G01*
X18292400Y-8542800D02*
G75*
G02*
X18192400Y-8542800I-50000J0D01*
G01*
X18192400Y-8542800D02*
G75*
G02*
X18292400Y-8542800I50000J0D01*
G01*
D13*
X8457931Y-10184916D02*
X8457931Y-10404916D01*
X8347931Y-10294916D02*
X8567931Y-10294916D01*
X8593931Y-12050916D02*
X8593931Y-12270916D01*
X8483931Y-12160916D02*
X8703931Y-12160916D01*
X10543931Y-12074916D02*
X10543931Y-12294916D01*
X10433931Y-12184916D02*
X10653931Y-12184916D01*
X10706931Y-10175916D02*
X10706931Y-10395916D01*
X10596931Y-10285916D02*
X10816931Y-10285916D01*
D11*
X7639811Y-13743598D02*
X7639811Y-13543598D01*
X7639811Y-13543598D02*
X7687430Y-13543598D01*
X7687430Y-13543598D02*
X7716002Y-13553122D01*
X7716002Y-13553122D02*
X7735050Y-13572170D01*
X7735050Y-13572170D02*
X7744573Y-13591217D01*
X7744573Y-13591217D02*
X7754097Y-13629312D01*
X7754097Y-13629312D02*
X7754097Y-13657884D01*
X7754097Y-13657884D02*
X7744573Y-13695979D01*
X7744573Y-13695979D02*
X7735050Y-13715027D01*
X7735050Y-13715027D02*
X7716002Y-13734074D01*
X7716002Y-13734074D02*
X7687430Y-13743598D01*
X7687430Y-13743598D02*
X7639811Y-13743598D01*
X7839811Y-13743598D02*
X7839811Y-13610265D01*
X7839811Y-13648360D02*
X7849335Y-13629312D01*
X7849335Y-13629312D02*
X7858859Y-13619789D01*
X7858859Y-13619789D02*
X7877907Y-13610265D01*
X7877907Y-13610265D02*
X7896954Y-13610265D01*
X7963621Y-13743598D02*
X7963621Y-13610265D01*
X7963621Y-13543598D02*
X7954097Y-13553122D01*
X7954097Y-13553122D02*
X7963621Y-13562646D01*
X7963621Y-13562646D02*
X7973145Y-13553122D01*
X7973145Y-13553122D02*
X7963621Y-13543598D01*
X7963621Y-13543598D02*
X7963621Y-13562646D01*
X8087430Y-13743598D02*
X8068383Y-13734074D01*
X8068383Y-13734074D02*
X8058859Y-13715027D01*
X8058859Y-13715027D02*
X8058859Y-13543598D01*
X8192192Y-13743598D02*
X8173145Y-13734074D01*
X8173145Y-13734074D02*
X8163621Y-13715027D01*
X8163621Y-13715027D02*
X8163621Y-13543598D01*
X8420764Y-13743598D02*
X8420764Y-13543598D01*
X8420764Y-13543598D02*
X8487431Y-13686455D01*
X8487431Y-13686455D02*
X8554097Y-13543598D01*
X8554097Y-13543598D02*
X8554097Y-13743598D01*
X8735050Y-13743598D02*
X8735050Y-13638836D01*
X8735050Y-13638836D02*
X8725526Y-13619789D01*
X8725526Y-13619789D02*
X8706478Y-13610265D01*
X8706478Y-13610265D02*
X8668383Y-13610265D01*
X8668383Y-13610265D02*
X8649335Y-13619789D01*
X8735050Y-13734074D02*
X8716002Y-13743598D01*
X8716002Y-13743598D02*
X8668383Y-13743598D01*
X8668383Y-13743598D02*
X8649335Y-13734074D01*
X8649335Y-13734074D02*
X8639812Y-13715027D01*
X8639812Y-13715027D02*
X8639812Y-13695979D01*
X8639812Y-13695979D02*
X8649335Y-13676932D01*
X8649335Y-13676932D02*
X8668383Y-13667408D01*
X8668383Y-13667408D02*
X8716002Y-13667408D01*
X8716002Y-13667408D02*
X8735050Y-13657884D01*
X8830288Y-13610265D02*
X8830288Y-13810265D01*
X8830288Y-13619789D02*
X8849335Y-13610265D01*
X8849335Y-13610265D02*
X8887431Y-13610265D01*
X8887431Y-13610265D02*
X8906478Y-13619789D01*
X8906478Y-13619789D02*
X8916002Y-13629312D01*
X8916002Y-13629312D02*
X8925526Y-13648360D01*
X8925526Y-13648360D02*
X8925526Y-13705503D01*
X8925526Y-13705503D02*
X8916002Y-13724551D01*
X8916002Y-13724551D02*
X8906478Y-13734074D01*
X8906478Y-13734074D02*
X8887431Y-13743598D01*
X8887431Y-13743598D02*
X8849335Y-13743598D01*
X8849335Y-13743598D02*
X8830288Y-13734074D01*
X9011240Y-13724551D02*
X9020764Y-13734074D01*
X9020764Y-13734074D02*
X9011240Y-13743598D01*
X9011240Y-13743598D02*
X9001716Y-13734074D01*
X9001716Y-13734074D02*
X9011240Y-13724551D01*
X9011240Y-13724551D02*
X9011240Y-13743598D01*
X9011240Y-13619789D02*
X9020764Y-13629312D01*
X9020764Y-13629312D02*
X9011240Y-13638836D01*
X9011240Y-13638836D02*
X9001716Y-13629312D01*
X9001716Y-13629312D02*
X9011240Y-13619789D01*
X9011240Y-13619789D02*
X9011240Y-13638836D01*
D12*
X7314035Y-14039614D02*
X7379035Y-14104614D01*
X7379035Y-14039614D02*
X7314035Y-14104614D01*
D11*
X7677907Y-13963598D02*
X7696954Y-13963598D01*
X7696954Y-13963598D02*
X7716002Y-13973122D01*
X7716002Y-13973122D02*
X7725526Y-13982646D01*
X7725526Y-13982646D02*
X7735050Y-14001693D01*
X7735050Y-14001693D02*
X7744573Y-14039789D01*
X7744573Y-14039789D02*
X7744573Y-14087408D01*
X7744573Y-14087408D02*
X7735050Y-14125503D01*
X7735050Y-14125503D02*
X7725526Y-14144551D01*
X7725526Y-14144551D02*
X7716002Y-14154074D01*
X7716002Y-14154074D02*
X7696954Y-14163598D01*
X7696954Y-14163598D02*
X7677907Y-14163598D01*
X7677907Y-14163598D02*
X7658859Y-14154074D01*
X7658859Y-14154074D02*
X7649335Y-14144551D01*
X7649335Y-14144551D02*
X7639811Y-14125503D01*
X7639811Y-14125503D02*
X7630288Y-14087408D01*
X7630288Y-14087408D02*
X7630288Y-14039789D01*
X7630288Y-14039789D02*
X7639811Y-14001693D01*
X7639811Y-14001693D02*
X7649335Y-13982646D01*
X7649335Y-13982646D02*
X7658859Y-13973122D01*
X7658859Y-13973122D02*
X7677907Y-13963598D01*
X7830288Y-14144551D02*
X7839811Y-14154074D01*
X7839811Y-14154074D02*
X7830288Y-14163598D01*
X7830288Y-14163598D02*
X7820764Y-14154074D01*
X7820764Y-14154074D02*
X7830288Y-14144551D01*
X7830288Y-14144551D02*
X7830288Y-14163598D01*
X8011240Y-13963598D02*
X7973145Y-13963598D01*
X7973145Y-13963598D02*
X7954097Y-13973122D01*
X7954097Y-13973122D02*
X7944573Y-13982646D01*
X7944573Y-13982646D02*
X7925526Y-14011217D01*
X7925526Y-14011217D02*
X7916002Y-14049312D01*
X7916002Y-14049312D02*
X7916002Y-14125503D01*
X7916002Y-14125503D02*
X7925526Y-14144551D01*
X7925526Y-14144551D02*
X7935050Y-14154074D01*
X7935050Y-14154074D02*
X7954097Y-14163598D01*
X7954097Y-14163598D02*
X7992192Y-14163598D01*
X7992192Y-14163598D02*
X8011240Y-14154074D01*
X8011240Y-14154074D02*
X8020764Y-14144551D01*
X8020764Y-14144551D02*
X8030288Y-14125503D01*
X8030288Y-14125503D02*
X8030288Y-14077884D01*
X8030288Y-14077884D02*
X8020764Y-14058836D01*
X8020764Y-14058836D02*
X8011240Y-14049312D01*
X8011240Y-14049312D02*
X7992192Y-14039789D01*
X7992192Y-14039789D02*
X7954097Y-14039789D01*
X7954097Y-14039789D02*
X7935050Y-14049312D01*
X7935050Y-14049312D02*
X7925526Y-14058836D01*
X7925526Y-14058836D02*
X7916002Y-14077884D01*
X8211240Y-13963598D02*
X8116002Y-13963598D01*
X8116002Y-13963598D02*
X8106478Y-14058836D01*
X8106478Y-14058836D02*
X8116002Y-14049312D01*
X8116002Y-14049312D02*
X8135050Y-14039789D01*
X8135050Y-14039789D02*
X8182669Y-14039789D01*
X8182669Y-14039789D02*
X8201716Y-14049312D01*
X8201716Y-14049312D02*
X8211240Y-14058836D01*
X8211240Y-14058836D02*
X8220764Y-14077884D01*
X8220764Y-14077884D02*
X8220764Y-14125503D01*
X8220764Y-14125503D02*
X8211240Y-14144551D01*
X8211240Y-14144551D02*
X8201716Y-14154074D01*
X8201716Y-14154074D02*
X8182669Y-14163598D01*
X8182669Y-14163598D02*
X8135050Y-14163598D01*
X8135050Y-14163598D02*
X8116002Y-14154074D01*
X8116002Y-14154074D02*
X8106478Y-14144551D01*
X8344573Y-13963598D02*
X8363621Y-13963598D01*
X8363621Y-13963598D02*
X8382669Y-13973122D01*
X8382669Y-13973122D02*
X8392193Y-13982646D01*
X8392193Y-13982646D02*
X8401716Y-14001693D01*
X8401716Y-14001693D02*
X8411240Y-14039789D01*
X8411240Y-14039789D02*
X8411240Y-14087408D01*
X8411240Y-14087408D02*
X8401716Y-14125503D01*
X8401716Y-14125503D02*
X8392193Y-14144551D01*
X8392193Y-14144551D02*
X8382669Y-14154074D01*
X8382669Y-14154074D02*
X8363621Y-14163598D01*
X8363621Y-14163598D02*
X8344573Y-14163598D01*
X8344573Y-14163598D02*
X8325526Y-14154074D01*
X8325526Y-14154074D02*
X8316002Y-14144551D01*
X8316002Y-14144551D02*
X8306478Y-14125503D01*
X8306478Y-14125503D02*
X8296954Y-14087408D01*
X8296954Y-14087408D02*
X8296954Y-14039789D01*
X8296954Y-14039789D02*
X8306478Y-14001693D01*
X8306478Y-14001693D02*
X8316002Y-13982646D01*
X8316002Y-13982646D02*
X8325526Y-13973122D01*
X8325526Y-13973122D02*
X8344573Y-13963598D01*
X8496954Y-14163598D02*
X8496954Y-14030265D01*
X8496954Y-14049312D02*
X8506478Y-14039789D01*
X8506478Y-14039789D02*
X8525526Y-14030265D01*
X8525526Y-14030265D02*
X8554097Y-14030265D01*
X8554097Y-14030265D02*
X8573145Y-14039789D01*
X8573145Y-14039789D02*
X8582669Y-14058836D01*
X8582669Y-14058836D02*
X8582669Y-14163598D01*
X8582669Y-14058836D02*
X8592193Y-14039789D01*
X8592193Y-14039789D02*
X8611240Y-14030265D01*
X8611240Y-14030265D02*
X8639812Y-14030265D01*
X8639812Y-14030265D02*
X8658859Y-14039789D01*
X8658859Y-14039789D02*
X8668383Y-14058836D01*
X8668383Y-14058836D02*
X8668383Y-14163598D01*
X8763621Y-14163598D02*
X8763621Y-14030265D01*
X8763621Y-14049312D02*
X8773145Y-14039789D01*
X8773145Y-14039789D02*
X8792193Y-14030265D01*
X8792193Y-14030265D02*
X8820764Y-14030265D01*
X8820764Y-14030265D02*
X8839812Y-14039789D01*
X8839812Y-14039789D02*
X8849335Y-14058836D01*
X8849335Y-14058836D02*
X8849335Y-14163598D01*
X8849335Y-14058836D02*
X8858859Y-14039789D01*
X8858859Y-14039789D02*
X8877907Y-14030265D01*
X8877907Y-14030265D02*
X8906478Y-14030265D01*
X8906478Y-14030265D02*
X8925526Y-14039789D01*
X8925526Y-14039789D02*
X8935050Y-14058836D01*
X8935050Y-14058836D02*
X8935050Y-14163598D01*
X9325526Y-13954074D02*
X9154097Y-14211217D01*
X9582669Y-13963598D02*
X9601717Y-13963598D01*
X9601717Y-13963598D02*
X9620764Y-13973122D01*
X9620764Y-13973122D02*
X9630288Y-13982646D01*
X9630288Y-13982646D02*
X9639812Y-14001693D01*
X9639812Y-14001693D02*
X9649336Y-14039789D01*
X9649336Y-14039789D02*
X9649336Y-14087408D01*
X9649336Y-14087408D02*
X9639812Y-14125503D01*
X9639812Y-14125503D02*
X9630288Y-14144551D01*
X9630288Y-14144551D02*
X9620764Y-14154074D01*
X9620764Y-14154074D02*
X9601717Y-14163598D01*
X9601717Y-14163598D02*
X9582669Y-14163598D01*
X9582669Y-14163598D02*
X9563621Y-14154074D01*
X9563621Y-14154074D02*
X9554097Y-14144551D01*
X9554097Y-14144551D02*
X9544574Y-14125503D01*
X9544574Y-14125503D02*
X9535050Y-14087408D01*
X9535050Y-14087408D02*
X9535050Y-14039789D01*
X9535050Y-14039789D02*
X9544574Y-14001693D01*
X9544574Y-14001693D02*
X9554097Y-13982646D01*
X9554097Y-13982646D02*
X9563621Y-13973122D01*
X9563621Y-13973122D02*
X9582669Y-13963598D01*
X9735050Y-14144551D02*
X9744574Y-14154074D01*
X9744574Y-14154074D02*
X9735050Y-14163598D01*
X9735050Y-14163598D02*
X9725526Y-14154074D01*
X9725526Y-14154074D02*
X9735050Y-14144551D01*
X9735050Y-14144551D02*
X9735050Y-14163598D01*
X9868383Y-13963598D02*
X9887431Y-13963598D01*
X9887431Y-13963598D02*
X9906478Y-13973122D01*
X9906478Y-13973122D02*
X9916002Y-13982646D01*
X9916002Y-13982646D02*
X9925526Y-14001693D01*
X9925526Y-14001693D02*
X9935050Y-14039789D01*
X9935050Y-14039789D02*
X9935050Y-14087408D01*
X9935050Y-14087408D02*
X9925526Y-14125503D01*
X9925526Y-14125503D02*
X9916002Y-14144551D01*
X9916002Y-14144551D02*
X9906478Y-14154074D01*
X9906478Y-14154074D02*
X9887431Y-14163598D01*
X9887431Y-14163598D02*
X9868383Y-14163598D01*
X9868383Y-14163598D02*
X9849336Y-14154074D01*
X9849336Y-14154074D02*
X9839812Y-14144551D01*
X9839812Y-14144551D02*
X9830288Y-14125503D01*
X9830288Y-14125503D02*
X9820764Y-14087408D01*
X9820764Y-14087408D02*
X9820764Y-14039789D01*
X9820764Y-14039789D02*
X9830288Y-14001693D01*
X9830288Y-14001693D02*
X9839812Y-13982646D01*
X9839812Y-13982646D02*
X9849336Y-13973122D01*
X9849336Y-13973122D02*
X9868383Y-13963598D01*
X10011240Y-13982646D02*
X10020764Y-13973122D01*
X10020764Y-13973122D02*
X10039812Y-13963598D01*
X10039812Y-13963598D02*
X10087431Y-13963598D01*
X10087431Y-13963598D02*
X10106478Y-13973122D01*
X10106478Y-13973122D02*
X10116002Y-13982646D01*
X10116002Y-13982646D02*
X10125526Y-14001693D01*
X10125526Y-14001693D02*
X10125526Y-14020741D01*
X10125526Y-14020741D02*
X10116002Y-14049312D01*
X10116002Y-14049312D02*
X10001717Y-14163598D01*
X10001717Y-14163598D02*
X10125526Y-14163598D01*
X10306478Y-13963598D02*
X10211240Y-13963598D01*
X10211240Y-13963598D02*
X10201717Y-14058836D01*
X10201717Y-14058836D02*
X10211240Y-14049312D01*
X10211240Y-14049312D02*
X10230288Y-14039789D01*
X10230288Y-14039789D02*
X10277907Y-14039789D01*
X10277907Y-14039789D02*
X10296955Y-14049312D01*
X10296955Y-14049312D02*
X10306478Y-14058836D01*
X10306478Y-14058836D02*
X10316002Y-14077884D01*
X10316002Y-14077884D02*
X10316002Y-14125503D01*
X10316002Y-14125503D02*
X10306478Y-14144551D01*
X10306478Y-14144551D02*
X10296955Y-14154074D01*
X10296955Y-14154074D02*
X10277907Y-14163598D01*
X10277907Y-14163598D02*
X10230288Y-14163598D01*
X10230288Y-14163598D02*
X10211240Y-14154074D01*
X10211240Y-14154074D02*
X10201717Y-14144551D01*
X10487431Y-13963598D02*
X10449336Y-13963598D01*
X10449336Y-13963598D02*
X10430288Y-13973122D01*
X10430288Y-13973122D02*
X10420764Y-13982646D01*
X10420764Y-13982646D02*
X10401717Y-14011217D01*
X10401717Y-14011217D02*
X10392193Y-14049312D01*
X10392193Y-14049312D02*
X10392193Y-14125503D01*
X10392193Y-14125503D02*
X10401717Y-14144551D01*
X10401717Y-14144551D02*
X10411240Y-14154074D01*
X10411240Y-14154074D02*
X10430288Y-14163598D01*
X10430288Y-14163598D02*
X10468383Y-14163598D01*
X10468383Y-14163598D02*
X10487431Y-14154074D01*
X10487431Y-14154074D02*
X10496955Y-14144551D01*
X10496955Y-14144551D02*
X10506478Y-14125503D01*
X10506478Y-14125503D02*
X10506478Y-14077884D01*
X10506478Y-14077884D02*
X10496955Y-14058836D01*
X10496955Y-14058836D02*
X10487431Y-14049312D01*
X10487431Y-14049312D02*
X10468383Y-14039789D01*
X10468383Y-14039789D02*
X10430288Y-14039789D01*
X10430288Y-14039789D02*
X10411240Y-14049312D01*
X10411240Y-14049312D02*
X10401717Y-14058836D01*
X10401717Y-14058836D02*
X10392193Y-14077884D01*
X10582669Y-13963598D02*
X10582669Y-14001693D01*
X10658859Y-13963598D02*
X10658859Y-14001693D01*
X10954098Y-14239789D02*
X10944574Y-14230265D01*
X10944574Y-14230265D02*
X10925526Y-14201693D01*
X10925526Y-14201693D02*
X10916002Y-14182646D01*
X10916002Y-14182646D02*
X10906479Y-14154074D01*
X10906479Y-14154074D02*
X10896955Y-14106455D01*
X10896955Y-14106455D02*
X10896955Y-14068360D01*
X10896955Y-14068360D02*
X10906479Y-14020741D01*
X10906479Y-14020741D02*
X10916002Y-13992170D01*
X10916002Y-13992170D02*
X10925526Y-13973122D01*
X10925526Y-13973122D02*
X10944574Y-13944551D01*
X10944574Y-13944551D02*
X10954098Y-13935027D01*
X11020764Y-13982646D02*
X11030288Y-13973122D01*
X11030288Y-13973122D02*
X11049336Y-13963598D01*
X11049336Y-13963598D02*
X11096955Y-13963598D01*
X11096955Y-13963598D02*
X11116002Y-13973122D01*
X11116002Y-13973122D02*
X11125526Y-13982646D01*
X11125526Y-13982646D02*
X11135050Y-14001693D01*
X11135050Y-14001693D02*
X11135050Y-14020741D01*
X11135050Y-14020741D02*
X11125526Y-14049312D01*
X11125526Y-14049312D02*
X11011240Y-14163598D01*
X11011240Y-14163598D02*
X11135050Y-14163598D01*
X11373145Y-14163598D02*
X11373145Y-13963598D01*
X11458859Y-14163598D02*
X11458859Y-14058836D01*
X11458859Y-14058836D02*
X11449336Y-14039789D01*
X11449336Y-14039789D02*
X11430288Y-14030265D01*
X11430288Y-14030265D02*
X11401717Y-14030265D01*
X11401717Y-14030265D02*
X11382669Y-14039789D01*
X11382669Y-14039789D02*
X11373145Y-14049312D01*
X11582669Y-14163598D02*
X11563621Y-14154074D01*
X11563621Y-14154074D02*
X11554098Y-14144551D01*
X11554098Y-14144551D02*
X11544574Y-14125503D01*
X11544574Y-14125503D02*
X11544574Y-14068360D01*
X11544574Y-14068360D02*
X11554098Y-14049312D01*
X11554098Y-14049312D02*
X11563621Y-14039789D01*
X11563621Y-14039789D02*
X11582669Y-14030265D01*
X11582669Y-14030265D02*
X11611240Y-14030265D01*
X11611240Y-14030265D02*
X11630288Y-14039789D01*
X11630288Y-14039789D02*
X11639812Y-14049312D01*
X11639812Y-14049312D02*
X11649336Y-14068360D01*
X11649336Y-14068360D02*
X11649336Y-14125503D01*
X11649336Y-14125503D02*
X11639812Y-14144551D01*
X11639812Y-14144551D02*
X11630288Y-14154074D01*
X11630288Y-14154074D02*
X11611240Y-14163598D01*
X11611240Y-14163598D02*
X11582669Y-14163598D01*
X11763621Y-14163598D02*
X11744574Y-14154074D01*
X11744574Y-14154074D02*
X11735050Y-14135027D01*
X11735050Y-14135027D02*
X11735050Y-13963598D01*
X11916002Y-14154074D02*
X11896955Y-14163598D01*
X11896955Y-14163598D02*
X11858859Y-14163598D01*
X11858859Y-14163598D02*
X11839812Y-14154074D01*
X11839812Y-14154074D02*
X11830288Y-14135027D01*
X11830288Y-14135027D02*
X11830288Y-14058836D01*
X11830288Y-14058836D02*
X11839812Y-14039789D01*
X11839812Y-14039789D02*
X11858859Y-14030265D01*
X11858859Y-14030265D02*
X11896955Y-14030265D01*
X11896955Y-14030265D02*
X11916002Y-14039789D01*
X11916002Y-14039789D02*
X11925526Y-14058836D01*
X11925526Y-14058836D02*
X11925526Y-14077884D01*
X11925526Y-14077884D02*
X11830288Y-14096932D01*
X12001717Y-14154074D02*
X12020764Y-14163598D01*
X12020764Y-14163598D02*
X12058859Y-14163598D01*
X12058859Y-14163598D02*
X12077907Y-14154074D01*
X12077907Y-14154074D02*
X12087431Y-14135027D01*
X12087431Y-14135027D02*
X12087431Y-14125503D01*
X12087431Y-14125503D02*
X12077907Y-14106455D01*
X12077907Y-14106455D02*
X12058859Y-14096932D01*
X12058859Y-14096932D02*
X12030288Y-14096932D01*
X12030288Y-14096932D02*
X12011240Y-14087408D01*
X12011240Y-14087408D02*
X12001717Y-14068360D01*
X12001717Y-14068360D02*
X12001717Y-14058836D01*
X12001717Y-14058836D02*
X12011240Y-14039789D01*
X12011240Y-14039789D02*
X12030288Y-14030265D01*
X12030288Y-14030265D02*
X12058859Y-14030265D01*
X12058859Y-14030265D02*
X12077907Y-14039789D01*
X12154098Y-14239789D02*
X12163621Y-14230265D01*
X12163621Y-14230265D02*
X12182669Y-14201693D01*
X12182669Y-14201693D02*
X12192193Y-14182646D01*
X12192193Y-14182646D02*
X12201717Y-14154074D01*
X12201717Y-14154074D02*
X12211240Y-14106455D01*
X12211240Y-14106455D02*
X12211240Y-14068360D01*
X12211240Y-14068360D02*
X12201717Y-14020741D01*
X12201717Y-14020741D02*
X12192193Y-13992170D01*
X12192193Y-13992170D02*
X12182669Y-13973122D01*
X12182669Y-13973122D02*
X12163621Y-13944551D01*
X12163621Y-13944551D02*
X12154098Y-13935027D01*
X12516002Y-14239789D02*
X12506479Y-14230265D01*
X12506479Y-14230265D02*
X12487431Y-14201693D01*
X12487431Y-14201693D02*
X12477907Y-14182646D01*
X12477907Y-14182646D02*
X12468383Y-14154074D01*
X12468383Y-14154074D02*
X12458860Y-14106455D01*
X12458860Y-14106455D02*
X12458860Y-14068360D01*
X12458860Y-14068360D02*
X12468383Y-14020741D01*
X12468383Y-14020741D02*
X12477907Y-13992170D01*
X12477907Y-13992170D02*
X12487431Y-13973122D01*
X12487431Y-13973122D02*
X12506479Y-13944551D01*
X12506479Y-13944551D02*
X12516002Y-13935027D01*
X12592193Y-14030265D02*
X12592193Y-14163598D01*
X12592193Y-14049312D02*
X12601717Y-14039789D01*
X12601717Y-14039789D02*
X12620764Y-14030265D01*
X12620764Y-14030265D02*
X12649336Y-14030265D01*
X12649336Y-14030265D02*
X12668383Y-14039789D01*
X12668383Y-14039789D02*
X12677907Y-14058836D01*
X12677907Y-14058836D02*
X12677907Y-14163598D01*
X12801717Y-14163598D02*
X12782669Y-14154074D01*
X12782669Y-14154074D02*
X12773145Y-14144551D01*
X12773145Y-14144551D02*
X12763621Y-14125503D01*
X12763621Y-14125503D02*
X12763621Y-14068360D01*
X12763621Y-14068360D02*
X12773145Y-14049312D01*
X12773145Y-14049312D02*
X12782669Y-14039789D01*
X12782669Y-14039789D02*
X12801717Y-14030265D01*
X12801717Y-14030265D02*
X12830288Y-14030265D01*
X12830288Y-14030265D02*
X12849336Y-14039789D01*
X12849336Y-14039789D02*
X12858860Y-14049312D01*
X12858860Y-14049312D02*
X12868383Y-14068360D01*
X12868383Y-14068360D02*
X12868383Y-14125503D01*
X12868383Y-14125503D02*
X12858860Y-14144551D01*
X12858860Y-14144551D02*
X12849336Y-14154074D01*
X12849336Y-14154074D02*
X12830288Y-14163598D01*
X12830288Y-14163598D02*
X12801717Y-14163598D01*
X12925526Y-14030265D02*
X13001717Y-14030265D01*
X12954098Y-13963598D02*
X12954098Y-14135027D01*
X12954098Y-14135027D02*
X12963621Y-14154074D01*
X12963621Y-14154074D02*
X12982669Y-14163598D01*
X12982669Y-14163598D02*
X13001717Y-14163598D01*
X13220764Y-14030265D02*
X13220764Y-14230265D01*
X13220764Y-14039789D02*
X13239812Y-14030265D01*
X13239812Y-14030265D02*
X13277907Y-14030265D01*
X13277907Y-14030265D02*
X13296955Y-14039789D01*
X13296955Y-14039789D02*
X13306479Y-14049312D01*
X13306479Y-14049312D02*
X13316002Y-14068360D01*
X13316002Y-14068360D02*
X13316002Y-14125503D01*
X13316002Y-14125503D02*
X13306479Y-14144551D01*
X13306479Y-14144551D02*
X13296955Y-14154074D01*
X13296955Y-14154074D02*
X13277907Y-14163598D01*
X13277907Y-14163598D02*
X13239812Y-14163598D01*
X13239812Y-14163598D02*
X13220764Y-14154074D01*
X13430288Y-14163598D02*
X13411241Y-14154074D01*
X13411241Y-14154074D02*
X13401717Y-14135027D01*
X13401717Y-14135027D02*
X13401717Y-13963598D01*
X13592193Y-14163598D02*
X13592193Y-14058836D01*
X13592193Y-14058836D02*
X13582669Y-14039789D01*
X13582669Y-14039789D02*
X13563622Y-14030265D01*
X13563622Y-14030265D02*
X13525526Y-14030265D01*
X13525526Y-14030265D02*
X13506479Y-14039789D01*
X13592193Y-14154074D02*
X13573145Y-14163598D01*
X13573145Y-14163598D02*
X13525526Y-14163598D01*
X13525526Y-14163598D02*
X13506479Y-14154074D01*
X13506479Y-14154074D02*
X13496955Y-14135027D01*
X13496955Y-14135027D02*
X13496955Y-14115979D01*
X13496955Y-14115979D02*
X13506479Y-14096932D01*
X13506479Y-14096932D02*
X13525526Y-14087408D01*
X13525526Y-14087408D02*
X13573145Y-14087408D01*
X13573145Y-14087408D02*
X13592193Y-14077884D01*
X13658860Y-14030265D02*
X13735050Y-14030265D01*
X13687431Y-13963598D02*
X13687431Y-14135027D01*
X13687431Y-14135027D02*
X13696955Y-14154074D01*
X13696955Y-14154074D02*
X13716002Y-14163598D01*
X13716002Y-14163598D02*
X13735050Y-14163598D01*
X13877907Y-14154074D02*
X13858860Y-14163598D01*
X13858860Y-14163598D02*
X13820764Y-14163598D01*
X13820764Y-14163598D02*
X13801717Y-14154074D01*
X13801717Y-14154074D02*
X13792193Y-14135027D01*
X13792193Y-14135027D02*
X13792193Y-14058836D01*
X13792193Y-14058836D02*
X13801717Y-14039789D01*
X13801717Y-14039789D02*
X13820764Y-14030265D01*
X13820764Y-14030265D02*
X13858860Y-14030265D01*
X13858860Y-14030265D02*
X13877907Y-14039789D01*
X13877907Y-14039789D02*
X13887431Y-14058836D01*
X13887431Y-14058836D02*
X13887431Y-14077884D01*
X13887431Y-14077884D02*
X13792193Y-14096932D01*
X14058860Y-14163598D02*
X14058860Y-13963598D01*
X14058860Y-14154074D02*
X14039812Y-14163598D01*
X14039812Y-14163598D02*
X14001717Y-14163598D01*
X14001717Y-14163598D02*
X13982669Y-14154074D01*
X13982669Y-14154074D02*
X13973145Y-14144551D01*
X13973145Y-14144551D02*
X13963622Y-14125503D01*
X13963622Y-14125503D02*
X13963622Y-14068360D01*
X13963622Y-14068360D02*
X13973145Y-14049312D01*
X13973145Y-14049312D02*
X13982669Y-14039789D01*
X13982669Y-14039789D02*
X14001717Y-14030265D01*
X14001717Y-14030265D02*
X14039812Y-14030265D01*
X14039812Y-14030265D02*
X14058860Y-14039789D01*
X14135050Y-14239789D02*
X14144574Y-14230265D01*
X14144574Y-14230265D02*
X14163622Y-14201693D01*
X14163622Y-14201693D02*
X14173145Y-14182646D01*
X14173145Y-14182646D02*
X14182669Y-14154074D01*
X14182669Y-14154074D02*
X14192193Y-14106455D01*
X14192193Y-14106455D02*
X14192193Y-14068360D01*
X14192193Y-14068360D02*
X14182669Y-14020741D01*
X14182669Y-14020741D02*
X14173145Y-13992170D01*
X14173145Y-13992170D02*
X14163622Y-13973122D01*
X14163622Y-13973122D02*
X14144574Y-13944551D01*
X14144574Y-13944551D02*
X14135050Y-13935027D01*
D12*
X7379035Y-14336114D02*
G75*
G02*
X7279035Y-14336114I-50000J0D01*
G01*
X7279035Y-14336114D02*
G75*
G02*
X7379035Y-14336114I50000J0D01*
G01*
D11*
X7744573Y-14427598D02*
X7630288Y-14427598D01*
X7687430Y-14427598D02*
X7687430Y-14227598D01*
X7687430Y-14227598D02*
X7668383Y-14256170D01*
X7668383Y-14256170D02*
X7649335Y-14275217D01*
X7649335Y-14275217D02*
X7630288Y-14284741D01*
X7830288Y-14408551D02*
X7839811Y-14418074D01*
X7839811Y-14418074D02*
X7830288Y-14427598D01*
X7830288Y-14427598D02*
X7820764Y-14418074D01*
X7820764Y-14418074D02*
X7830288Y-14408551D01*
X7830288Y-14408551D02*
X7830288Y-14427598D01*
X7963621Y-14227598D02*
X7982669Y-14227598D01*
X7982669Y-14227598D02*
X8001716Y-14237122D01*
X8001716Y-14237122D02*
X8011240Y-14246646D01*
X8011240Y-14246646D02*
X8020764Y-14265693D01*
X8020764Y-14265693D02*
X8030288Y-14303789D01*
X8030288Y-14303789D02*
X8030288Y-14351408D01*
X8030288Y-14351408D02*
X8020764Y-14389503D01*
X8020764Y-14389503D02*
X8011240Y-14408551D01*
X8011240Y-14408551D02*
X8001716Y-14418074D01*
X8001716Y-14418074D02*
X7982669Y-14427598D01*
X7982669Y-14427598D02*
X7963621Y-14427598D01*
X7963621Y-14427598D02*
X7944573Y-14418074D01*
X7944573Y-14418074D02*
X7935050Y-14408551D01*
X7935050Y-14408551D02*
X7925526Y-14389503D01*
X7925526Y-14389503D02*
X7916002Y-14351408D01*
X7916002Y-14351408D02*
X7916002Y-14303789D01*
X7916002Y-14303789D02*
X7925526Y-14265693D01*
X7925526Y-14265693D02*
X7935050Y-14246646D01*
X7935050Y-14246646D02*
X7944573Y-14237122D01*
X7944573Y-14237122D02*
X7963621Y-14227598D01*
X8154097Y-14227598D02*
X8173145Y-14227598D01*
X8173145Y-14227598D02*
X8192192Y-14237122D01*
X8192192Y-14237122D02*
X8201716Y-14246646D01*
X8201716Y-14246646D02*
X8211240Y-14265693D01*
X8211240Y-14265693D02*
X8220764Y-14303789D01*
X8220764Y-14303789D02*
X8220764Y-14351408D01*
X8220764Y-14351408D02*
X8211240Y-14389503D01*
X8211240Y-14389503D02*
X8201716Y-14408551D01*
X8201716Y-14408551D02*
X8192192Y-14418074D01*
X8192192Y-14418074D02*
X8173145Y-14427598D01*
X8173145Y-14427598D02*
X8154097Y-14427598D01*
X8154097Y-14427598D02*
X8135050Y-14418074D01*
X8135050Y-14418074D02*
X8125526Y-14408551D01*
X8125526Y-14408551D02*
X8116002Y-14389503D01*
X8116002Y-14389503D02*
X8106478Y-14351408D01*
X8106478Y-14351408D02*
X8106478Y-14303789D01*
X8106478Y-14303789D02*
X8116002Y-14265693D01*
X8116002Y-14265693D02*
X8125526Y-14246646D01*
X8125526Y-14246646D02*
X8135050Y-14237122D01*
X8135050Y-14237122D02*
X8154097Y-14227598D01*
X8344573Y-14227598D02*
X8363621Y-14227598D01*
X8363621Y-14227598D02*
X8382669Y-14237122D01*
X8382669Y-14237122D02*
X8392193Y-14246646D01*
X8392193Y-14246646D02*
X8401716Y-14265693D01*
X8401716Y-14265693D02*
X8411240Y-14303789D01*
X8411240Y-14303789D02*
X8411240Y-14351408D01*
X8411240Y-14351408D02*
X8401716Y-14389503D01*
X8401716Y-14389503D02*
X8392193Y-14408551D01*
X8392193Y-14408551D02*
X8382669Y-14418074D01*
X8382669Y-14418074D02*
X8363621Y-14427598D01*
X8363621Y-14427598D02*
X8344573Y-14427598D01*
X8344573Y-14427598D02*
X8325526Y-14418074D01*
X8325526Y-14418074D02*
X8316002Y-14408551D01*
X8316002Y-14408551D02*
X8306478Y-14389503D01*
X8306478Y-14389503D02*
X8296954Y-14351408D01*
X8296954Y-14351408D02*
X8296954Y-14303789D01*
X8296954Y-14303789D02*
X8306478Y-14265693D01*
X8306478Y-14265693D02*
X8316002Y-14246646D01*
X8316002Y-14246646D02*
X8325526Y-14237122D01*
X8325526Y-14237122D02*
X8344573Y-14227598D01*
X8496954Y-14427598D02*
X8496954Y-14294265D01*
X8496954Y-14313312D02*
X8506478Y-14303789D01*
X8506478Y-14303789D02*
X8525526Y-14294265D01*
X8525526Y-14294265D02*
X8554097Y-14294265D01*
X8554097Y-14294265D02*
X8573145Y-14303789D01*
X8573145Y-14303789D02*
X8582669Y-14322836D01*
X8582669Y-14322836D02*
X8582669Y-14427598D01*
X8582669Y-14322836D02*
X8592193Y-14303789D01*
X8592193Y-14303789D02*
X8611240Y-14294265D01*
X8611240Y-14294265D02*
X8639812Y-14294265D01*
X8639812Y-14294265D02*
X8658859Y-14303789D01*
X8658859Y-14303789D02*
X8668383Y-14322836D01*
X8668383Y-14322836D02*
X8668383Y-14427598D01*
X8763621Y-14427598D02*
X8763621Y-14294265D01*
X8763621Y-14313312D02*
X8773145Y-14303789D01*
X8773145Y-14303789D02*
X8792193Y-14294265D01*
X8792193Y-14294265D02*
X8820764Y-14294265D01*
X8820764Y-14294265D02*
X8839812Y-14303789D01*
X8839812Y-14303789D02*
X8849335Y-14322836D01*
X8849335Y-14322836D02*
X8849335Y-14427598D01*
X8849335Y-14322836D02*
X8858859Y-14303789D01*
X8858859Y-14303789D02*
X8877907Y-14294265D01*
X8877907Y-14294265D02*
X8906478Y-14294265D01*
X8906478Y-14294265D02*
X8925526Y-14303789D01*
X8925526Y-14303789D02*
X8935050Y-14322836D01*
X8935050Y-14322836D02*
X8935050Y-14427598D01*
X9325526Y-14218074D02*
X9154097Y-14475217D01*
X9582669Y-14227598D02*
X9601717Y-14227598D01*
X9601717Y-14227598D02*
X9620764Y-14237122D01*
X9620764Y-14237122D02*
X9630288Y-14246646D01*
X9630288Y-14246646D02*
X9639812Y-14265693D01*
X9639812Y-14265693D02*
X9649336Y-14303789D01*
X9649336Y-14303789D02*
X9649336Y-14351408D01*
X9649336Y-14351408D02*
X9639812Y-14389503D01*
X9639812Y-14389503D02*
X9630288Y-14408551D01*
X9630288Y-14408551D02*
X9620764Y-14418074D01*
X9620764Y-14418074D02*
X9601717Y-14427598D01*
X9601717Y-14427598D02*
X9582669Y-14427598D01*
X9582669Y-14427598D02*
X9563621Y-14418074D01*
X9563621Y-14418074D02*
X9554097Y-14408551D01*
X9554097Y-14408551D02*
X9544574Y-14389503D01*
X9544574Y-14389503D02*
X9535050Y-14351408D01*
X9535050Y-14351408D02*
X9535050Y-14303789D01*
X9535050Y-14303789D02*
X9544574Y-14265693D01*
X9544574Y-14265693D02*
X9554097Y-14246646D01*
X9554097Y-14246646D02*
X9563621Y-14237122D01*
X9563621Y-14237122D02*
X9582669Y-14227598D01*
X9735050Y-14408551D02*
X9744574Y-14418074D01*
X9744574Y-14418074D02*
X9735050Y-14427598D01*
X9735050Y-14427598D02*
X9725526Y-14418074D01*
X9725526Y-14418074D02*
X9735050Y-14408551D01*
X9735050Y-14408551D02*
X9735050Y-14427598D01*
X9868383Y-14227598D02*
X9887431Y-14227598D01*
X9887431Y-14227598D02*
X9906478Y-14237122D01*
X9906478Y-14237122D02*
X9916002Y-14246646D01*
X9916002Y-14246646D02*
X9925526Y-14265693D01*
X9925526Y-14265693D02*
X9935050Y-14303789D01*
X9935050Y-14303789D02*
X9935050Y-14351408D01*
X9935050Y-14351408D02*
X9925526Y-14389503D01*
X9925526Y-14389503D02*
X9916002Y-14408551D01*
X9916002Y-14408551D02*
X9906478Y-14418074D01*
X9906478Y-14418074D02*
X9887431Y-14427598D01*
X9887431Y-14427598D02*
X9868383Y-14427598D01*
X9868383Y-14427598D02*
X9849336Y-14418074D01*
X9849336Y-14418074D02*
X9839812Y-14408551D01*
X9839812Y-14408551D02*
X9830288Y-14389503D01*
X9830288Y-14389503D02*
X9820764Y-14351408D01*
X9820764Y-14351408D02*
X9820764Y-14303789D01*
X9820764Y-14303789D02*
X9830288Y-14265693D01*
X9830288Y-14265693D02*
X9839812Y-14246646D01*
X9839812Y-14246646D02*
X9849336Y-14237122D01*
X9849336Y-14237122D02*
X9868383Y-14227598D01*
X10001717Y-14227598D02*
X10125526Y-14227598D01*
X10125526Y-14227598D02*
X10058859Y-14303789D01*
X10058859Y-14303789D02*
X10087431Y-14303789D01*
X10087431Y-14303789D02*
X10106478Y-14313312D01*
X10106478Y-14313312D02*
X10116002Y-14322836D01*
X10116002Y-14322836D02*
X10125526Y-14341884D01*
X10125526Y-14341884D02*
X10125526Y-14389503D01*
X10125526Y-14389503D02*
X10116002Y-14408551D01*
X10116002Y-14408551D02*
X10106478Y-14418074D01*
X10106478Y-14418074D02*
X10087431Y-14427598D01*
X10087431Y-14427598D02*
X10030288Y-14427598D01*
X10030288Y-14427598D02*
X10011240Y-14418074D01*
X10011240Y-14418074D02*
X10001717Y-14408551D01*
X10220764Y-14427598D02*
X10258859Y-14427598D01*
X10258859Y-14427598D02*
X10277907Y-14418074D01*
X10277907Y-14418074D02*
X10287431Y-14408551D01*
X10287431Y-14408551D02*
X10306478Y-14379979D01*
X10306478Y-14379979D02*
X10316002Y-14341884D01*
X10316002Y-14341884D02*
X10316002Y-14265693D01*
X10316002Y-14265693D02*
X10306478Y-14246646D01*
X10306478Y-14246646D02*
X10296955Y-14237122D01*
X10296955Y-14237122D02*
X10277907Y-14227598D01*
X10277907Y-14227598D02*
X10239812Y-14227598D01*
X10239812Y-14227598D02*
X10220764Y-14237122D01*
X10220764Y-14237122D02*
X10211240Y-14246646D01*
X10211240Y-14246646D02*
X10201717Y-14265693D01*
X10201717Y-14265693D02*
X10201717Y-14313312D01*
X10201717Y-14313312D02*
X10211240Y-14332360D01*
X10211240Y-14332360D02*
X10220764Y-14341884D01*
X10220764Y-14341884D02*
X10239812Y-14351408D01*
X10239812Y-14351408D02*
X10277907Y-14351408D01*
X10277907Y-14351408D02*
X10296955Y-14341884D01*
X10296955Y-14341884D02*
X10306478Y-14332360D01*
X10306478Y-14332360D02*
X10316002Y-14313312D01*
X10487431Y-14294265D02*
X10487431Y-14427598D01*
X10439812Y-14218074D02*
X10392193Y-14360932D01*
X10392193Y-14360932D02*
X10516002Y-14360932D01*
X10582669Y-14227598D02*
X10582669Y-14265693D01*
X10658859Y-14227598D02*
X10658859Y-14265693D01*
X10954098Y-14503789D02*
X10944574Y-14494265D01*
X10944574Y-14494265D02*
X10925526Y-14465693D01*
X10925526Y-14465693D02*
X10916002Y-14446646D01*
X10916002Y-14446646D02*
X10906479Y-14418074D01*
X10906479Y-14418074D02*
X10896955Y-14370455D01*
X10896955Y-14370455D02*
X10896955Y-14332360D01*
X10896955Y-14332360D02*
X10906479Y-14284741D01*
X10906479Y-14284741D02*
X10916002Y-14256170D01*
X10916002Y-14256170D02*
X10925526Y-14237122D01*
X10925526Y-14237122D02*
X10944574Y-14208551D01*
X10944574Y-14208551D02*
X10954098Y-14199027D01*
X11020764Y-14246646D02*
X11030288Y-14237122D01*
X11030288Y-14237122D02*
X11049336Y-14227598D01*
X11049336Y-14227598D02*
X11096955Y-14227598D01*
X11096955Y-14227598D02*
X11116002Y-14237122D01*
X11116002Y-14237122D02*
X11125526Y-14246646D01*
X11125526Y-14246646D02*
X11135050Y-14265693D01*
X11135050Y-14265693D02*
X11135050Y-14284741D01*
X11135050Y-14284741D02*
X11125526Y-14313312D01*
X11125526Y-14313312D02*
X11011240Y-14427598D01*
X11011240Y-14427598D02*
X11135050Y-14427598D01*
X11373145Y-14427598D02*
X11373145Y-14227598D01*
X11458859Y-14427598D02*
X11458859Y-14322836D01*
X11458859Y-14322836D02*
X11449336Y-14303789D01*
X11449336Y-14303789D02*
X11430288Y-14294265D01*
X11430288Y-14294265D02*
X11401717Y-14294265D01*
X11401717Y-14294265D02*
X11382669Y-14303789D01*
X11382669Y-14303789D02*
X11373145Y-14313312D01*
X11582669Y-14427598D02*
X11563621Y-14418074D01*
X11563621Y-14418074D02*
X11554098Y-14408551D01*
X11554098Y-14408551D02*
X11544574Y-14389503D01*
X11544574Y-14389503D02*
X11544574Y-14332360D01*
X11544574Y-14332360D02*
X11554098Y-14313312D01*
X11554098Y-14313312D02*
X11563621Y-14303789D01*
X11563621Y-14303789D02*
X11582669Y-14294265D01*
X11582669Y-14294265D02*
X11611240Y-14294265D01*
X11611240Y-14294265D02*
X11630288Y-14303789D01*
X11630288Y-14303789D02*
X11639812Y-14313312D01*
X11639812Y-14313312D02*
X11649336Y-14332360D01*
X11649336Y-14332360D02*
X11649336Y-14389503D01*
X11649336Y-14389503D02*
X11639812Y-14408551D01*
X11639812Y-14408551D02*
X11630288Y-14418074D01*
X11630288Y-14418074D02*
X11611240Y-14427598D01*
X11611240Y-14427598D02*
X11582669Y-14427598D01*
X11763621Y-14427598D02*
X11744574Y-14418074D01*
X11744574Y-14418074D02*
X11735050Y-14399027D01*
X11735050Y-14399027D02*
X11735050Y-14227598D01*
X11916002Y-14418074D02*
X11896955Y-14427598D01*
X11896955Y-14427598D02*
X11858859Y-14427598D01*
X11858859Y-14427598D02*
X11839812Y-14418074D01*
X11839812Y-14418074D02*
X11830288Y-14399027D01*
X11830288Y-14399027D02*
X11830288Y-14322836D01*
X11830288Y-14322836D02*
X11839812Y-14303789D01*
X11839812Y-14303789D02*
X11858859Y-14294265D01*
X11858859Y-14294265D02*
X11896955Y-14294265D01*
X11896955Y-14294265D02*
X11916002Y-14303789D01*
X11916002Y-14303789D02*
X11925526Y-14322836D01*
X11925526Y-14322836D02*
X11925526Y-14341884D01*
X11925526Y-14341884D02*
X11830288Y-14360932D01*
X12001717Y-14418074D02*
X12020764Y-14427598D01*
X12020764Y-14427598D02*
X12058859Y-14427598D01*
X12058859Y-14427598D02*
X12077907Y-14418074D01*
X12077907Y-14418074D02*
X12087431Y-14399027D01*
X12087431Y-14399027D02*
X12087431Y-14389503D01*
X12087431Y-14389503D02*
X12077907Y-14370455D01*
X12077907Y-14370455D02*
X12058859Y-14360932D01*
X12058859Y-14360932D02*
X12030288Y-14360932D01*
X12030288Y-14360932D02*
X12011240Y-14351408D01*
X12011240Y-14351408D02*
X12001717Y-14332360D01*
X12001717Y-14332360D02*
X12001717Y-14322836D01*
X12001717Y-14322836D02*
X12011240Y-14303789D01*
X12011240Y-14303789D02*
X12030288Y-14294265D01*
X12030288Y-14294265D02*
X12058859Y-14294265D01*
X12058859Y-14294265D02*
X12077907Y-14303789D01*
X12154098Y-14503789D02*
X12163621Y-14494265D01*
X12163621Y-14494265D02*
X12182669Y-14465693D01*
X12182669Y-14465693D02*
X12192193Y-14446646D01*
X12192193Y-14446646D02*
X12201717Y-14418074D01*
X12201717Y-14418074D02*
X12211240Y-14370455D01*
X12211240Y-14370455D02*
X12211240Y-14332360D01*
X12211240Y-14332360D02*
X12201717Y-14284741D01*
X12201717Y-14284741D02*
X12192193Y-14256170D01*
X12192193Y-14256170D02*
X12182669Y-14237122D01*
X12182669Y-14237122D02*
X12163621Y-14208551D01*
X12163621Y-14208551D02*
X12154098Y-14199027D01*
X12516002Y-14503789D02*
X12506479Y-14494265D01*
X12506479Y-14494265D02*
X12487431Y-14465693D01*
X12487431Y-14465693D02*
X12477907Y-14446646D01*
X12477907Y-14446646D02*
X12468383Y-14418074D01*
X12468383Y-14418074D02*
X12458860Y-14370455D01*
X12458860Y-14370455D02*
X12458860Y-14332360D01*
X12458860Y-14332360D02*
X12468383Y-14284741D01*
X12468383Y-14284741D02*
X12477907Y-14256170D01*
X12477907Y-14256170D02*
X12487431Y-14237122D01*
X12487431Y-14237122D02*
X12506479Y-14208551D01*
X12506479Y-14208551D02*
X12516002Y-14199027D01*
X12592193Y-14294265D02*
X12592193Y-14427598D01*
X12592193Y-14313312D02*
X12601717Y-14303789D01*
X12601717Y-14303789D02*
X12620764Y-14294265D01*
X12620764Y-14294265D02*
X12649336Y-14294265D01*
X12649336Y-14294265D02*
X12668383Y-14303789D01*
X12668383Y-14303789D02*
X12677907Y-14322836D01*
X12677907Y-14322836D02*
X12677907Y-14427598D01*
X12801717Y-14427598D02*
X12782669Y-14418074D01*
X12782669Y-14418074D02*
X12773145Y-14408551D01*
X12773145Y-14408551D02*
X12763621Y-14389503D01*
X12763621Y-14389503D02*
X12763621Y-14332360D01*
X12763621Y-14332360D02*
X12773145Y-14313312D01*
X12773145Y-14313312D02*
X12782669Y-14303789D01*
X12782669Y-14303789D02*
X12801717Y-14294265D01*
X12801717Y-14294265D02*
X12830288Y-14294265D01*
X12830288Y-14294265D02*
X12849336Y-14303789D01*
X12849336Y-14303789D02*
X12858860Y-14313312D01*
X12858860Y-14313312D02*
X12868383Y-14332360D01*
X12868383Y-14332360D02*
X12868383Y-14389503D01*
X12868383Y-14389503D02*
X12858860Y-14408551D01*
X12858860Y-14408551D02*
X12849336Y-14418074D01*
X12849336Y-14418074D02*
X12830288Y-14427598D01*
X12830288Y-14427598D02*
X12801717Y-14427598D01*
X12925526Y-14294265D02*
X13001717Y-14294265D01*
X12954098Y-14227598D02*
X12954098Y-14399027D01*
X12954098Y-14399027D02*
X12963621Y-14418074D01*
X12963621Y-14418074D02*
X12982669Y-14427598D01*
X12982669Y-14427598D02*
X13001717Y-14427598D01*
X13220764Y-14294265D02*
X13220764Y-14494265D01*
X13220764Y-14303789D02*
X13239812Y-14294265D01*
X13239812Y-14294265D02*
X13277907Y-14294265D01*
X13277907Y-14294265D02*
X13296955Y-14303789D01*
X13296955Y-14303789D02*
X13306479Y-14313312D01*
X13306479Y-14313312D02*
X13316002Y-14332360D01*
X13316002Y-14332360D02*
X13316002Y-14389503D01*
X13316002Y-14389503D02*
X13306479Y-14408551D01*
X13306479Y-14408551D02*
X13296955Y-14418074D01*
X13296955Y-14418074D02*
X13277907Y-14427598D01*
X13277907Y-14427598D02*
X13239812Y-14427598D01*
X13239812Y-14427598D02*
X13220764Y-14418074D01*
X13430288Y-14427598D02*
X13411241Y-14418074D01*
X13411241Y-14418074D02*
X13401717Y-14399027D01*
X13401717Y-14399027D02*
X13401717Y-14227598D01*
X13592193Y-14427598D02*
X13592193Y-14322836D01*
X13592193Y-14322836D02*
X13582669Y-14303789D01*
X13582669Y-14303789D02*
X13563622Y-14294265D01*
X13563622Y-14294265D02*
X13525526Y-14294265D01*
X13525526Y-14294265D02*
X13506479Y-14303789D01*
X13592193Y-14418074D02*
X13573145Y-14427598D01*
X13573145Y-14427598D02*
X13525526Y-14427598D01*
X13525526Y-14427598D02*
X13506479Y-14418074D01*
X13506479Y-14418074D02*
X13496955Y-14399027D01*
X13496955Y-14399027D02*
X13496955Y-14379979D01*
X13496955Y-14379979D02*
X13506479Y-14360932D01*
X13506479Y-14360932D02*
X13525526Y-14351408D01*
X13525526Y-14351408D02*
X13573145Y-14351408D01*
X13573145Y-14351408D02*
X13592193Y-14341884D01*
X13658860Y-14294265D02*
X13735050Y-14294265D01*
X13687431Y-14227598D02*
X13687431Y-14399027D01*
X13687431Y-14399027D02*
X13696955Y-14418074D01*
X13696955Y-14418074D02*
X13716002Y-14427598D01*
X13716002Y-14427598D02*
X13735050Y-14427598D01*
X13877907Y-14418074D02*
X13858860Y-14427598D01*
X13858860Y-14427598D02*
X13820764Y-14427598D01*
X13820764Y-14427598D02*
X13801717Y-14418074D01*
X13801717Y-14418074D02*
X13792193Y-14399027D01*
X13792193Y-14399027D02*
X13792193Y-14322836D01*
X13792193Y-14322836D02*
X13801717Y-14303789D01*
X13801717Y-14303789D02*
X13820764Y-14294265D01*
X13820764Y-14294265D02*
X13858860Y-14294265D01*
X13858860Y-14294265D02*
X13877907Y-14303789D01*
X13877907Y-14303789D02*
X13887431Y-14322836D01*
X13887431Y-14322836D02*
X13887431Y-14341884D01*
X13887431Y-14341884D02*
X13792193Y-14360932D01*
X14058860Y-14427598D02*
X14058860Y-14227598D01*
X14058860Y-14418074D02*
X14039812Y-14427598D01*
X14039812Y-14427598D02*
X14001717Y-14427598D01*
X14001717Y-14427598D02*
X13982669Y-14418074D01*
X13982669Y-14418074D02*
X13973145Y-14408551D01*
X13973145Y-14408551D02*
X13963622Y-14389503D01*
X13963622Y-14389503D02*
X13963622Y-14332360D01*
X13963622Y-14332360D02*
X13973145Y-14313312D01*
X13973145Y-14313312D02*
X13982669Y-14303789D01*
X13982669Y-14303789D02*
X14001717Y-14294265D01*
X14001717Y-14294265D02*
X14039812Y-14294265D01*
X14039812Y-14294265D02*
X14058860Y-14303789D01*
X14135050Y-14503789D02*
X14144574Y-14494265D01*
X14144574Y-14494265D02*
X14163622Y-14465693D01*
X14163622Y-14465693D02*
X14173145Y-14446646D01*
X14173145Y-14446646D02*
X14182669Y-14418074D01*
X14182669Y-14418074D02*
X14192193Y-14370455D01*
X14192193Y-14370455D02*
X14192193Y-14332360D01*
X14192193Y-14332360D02*
X14182669Y-14284741D01*
X14182669Y-14284741D02*
X14173145Y-14256170D01*
X14173145Y-14256170D02*
X14163622Y-14237122D01*
X14163622Y-14237122D02*
X14144574Y-14208551D01*
X14144574Y-14208551D02*
X14135050Y-14199027D01*
X7279035Y-14500114D02*
X7279035Y-14700114D01*
X7179035Y-14600114D02*
X7379035Y-14600114D01*
X7630288Y-14510646D02*
X7639811Y-14501122D01*
X7639811Y-14501122D02*
X7658859Y-14491598D01*
X7658859Y-14491598D02*
X7706478Y-14491598D01*
X7706478Y-14491598D02*
X7725526Y-14501122D01*
X7725526Y-14501122D02*
X7735050Y-14510646D01*
X7735050Y-14510646D02*
X7744573Y-14529693D01*
X7744573Y-14529693D02*
X7744573Y-14548741D01*
X7744573Y-14548741D02*
X7735050Y-14577312D01*
X7735050Y-14577312D02*
X7620764Y-14691598D01*
X7620764Y-14691598D02*
X7744573Y-14691598D01*
X7830288Y-14672551D02*
X7839811Y-14682074D01*
X7839811Y-14682074D02*
X7830288Y-14691598D01*
X7830288Y-14691598D02*
X7820764Y-14682074D01*
X7820764Y-14682074D02*
X7830288Y-14672551D01*
X7830288Y-14672551D02*
X7830288Y-14691598D01*
X7916002Y-14510646D02*
X7925526Y-14501122D01*
X7925526Y-14501122D02*
X7944573Y-14491598D01*
X7944573Y-14491598D02*
X7992192Y-14491598D01*
X7992192Y-14491598D02*
X8011240Y-14501122D01*
X8011240Y-14501122D02*
X8020764Y-14510646D01*
X8020764Y-14510646D02*
X8030288Y-14529693D01*
X8030288Y-14529693D02*
X8030288Y-14548741D01*
X8030288Y-14548741D02*
X8020764Y-14577312D01*
X8020764Y-14577312D02*
X7906478Y-14691598D01*
X7906478Y-14691598D02*
X8030288Y-14691598D01*
X8154097Y-14491598D02*
X8173145Y-14491598D01*
X8173145Y-14491598D02*
X8192192Y-14501122D01*
X8192192Y-14501122D02*
X8201716Y-14510646D01*
X8201716Y-14510646D02*
X8211240Y-14529693D01*
X8211240Y-14529693D02*
X8220764Y-14567789D01*
X8220764Y-14567789D02*
X8220764Y-14615408D01*
X8220764Y-14615408D02*
X8211240Y-14653503D01*
X8211240Y-14653503D02*
X8201716Y-14672551D01*
X8201716Y-14672551D02*
X8192192Y-14682074D01*
X8192192Y-14682074D02*
X8173145Y-14691598D01*
X8173145Y-14691598D02*
X8154097Y-14691598D01*
X8154097Y-14691598D02*
X8135050Y-14682074D01*
X8135050Y-14682074D02*
X8125526Y-14672551D01*
X8125526Y-14672551D02*
X8116002Y-14653503D01*
X8116002Y-14653503D02*
X8106478Y-14615408D01*
X8106478Y-14615408D02*
X8106478Y-14567789D01*
X8106478Y-14567789D02*
X8116002Y-14529693D01*
X8116002Y-14529693D02*
X8125526Y-14510646D01*
X8125526Y-14510646D02*
X8135050Y-14501122D01*
X8135050Y-14501122D02*
X8154097Y-14491598D01*
X8344573Y-14491598D02*
X8363621Y-14491598D01*
X8363621Y-14491598D02*
X8382669Y-14501122D01*
X8382669Y-14501122D02*
X8392193Y-14510646D01*
X8392193Y-14510646D02*
X8401716Y-14529693D01*
X8401716Y-14529693D02*
X8411240Y-14567789D01*
X8411240Y-14567789D02*
X8411240Y-14615408D01*
X8411240Y-14615408D02*
X8401716Y-14653503D01*
X8401716Y-14653503D02*
X8392193Y-14672551D01*
X8392193Y-14672551D02*
X8382669Y-14682074D01*
X8382669Y-14682074D02*
X8363621Y-14691598D01*
X8363621Y-14691598D02*
X8344573Y-14691598D01*
X8344573Y-14691598D02*
X8325526Y-14682074D01*
X8325526Y-14682074D02*
X8316002Y-14672551D01*
X8316002Y-14672551D02*
X8306478Y-14653503D01*
X8306478Y-14653503D02*
X8296954Y-14615408D01*
X8296954Y-14615408D02*
X8296954Y-14567789D01*
X8296954Y-14567789D02*
X8306478Y-14529693D01*
X8306478Y-14529693D02*
X8316002Y-14510646D01*
X8316002Y-14510646D02*
X8325526Y-14501122D01*
X8325526Y-14501122D02*
X8344573Y-14491598D01*
X8496954Y-14691598D02*
X8496954Y-14558265D01*
X8496954Y-14577312D02*
X8506478Y-14567789D01*
X8506478Y-14567789D02*
X8525526Y-14558265D01*
X8525526Y-14558265D02*
X8554097Y-14558265D01*
X8554097Y-14558265D02*
X8573145Y-14567789D01*
X8573145Y-14567789D02*
X8582669Y-14586836D01*
X8582669Y-14586836D02*
X8582669Y-14691598D01*
X8582669Y-14586836D02*
X8592193Y-14567789D01*
X8592193Y-14567789D02*
X8611240Y-14558265D01*
X8611240Y-14558265D02*
X8639812Y-14558265D01*
X8639812Y-14558265D02*
X8658859Y-14567789D01*
X8658859Y-14567789D02*
X8668383Y-14586836D01*
X8668383Y-14586836D02*
X8668383Y-14691598D01*
X8763621Y-14691598D02*
X8763621Y-14558265D01*
X8763621Y-14577312D02*
X8773145Y-14567789D01*
X8773145Y-14567789D02*
X8792193Y-14558265D01*
X8792193Y-14558265D02*
X8820764Y-14558265D01*
X8820764Y-14558265D02*
X8839812Y-14567789D01*
X8839812Y-14567789D02*
X8849335Y-14586836D01*
X8849335Y-14586836D02*
X8849335Y-14691598D01*
X8849335Y-14586836D02*
X8858859Y-14567789D01*
X8858859Y-14567789D02*
X8877907Y-14558265D01*
X8877907Y-14558265D02*
X8906478Y-14558265D01*
X8906478Y-14558265D02*
X8925526Y-14567789D01*
X8925526Y-14567789D02*
X8935050Y-14586836D01*
X8935050Y-14586836D02*
X8935050Y-14691598D01*
X9325526Y-14482074D02*
X9154097Y-14739217D01*
X9582669Y-14491598D02*
X9601717Y-14491598D01*
X9601717Y-14491598D02*
X9620764Y-14501122D01*
X9620764Y-14501122D02*
X9630288Y-14510646D01*
X9630288Y-14510646D02*
X9639812Y-14529693D01*
X9639812Y-14529693D02*
X9649336Y-14567789D01*
X9649336Y-14567789D02*
X9649336Y-14615408D01*
X9649336Y-14615408D02*
X9639812Y-14653503D01*
X9639812Y-14653503D02*
X9630288Y-14672551D01*
X9630288Y-14672551D02*
X9620764Y-14682074D01*
X9620764Y-14682074D02*
X9601717Y-14691598D01*
X9601717Y-14691598D02*
X9582669Y-14691598D01*
X9582669Y-14691598D02*
X9563621Y-14682074D01*
X9563621Y-14682074D02*
X9554097Y-14672551D01*
X9554097Y-14672551D02*
X9544574Y-14653503D01*
X9544574Y-14653503D02*
X9535050Y-14615408D01*
X9535050Y-14615408D02*
X9535050Y-14567789D01*
X9535050Y-14567789D02*
X9544574Y-14529693D01*
X9544574Y-14529693D02*
X9554097Y-14510646D01*
X9554097Y-14510646D02*
X9563621Y-14501122D01*
X9563621Y-14501122D02*
X9582669Y-14491598D01*
X9735050Y-14672551D02*
X9744574Y-14682074D01*
X9744574Y-14682074D02*
X9735050Y-14691598D01*
X9735050Y-14691598D02*
X9725526Y-14682074D01*
X9725526Y-14682074D02*
X9735050Y-14672551D01*
X9735050Y-14672551D02*
X9735050Y-14691598D01*
X9868383Y-14491598D02*
X9887431Y-14491598D01*
X9887431Y-14491598D02*
X9906478Y-14501122D01*
X9906478Y-14501122D02*
X9916002Y-14510646D01*
X9916002Y-14510646D02*
X9925526Y-14529693D01*
X9925526Y-14529693D02*
X9935050Y-14567789D01*
X9935050Y-14567789D02*
X9935050Y-14615408D01*
X9935050Y-14615408D02*
X9925526Y-14653503D01*
X9925526Y-14653503D02*
X9916002Y-14672551D01*
X9916002Y-14672551D02*
X9906478Y-14682074D01*
X9906478Y-14682074D02*
X9887431Y-14691598D01*
X9887431Y-14691598D02*
X9868383Y-14691598D01*
X9868383Y-14691598D02*
X9849336Y-14682074D01*
X9849336Y-14682074D02*
X9839812Y-14672551D01*
X9839812Y-14672551D02*
X9830288Y-14653503D01*
X9830288Y-14653503D02*
X9820764Y-14615408D01*
X9820764Y-14615408D02*
X9820764Y-14567789D01*
X9820764Y-14567789D02*
X9830288Y-14529693D01*
X9830288Y-14529693D02*
X9839812Y-14510646D01*
X9839812Y-14510646D02*
X9849336Y-14501122D01*
X9849336Y-14501122D02*
X9868383Y-14491598D01*
X10049336Y-14577312D02*
X10030288Y-14567789D01*
X10030288Y-14567789D02*
X10020764Y-14558265D01*
X10020764Y-14558265D02*
X10011240Y-14539217D01*
X10011240Y-14539217D02*
X10011240Y-14529693D01*
X10011240Y-14529693D02*
X10020764Y-14510646D01*
X10020764Y-14510646D02*
X10030288Y-14501122D01*
X10030288Y-14501122D02*
X10049336Y-14491598D01*
X10049336Y-14491598D02*
X10087431Y-14491598D01*
X10087431Y-14491598D02*
X10106478Y-14501122D01*
X10106478Y-14501122D02*
X10116002Y-14510646D01*
X10116002Y-14510646D02*
X10125526Y-14529693D01*
X10125526Y-14529693D02*
X10125526Y-14539217D01*
X10125526Y-14539217D02*
X10116002Y-14558265D01*
X10116002Y-14558265D02*
X10106478Y-14567789D01*
X10106478Y-14567789D02*
X10087431Y-14577312D01*
X10087431Y-14577312D02*
X10049336Y-14577312D01*
X10049336Y-14577312D02*
X10030288Y-14586836D01*
X10030288Y-14586836D02*
X10020764Y-14596360D01*
X10020764Y-14596360D02*
X10011240Y-14615408D01*
X10011240Y-14615408D02*
X10011240Y-14653503D01*
X10011240Y-14653503D02*
X10020764Y-14672551D01*
X10020764Y-14672551D02*
X10030288Y-14682074D01*
X10030288Y-14682074D02*
X10049336Y-14691598D01*
X10049336Y-14691598D02*
X10087431Y-14691598D01*
X10087431Y-14691598D02*
X10106478Y-14682074D01*
X10106478Y-14682074D02*
X10116002Y-14672551D01*
X10116002Y-14672551D02*
X10125526Y-14653503D01*
X10125526Y-14653503D02*
X10125526Y-14615408D01*
X10125526Y-14615408D02*
X10116002Y-14596360D01*
X10116002Y-14596360D02*
X10106478Y-14586836D01*
X10106478Y-14586836D02*
X10087431Y-14577312D01*
X10296955Y-14491598D02*
X10258859Y-14491598D01*
X10258859Y-14491598D02*
X10239812Y-14501122D01*
X10239812Y-14501122D02*
X10230288Y-14510646D01*
X10230288Y-14510646D02*
X10211240Y-14539217D01*
X10211240Y-14539217D02*
X10201717Y-14577312D01*
X10201717Y-14577312D02*
X10201717Y-14653503D01*
X10201717Y-14653503D02*
X10211240Y-14672551D01*
X10211240Y-14672551D02*
X10220764Y-14682074D01*
X10220764Y-14682074D02*
X10239812Y-14691598D01*
X10239812Y-14691598D02*
X10277907Y-14691598D01*
X10277907Y-14691598D02*
X10296955Y-14682074D01*
X10296955Y-14682074D02*
X10306478Y-14672551D01*
X10306478Y-14672551D02*
X10316002Y-14653503D01*
X10316002Y-14653503D02*
X10316002Y-14605884D01*
X10316002Y-14605884D02*
X10306478Y-14586836D01*
X10306478Y-14586836D02*
X10296955Y-14577312D01*
X10296955Y-14577312D02*
X10277907Y-14567789D01*
X10277907Y-14567789D02*
X10239812Y-14567789D01*
X10239812Y-14567789D02*
X10220764Y-14577312D01*
X10220764Y-14577312D02*
X10211240Y-14586836D01*
X10211240Y-14586836D02*
X10201717Y-14605884D01*
X10487431Y-14491598D02*
X10449336Y-14491598D01*
X10449336Y-14491598D02*
X10430288Y-14501122D01*
X10430288Y-14501122D02*
X10420764Y-14510646D01*
X10420764Y-14510646D02*
X10401717Y-14539217D01*
X10401717Y-14539217D02*
X10392193Y-14577312D01*
X10392193Y-14577312D02*
X10392193Y-14653503D01*
X10392193Y-14653503D02*
X10401717Y-14672551D01*
X10401717Y-14672551D02*
X10411240Y-14682074D01*
X10411240Y-14682074D02*
X10430288Y-14691598D01*
X10430288Y-14691598D02*
X10468383Y-14691598D01*
X10468383Y-14691598D02*
X10487431Y-14682074D01*
X10487431Y-14682074D02*
X10496955Y-14672551D01*
X10496955Y-14672551D02*
X10506478Y-14653503D01*
X10506478Y-14653503D02*
X10506478Y-14605884D01*
X10506478Y-14605884D02*
X10496955Y-14586836D01*
X10496955Y-14586836D02*
X10487431Y-14577312D01*
X10487431Y-14577312D02*
X10468383Y-14567789D01*
X10468383Y-14567789D02*
X10430288Y-14567789D01*
X10430288Y-14567789D02*
X10411240Y-14577312D01*
X10411240Y-14577312D02*
X10401717Y-14586836D01*
X10401717Y-14586836D02*
X10392193Y-14605884D01*
X10582669Y-14491598D02*
X10582669Y-14529693D01*
X10658859Y-14491598D02*
X10658859Y-14529693D01*
X10954098Y-14767789D02*
X10944574Y-14758265D01*
X10944574Y-14758265D02*
X10925526Y-14729693D01*
X10925526Y-14729693D02*
X10916002Y-14710646D01*
X10916002Y-14710646D02*
X10906479Y-14682074D01*
X10906479Y-14682074D02*
X10896955Y-14634455D01*
X10896955Y-14634455D02*
X10896955Y-14596360D01*
X10896955Y-14596360D02*
X10906479Y-14548741D01*
X10906479Y-14548741D02*
X10916002Y-14520170D01*
X10916002Y-14520170D02*
X10925526Y-14501122D01*
X10925526Y-14501122D02*
X10944574Y-14472551D01*
X10944574Y-14472551D02*
X10954098Y-14463027D01*
X11116002Y-14558265D02*
X11116002Y-14691598D01*
X11068383Y-14482074D02*
X11020764Y-14624932D01*
X11020764Y-14624932D02*
X11144574Y-14624932D01*
X11373145Y-14691598D02*
X11373145Y-14491598D01*
X11458859Y-14691598D02*
X11458859Y-14586836D01*
X11458859Y-14586836D02*
X11449336Y-14567789D01*
X11449336Y-14567789D02*
X11430288Y-14558265D01*
X11430288Y-14558265D02*
X11401717Y-14558265D01*
X11401717Y-14558265D02*
X11382669Y-14567789D01*
X11382669Y-14567789D02*
X11373145Y-14577312D01*
X11582669Y-14691598D02*
X11563621Y-14682074D01*
X11563621Y-14682074D02*
X11554098Y-14672551D01*
X11554098Y-14672551D02*
X11544574Y-14653503D01*
X11544574Y-14653503D02*
X11544574Y-14596360D01*
X11544574Y-14596360D02*
X11554098Y-14577312D01*
X11554098Y-14577312D02*
X11563621Y-14567789D01*
X11563621Y-14567789D02*
X11582669Y-14558265D01*
X11582669Y-14558265D02*
X11611240Y-14558265D01*
X11611240Y-14558265D02*
X11630288Y-14567789D01*
X11630288Y-14567789D02*
X11639812Y-14577312D01*
X11639812Y-14577312D02*
X11649336Y-14596360D01*
X11649336Y-14596360D02*
X11649336Y-14653503D01*
X11649336Y-14653503D02*
X11639812Y-14672551D01*
X11639812Y-14672551D02*
X11630288Y-14682074D01*
X11630288Y-14682074D02*
X11611240Y-14691598D01*
X11611240Y-14691598D02*
X11582669Y-14691598D01*
X11763621Y-14691598D02*
X11744574Y-14682074D01*
X11744574Y-14682074D02*
X11735050Y-14663027D01*
X11735050Y-14663027D02*
X11735050Y-14491598D01*
X11916002Y-14682074D02*
X11896955Y-14691598D01*
X11896955Y-14691598D02*
X11858859Y-14691598D01*
X11858859Y-14691598D02*
X11839812Y-14682074D01*
X11839812Y-14682074D02*
X11830288Y-14663027D01*
X11830288Y-14663027D02*
X11830288Y-14586836D01*
X11830288Y-14586836D02*
X11839812Y-14567789D01*
X11839812Y-14567789D02*
X11858859Y-14558265D01*
X11858859Y-14558265D02*
X11896955Y-14558265D01*
X11896955Y-14558265D02*
X11916002Y-14567789D01*
X11916002Y-14567789D02*
X11925526Y-14586836D01*
X11925526Y-14586836D02*
X11925526Y-14605884D01*
X11925526Y-14605884D02*
X11830288Y-14624932D01*
X12001717Y-14682074D02*
X12020764Y-14691598D01*
X12020764Y-14691598D02*
X12058859Y-14691598D01*
X12058859Y-14691598D02*
X12077907Y-14682074D01*
X12077907Y-14682074D02*
X12087431Y-14663027D01*
X12087431Y-14663027D02*
X12087431Y-14653503D01*
X12087431Y-14653503D02*
X12077907Y-14634455D01*
X12077907Y-14634455D02*
X12058859Y-14624932D01*
X12058859Y-14624932D02*
X12030288Y-14624932D01*
X12030288Y-14624932D02*
X12011240Y-14615408D01*
X12011240Y-14615408D02*
X12001717Y-14596360D01*
X12001717Y-14596360D02*
X12001717Y-14586836D01*
X12001717Y-14586836D02*
X12011240Y-14567789D01*
X12011240Y-14567789D02*
X12030288Y-14558265D01*
X12030288Y-14558265D02*
X12058859Y-14558265D01*
X12058859Y-14558265D02*
X12077907Y-14567789D01*
X12154098Y-14767789D02*
X12163621Y-14758265D01*
X12163621Y-14758265D02*
X12182669Y-14729693D01*
X12182669Y-14729693D02*
X12192193Y-14710646D01*
X12192193Y-14710646D02*
X12201717Y-14682074D01*
X12201717Y-14682074D02*
X12211240Y-14634455D01*
X12211240Y-14634455D02*
X12211240Y-14596360D01*
X12211240Y-14596360D02*
X12201717Y-14548741D01*
X12201717Y-14548741D02*
X12192193Y-14520170D01*
X12192193Y-14520170D02*
X12182669Y-14501122D01*
X12182669Y-14501122D02*
X12163621Y-14472551D01*
X12163621Y-14472551D02*
X12154098Y-14463027D01*
X12516002Y-14767789D02*
X12506479Y-14758265D01*
X12506479Y-14758265D02*
X12487431Y-14729693D01*
X12487431Y-14729693D02*
X12477907Y-14710646D01*
X12477907Y-14710646D02*
X12468383Y-14682074D01*
X12468383Y-14682074D02*
X12458860Y-14634455D01*
X12458860Y-14634455D02*
X12458860Y-14596360D01*
X12458860Y-14596360D02*
X12468383Y-14548741D01*
X12468383Y-14548741D02*
X12477907Y-14520170D01*
X12477907Y-14520170D02*
X12487431Y-14501122D01*
X12487431Y-14501122D02*
X12506479Y-14472551D01*
X12506479Y-14472551D02*
X12516002Y-14463027D01*
X12592193Y-14558265D02*
X12592193Y-14691598D01*
X12592193Y-14577312D02*
X12601717Y-14567789D01*
X12601717Y-14567789D02*
X12620764Y-14558265D01*
X12620764Y-14558265D02*
X12649336Y-14558265D01*
X12649336Y-14558265D02*
X12668383Y-14567789D01*
X12668383Y-14567789D02*
X12677907Y-14586836D01*
X12677907Y-14586836D02*
X12677907Y-14691598D01*
X12801717Y-14691598D02*
X12782669Y-14682074D01*
X12782669Y-14682074D02*
X12773145Y-14672551D01*
X12773145Y-14672551D02*
X12763621Y-14653503D01*
X12763621Y-14653503D02*
X12763621Y-14596360D01*
X12763621Y-14596360D02*
X12773145Y-14577312D01*
X12773145Y-14577312D02*
X12782669Y-14567789D01*
X12782669Y-14567789D02*
X12801717Y-14558265D01*
X12801717Y-14558265D02*
X12830288Y-14558265D01*
X12830288Y-14558265D02*
X12849336Y-14567789D01*
X12849336Y-14567789D02*
X12858860Y-14577312D01*
X12858860Y-14577312D02*
X12868383Y-14596360D01*
X12868383Y-14596360D02*
X12868383Y-14653503D01*
X12868383Y-14653503D02*
X12858860Y-14672551D01*
X12858860Y-14672551D02*
X12849336Y-14682074D01*
X12849336Y-14682074D02*
X12830288Y-14691598D01*
X12830288Y-14691598D02*
X12801717Y-14691598D01*
X12925526Y-14558265D02*
X13001717Y-14558265D01*
X12954098Y-14491598D02*
X12954098Y-14663027D01*
X12954098Y-14663027D02*
X12963621Y-14682074D01*
X12963621Y-14682074D02*
X12982669Y-14691598D01*
X12982669Y-14691598D02*
X13001717Y-14691598D01*
X13220764Y-14558265D02*
X13220764Y-14758265D01*
X13220764Y-14567789D02*
X13239812Y-14558265D01*
X13239812Y-14558265D02*
X13277907Y-14558265D01*
X13277907Y-14558265D02*
X13296955Y-14567789D01*
X13296955Y-14567789D02*
X13306479Y-14577312D01*
X13306479Y-14577312D02*
X13316002Y-14596360D01*
X13316002Y-14596360D02*
X13316002Y-14653503D01*
X13316002Y-14653503D02*
X13306479Y-14672551D01*
X13306479Y-14672551D02*
X13296955Y-14682074D01*
X13296955Y-14682074D02*
X13277907Y-14691598D01*
X13277907Y-14691598D02*
X13239812Y-14691598D01*
X13239812Y-14691598D02*
X13220764Y-14682074D01*
X13430288Y-14691598D02*
X13411241Y-14682074D01*
X13411241Y-14682074D02*
X13401717Y-14663027D01*
X13401717Y-14663027D02*
X13401717Y-14491598D01*
X13592193Y-14691598D02*
X13592193Y-14586836D01*
X13592193Y-14586836D02*
X13582669Y-14567789D01*
X13582669Y-14567789D02*
X13563622Y-14558265D01*
X13563622Y-14558265D02*
X13525526Y-14558265D01*
X13525526Y-14558265D02*
X13506479Y-14567789D01*
X13592193Y-14682074D02*
X13573145Y-14691598D01*
X13573145Y-14691598D02*
X13525526Y-14691598D01*
X13525526Y-14691598D02*
X13506479Y-14682074D01*
X13506479Y-14682074D02*
X13496955Y-14663027D01*
X13496955Y-14663027D02*
X13496955Y-14643979D01*
X13496955Y-14643979D02*
X13506479Y-14624932D01*
X13506479Y-14624932D02*
X13525526Y-14615408D01*
X13525526Y-14615408D02*
X13573145Y-14615408D01*
X13573145Y-14615408D02*
X13592193Y-14605884D01*
X13658860Y-14558265D02*
X13735050Y-14558265D01*
X13687431Y-14491598D02*
X13687431Y-14663027D01*
X13687431Y-14663027D02*
X13696955Y-14682074D01*
X13696955Y-14682074D02*
X13716002Y-14691598D01*
X13716002Y-14691598D02*
X13735050Y-14691598D01*
X13877907Y-14682074D02*
X13858860Y-14691598D01*
X13858860Y-14691598D02*
X13820764Y-14691598D01*
X13820764Y-14691598D02*
X13801717Y-14682074D01*
X13801717Y-14682074D02*
X13792193Y-14663027D01*
X13792193Y-14663027D02*
X13792193Y-14586836D01*
X13792193Y-14586836D02*
X13801717Y-14567789D01*
X13801717Y-14567789D02*
X13820764Y-14558265D01*
X13820764Y-14558265D02*
X13858860Y-14558265D01*
X13858860Y-14558265D02*
X13877907Y-14567789D01*
X13877907Y-14567789D02*
X13887431Y-14586836D01*
X13887431Y-14586836D02*
X13887431Y-14605884D01*
X13887431Y-14605884D02*
X13792193Y-14624932D01*
X14058860Y-14691598D02*
X14058860Y-14491598D01*
X14058860Y-14682074D02*
X14039812Y-14691598D01*
X14039812Y-14691598D02*
X14001717Y-14691598D01*
X14001717Y-14691598D02*
X13982669Y-14682074D01*
X13982669Y-14682074D02*
X13973145Y-14672551D01*
X13973145Y-14672551D02*
X13963622Y-14653503D01*
X13963622Y-14653503D02*
X13963622Y-14596360D01*
X13963622Y-14596360D02*
X13973145Y-14577312D01*
X13973145Y-14577312D02*
X13982669Y-14567789D01*
X13982669Y-14567789D02*
X14001717Y-14558265D01*
X14001717Y-14558265D02*
X14039812Y-14558265D01*
X14039812Y-14558265D02*
X14058860Y-14567789D01*
X14135050Y-14767789D02*
X14144574Y-14758265D01*
X14144574Y-14758265D02*
X14163622Y-14729693D01*
X14163622Y-14729693D02*
X14173145Y-14710646D01*
X14173145Y-14710646D02*
X14182669Y-14682074D01*
X14182669Y-14682074D02*
X14192193Y-14634455D01*
X14192193Y-14634455D02*
X14192193Y-14596360D01*
X14192193Y-14596360D02*
X14182669Y-14548741D01*
X14182669Y-14548741D02*
X14173145Y-14520170D01*
X14173145Y-14520170D02*
X14163622Y-14501122D01*
X14163622Y-14501122D02*
X14144574Y-14472551D01*
X14144574Y-14472551D02*
X14135050Y-14463027D01*
M02*
